<?xml version='1.0' encoding='UTF-8'?>
<svg xmlns="http://www.w3.org/2000/svg" xmlns:xlink="http://www.w3.org/1999/xlink" zoomAndPan="magnify" viewBox="0 0 375 374.999991" preserveAspectRatio="xMidYMid meet" version="1.0">
  <defs>
    <clipPath id="d18060cf5c">
      <path d="M 47.109375 0 L 327.609375 0 L 327.609375 375 L 47.109375 375 Z M 47.109375 0 " clip-rule="nonzero"/>
    </clipPath>
    <clipPath id="b7babed03b">
      <path d="M 63 16 L 312 16 L 312 346 L 63 346 Z M 63 16 " clip-rule="nonzero"/>
    </clipPath>
    <clipPath id="d2997e7a51">
      <path d="M 311.039062 345.730469 L 187.320312 270.910156 L 63.597656 345.730469 L 63.597656 16.511719 L 311.039062 16.511719 Z M 311.039062 345.730469 " clip-rule="nonzero"/>
    </clipPath>
    <linearGradient x1="250.00101" gradientTransform="matrix(0.832499, 0, 0, 0.833333, -20.806891, -20.833339)" y1="44.816011" x2="250.00101" gradientUnits="userSpaceOnUse" y2="439.878002" id="078f135204">
      <stop stop-opacity="1" stop-color="rgb(100%, 46.572876%, 14.898682%)" offset="0"/>
      <stop stop-opacity="1" stop-color="rgb(100%, 46.731567%, 14.898682%)" offset="0.03125"/>
      <stop stop-opacity="1" stop-color="rgb(100%, 47.04895%, 14.898682%)" offset="0.0625"/>
      <stop stop-opacity="1" stop-color="rgb(100%, 47.366333%, 14.898682%)" offset="0.09375"/>
      <stop stop-opacity="1" stop-color="rgb(100%, 47.685242%, 14.898682%)" offset="0.125"/>
      <stop stop-opacity="1" stop-color="rgb(100%, 48.002625%, 14.898682%)" offset="0.15625"/>
      <stop stop-opacity="1" stop-color="rgb(100%, 48.321533%, 14.898682%)" offset="0.1875"/>
      <stop stop-opacity="1" stop-color="rgb(100%, 48.638916%, 14.898682%)" offset="0.21875"/>
      <stop stop-opacity="1" stop-color="rgb(100%, 48.957825%, 14.898682%)" offset="0.25"/>
      <stop stop-opacity="1" stop-color="rgb(100%, 49.275208%, 14.898682%)" offset="0.28125"/>
      <stop stop-opacity="1" stop-color="rgb(100%, 49.594116%, 14.898682%)" offset="0.3125"/>
      <stop stop-opacity="1" stop-color="rgb(100%, 49.911499%, 14.898682%)" offset="0.34375"/>
      <stop stop-opacity="1" stop-color="rgb(100%, 50.228882%, 14.898682%)" offset="0.375"/>
      <stop stop-opacity="1" stop-color="rgb(100%, 50.547791%, 14.898682%)" offset="0.40625"/>
      <stop stop-opacity="1" stop-color="rgb(100%, 50.865173%, 14.898682%)" offset="0.4375"/>
      <stop stop-opacity="1" stop-color="rgb(100%, 51.184082%, 14.898682%)" offset="0.46875"/>
      <stop stop-opacity="1" stop-color="rgb(100%, 51.501465%, 14.898682%)" offset="0.5"/>
      <stop stop-opacity="1" stop-color="rgb(100%, 51.730347%, 14.898682%)" offset="1"/>
    </linearGradient>
  </defs>
  <g clip-path="url(#d18060cf5c)">
    <path fill="#fff0e3" d="M 187.320312 290.203125 L 47.101562 375 L 47.101562 0 L 327.535156 0 L 327.535156 375 Z M 187.320312 290.203125 " fill-opacity="1" fill-rule="nonzero"/>
  </g>
  <g clip-path="url(#b7babed03b)">
    <g clip-path="url(#d2997e7a51)">
      <path fill="url(#078f135204)" d="M 63.597656 16.511719 L 63.597656 345.730469 L 311.039062 345.730469 L 311.039062 16.511719 Z M 63.597656 16.511719 " fill-rule="nonzero"/>
    </g>
  </g>
  <path fill="#fff0e3" d="M 111.394531 130.300781 L 120.921875 130.300781 L 110.597656 161.816406 L 100.589844 161.816406 L 90.316406 130.300781 L 99.878906 130.300781 L 104.164062 146.277344 C 105.050781 149.828125 105.535156 152.296875 105.625 153.691406 C 105.722656 152.683594 105.921875 151.425781 106.234375 149.921875 C 106.535156 148.410156 106.796875 147.226562 107.019531 146.359375 Z M 111.394531 130.300781 " fill-opacity="1" fill-rule="nonzero"/>
  <path fill="#fff0e3" d="M 143.007812 161.816406 L 124.324219 161.816406 L 124.324219 130.300781 L 143.007812 130.300781 L 143.007812 137.128906 L 132.824219 137.128906 L 132.824219 142.089844 L 142.261719 142.089844 L 142.261719 148.929688 L 132.824219 148.929688 L 132.824219 154.875 L 143.007812 154.875 Z M 143.007812 161.816406 " fill-opacity="1" fill-rule="nonzero"/>
  <path fill="#fff0e3" d="M 157.03125 150.351562 L 157.03125 161.816406 L 148.53125 161.816406 L 148.53125 130.296875 L 158.839844 130.296875 C 167.40625 130.296875 171.679688 133.40625 171.679688 139.613281 C 171.679688 143.261719 169.898438 146.089844 166.34375 148.085938 L 175.519531 161.816406 L 165.871094 161.816406 L 159.1875 150.351562 Z M 157.03125 143.941406 L 158.628906 143.941406 C 161.59375 143.941406 163.089844 142.632812 163.089844 140 C 163.089844 137.828125 161.632812 136.746094 158.714844 136.746094 L 157.03125 136.746094 Z M 157.03125 143.941406 " fill-opacity="1" fill-rule="nonzero"/>
  <path fill="#fff0e3" d="M 198.96875 152.246094 C 198.96875 154.199219 198.480469 155.9375 197.484375 157.453125 C 196.5 158.96875 195.066406 160.148438 193.195312 160.988281 C 191.339844 161.832031 189.144531 162.25 186.628906 162.25 C 184.53125 162.25 182.777344 162.101562 181.355469 161.808594 C 179.933594 161.511719 178.449219 161.003906 176.914062 160.265625 L 176.914062 152.679688 C 178.535156 153.515625 180.230469 154.164062 181.976562 154.632812 C 183.734375 155.09375 185.34375 155.332031 186.800781 155.332031 C 188.074219 155.332031 188.996094 155.113281 189.582031 154.675781 C 190.167969 154.234375 190.464844 153.671875 190.464844 152.980469 C 190.464844 152.546875 190.339844 152.175781 190.105469 151.851562 C 189.867188 151.523438 189.492188 151.199219 188.96875 150.871094 C 188.449219 150.539062 187.050781 149.859375 184.78125 148.84375 C 182.726562 147.90625 181.191406 147.003906 180.15625 146.121094 C 179.132812 145.25 178.375 144.246094 177.875 143.109375 C 177.375 141.972656 177.140625 140.625 177.140625 139.074219 C 177.140625 136.171875 178.1875 133.90625 180.304688 132.285156 C 182.414062 130.660156 185.304688 129.851562 189.007812 129.851562 C 192.261719 129.851562 195.589844 130.597656 198.96875 132.109375 L 196.363281 138.6875 C 193.417969 137.335938 190.878906 136.65625 188.746094 136.65625 C 187.636719 136.65625 186.839844 136.859375 186.328125 137.246094 C 185.828125 137.628906 185.578125 138.109375 185.578125 138.683594 C 185.578125 139.304688 185.890625 139.859375 186.539062 140.34375 C 187.171875 140.835938 188.90625 141.722656 191.734375 143.019531 C 194.453125 144.246094 196.335938 145.554688 197.382812 146.953125 C 198.445312 148.355469 198.96875 150.121094 198.96875 152.246094 Z M 198.96875 152.246094 " fill-opacity="1" fill-rule="nonzero"/>
  <path fill="#fff0e3" d="M 203.84375 130.300781 L 212.394531 130.300781 L 212.394531 161.816406 L 203.84375 161.816406 Z M 203.84375 130.300781 " fill-opacity="1" fill-rule="nonzero"/>
  <path fill="#fff0e3" d="M 248.65625 146.015625 C 248.65625 151.316406 247.359375 155.347656 244.769531 158.113281 C 242.160156 160.871094 238.359375 162.25 233.347656 162.25 C 228.414062 162.25 224.621094 160.863281 221.980469 158.085938 C 219.347656 155.316406 218.027344 151.273438 218.027344 145.972656 C 218.027344 140.722656 219.351562 136.71875 221.96875 133.953125 C 224.585938 131.183594 228.386719 129.804688 233.386719 129.804688 C 238.398438 129.804688 242.199219 131.175781 244.78125 133.921875 C 247.375 136.667969 248.65625 140.699219 248.65625 146.015625 Z M 226.992188 146.015625 C 226.992188 152.109375 229.109375 155.15625 233.347656 155.15625 C 235.503906 155.15625 237.101562 154.417969 238.136719 152.933594 C 239.183594 151.453125 239.707031 149.148438 239.707031 146.015625 C 239.707031 142.871094 239.167969 140.542969 238.121094 139.039062 C 237.0625 137.542969 235.480469 136.789062 233.386719 136.789062 C 229.125 136.789062 226.992188 139.863281 226.992188 146.015625 Z M 226.992188 146.015625 " fill-opacity="1" fill-rule="nonzero"/>
  <path fill="#fff0e3" d="M 284.320312 161.816406 L 273.164062 161.816406 L 261.671875 139.613281 L 261.472656 139.613281 C 261.746094 143.109375 261.882812 145.773438 261.882812 147.613281 L 261.882812 161.816406 L 254.34375 161.816406 L 254.34375 130.300781 L 265.460938 130.300781 L 276.917969 152.203125 L 277.042969 152.203125 C 276.839844 149.027344 276.742188 146.476562 276.742188 144.546875 L 276.742188 130.296875 L 284.320312 130.296875 Z M 284.320312 161.816406 " fill-opacity="1" fill-rule="nonzero"/>
  <path fill="#fff0e3" d="M 90.316406 56.460938 L 108.191406 56.460938 C 116.339844 56.460938 122.25 57.621094 125.929688 59.941406 C 129.613281 62.261719 131.449219 65.949219 131.449219 71.011719 C 131.449219 74.445312 130.644531 77.261719 129.035156 79.464844 C 127.425781 81.667969 125.28125 82.992188 122.609375 83.4375 L 122.609375 83.832031 C 126.25 84.644531 128.878906 86.164062 130.488281 88.394531 C 132.097656 90.621094 132.902344 93.585938 132.902344 97.28125 C 132.902344 102.523438 131.011719 106.613281 127.226562 109.550781 C 123.441406 112.488281 118.304688 113.953125 111.804688 113.953125 L 90.316406 113.953125 Z M 102.496094 79.230469 L 109.566406 79.230469 C 112.867188 79.230469 115.257812 78.71875 116.738281 77.695312 C 118.21875 76.671875 118.957031 74.980469 118.957031 72.621094 C 118.957031 70.417969 118.152344 68.839844 116.542969 67.882812 C 114.929688 66.925781 112.382812 66.445312 108.902344 66.445312 L 102.496094 66.445312 Z M 102.496094 88.90625 L 102.496094 103.886719 L 110.429688 103.886719 C 113.785156 103.886719 116.261719 103.246094 117.855469 101.960938 C 119.457031 100.675781 120.253906 98.710938 120.253906 96.0625 C 120.253906 91.289062 116.847656 88.902344 110.039062 88.902344 L 102.496094 88.902344 Z M 102.496094 88.90625 " fill-opacity="1" fill-rule="nonzero"/>
  <path fill="#fff0e3" d="M 177.457031 113.957031 L 144.375 113.957031 L 144.375 56.460938 L 177.457031 56.460938 L 177.457031 66.449219 L 156.554688 66.449219 L 156.554688 79.070312 L 176.003906 79.070312 L 176.003906 89.0625 L 156.554688 89.0625 L 156.554688 103.886719 L 177.457031 103.886719 Z M 177.457031 113.957031 " fill-opacity="1" fill-rule="nonzero"/>
  <path fill="#fff0e3" d="M 211.597656 113.957031 L 199.417969 113.957031 L 199.417969 66.605469 L 183.820312 66.605469 L 183.820312 56.460938 L 227.195312 56.460938 L 227.195312 66.605469 L 211.597656 66.605469 Z M 211.597656 113.957031 " fill-opacity="1" fill-rule="nonzero"/>
  <path fill="#fff0e3" d="M 271.199219 113.957031 L 267.035156 100.269531 L 246.09375 100.269531 L 241.929688 113.957031 L 228.808594 113.957031 L 249.078125 56.222656 L 263.96875 56.222656 L 284.320312 113.957031 Z M 264.125 90.046875 C 260.277344 77.644531 258.109375 70.628906 257.625 69.003906 C 257.140625 67.378906 256.792969 66.09375 256.582031 65.148438 C 255.71875 68.507812 253.242188 76.804688 249.15625 90.046875 Z M 264.125 90.046875 " fill-opacity="1" fill-rule="nonzero"/>
</svg>
