<?xml version="1.0" encoding="UTF-8"?>
<svg id="Layer_1" data-name="Layer 1" xmlns="http://www.w3.org/2000/svg" viewBox="0 0 1024 768">
  <defs>
    <style>
      .cls-1 {
      fill: #c0c8cf;
      stroke-width: 0px;
      }
    </style>
  </defs>
  <path class="cls-1"
    d="M186.09,767.94c-4.42,0-8.83-1.23-11.29-3.59-3.69-3.48-1.85-8.01,4.11-10.25l378.61-140.03-462.02,152.88c-6.16,2.12-14.06.94-17.87-2.59-3.59-3.53-1.74-8.06,4.32-10.25l385.69-140.21L35.22,756.99c-6.18,2.12-14.08.88-17.88-2.59-3.69-3.53-1.84-8.06,4.22-10.31l477.82-174.6L19.8,728.2c-6.26,2.12-14.08.94-17.87-2.59-3.69-3.48-1.85-8.06,4.21-10.25l495.5-181.2L19.8,693.69c-6.26,2.06-14.27.88-17.87-2.71-3.69-3.53-1.76-8.13,4.42-10.25l208.19-73.55-194.74,64.48c-6.26,2.06-14.18.94-17.87-2.65-3.69-3.48-1.85-8.06,4.31-10.25l435.01-157.46L19.8,640.81c-6.26,2.06-14.18.88-17.87-2.65-3.69-3.53-1.76-8.07,4.31-10.25l339.89-121.55L19.8,614.42c-6.26,2.06-14.18.88-17.87-2.65-3.69-3.53-1.76-8.12,4.31-10.31l332.7-118.83L19.8,588.28c-6.26,2.12-14.27.88-17.97-2.65-3.59-3.53-1.66-8.13,4.52-10.25l97.98-34.4-84.54,28.03c-6.26,2.06-14.27.88-17.97-2.71-3.59-3.53-1.66-8.12,4.52-10.25l20.43-7.12-6.99,2.3c-6.26,2.06-14.27.88-17.87-2.65-3.69-3.53-1.85-8.06,4.31-10.25l334.14-119.48L19.8,525.03c-6.26,2.06-14.27.83-17.87-2.65-3.69-3.53-1.85-8.12,4.31-10.31l305.16-109L19.8,499.59c-6.26,2.06-14.27.88-17.87-2.65-3.69-3.48-1.85-8.06,4.31-10.25l265.74-94.74L19.8,475.38c-6.26,2.06-14.27.88-17.97-2.65-3.59-3.53-1.66-8.12,4.4-10.31l171.33-60.71-157.77,52.29c-6.26,2.06-14.18.88-17.87-2.65-3.69-3.53-1.85-8.13,4.31-10.31l277.64-99.76L19.8,428.74c-6.26,2-14.27.88-17.97-2.71-3.59-3.53-1.66-8.06,4.4-10.25l106.41-37.63-92.85,30.74c-6.26,2.06-14.27.88-17.87-2.65-3.69-3.53-1.76-8.13,4.31-10.31l129.73-46.05-116.17,38.45c-6.26,2.06-14.27.88-17.97-2.65-3.59-3.53-1.66-8.12,4.4-10.31l74.27-26.32-60.71,20.14c-6.26,2.06-14.18.88-17.87-2.64-3.69-3.48-1.85-8.07,4.21-10.25l258.12-93.75L19.8,343.47c-6.26,2.06-14.18.88-17.87-2.58-3.69-3.53-1.85-8.07,4.21-10.31l261.93-95.7L19.8,317.04c-6.26,2.12-14.27.88-17.87-2.59-3.69-3.53-1.85-8.13,4.31-10.31l42.84-15.26-29.28,9.72c-6.26,2.06-14.08.88-17.87-2.58-3.69-3.53-1.85-8.07,4.21-10.31l222.17-81.33L19.8,273.4c-6.26,2.06-14.08.94-17.87-2.59-3.69-3.48-1.85-8.01,4.11-10.25l247.14-91.57L19.8,246.25c-6.26,2.12-14.18.88-17.87-2.59-3.69-3.53-1.85-8.06,4.21-10.31l89.87-32.56-76.21,25.27c-6.26,1.99-14.08.88-17.77-2.59-3.79-3.42-2.05-7.95,3.81-10.25l223.29-85.68L19.8,196.85c-6.06,2.06-13.96.94-17.77-2.54-3.69-3.42-2.15-7.89,3.69-10.19l192.81-76.31L19.8,166.98c-6.06,2.06-13.96.95-17.67-2.47-3.79-3.35-2.25-7.89,3.49-10.18l133.22-53.48-119.05,39.46c-6.06,2.06-13.96.94-17.77-2.54-3.69-3.35-2.15-7.88,3.69-10.18l50.95-20.19-36.88,12.24c-5.96,1.95-13.66.94-17.57-2.36-3.79-3.24-2.57-7.71,2.78-10.13l88.94-40.05-74.15,24.61c-5.75,1.95-13.25,1.01-17.26-2.12-4.01-3.06-3.18-7.42,1.76-10.01l58.54-30.44-43.04,14.26c-5.23,1.7-11.81,1.23-16.03-1.24-4.11-2.41-4.92-6.18-1.94-9.13l25.25-24.43c-6.26,1.82-14.06.65-17.55-2.89-3.59-3.66-1.44-8.25,4.82-10.31L57.29,1.21c5.13-1.77,11.71-1.23,15.91,1.23,4.22,2.41,5.03,6.18,1.95,9.13l-25.15,24.38L155.59,1.03c5.75-1.94,13.25-1,17.16,2.06,4.01,3.13,3.18,7.42-1.76,10.07l-58.54,30.44L241.16,1.03c5.96-2,13.66-1,17.45,2.3,3.91,3.3,2.68,7.71-2.77,10.13l-88.84,39.99L325.48,1.03c6.06-2.06,13.88-.94,17.67,2.48,3.69,3.41,2.15,7.95-3.69,10.24l-50.86,20.15L387.93,1.03c6.06-2.06,13.88-.94,17.67,2.48,3.71,3.35,2.17,7.88-3.59,10.24l-133.22,53.41L468.55,1.03c6.18-2.06,13.98-.94,17.79,2.48,3.69,3.41,2.05,7.95-3.71,10.24l-192.89,76.32L558.74,1.03c6.18-2.06,13.98-.94,17.77,2.54,3.71,3.41,1.95,7.95-3.89,10.25l-223.31,85.74L646.97,1.03c6.18-2.06,14.08-.88,17.79,2.59,3.69,3.53,1.84,8.06-4.22,10.31l-90.07,32.62,123.35-40.81c6.26-2.06,14.08-.94,17.87,2.59,3.69,3.48,1.85,8.01-4.11,10.25l-247.14,91.57L726.18,22.24c6.16-2.06,14.08-.88,17.77,2.59,3.69,3.48,1.84,8.06-4.22,10.25l-222.17,81.32,236.46-78.21c6.16-2.12,14.06-.88,17.77,2.65,3.69,3.53,1.84,8.13-4.32,10.25l-42.31,15.07,49.2-16.31c6.26-2.06,14.18-.88,17.87,2.65,3.69,3.47,1.85,8.01-4.21,10.24l-262.24,95.82,277.86-91.93c6.26-2.05,14.06-.87,17.77,2.59,3.69,3.53,1.84,8.07-4.22,10.25l-258.02,93.75,272.92-90.28c6.16-2.12,14.18-.94,17.87,2.65,3.59,3.53,1.64,8.12-4.42,10.31l-74.67,26.44,82.37-27.26c6.28-2.06,14.18-.88,17.88,2.65,3.59,3.53,1.64,8.06-4.42,10.25l-129.63,46.11,138.87-45.99c6.28-2.06,14.18-.88,17.87,2.65,3.71,3.53,1.76,8.12-4.4,10.31l-106.41,37.63,114.83-38.04c6.28-1.99,14.18-.82,17.88,2.65,3.69,3.53,1.74,8.13-4.22,10.31l-277.43,99.7,291.7-96.63c6.28-2.06,14.18-.88,17.88,2.71,3.69,3.53,1.74,8.06-4.32,10.25l-172.04,60.95,182.21-60.3c6.16-2.12,14.08-.88,17.88,2.65,3.69,3.53,1.74,8.12-4.32,10.24l-265.42,94.7,278.67-92.22c6.16-2.12,14.18-.88,17.87,2.65,3.61,3.48,1.76,8.06-4.4,10.25l-305.28,109.06,315.96-104.58c6.26-2.06,14.08-.88,17.87,2.65,3.69,3.53,1.76,8.12-4.31,10.31l-334.24,119.42,324.47-107.41c6.28-2.12,14.27-.88,17.88,2.71,3.69,3.53,1.74,8.13-4.42,10.25l-19.72,6.9,6.26-2.06c6.28-2.13,14.27-.88,17.88,2.65,3.69,3.52,1.74,8.12-4.42,10.24l-97.98,34.4,84.52-28.03c6.28-2.06,14.18-.88,17.88,2.65,3.69,3.53,1.74,8.12-4.32,10.31l-332.9,118.89,319.34-105.7c6.28-2.12,14.18-.88,17.88,2.65,3.69,3.48,1.74,8.07-4.32,10.25l-339.89,121.49,326.33-108c6.28-2.06,14.18-.88,17.88,2.65,3.69,3.47,1.84,8.06-4.32,10.24l-435.21,157.53,421.65-139.57c6.28-2.06,14.27-.88,17.98,2.65,3.59,3.53,1.64,8.13-4.52,10.31l-207.59,73.32,194.13-64.31c6.28-2.06,14.18-.88,17.88,2.65,3.69,3.47,1.84,8.01-4.22,10.24l-495.39,181.2,481.72-159.53c6.28-2.06,14.18-.88,17.88,2.59,3.69,3.53,1.84,8.12-4.22,10.3l-477.93,174.72,464.27-153.69c6.28-2.06,14.18-.88,17.88,2.58,3.69,3.53,1.84,8.07-4.22,10.25l-385.69,140.21,372.03-123.14c6.28-2.12,14.18-.94,17.88,2.59,3.69,3.48,1.84,8.06-4.12,10.25l-378.49,140.03,364.73-120.72c6.28-2.06,14.18-.94,17.88,2.59,3.69,3.53,1.84,8.06-4.22,10.24l-215.69,78.44,202.03-66.89c6.16-2.06,14.08-.95,17.77,2.58,3.81,3.42,2.05,7.95-3.89,10.25l-307.43,117.3,293.56-97.22c6.28-2,14.08-.88,17.77,2.54,3.71,3.47,2.05,8.01-3.79,10.24l-250.32,97.11,236.34-78.21c6.16-2.06,13.98-.94,17.77,2.42,3.71,3.41,2.17,7.94-3.59,10.24l-209.02,83.69,194.84-64.49c6.28-2.06,13.98-.94,17.77,2.48,3.71,3.41,2.17,7.95-3.69,10.18l-115.36,45.64,101.28-33.51c6.06-1.99,13.76-.94,17.67,2.41,3.81,3.42,2.27,7.89-3.39,10.25l-95.62,39.46,81.34-26.98c5.96-1.99,13.56-.94,17.47,2.3,3.89,3.24,2.77,7.66-2.57,10.14l-89.06,41.16,74.15-24.61c5.96-1.95,13.56-1.01,17.47,2.23,3.89,3.24,2.77,7.66-2.57,10.14l-29.89,14.01,14.99-4.95c5.45-1.82,12.44-1.18,16.54,1.53,4.11,2.77,4.31,6.77.41,9.6l-28.96,21.26,8.51-2.83c6.28-2.12,14.39-.82,17.98,2.77,3.59,3.59,1.44,8.18-4.84,10.24l-67.17,22.27c-5.45,1.82-12.32,1.18-16.54-1.6-4.11-2.71-4.31-6.71-.41-9.54l28.98-21.26-97.9,32.39c-5.85,2-13.45,1-17.35-2.24-3.91-3.24-2.77-7.66,2.47-10.13l29.99-14.01-79.7,26.38c-5.86,2-13.56,1-17.35-2.3-4.01-3.24-2.78-7.66,2.57-10.07l89.04-41.16-161.87,53.53c-6.06,2-13.76.94-17.57-2.41-3.79-3.36-2.35-7.89,3.39-10.25l95.63-39.39-157.37,52.05c-6.06,2.06-13.96.94-17.77-2.47-3.69-3.42-2.05-7.95,3.71-10.25l115.55-45.7-176.58,58.42c-6.06,2.06-13.86.94-17.67-2.47-3.79-3.42-2.15-7.89,3.59-10.19l208.94-83.68-290.99,96.34c-6.18,2.06-13.98.94-17.79-2.54-3.69-3.41-2.05-7.95,3.81-10.24l250.32-97.05-331.88,109.83c-6.26,2.06-14.08.94-17.77-2.54-3.81-3.47-2.05-8.01,3.79-10.24l307.75-117.43-393.41,130.2c-6.16,2.12-14.06.94-17.77-2.59-3.69-3.53-1.84-8.06,4.22-10.25l215.28-78.32-275.37,91.16c-2.15.7-4.42,1-6.57,1" />
</svg>