<svg xmlns="http://www.w3.org/2000/svg" xmlns:xlink="http://www.w3.org/1999/xlink"
    zoomAndPan="magnify" viewBox="0 0 375 374.999991" preserveAspectRatio="xMidYMid meet"
    version="1.0">
    <defs>
        <clipPath id="970d76a8f5">
            <path d="M 0 0.46875 L 375 0.46875 L 375 374.71875 L 0 374.71875 Z M 0 0.46875 "
                clip-rule="nonzero" />
        </clipPath>
    </defs>
    <g clip-path="url(#970d76a8f5)">
        <path fill="#100f0d"
            d="M 362.230469 228.667969 L 327.589844 235.242188 C 324.605469 251.238281 318.363281 266.078125 309.507812 279.007812 L 329.335938 308.132812 L 308.535156 328.941406 L 279.425781 309.109375 C 266.496094 317.972656 251.664062 324.207031 235.679688 327.203125 L 229.105469 361.855469 L 199.695312 361.855469 L 193.117188 327.203125 C 177.132812 324.207031 162.304688 317.972656 149.375 309.109375 L 120.265625 328.941406 L 99.464844 308.132812 L 119.285156 279.007812 C 110.429688 266.078125 104.195312 251.238281 101.207031 235.242188 L 66.566406 228.667969 L 66.566406 199.234375 L 101.207031 192.660156 C 104.195312 176.664062 110.429688 161.828125 119.285156 148.890625 L 99.464844 119.769531 L 120.265625 98.960938 L 149.375 118.792969 C 162.304688 109.929688 177.132812 103.691406 193.117188 100.703125 L 199.695312 66.042969 L 229.105469 66.042969 L 235.679688 100.703125 C 251.664062 103.691406 266.496094 109.929688 279.425781 118.792969 L 308.535156 98.960938 L 329.335938 119.769531 L 309.507812 148.890625 C 318.363281 161.828125 324.605469 176.664062 327.589844 192.660156 L 362.230469 199.234375 Z M 88.960938 126.925781 L 101.125 144.792969 C 82.992188 142.03125 69.007812 126.46875 69.007812 107.570312 C 69.007812 86.726562 85.960938 69.765625 106.792969 69.765625 C 124.855469 69.765625 139.96875 82.542969 143.671875 99.523438 L 127.421875 88.449219 C 125.242188 86.96875 122.75 86.242188 120.269531 86.242188 C 116.988281 86.242188 113.738281 87.511719 111.277344 89.96875 L 90.480469 110.777344 C 86.164062 115.097656 85.527344 121.875 88.960938 126.925781 Z M 59.023438 166.972656 L 43.59375 177.484375 L 36.902344 170.792969 L 47.410156 155.351562 C 48.882812 153.191406 48.878906 150.34375 47.402344 148.183594 C 41.761719 139.945312 37.964844 130.757812 36.121094 120.867188 C 35.636719 118.289062 33.625 116.269531 31.058594 115.789062 L 12.683594 112.304688 L 12.683594 102.832031 L 31.058594 99.351562 C 33.625 98.863281 35.636719 96.847656 36.121094 94.269531 C 37.964844 84.371094 41.761719 75.179688 47.402344 66.949219 C 48.878906 64.789062 48.882812 61.9375 47.410156 59.777344 L 36.902344 44.335938 L 43.59375 37.644531 L 59.023438 48.15625 C 61.179688 49.640625 64.023438 49.621094 66.191406 48.148438 C 74.425781 42.507812 83.617188 38.707031 93.5 36.863281 C 96.074219 36.378906 98.09375 34.367188 98.574219 31.792969 L 102.054688 13.414062 L 111.519531 13.414062 L 115.007812 31.792969 C 115.496094 34.367188 117.507812 36.378906 120.082031 36.863281 C 129.96875 38.707031 139.152344 42.507812 147.386719 48.148438 C 149.558594 49.625 152.394531 49.644531 154.554688 48.15625 L 169.984375 37.644531 L 176.671875 44.335938 L 166.175781 59.777344 C 164.699219 61.9375 164.707031 64.78125 166.183594 66.941406 C 171.359375 74.515625 174.902344 82.914062 176.890625 91.882812 C 169.808594 94.042969 163 96.835938 156.429688 100.183594 C 152.820312 75.855469 132.097656 57.050781 106.792969 57.050781 C 78.949219 57.050781 56.300781 79.710938 56.300781 107.570312 C 56.300781 133.089844 75.390625 153.992188 99.992188 157.355469 C 96.726562 163.960938 93.972656 170.78125 91.898438 177.890625 C 82.636719 175.945312 73.980469 172.320312 66.191406 166.980469 C 64.03125 165.515625 61.183594 165.496094 59.023438 166.972656 Z M 364.601562 186.742188 L 338.175781 181.726562 C 335.210938 170.234375 330.710938 159.324219 324.714844 149.140625 L 339.835938 126.925781 C 343.269531 121.875 342.632812 115.097656 338.316406 110.777344 L 317.519531 89.96875 C 315.0625 87.511719 311.808594 86.242188 308.527344 86.242188 C 306.050781 86.242188 303.554688 86.96875 301.378906 88.449219 L 279.179688 103.578125 C 269 97.585938 258.09375 93.078125 246.605469 90.113281 L 241.589844 63.675781 C 240.453125 57.671875 235.210938 53.328125 229.105469 53.328125 L 199.695312 53.328125 C 193.589844 53.328125 188.34375 57.671875 187.207031 63.671875 L 185.015625 75.214844 C 183.34375 71.152344 181.355469 67.21875 179.050781 63.445312 L 190.140625 47.144531 C 191.859375 44.621094 191.542969 41.230469 189.382812 39.070312 L 175.253906 24.929688 C 173.089844 22.777344 169.703125 22.4375 167.1875 24.171875 L 150.890625 35.273438 C 143.394531 30.683594 135.289062 27.339844 126.703125 25.277344 L 123.023438 5.867188 C 122.453125 2.871094 119.835938 0.699219 116.78125 0.699219 L 96.792969 0.699219 C 93.742188 0.699219 91.121094 2.871094 90.550781 5.867188 L 86.878906 25.277344 C 78.292969 27.332031 70.1875 30.683594 62.691406 35.273438 L 46.394531 24.171875 C 43.878906 22.445312 40.492188 22.777344 38.332031 24.929688 L 24.195312 39.070312 C 22.035156 41.230469 21.71875 44.621094 23.4375 47.144531 L 34.53125 63.445312 C 29.945312 70.9375 26.601562 79.046875 24.542969 87.644531 L 5.144531 91.320312 C 2.148438 91.890625 -0.0234375 94.511719 -0.0234375 97.566406 L -0.0234375 117.570312 C -0.0234375 120.625 2.148438 123.242188 5.144531 123.8125 L 24.542969 127.488281 C 26.601562 136.082031 29.945312 144.191406 34.53125 151.691406 L 23.4375 167.996094 C 21.71875 170.515625 22.035156 173.902344 24.195312 176.0625 L 38.332031 190.199219 C 40.492188 192.367188 43.871094 192.691406 46.394531 190.960938 L 62.691406 179.855469 C 65.980469 181.871094 69.414062 183.582031 72.9375 185.085938 L 64.199219 186.742188 C 58.199219 187.882812 53.855469 193.125 53.855469 199.234375 L 53.855469 228.667969 C 53.855469 234.773438 58.199219 240.019531 64.199219 241.160156 L 90.625 246.171875 C 93.582031 257.671875 98.089844 268.574219 104.082031 278.761719 L 88.960938 300.972656 C 85.527344 306.023438 86.164062 312.800781 90.480469 317.121094 L 111.277344 337.929688 C 113.738281 340.390625 116.988281 341.65625 120.269531 341.65625 C 122.75 341.65625 125.242188 340.933594 127.417969 339.449219 L 149.621094 324.324219 C 159.800781 330.320312 170.703125 334.824219 182.191406 337.789062 L 187.207031 364.226562 C 188.34375 370.230469 193.589844 374.570312 199.695312 374.570312 L 229.105469 374.570312 C 235.210938 374.570312 240.453125 370.230469 241.589844 364.226562 L 246.605469 337.789062 C 258.09375 334.824219 268.996094 330.320312 279.179688 324.324219 L 301.382812 339.449219 C 303.554688 340.933594 306.050781 341.65625 308.527344 341.65625 C 311.808594 341.65625 315.0625 340.390625 317.519531 337.929688 L 338.316406 317.121094 C 342.632812 312.800781 343.269531 306.023438 339.835938 300.972656 L 324.714844 278.761719 C 330.710938 268.578125 335.210938 257.671875 338.175781 246.171875 L 364.601562 241.160156 C 370.597656 240.019531 374.941406 234.773438 374.941406 228.667969 L 374.941406 199.234375 C 374.941406 193.125 370.597656 187.882812 364.601562 186.742188 "
            fill-opacity="1" fill-rule="nonzero" />
    </g>
    <path fill="#100f0d"
        d="M 214.402344 281.851562 C 176.976562 281.851562 146.527344 251.394531 146.527344 213.953125 C 146.527344 176.511719 176.976562 146.046875 214.402344 146.046875 C 251.824219 146.046875 282.265625 176.511719 282.265625 213.953125 C 282.265625 251.394531 251.824219 281.851562 214.402344 281.851562 Z M 214.402344 133.332031 C 169.96875 133.332031 133.820312 169.496094 133.820312 213.953125 C 133.820312 258.40625 169.96875 294.566406 214.402344 294.566406 C 258.828125 294.566406 294.976562 258.40625 294.976562 213.953125 C 294.976562 169.496094 258.828125 133.332031 214.402344 133.332031 "
        fill-opacity="1" fill-rule="nonzero" />
</svg>