<?xml version="1.0" encoding="UTF-8"?>
<svg id="Layer_2" data-name="Layer 2" xmlns="http://www.w3.org/2000/svg" xmlns:xlink="http://www.w3.org/1999/xlink" viewBox="0 0 422.67 483.82">
  <defs>
    <style>
      .cls-1 {
        clip-path: url(#clippath);
      }

      .cls-2 {
        fill: none;
      }

      .cls-2, .cls-3, .cls-4 {
        stroke-width: 0px;
      }

      .cls-3 {
        fill: #ff3363;
      }

      .cls-4 {
        fill: #fff;
      }
    </style>
    <clipPath id="clippath">
      <rect class="cls-2" width="422.67" height="483.82"/>
    </clipPath>
  </defs>
  <g id="Layer_1-2" data-name="Layer 1">
    <g class="cls-1">
      <path class="cls-3" d="M421.36,203.47c-1.74-83.14-57.91-161.24-136.16-189.76C207.93-16.06,115.06,5.2,58.79,65.52,22.09,104.19.89,154.27.69,210.43c-9.3,140.56,127.73,223.98,242.09,273.28v-65.64c103.33-14.21,183.61-110.49,178.57-214.6Z"/>
    </g>
    <path class="cls-4" d="M210.73,289.79c-9.1,0-16.95,3.39-23.63,9.96-6.68,6.67-9.97,14.69-9.97,23.97s3.39,17.3,9.97,23.97c6.68,6.67,14.53,9.95,23.63,9.95s17.33-3.38,24.02-9.95c6.68-6.67,9.97-14.69,9.97-23.97s-3.39-17.3-9.97-23.97c-6.68-6.57-14.72-9.96-24.02-9.96Z"/>
    <path class="cls-4" d="M180.04,91.53c-5.91,0-10.75,4.83-10.75,10.73.1,9.96.19,23.4.58,27.26l12.01,124.13c.48,5.51,5.14,9.67,10.65,9.67h36.8c5.52,0,10.17-4.16,10.65-9.67l12.01-124.03c.39-3.87.48-17.3.58-27.26,0-5.9-4.74-10.73-10.75-10.73h-61.78v-.1Z"/>
  </g>
</svg>