<?xml version='1.0' encoding='UTF-8'?>
<svg xmlns="http://www.w3.org/2000/svg" xmlns:xlink="http://www.w3.org/1999/xlink" zoomAndPan="magnify" viewBox="0 0 768 767.999994" preserveAspectRatio="xMidYMid meet" version="1.0">
  <defs>
    <clipPath id="6c8c7dece3">
      <path d="M 1 90 L 764 90 L 764 688.949219 L 1 688.949219 Z M 1 90 " clip-rule="nonzero"/>
    </clipPath>
  </defs>
  <g clip-path="url(#6c8c7dece3)">
    <path fill="#000000" d="M 708.546875 305.546875 C 716.015625 264.683594 693.761719 232.359375 665.101562 216.957031 C 652.753906 210.402344 638.121094 206.4375 623.027344 206.285156 C 612.355469 175.636719 589.949219 148.800781 561.746094 133.09375 C 537.8125 119.828125 511.289062 115.863281 486.59375 121.808594 C 421.5 79.421875 286.589844 81.097656 236.589844 119.675781 C 225.003906 128.519531 217.992188 139.191406 215.550781 150.933594 C 188.722656 147.882812 160.367188 149.5625 136.28125 155.507812 C 100.152344 164.503906 74.238281 183.105469 61.433594 209.179688 C 57.011719 218.023438 54.421875 227.324219 53.355469 236.628906 C 22.410156 240.746094 2.742188 264.53125 1.371094 300.667969 C 0 334.214844 14.632812 370.65625 40.246094 392.308594 C 39.023438 429.667969 50.914062 461.230469 74.542969 483.796875 C 96.039062 504.230469 125.308594 515.054688 158.082031 515.054688 C 160.824219 515.054688 163.722656 514.902344 166.464844 514.75 C 167.992188 522.070312 170.429688 528.015625 173.019531 532.742188 C 192.230469 569.335938 240.246094 587.941406 282.472656 587.941406 C 286.589844 587.941406 290.554688 587.789062 294.515625 587.332031 C 348.9375 612.183594 391.011719 644.816406 419.671875 684.460938 C 421.652344 687.203125 424.855469 688.730469 428.054688 688.730469 C 428.816406 688.730469 429.425781 688.730469 430.191406 688.578125 L 496.808594 674.546875 C 501.835938 673.480469 505.34375 669.058594 505.039062 663.875 C 504.277344 646.339844 498.789062 615.996094 491.015625 593.429688 C 505.648438 596.480469 520.738281 598.003906 535.832031 598.003906 C 548.332031 598.003906 560.679688 596.9375 572.722656 594.953125 C 632.023438 584.738281 670.132812 551.648438 674.859375 507.582031 C 679.585938 506.820312 684.003906 505.601562 688.121094 503.925781 C 732.785156 485.167969 738.121094 461.992188 736.292969 447.8125 C 750.773438 441.101562 760.074219 428.902344 762.664062 412.589844 C 768 379.347656 743.152344 331.011719 708.546875 305.546875 Z M 483.695312 656.25 L 432.628906 666.925781 C 406.410156 632.617188 370.890625 603.492188 326.683594 580.011719 C 349.242188 571.015625 365.097656 554.699219 371.652344 533.199219 C 379.425781 532.742188 387.203125 531.21875 394.824219 529.082031 C 408.085938 556.375 434.304688 575.4375 465.859375 586.566406 C 473.179688 600.597656 481.257812 633.835938 483.695312 656.25 Z M 569.214844 574.675781 C 558.546875 576.503906 547.570312 577.417969 536.289062 577.417969 C 485.832031 577.417969 433.695312 558.816406 414.335938 521.765625 C 422.566406 517.953125 430.191406 513.378906 437.050781 508.5 C 454.125 515.359375 473.332031 519.019531 492.539062 519.019531 C 527.601562 519.019531 562.355469 506.972656 583.394531 481.050781 C 603.972656 496.148438 630.191406 506.363281 653.667969 508.347656 C 646.960938 557.292969 588.117188 571.320312 569.214844 574.675781 Z M 742.085938 409.539062 C 740.714844 418.535156 736.140625 424.941406 728.367188 428.75 C 719.980469 417.164062 705.804688 407.40625 689.035156 400.847656 C 688.578125 369.894531 674.097656 332.535156 641.472656 316.527344 C 636.289062 313.933594 630.039062 316.070312 627.601562 321.253906 C 625.011719 326.4375 627.144531 332.6875 632.328125 335.128906 C 655.039062 346.261719 666.015625 371.722656 668 394.75 C 657.9375 392.765625 647.570312 392.003906 637.207031 392.765625 C 631.414062 393.070312 627.144531 398.101562 627.449219 403.898438 C 627.753906 409.691406 632.785156 413.960938 638.578125 413.65625 C 651.535156 412.894531 664.339844 414.722656 675.621094 418.230469 C 675.773438 418.230469 675.773438 418.230469 675.925781 418.382812 C 694.980469 424.328125 709.765625 435.003906 714.492188 445.675781 C 714.492188 445.675781 714.492188 445.828125 714.492188 445.828125 C 714.949219 446.898438 715.253906 447.964844 715.558594 449.03125 C 718.457031 461.230469 705.5 474.34375 680.195312 485.015625 C 675.925781 486.847656 670.894531 487.761719 665.40625 488.066406 C 665.253906 488.066406 665.101562 488.066406 664.949219 488.066406 C 664.796875 488.066406 664.644531 488.066406 664.339844 488.066406 C 634.765625 488.980469 592.386719 469.160156 575.3125 443.695312 C 563.882812 426.769531 565.558594 411.367188 580.34375 396.425781 C 584.460938 392.308594 584.308594 385.753906 580.34375 381.636719 C 576.230469 377.519531 569.671875 377.671875 565.558594 381.636719 C 543.910156 403.441406 541.320312 430.277344 558.089844 455.128906 C 560.984375 459.398438 564.1875 463.363281 567.84375 467.175781 C 543.910156 497.367188 494.367188 504.230469 455.191406 492.488281 C 455.648438 491.878906 456.257812 491.421875 456.714844 490.8125 C 460.527344 486.542969 460.066406 479.832031 455.800781 476.171875 C 451.53125 472.511719 444.824219 472.816406 441.164062 477.085938 C 431.5625 488.066406 415.402344 499.351562 397.566406 506.210938 C 397.566406 506.210938 397.414062 506.210938 397.414062 506.210938 C 397.414062 506.210938 397.261719 506.210938 397.261719 506.210938 C 386.742188 510.175781 375.617188 512.460938 364.945312 512.308594 C 349.089844 512.003906 336.589844 506.210938 327.445312 494.925781 C 323.785156 490.503906 317.230469 489.742188 312.808594 493.402344 C 308.390625 497.0625 307.625 503.617188 311.285156 508.039062 C 321.347656 520.390625 334.609375 528.472656 350.308594 531.523438 C 340.25 555.765625 314.792969 563.390625 299.242188 565.679688 C 255.796875 572.234375 207.472656 553.023438 191.617188 522.832031 C 178.964844 498.738281 187.503906 469.617188 216.464844 438.511719 C 248.328125 404.203125 400.007812 311.800781 481.105469 309.664062 C 486.898438 309.511719 491.472656 304.785156 491.320312 298.992188 C 491.167969 293.195312 486.441406 288.621094 480.648438 288.773438 C 453.816406 289.539062 421.957031 298.6875 392.382812 310.273438 C 383.847656 284.660156 388.117188 254.164062 413.574219 241.203125 C 418.757812 238.609375 420.738281 232.359375 418.148438 227.171875 C 415.554688 221.988281 409.304688 220.007812 404.121094 222.597656 C 367.535156 241.203125 361.132812 283.589844 373.023438 318.203125 C 353.054688 326.742188 335.066406 335.890625 321.5 343.058594 C 292.6875 358.304688 264.636719 375.382812 242.078125 391.089844 C 242.535156 375.078125 249.089844 358.457031 255.949219 341.226562 C 266.46875 314.695312 278.054688 285.117188 267.992188 254.011719 C 287.808594 252.484375 307.320312 249.894531 323.328125 241.203125 C 347.109375 228.394531 358.085938 205.214844 357.019531 170.453125 C 356.867188 164.65625 352.140625 160.234375 346.195312 160.386719 C 340.402344 160.539062 335.980469 165.417969 336.132812 171.214844 C 337.960938 226.105469 305.796875 230.832031 253.050781 234.1875 C 217.078125 236.476562 176.375 238.914062 164.789062 276.425781 C 163.113281 281.914062 166.160156 287.707031 171.648438 289.539062 C 172.714844 289.84375 173.78125 289.996094 174.699219 289.996094 C 179.117188 289.996094 183.234375 287.097656 184.605469 282.675781 C 191.007812 262.089844 212.199219 257.972656 246.191406 255.6875 C 257.167969 281.609375 247.109375 306.921875 236.4375 333.757812 C 227.289062 356.933594 217.839844 380.871094 222.105469 405.878906 C 213.265625 412.742188 206.101562 419.144531 201.070312 424.480469 C 176.070312 451.320312 166.921875 474.800781 165.398438 493.859375 C 135.0625 495.539062 108.082031 486.695312 89.027344 468.546875 C 72.410156 452.84375 62.957031 431.191406 61.28125 405.421875 C 68.902344 408.777344 77.289062 410.910156 86.128906 411.675781 C 86.433594 411.675781 86.738281 411.675781 87.042969 411.675781 C 92.378906 411.675781 96.953125 407.558594 97.410156 402.066406 C 97.867188 396.273438 93.597656 391.242188 87.804688 390.785156 C 47.257812 387.582031 20.730469 341.074219 22.257812 301.429688 C 22.714844 289.234375 26.980469 262.703125 53.8125 257.667969 C 55.03125 266.054688 57.773438 274.441406 61.738281 282.21875 C 71.800781 301.582031 89.179688 315.15625 110.0625 320.492188 C 116.921875 349.765625 136.128906 375.230469 170.277344 380.566406 C 170.886719 380.71875 171.34375 380.71875 171.953125 380.71875 C 176.984375 380.71875 181.40625 377.0625 182.167969 371.875 C 183.082031 366.234375 179.117188 360.898438 173.476562 359.984375 C 140.246094 354.800781 126.679688 321.253906 128.050781 290.300781 C 128.355469 284.507812 123.78125 279.625 118.140625 279.472656 C 112.347656 279.167969 107.472656 283.742188 107.320312 289.386719 C 107.167969 292.128906 107.167969 294.875 107.320312 297.464844 C 95.886719 292.585938 86.28125 283.894531 80.488281 272.460938 C 76.21875 264.226562 74.085938 255.382812 73.933594 246.386719 C 73.933594 246.386719 73.933594 246.234375 73.933594 246.234375 C 73.933594 246.082031 73.933594 246.082031 73.933594 245.929688 C 73.933594 236.628906 76.066406 227.171875 80.488281 218.328125 C 103.660156 171.0625 175.613281 167.097656 216.3125 171.976562 C 217.992188 179.140625 221.039062 186.613281 225.613281 194.238281 C 228.660156 199.117188 235.066406 200.640625 239.941406 197.59375 C 244.820312 194.542969 246.34375 188.140625 243.296875 183.257812 C 238.570312 175.636719 236.132812 168.773438 235.675781 162.371094 C 235.675781 162.21875 235.675781 162.21875 235.675781 162.066406 C 235.066406 152.152344 239.636719 143.613281 249.546875 135.992188 C 272.261719 118.609375 319.972656 109 371.042969 111.59375 C 423.789062 114.339844 469.214844 129.28125 489.488281 150.628906 C 508.695312 170.910156 505.039062 197.136719 478.207031 228.242188 C 474.398438 232.664062 475.007812 239.21875 479.277344 242.878906 C 481.257812 244.554688 483.695312 245.320312 485.984375 245.320312 C 488.878906 245.320312 491.777344 244.097656 493.910156 241.660156 C 536.59375 191.796875 522.417969 157.339844 507.476562 139.648438 C 525.464844 139.191406 540.710938 144.988281 551.53125 151.085938 C 574.09375 163.589844 592.234375 184.632812 601.6875 208.722656 C 583.394531 213.449219 565.558594 224.734375 551.53125 245.015625 C 538.269531 264.074219 532.476562 288.621094 526.835938 312.410156 C 520.28125 339.855469 514.03125 365.929688 497.722656 375.535156 C 489.945312 380.109375 479.582031 381.332031 466.164062 378.738281 C 466.164062 377.519531 466.164062 376.296875 466.164062 374.925781 C 466.011719 369.132812 461.289062 364.558594 455.496094 364.710938 C 449.703125 364.863281 445.128906 369.589844 445.28125 375.382812 C 445.28125 378.433594 444.976562 381.179688 444.519531 383.921875 C 444.519531 383.921875 444.519531 384.074219 444.519531 384.074219 C 441.316406 398.40625 429.882812 408.015625 419.824219 413.808594 C 399.242188 425.855469 372.414062 428.597656 362.964844 422.957031 C 358.085938 420.058594 351.683594 421.585938 348.632812 426.617188 C 345.738281 431.496094 347.261719 437.898438 352.292969 440.949219 C 358.847656 444.914062 367.839844 446.746094 377.75 446.746094 C 394.367188 446.746094 413.878906 441.558594 430.34375 431.953125 C 445.28125 423.261719 455.800781 411.980469 461.441406 399.171875 C 467.691406 400.390625 473.484375 401 478.972656 401 C 490.097656 401 499.855469 398.5625 508.238281 393.527344 C 532.171875 379.347656 539.640625 347.785156 546.960938 317.289062 C 552.144531 295.484375 557.476562 272.765625 568.605469 256.90625 C 581.5625 238.152344 598.484375 229.308594 615.253906 227.324219 C 615.253906 227.324219 615.253906 227.324219 615.40625 227.324219 C 616.015625 227.324219 616.777344 227.171875 617.386719 227.171875 C 630.648438 226.105469 643.914062 229.15625 655.039062 235.253906 C 678.210938 247.757812 699.554688 276.730469 683.242188 317.59375 C 681.109375 322.929688 683.699219 329.03125 689.035156 331.164062 C 693.914062 333.148438 699.25 331.164062 701.839844 326.894531 C 727.296875 348.699219 745.894531 385.601562 742.085938 409.539062 Z M 742.085938 409.539062 " fill-opacity="1" fill-rule="nonzero"/>
  </g>
</svg>
