<?xml version='1.0' encoding='UTF-8'?>
<svg xmlns="http://www.w3.org/2000/svg" xmlns:xlink="http://www.w3.org/1999/xlink" zoomAndPan="magnify" viewBox="0 0 96 95.999999" preserveAspectRatio="xMidYMid meet" version="1.0">
  <defs>
    <clipPath id="2942396308">
      <path d="M 6 1 L 90.648438 1 L 90.648438 85 L 6 85 Z M 6 1 " clip-rule="nonzero"/>
    </clipPath>
    <clipPath id="d609d0beb1">
      <path d="M 5.148438 0 L 90.648438 0 L 90.648438 93 L 5.148438 93 Z M 5.148438 0 " clip-rule="nonzero"/>
    </clipPath>
    <clipPath id="450953030f">
      <path d="M 5.148438 0.171875 L 90.609375 0.171875 L 90.609375 95.828125 L 5.148438 95.828125 Z M 5.148438 0.171875 " clip-rule="nonzero"/>
    </clipPath>
  </defs>
  <g clip-path="url(#2942396308)">
    <path fill="#ffffff" d="M 90.015625 42.734375 C 90.015625 44.089844 89.949219 45.4375 89.816406 46.785156 C 89.683594 48.132812 89.484375 49.46875 89.21875 50.792969 C 88.953125 52.121094 88.625 53.433594 88.230469 54.726562 C 87.835938 56.023438 87.375 57.292969 86.855469 58.542969 C 86.335938 59.792969 85.753906 61.015625 85.113281 62.207031 C 84.472656 63.402344 83.777344 64.558594 83.019531 65.683594 C 82.265625 66.808594 81.457031 67.894531 80.59375 68.941406 C 79.730469 69.988281 78.820312 70.988281 77.859375 71.945312 C 76.898438 72.902344 75.890625 73.808594 74.839844 74.667969 C 73.789062 75.523438 72.699219 76.332031 71.566406 77.082031 C 70.4375 77.832031 69.273438 78.527344 68.074219 79.164062 C 66.875 79.804688 65.648438 80.382812 64.390625 80.898438 C 63.136719 81.417969 61.855469 81.871094 60.554688 82.265625 C 59.253906 82.65625 57.9375 82.984375 56.605469 83.25 C 55.269531 83.511719 53.925781 83.710938 52.574219 83.84375 C 51.222656 83.976562 49.863281 84.042969 48.503906 84.042969 C 47.144531 84.042969 45.789062 83.976562 44.4375 83.84375 C 43.082031 83.710938 41.742188 83.511719 40.40625 83.25 C 39.074219 82.984375 37.757812 82.65625 36.457031 82.265625 C 35.152344 81.871094 33.875 81.417969 32.621094 80.898438 C 31.363281 80.382812 30.136719 79.804688 28.9375 79.164062 C 27.738281 78.527344 26.574219 77.832031 25.441406 77.082031 C 24.3125 76.332031 23.222656 75.523438 22.171875 74.667969 C 21.121094 73.808594 20.113281 72.902344 19.152344 71.945312 C 18.191406 70.988281 17.28125 69.988281 16.417969 68.941406 C 15.554688 67.894531 14.746094 66.808594 13.988281 65.683594 C 13.234375 64.558594 12.535156 63.402344 11.894531 62.207031 C 11.253906 61.015625 10.675781 59.792969 10.152344 58.542969 C 9.632812 57.292969 9.175781 56.023438 8.78125 54.726562 C 8.386719 53.433594 8.058594 52.121094 7.792969 50.792969 C 7.527344 49.46875 7.328125 48.132812 7.195312 46.785156 C 7.0625 45.4375 6.996094 44.089844 6.996094 42.734375 C 6.996094 41.382812 7.0625 40.035156 7.195312 38.6875 C 7.328125 37.339844 7.527344 36.003906 7.792969 34.675781 C 8.058594 33.351562 8.386719 32.039062 8.78125 30.746094 C 9.175781 29.449219 9.632812 28.179688 10.152344 26.929688 C 10.675781 25.679688 11.253906 24.457031 11.894531 23.265625 C 12.535156 22.070312 13.234375 20.910156 13.988281 19.785156 C 14.746094 18.664062 15.554688 17.578125 16.417969 16.53125 C 17.28125 15.484375 18.191406 14.484375 19.152344 13.527344 C 20.113281 12.570312 21.121094 11.664062 22.171875 10.804688 C 23.222656 9.945312 24.3125 9.140625 25.441406 8.390625 C 26.574219 7.640625 27.738281 6.945312 28.9375 6.304688 C 30.136719 5.667969 31.363281 5.089844 32.621094 4.574219 C 33.875 4.054688 35.152344 3.601562 36.457031 3.207031 C 37.757812 2.816406 39.074219 2.488281 40.40625 2.222656 C 41.742188 1.957031 43.082031 1.761719 44.4375 1.628906 C 45.789062 1.496094 47.144531 1.429688 48.503906 1.429688 C 49.863281 1.429688 51.222656 1.496094 52.574219 1.628906 C 53.925781 1.761719 55.269531 1.957031 56.605469 2.222656 C 57.9375 2.488281 59.253906 2.816406 60.554688 3.207031 C 61.855469 3.601562 63.136719 4.054688 64.390625 4.574219 C 65.648438 5.089844 66.875 5.667969 68.074219 6.304688 C 69.273438 6.945312 70.4375 7.640625 71.566406 8.390625 C 72.699219 9.140625 73.789062 9.945312 74.839844 10.804688 C 75.890625 11.664062 76.898438 12.570312 77.859375 13.527344 C 78.820312 14.484375 79.730469 15.484375 80.59375 16.53125 C 81.457031 17.578125 82.265625 18.664062 83.019531 19.785156 C 83.777344 20.910156 84.472656 22.070312 85.113281 23.265625 C 85.753906 24.457031 86.335938 25.679688 86.855469 26.929688 C 87.375 28.179688 87.835938 29.449219 88.230469 30.746094 C 88.625 32.039062 88.953125 33.351562 89.21875 34.675781 C 89.484375 36.003906 89.683594 37.339844 89.816406 38.6875 C 89.949219 40.035156 90.015625 41.382812 90.015625 42.734375 Z M 90.015625 42.734375 " fill-opacity="1" fill-rule="nonzero"/>
  </g>
  <g clip-path="url(#d609d0beb1)">
    <path stroke-linecap="round" transform="matrix(0.566008, 0, 0, 0.566008, 5.149091, 0.172356)" fill="none" stroke-linejoin="miter" d="M 149.938848 75.196897 C 149.938848 77.591686 149.821524 79.972672 149.586876 82.353658 C 149.352228 84.734644 149.000256 87.094926 148.53096 89.434503 C 148.061665 91.780982 147.481946 94.099855 146.784904 96.384222 C 146.087862 98.675489 145.273496 100.918447 144.355608 103.126898 C 143.437721 105.335349 142.409411 107.495489 141.27758 109.600419 C 140.145749 111.71225 138.917298 113.755067 137.578425 115.742673 C 136.246453 117.730278 134.817862 119.64887 133.29265 121.498447 C 131.767439 123.348025 130.159411 125.114786 128.461664 126.805631 C 126.763918 128.496476 124.983354 130.097602 123.126875 131.615912 C 121.270396 133.127321 119.344904 134.555912 117.343495 135.880983 C 115.348988 137.206053 113.292368 138.434504 111.173636 139.559434 C 109.054903 140.691265 106.887861 141.712673 104.665607 142.623659 C 102.450255 143.541546 100.186593 144.34211 97.888424 145.039152 C 95.590255 145.729293 93.26448 146.309011 90.9111 146.778307 C 88.550818 147.240701 86.176734 147.592673 83.788847 147.827321 C 81.400959 148.061969 78.999269 148.179293 76.597579 148.179293 C 74.195889 148.179293 71.8011 148.061969 69.413212 147.827321 C 67.018424 147.592673 64.651241 147.240701 62.290959 146.778307 C 59.937578 146.309011 57.611804 145.729293 55.313635 145.039152 C 53.008564 144.34211 50.751804 143.541546 48.536451 142.623659 C 46.314198 141.712673 44.147156 140.691265 42.028423 139.559434 C 39.909691 138.434504 37.853071 137.206053 35.851663 135.880983 C 33.857155 134.555912 31.931662 133.127321 30.075184 131.615912 C 28.218705 130.097602 26.438141 128.496476 24.740395 126.805631 C 23.042648 125.114786 21.43462 123.348025 19.909409 121.498447 C 18.384197 119.64887 16.955606 117.730278 15.616733 115.742673 C 14.284761 113.755067 13.049409 111.71225 11.917578 109.600419 C 10.785747 107.495489 9.764338 105.335349 8.839549 103.126898 C 7.921662 100.918447 7.114197 98.675489 6.417155 96.384222 C 5.720113 94.099855 5.140394 91.780982 4.671099 89.434503 C 4.201803 87.094926 3.849831 84.734644 3.615183 82.353658 C 3.380535 79.972672 3.263211 77.591686 3.263211 75.196897 C 3.263211 72.80901 3.380535 70.428024 3.615183 68.047038 C 3.849831 65.666052 4.201803 63.30577 4.671099 60.959291 C 5.140394 58.619714 5.720113 56.300841 6.417155 54.016474 C 7.114197 51.725207 7.921662 49.482249 8.839549 47.273798 C 9.764338 45.065347 10.785747 42.905207 11.917578 40.800277 C 13.049409 38.688446 14.284761 36.638728 15.616733 34.651122 C 16.955606 32.670418 18.384197 30.751826 19.909409 28.902248 C 21.43462 27.052671 23.042648 25.28591 24.740395 23.595065 C 26.438141 21.90422 28.218705 20.303093 30.075184 18.784784 C 31.931662 17.266474 33.857155 15.844783 35.851663 14.519713 C 37.853071 13.194643 39.909691 11.966192 42.028423 10.834361 C 44.147156 9.709431 46.314198 8.688023 48.536451 7.777037 C 50.751804 6.859149 53.008564 6.058586 55.313635 5.361544 C 57.611804 4.671403 59.937578 4.091685 62.290959 3.622389 C 64.651241 3.153093 67.018424 2.808023 69.413212 2.573375 C 71.8011 2.338727 74.195889 2.221403 76.597579 2.221403 C 78.999269 2.221403 81.400959 2.338727 83.788847 2.573375 C 86.176734 2.808023 88.550818 3.153093 90.9111 3.622389 C 93.26448 4.091685 95.590255 4.671403 97.888424 5.361544 C 100.186593 6.058586 102.450255 6.859149 104.665607 7.777037 C 106.887861 8.688023 109.054903 9.709431 111.173636 10.834361 C 113.292368 11.966192 115.348988 13.194643 117.343495 14.519713 C 119.344904 15.844783 121.270396 17.266474 123.126875 18.784784 C 124.983354 20.303093 126.763918 21.90422 128.461664 23.595065 C 130.159411 25.28591 131.767439 27.052671 133.29265 28.902248 C 134.817862 30.751826 136.246453 32.670418 137.578425 34.651122 C 138.917298 36.638728 140.145749 38.688446 141.27758 40.800277 C 142.409411 42.905207 143.437721 45.065347 144.355608 47.273798 C 145.273496 49.482249 146.087862 51.725207 146.784904 54.016474 C 147.481946 56.300841 148.061665 58.619714 148.53096 60.959291 C 149.000256 63.30577 149.352228 65.666052 149.586876 68.047038 C 149.821524 70.428024 149.938848 72.80901 149.938848 75.196897 Z M 149.938848 75.196897 " stroke="#ffffff" stroke-width="1" stroke-opacity="1" stroke-miterlimit="10"/>
  </g>
  <path stroke-linecap="round" transform="matrix(0.566008, 0, 0, 0.566008, 5.149091, 0.172356)" fill-opacity="1" fill="#ffffff" fill-rule="nonzero" stroke-linejoin="miter" d="M 104.23772 134.072814 L 112.27096 162.271969 L 88.157438 145.577462 Z M 104.23772 134.072814 " stroke="#ffffff" stroke-width="1" stroke-opacity="1" stroke-miterlimit="10"/>
  <path fill="#ffffff" d="M 39.226562 52.742188 C 39.878906 52.226562 40.53125 51.71875 41.179688 51.210938 C 40.429688 51.507812 39.675781 51.804688 38.921875 52.09375 C 39.019531 52.3125 39.121094 52.527344 39.222656 52.742188 Z M 39.226562 52.742188 " fill-opacity="1" fill-rule="nonzero"/>
  <path fill="#ffffff" d="M 39.226562 52.742188 C 39.878906 52.226562 40.53125 51.71875 41.179688 51.210938 C 40.429688 51.507812 39.675781 51.804688 38.921875 52.09375 C 39.019531 52.3125 39.121094 52.527344 39.222656 52.742188 Z M 39.226562 52.742188 " fill-opacity="1" fill-rule="nonzero"/>
  <g clip-path="url(#450953030f)">
    <path fill="#418a2f" d="M 78.300781 12.730469 C 72.414062 6.84375 64.824219 2.679688 56.34375 1.003906 L 56.34375 6.660156 C 63.273438 8.222656 69.5 11.757812 74.378906 16.632812 C 81.101562 23.390625 85.265625 32.699219 85.265625 43.003906 C 85.265625 50.332031 83.15625 57.148438 79.515625 62.898438 C 75.765625 68.855469 70.375 73.691406 63.964844 76.703125 C 62.746094 77.308594 62.132812 78.644531 62.457031 79.859375 C 62.667969 81.09375 63.085938 83.476562 63.503906 85.855469 L 62.417969 85.015625 C 60.285156 83.382812 57.980469 81.625 56.113281 80.296875 C 55.460938 79.878906 54.742188 79.707031 54.035156 79.839844 C 53.101562 79.96875 52.078125 80.105469 51.03125 80.175781 C 50.054688 80.257812 49.027344 80.289062 47.980469 80.289062 C 37.675781 80.289062 28.367188 76.125 21.609375 69.402344 C 14.882812 62.644531 10.679688 53.332031 10.679688 43.03125 C 10.679688 32.730469 14.867188 23.417969 21.609375 16.644531 C 27.738281 10.53125 36.003906 6.535156 45.214844 5.832031 L 45.214844 15.515625 C 45.453125 15.515625 45.691406 15.546875 45.914062 15.613281 C 47.167969 16.015625 48.4375 16.371094 49.699219 16.746094 C 50.039062 16.410156 50.390625 16.089844 50.742188 15.773438 L 50.742188 0.320312 C 49.847656 0.242188 48.929688 0.207031 47.980469 0.207031 C 36.148438 0.199219 25.46875 5 17.699219 12.75 C 9.949219 20.515625 5.148438 31.199219 5.148438 43.042969 C 5.148438 54.882812 9.949219 65.5625 17.699219 73.335938 C 25.464844 81.082031 36.144531 85.882812 47.988281 85.882812 C 49.152344 85.882812 50.292969 85.828125 51.453125 85.746094 C 52.210938 85.671875 52.992188 85.59375 53.796875 85.464844 C 55.417969 86.660156 57.261719 88.050781 59.015625 89.421875 C 62.402344 92.046875 65.355469 94.425781 65.566406 94.640625 C 66.234375 95.226562 67.144531 95.550781 68.117188 95.308594 C 69.621094 94.945312 70.558594 93.480469 70.210938 91.972656 C 70.171875 91.804688 69.792969 89.75 69.335938 87.042969 C 69.046875 85.402344 68.707031 83.445312 68.246094 80.777344 C 74.761719 77.273438 80.257812 72.113281 84.21875 65.886719 C 88.425781 59.28125 90.84375 51.4375 90.84375 43.019531 C 90.84375 31.195312 86.046875 20.496094 78.292969 12.726562 Z M 78.300781 12.730469 " fill-opacity="1" fill-rule="nonzero"/>
  </g>
  <path fill="#418a2f" d="M 56.628906 65.765625 C 49.332031 65.765625 46.046875 62.574219 46.046875 56.097656 C 46.046875 52.90625 47.328125 46.980469 51.246094 34.851562 L 45.042969 35.214844 L 41.488281 52.8125 C 39.84375 61.289062 35.5625 65.761719 29.449219 65.761719 C 22.699219 65.761719 22.429688 58.832031 24.523438 55.363281 C 30.085938 55.726562 32.550781 54.542969 33.183594 50.800781 L 36.285156 35.667969 C 32.089844 35.847656 30.179688 36.941406 29.355469 41.140625 C 25.800781 42.414062 23.339844 39.679688 23.613281 35.394531 C 24.160156 28.828125 29.449219 24.085938 38.65625 23.816406 L 73.578125 23.175781 C 75.128906 26.457031 75.859375 33.664062 67.195312 33.933594 L 65.28125 34.023438 C 60.90625 47.796875 59.996094 52.992188 59.996094 54.363281 C 59.996094 55.636719 60.636719 56.367188 62.277344 56.367188 C 64.1875 56.367188 66.5625 54.265625 68.84375 51.167969 C 70.300781 51.261719 71.484375 52.449219 71.484375 54.269531 C 71.484375 59.46875 65.921875 65.761719 56.621094 65.761719 Z M 56.628906 65.765625 " fill-opacity="1" fill-rule="nonzero"/>
  <path fill="#418a2f" d="M 45.234375 13.820312 L 50.742188 13.820312 L 50.742188 25.703125 L 45.234375 25.703125 Z M 45.234375 13.820312 " fill-opacity="1" fill-rule="nonzero"/>
</svg>
 