<?xml version='1.0' encoding='UTF-8'?>
<svg xmlns="http://www.w3.org/2000/svg" xmlns:xlink="http://www.w3.org/1999/xlink" zoomAndPan="magnify" viewBox="0 0 375 374.999991" preserveAspectRatio="xMidYMid meet" version="1.0">
  <path fill="#24381b" d="M 308.800781 21.765625 C 333.300781 21.765625 353.234375 41.699219 353.234375 66.199219 L 353.234375 308.800781 C 353.234375 333.300781 333.300781 353.234375 308.800781 353.234375 L 66.203125 353.234375 C 41.699219 353.234375 21.765625 333.300781 21.765625 308.800781 L 21.765625 66.199219 C 21.765625 41.699219 41.699219 21.765625 66.203125 21.765625 Z M 374.996094 308.800781 L 374.996094 66.199219 C 374.996094 29.699219 345.300781 0.00390625 308.800781 0.00390625 L 66.203125 0.00390625 C 29.699219 0.00390625 0.00390625 29.699219 0.00390625 66.199219 L 0.00390625 308.800781 C 0.00390625 345.300781 29.699219 374.996094 66.203125 374.996094 L 308.800781 374.996094 C 345.300781 374.996094 374.996094 345.300781 374.996094 308.800781 Z M 74.550781 164.703125 C 86.011719 153.242188 104.585938 153.242188 116.042969 164.703125 L 153.945312 202.605469 C 156.253906 204.914062 160 204.914062 162.308594 202.605469 L 258.957031 105.953125 C 270.414062 94.5 288.988281 94.5 300.449219 105.953125 C 311.902344 117.410156 311.902344 135.984375 300.449219 147.441406 L 174.152344 273.761719 C 165.304688 282.613281 150.953125 282.613281 142.101562 273.761719 L 74.550781 206.191406 C 63.097656 194.730469 63.097656 176.15625 74.550781 164.703125 " fill-opacity="1" fill-rule="nonzero"/>
</svg>
