<?xml version='1.0' encoding='UTF-8'?>
<svg xmlns="http://www.w3.org/2000/svg" xmlns:xlink="http://www.w3.org/1999/xlink" zoomAndPan="magnify" viewBox="0 0 375 374.999991" preserveAspectRatio="xMidYMid meet" version="1.0">
  <defs>
    <clipPath id="b2c3a52ba4">
      <path d="M 0 0.703125 L 375 0.703125 L 375 374.203125 L 0 374.203125 Z M 0 0.703125 " clip-rule="nonzero"/>
    </clipPath>
  </defs>
  <g clip-path="url(#b2c3a52ba4)">
    <path fill="#24381b" d="M 347.425781 248.875 C 347.425781 268.046875 331.894531 283.578125 312.71875 283.578125 L 310.449219 283.578125 L 310.449219 126.195312 C 310.449219 91.835938 282.546875 63.929688 248.253906 63.929688 L 92.039062 63.929688 L 92.039062 62.96875 C 92.039062 43.792969 107.640625 28.195312 126.816406 28.195312 L 312.71875 28.195312 C 331.894531 28.195312 347.425781 43.792969 347.425781 62.96875 Z M 282.960938 312.101562 C 282.960938 331.207031 267.359375 346.808594 248.253906 346.808594 L 62.351562 346.808594 C 43.175781 346.808594 27.574219 331.207031 27.574219 312.101562 L 27.574219 126.195312 C 27.574219 107.023438 43.175781 91.421875 62.351562 91.421875 L 248.253906 91.421875 C 267.359375 91.421875 282.960938 107.023438 282.960938 126.195312 Z M 312.71875 0.703125 L 126.816406 0.703125 C 92.519531 0.703125 64.550781 28.675781 64.550781 62.96875 L 64.550781 63.929688 L 62.351562 63.929688 C 27.988281 63.929688 0.0859375 91.835938 0.0859375 126.195312 L 0.0859375 312.101562 C 0.0859375 346.394531 27.988281 374.296875 62.351562 374.296875 L 248.253906 374.296875 C 282.546875 374.296875 310.449219 346.394531 310.449219 312.101562 L 310.449219 311.070312 L 312.71875 311.070312 C 347.015625 311.070312 374.914062 283.167969 374.914062 248.875 L 374.914062 62.96875 C 374.914062 28.675781 347.015625 0.703125 312.71875 0.703125 " fill-opacity="1" fill-rule="nonzero"/>
  </g>
</svg>
