<svg xmlns="http://www.w3.org/2000/svg" xmlns:xlink="http://www.w3.org/1999/xlink"
    viewBox="0 0 64 64" preserveAspectRatio="xMidYMid meet" version="1.0">
    <path id="background" fill="#776d6d"
        d="M 63.75 31.875 C 63.75 49.29395 49.29395 63.75 31.875 63.75 C 14.45605 63.75 0 49.29395 0 31.875 C 0 14.45605 14.45605 0 31.875 0 C 49.29395 0 63.75 14.45605 63.75 31.875 "
        fill-opacity="0.8" fill-rule="nonzero" />
    <path id="receiver" fill="#ffffff"
        d="M 12.727539 34.74707 C 12.728027 34.747314 13.897949 37.758789 15.219788 38.542328 C 16.077148 39.048828 16.793945 38.776855 17.71875 38.340332 C 19.519531 37.490723 21.362305 36.74707 23.290039 36.246094 C 24.087891 36.012695 24.193359 35.574219 24.022461 35.060547 C 23.783203 34.224121 23.540039 33.388672 23.292969 32.553711 C 23.146484 32.042969 23.460938 31.490234 24.179688 31.196289 C 26.69043 30.344238 29.179688 30.243164 31.669922 30.230469 C 31.779297 30.230469 32.053711 30.230469 32.163086 30.230469 C 34.65332 30.243164 37.142578 30.344238 39.65332 31.196289 C 40.37207 31.490234 40.686523 32.042969 40.540039 32.553711 C 40.292969 33.388672 40.049805 34.224121 39.810547 35.060547 C 39.639648 35.574219 39.745117 36.012695 40.542969 36.246094 C 43.470703 36.74707 45.313477 37.490723 47.114258 38.340332 C 47.976562 38.776855 48.693359 39.048828 49.550781 38.542328 C 50.872559 37.758789 52.04248 34.747314 52.042969 34.74707 C 52.222656 32.560547 51.503906 29.84375 48.347656 28.462891 C 43.330078 26.236328 37.943359 25.053711 32.178711 25.016602 C 32.063477 25.016602 31.697266 25.016602 31.571289 25.016602 C 25.806641 25.053711 20.419922 26.236328 15.402344 28.462891 C 12.246094 29.84375 11.527344 32.560547 11.707031 34.74707 "
        fill-opacity="0.9" fill-rule="nonzero" />
    <circle id="progress-ring" cx="32" cy="32" r="30" stroke-width="4" stroke="red"
        fill="transparent" stroke-dasharray="188.4" stroke-dashoffset="188.4"></circle>
</svg>