<?xml version="1.0" encoding="UTF-8"?>
<svg id="Layer_2" data-name="Layer 2" xmlns="http://www.w3.org/2000/svg" viewBox="0 0 768 768">
  <defs>
    <style>
      .cls-1 {
        fill: #776d6d;
      }

      .cls-1, .cls-2, .cls-3, .cls-4, .cls-5, .cls-6, .cls-7, .cls-8, .cls-9, .cls-10, .cls-11, .cls-12 {
        stroke-width: 0px;
      }

      .cls-2 {
        fill: #cbc7c7;
      }

      .cls-3 {
        fill: #e0dede;
      }

      .cls-4 {
        fill: #a69f9f;
      }

      .cls-5 {
        fill: #d8d6d6;
      }

      .cls-6 {
        fill: #b6b1b1;
      }

      .cls-7 {
        fill: #928a8a;
      }

      .cls-8 {
        fill: #fdfdfd;
      }

      .cls-9 {
        fill: #faf9f9;
      }

      .cls-10 {
        fill: #f0efef;
      }

      .cls-11 {
        fill: #fcfcfc;
      }

      .cls-12 {
        fill: #f4f3f3;
      }
    </style>
  </defs>
  <g id="Layer_1-2" data-name="Layer 1">
    <g>
      <path class="cls-1" d="m.08,414.75c0-2.5,0-5,0-7.5,2.74-.05,5.48-.15,8.22-.12,2.29.03,3.15-1.08,2.98-3.24-.17-2.07.26-4.43-3.01-4.53-2.73-.08-5.49.31-8.19-.36,0-10.75,0-21.5,0-32.24,1.73-.07,3.46-.19,5.19-.2,5.92-.03,5.92-.1,6.15-5.94.1-2.45-.8-3.35-3.19-3.32-2.72.04-5.43-.18-8.15-.28,0-2.5,0-5,0-7.5,1.88-.62,4.68,1.26,5.57-2.05,1.44-5.32.48-6.77-4.9-7.41-.23-.03-.45-.19-.67-.29,0-2.75,0-5.5,0-8.25,2.74-.08,5.47-.17,8.21-.24,1.18-.03,2.25-.11,2.43-1.66.19-1.61.5-3.2.76-4.8.26-1.61-.41-2.25-2.05-2.23-3.11.05-6.23-.04-9.35-.07,0-20.25,0-40.49,0-60.74,3-7.77,6-15.53,9-23.3.36-.94.9-2.08-.76-2.21-3.16-.26-1.69-2.13-1.13-3.4,4.25-9.73,8.86-19.28,13.76-28.7,1.32-2.54,2.88-3.62,5.82-3.54,7.86.2,15.74.03,23.61.09,1.92.02,3.24-.46,4.26-2.27,3.19-5.65,6.48-11.25,9.88-16.78,1.42-2.31,1.35-3.18-1.67-3.12-6.49.13-12.99-.03-19.49.07-2.76.04-3.06-.87-1.62-2.97,3.11-4.53,6.26-9.03,9.28-13.62,1.16-1.76,2.62-2.44,4.7-2.42,5.87.08,11.74.03,17.61.03,1.24,0,2.57.22,3.46-.95,3.98-5.24,7.94-10.5,12.1-15.99-3.42-1.09-6.54-.37-9.6-.61-.84-.07-1.89.29-2.41-.58-.58-.98.4-1.57.93-2.2,5.34-6.28,10.66-12.57,16.38-18.51,1.42-1.47,2.96-2.44,4.94-2.06,8.32,1.59,14.43-1.78,19.25-8.27.15-.2.4-.32.54-.51.43-.59,1.24-1.28,1.14-1.79-.22-1.12-1.4-.77-2.21-.77-5.12-.04-10.24,0-15.36-.05-.93,0-2.23.4-2.63-.8-.3-.91.74-1.49,1.36-2.07,2.27-2.14,4.66-4.16,6.83-6.4,2.06-2.13,4.37-2.96,7.35-2.87,6.49.18,12.99.06,19.49.05,1.11,0,2.35.27,3.27-.49,3.89-3.21,7.72-6.49,11.57-9.75-.1-.37-.2-.74-.3-1.12h-26.89c-.11-.44-.22-.87-.33-1.31,6.1-3.24,9.83-10.14,17.73-10.64.78-.05,1.57-.69,2.28-1.16,5.5-3.67,10.99-7.37,16.48-11.07.62-.42,1.79-1.09,1.72-1.27-1.33-3.43,2.02-3.18,3.41-4.32,6.66-5.46,14.39-6.89,22.79-6.13,3.72.34,7.53-.31,11.23.13,8.64,1.02,14.45-4.86,21.48-7.76-.05-.36-.1-.72-.15-1.08h-21.67c-.06-.4-.12-.8-.19-1.2,8.05-2.81,14.93-9.28,24.22-8.17,14.66,1.75,27.57-3.42,41.02-9.47-3.31-.16-6.04-.29-9.38-.45,2.81-1.94,5.39-2.48,7.88-3.15,10.68-2.86,21.07-7.16,32.51-6.29,3.83.29,7.72-.16,11.59-.27.88.2,1.63-.08,2.3-.64.48-.06.95-.12,1.43-.18,1.14.32,2.13,0,3.04-.69.48-.09.96-.17,1.44-.26,1.8.37,3.46-.42,5.1-.83,6.13-1.53,12.56-1.53,18.57-3.65.4-.05.8-.09,1.2-.14,3.79.61,7.37-1.17,11.12-.94,2.37.35,4.38.13,4.63-2.9h1.5c.5.75,1,.73,1.5,0h28.49c2,.92,4.16.64,6.27.84,19.02,1.76,38.23-.48,57.2,2.94,10.64,1.92,21.34,3.5,31.81,6.88h-12.99c7.39,2.85,14.88,4.78,22.2,7.24,4.58,1.54,9.1,2.57,13.92,2.26,10.85-.69,19.9,4.82,29.44,8.64.07.03-.01.42-.06,1.23h-18.34c10.86,6.44,21.48,10.73,33.66,9.06,1.84-.25,3.75.09,5.62-.06,8.39-.67,14.13,4.97,20.96,8.02-.08.37-.16.75-.23,1.12h-27.56c1.58,1.07,2.15,1.55,2.8,1.89,5.79,3.01,11.25,6.4,17.62,8.59,6.52,2.24,12.01,7.48,17.93,11.43.5.33,1.26,1.22,1.23,1.25-2.51,2.84.98,3.01,1.95,3.91,2.27,2.12,4.99,3.76,7.34,5.79,2.22,1.92,4.61,2.62,7.54,2.56,7.62-.16,15.25-.04,22.87-.06,1.77,0,3.46.04,4.93,1.3,3.14,2.67,6.37,5.23,9.5,7.91.68.58,1.93,1.17,1.32,2.35-.45.87-1.58.55-2.43.55-6,.03-12,.02-18,.04-.72,0-1.63-.21-2.05.52-.5.85.38,1.31.85,1.84,5.3,5.97,11.14,10.73,19.93,8.79.36-.08.75-.01,1.12-.01q12.44,0,20.83,9.05c.08.09.18.17.26.27.54.65,1.58,1.2,1.21,2.14-.38.97-1.51.61-2.35.69-2.99.27-6.08-.54-9.37.62,4.55,5.1,9.37,9.45,12.88,14.68,4.36,6.5,9.77,9.07,17.3,7.78,2.32-.4,4.05.56,5.45,2.45,3.05,4.11,6.22,8.14,9.3,12.23.57.75,1.6,1.53.94,2.61-.6.99-1.8.66-2.76.66-5.25.04-10.5.06-15.75.02-2.55-.02-2.79.85-1.4,2.83,3.01,4.3,6.01,8.61,8.81,13.04,1.23,1.95,2.7,2.61,4.93,2.57,6.75-.11,13.5.02,20.24-.07,1.96-.02,3.26.56,4.27,2.31,3.18,5.52,6.42,11,9.76,16.43,1.79,2.9.79,3.56-2.21,3.51-7.62-.11-15.25.01-22.87-.05-2.49-.02-3.2.72-1.95,3.06,5.32,9.91,10.16,20.05,14.6,30.39.45,1.06.98,2.19,2.36,2.02,2.47-.31,3.21,1.34,3.94,3.14,5.43,13.43,10.23,27.08,14.03,41.08.48,1.78,1.65,3.66-1.65,4.01-1.46.15-.91,1.6-.7,2.46,2.68,10.91,5.27,21.83,6.96,32.94.32,2.09,1.32,2.89,3.52,2.86,8.5-.13,16.99-.09,25.49-.11v8.25c-1.27.75-2.67.44-4.01.45-5.35.04-10.69.08-16.04-.01-2.28-.04-3.28.64-2.63,3.05.26.94.31,1.97.29,2.96-.04,2.11,1,2.79,3.01,2.76,6.46-.12,12.92-.14,19.38-.2v9.75c-3.11-.03-6.22-.07-9.32-.09-1.2,0-2.1.17-2.27,1.75-.54,4.95.71,6.46,5.63,6.49,1.99,0,3.98.07,5.97.1v9c-5.61-.02-11.21-.01-16.82-.07-2.05-.02-3.47.52-3.16,2.96-.25,4.78.16,5.28,4.72,5.32,5.09.05,10.17.03,15.26.04v16.5c-5.46.04-10.92.05-16.38.13-3.16.05-3.77,2.17-3.83,4.82-.07,2.78,1.55,3.28,3.83,3.27,5.46-.03,10.92.01,16.38.03v6.75c-2.79.68-5.63.27-8.44.33-2.54.05-3.34,1.13-2.48,3.49.02.83.04,1.65.07,2.48-.62.76-.87,1.43.42,1.73,3.22.03,6.45.07,9.67.1.26.04.51.08.77.12v7.5c-6.11,0-12.23.11-18.34-.04-4.72-.12-3.17,3.67-3.64,5.87-.59,2.75,1.95,1.9,3.34,1.97,6.21.32,12.44-.49,18.64.45v6.75c-8.11.08-16.22.3-24.32.18-2.86-.04-3.2,1.46-3.5,3.61-.25,1.84-.8,3.59,2.09,3.53,1.03-.02,1.87.63,1.33,1.65-1.3,2.46.92,7.12-4.46,7.11-1.15,0-1.27,1.35-1.44,2.34-.36,2.09-.54,4.23-1.16,6.24-.81,2.61.08,3.33,2.6,3.29,5.99-.1,11.99-.03,17.98-.03,9.26,0,9.19-.02,7.12,9-.52,2.27-1.51,3.09-3.8,3.02-4.62-.14-9.24-.04-13.86-.04-9.68,0-9.59.02-11.98,9.43-.65,2.55.16,3.1,2.45,3.05,3.74-.09,7.49-.02,11.24-.02,9.02,0,8.96-.02,6.31,8.74-.76,2.52-1.94,3.57-4.73,3.57-10.7.01-10.61.15-14.03,10.32-.98,2.91-.06,3.43,2.58,3.35,4.37-.13,8.74.04,13.11-.06,2.63-.06,3.4.8,2.35,3.33-2.6,6.21-5.18,12.44-7.6,18.72-.86,2.22-2.17,2.99-4.51,2.96-7.61-.11-15.23.03-22.85-.08-2.16-.03-3.37.66-4.31,2.66-3.02,6.44-6.18,12.81-9.43,19.14-1.23,2.4-.95,3.25,1.93,3.21,7.49-.12,14.98-.05,22.47-.03,4.32,0,4.35.05,2.33,3.64-1.96,3.48-4.17,6.83-5.93,10.41-1.31,2.66-3.14,3.33-5.96,3.29-8.48-.13-16.97.03-25.46.07-1.51-.05-1.97.95-2.2,2.19-.15.14-.22.3-.24.5-2.69,2.99-4.76,6.38-6.38,10.04-.17.14-.27.31-.32.52-1.28.77-2.28,1.8-2.11,3.36.07.62.93.55,1.52.36,8.48.02,16.97.03,25.45.05.57,1.28-.32,2.15-.93,3.03-2.58,3.67-5.26,7.26-7.8,10.96-1.36,1.98-3.15,2.53-5.45,2.47-4.61-.11-9.22-.03-13.83-.03-1.5,0-2.95-.02-4.06,1.36-3.73,4.67-7.54,9.28-11.28,13.94-.71.88-1.14,1.82.67,1.89,3.74.07,7.48.15,11.22.22-.49.69-.93,1.44-1.49,2.07-4.71,5.36-9.44,10.69-14.16,16.03-.61.64-1.22,1.28-1.83,1.93-1.44.61-2.46,1.64-3.07,3.08-1.14,1.11-2.28,2.22-3.42,3.33-3.91,2.75-7.35,6.01-10.39,9.7l-.08.08c-2.03.9-3.62,2.3-4.81,4.17-.66.6-1.33,1.2-1.99,1.81-1.49.41-2.58,1.31-3.25,2.7-.42.33-.84.67-1.27,1-2.34,1.33-4.54,2.83-6.13,5.07-.71.55-1.41,1.1-2.12,1.66-6.63,4.26-12.89,9.04-19.01,14-.2.04-.36.14-.48.31-.85.01-1.39.48-1.71,1.23-.22.03-.39.12-.53.29-4.26,1.73-7.57,5.03-11.67,7.01-4.12.03-8.24.07-12.36.1-2.07-.24-3.42.97-4.69,2.33-.22.05-.39.17-.51.35-.79.06-1.44.35-1.77,1.13-.2.04-.37.14-.5.3-1.87.38-3.47,1.24-4.69,2.74-.22.02-.4.11-.56.27-1.38.37-2.67.88-3.61,2.09,1.01.89,1.95.67,2.88.45,4.73.03,9.46.06,14.19.09-.66,2.37-3.6,1.97-4.66,3.84-.22,0-.41.09-.57.24-8.87,6.04-18.9,5.94-29,5.54-2.98-.12-5.97-.05-8.95,0-1.1.02-2.31.04-3.28.47-6.1,2.69-12.14,5.49-18.29,8.3.84,1.06,1.65.91,2.49.61,7.44.01,14.88.03,22.32.04.45,2.37-1.69,2.18-2.86,2.64-6.94,2.73-13.94,5.3-20.92,7.92-12.97.09-25.94.18-38.91.26-10.15,2.83-20.31,5.66-30.46,8.5.03.28.07.56.1.83h46.16c-3.01,2.14-6.07,1.52-8.4,3.08-.48.04-.97.07-1.45.11-7.56.92-15.1,1.97-22.55,3.61-.98.06-1.95.12-2.93.19-5.03.41-10.06.82-15.08,1.23-.61-.48-1.15-.38-1.62.22-2.97.15-5.94.3-8.91.46-2.6-.71-5.22-1.56-7.47.83h-27.74c-7.48-2.04-15.15-1.65-22.78-1.82-.66-.04-1.31-.07-1.97-.11-1.69-1.06-3.53-1.17-5.43-.82-.94-.06-1.87-.12-2.81-.18-1.9-.97-3.85-1.6-6-.91-.7-.04-1.4-.09-2.1-.13-2.92-1.72-6.16-1.67-9.39-1.67-.67-.04-1.34-.09-2-.13-2.85-1.34-5.82-2.1-9-1.82-.44-.06-.89-.11-1.33-.17-.71-.9-1.62-1.14-2.69-.79-.41-.07-.81-.14-1.22-.22-.94-.75-1.99-1.08-3.19-.74-.69-.05-1.37-.09-2.06-.14-.84-.2-1.68-.57-2.52-.58-19.41-.41-38.85,1.21-58.22-1.15l-1.31-.19c-5.18-2.54-10.9-3.36-16.3-5.16-1.24-.41-2.87-.25-4.22-2.53h30.85l.14-1.14c-8.63-3.08-17.26-6.17-25.89-9.25-10.17-.07-20.33-.14-30.5-.21-3.27-2.15-6.82-3.62-10.64-4.47-.19-.07-.38-.14-.57-.22-1.41-2.37-5.15-1.71-6.08-4.69,7.44-.01,14.88-.03,22.32-.04.8.25,1.86.65,2.02-.52.11-.81-.93-.85-1.65-.81l-.05-.02c-1.7-1.9-3.86-2.9-6.33-3.31l-2.6-1.31c-1.99-1.8-4.05-3.47-6.92-3.54-6.68-.1-13.36-.19-20.05-.29-.87-1.06-2-1.62-3.37-1.7-.18-.08-.36-.17-.53-.27-2.43-3.34-7.22-3.6-10.09-7.77,3.09,0,5.54.03,7.99-.02.57-.01,1.43-.16,1.64-.54.5-.87-.41-1.27-1-1.66-2.98-2-5.78-4.31-9.22-5.54-.16-.11-.32-.23-.47-.35-1.76-2.47-4.29-3.83-7.01-4.92-.44-.32-.87-.65-1.31-.97-2.11-2.54-4.73-4.39-7.73-5.72-.17-.1-.33-.2-.49-.31-.85-2.3-3.13-3.16-4.85-4.46-5.33-4.02-9.91-8.99-15.66-12.47-.16-.11-.31-.22-.46-.34-1.79-2.74-4.05-4.97-7.03-6.42-.91-.86-1.82-1.71-2.73-2.57-4.51-5.47-9.47-10.5-15-14.95-.61-.66-1.22-1.32-1.83-1.98-1.68-3.24-4.17-5.73-7.12-7.8-.35-.42-.7-.83-1.06-1.25-.59-1.75-1.37-3.29-3.61-3.19-4.54-.43-9.13.52-13.65-.55-2.62-4.27-5.59-8.26-9.52-11.45-.11-.16-.22-.32-.33-.48,0-1.88-2.15-2.85-2-4.78,5.73-.03,11.47-.05,17.2-.08,2.47-.46.93-1.58.35-2.41-2.22-3.13-4.42-6.28-6.77-9.31-1.24-1.6-1.84-3.86-4.18-4.45-7.81-.06-15.62-.09-23.42-.22-1.93-.03-3.97.57-5.8-.59-1.26-3.26-3.07-6.15-5.72-8.48-.1-.17-.2-.33-.31-.5-.55-2.2-1.34-4.26-3.4-5.52-.11-.17-.21-.33-.31-.51.05-.52.11-1.04.16-1.57,8.36-.03,16.72-.16,25.08-.02,3.43.05,3.55-.97,1.94-3.56-2.24-3.6-4.36-7.28-6.32-11.03-1.06-2.02-2.39-2.82-4.7-2.78-7.86.13-15.72-.07-23.58.11-2.64.06-4.09-.84-5.19-3.18-2.92-6.21-5.97-12.35-9.1-18.46-1.42-2.77-.51-3.42,2.27-3.38,7.24.1,14.48-.06,21.71.07,3.11.06,3.33-1.07,2.21-3.56-1.79-3.98-3.39-8.04-5.05-12.07-3.72-9.03-3.71-8.9-13.39-9.07-12.7-.22-9.62,2.4-13.98-9.96-1.46-4.14-1.21-4.44,3.16-4.49,9.81-.12,9.75-.1,6.66-9.34-.64-1.92-1.65-2.51-3.53-2.47-5.24.11-10.48.11-15.71.16,0-4.25,0-8.5,0-12.75,3.11.04,6.23.12,9.34.12q8.93.02,6.79-8.7c-.09-.36-.22-.72-.29-1.08-.26-1.32-1.06-1.84-2.39-1.81-4.48.1-8.96.15-13.45.22,0-9.5,0-19,0-28.49,2.47-.04,4.94-.15,7.4-.08,2.14.06,2.99-.37,2.78-2.93-.29-3.47-1.57-4.78-5.03-4.3-1.68.23-3.43-.11-5.15-.19,0-2.5,0-5,0-7.5,1.67-1.34,5.64,1.52,5.51-3.37-.11-4.18-2.32-4.57-5.51-4.13Zm414.46-48.07c-.05.19-.09.37-.14.56,6.54.9,13.16,1.46,19.62,2.78,17.79,3.63,35.62,6.37,53.87,5.22,5.05-.32,8.21,2.62,10.19,6.85,2.76,5.93.47,9.49-5.88,9.49-7.37,0-14.75-.05-22.12.03-4.24.04-3.47,3.85-3.84,6.14-.45,2.73,2.3,1.53,3.57,1.55,7.12.14,14.24.05,21.37.1,1.04,0,2.35-.42,2.98.91,1.04,2.19-1.69,6.47-4.22,6.51-4.25.08-8.5.03-12.75.04-5.1.01-5.21.21-6.26,5.26-.45,2.14.28,2.68,2.23,2.63,2.87-.07,5.75-.03,8.62.01.81.01,1.76-.2,2.1,1.02.7,2.56-1.87,6.26-4.52,6.29-5.37.05-10.75,0-16.12.04-2.03.02-4.5-.6-4.37,2.9.13,3.77,1.19,5.04,4.77,5.06,5.25.03,10.6.67,15.72-.15,6.86-1.1,10.24,3.89,14.97,6.56-.05.33-.1.66-.15.99h-21.7c.73,1.15,1.5,1.51,2.3,1.77,6.74,2.17,13.52,4.2,20.34,6.12,6.66,1.87,13.03,5.08,19.3,8.74,11.2,6.54,22.93,12.94,37.23,11.61,6.64-.62,11.81-2.17,16.02-7.13.89-1.05,1.87-2.02,2.7-3.12,1.11-1.46,2.29-2.46,4.33-2.42,1.72.03,6.61-5.89,6.55-7.49-.02-.64-.39-.88-.89-.97-2.44-.44-1.29-1.68-.78-2.96,1.32-3.33,3.54-4.82,7.24-4.41,2.72.3,5.49.06,8.24.06,5.12,0,10.25.05,15.37-.04,3.74-.06,4.42-3.55,4.72-5.83.31-2.37-2.64-1.25-4.09-1.29-5.99-.16-12-.04-17.99-.11-.94-.01-2.45.6-2.55-1.25-.15-2.98,3.42-6.65,6.5-6.66,5.12-.02,10.26-.25,15.37.07,3.56.23,5.17-1.24,6.24-4.4.77-2.27.69-3.22-1.99-3.08-2.62.14-5.25.05-7.87,0-.8-.02-1.8.3-2.25-.81-.89-2.23,2.33-6.96,4.82-6.99,5-.05,10,.03,14.99-.06,3.64-.06,2.96-3.16,3.31-5.28.45-2.72-1.79-2.16-3.27-2.18-7-.05-14-.07-20.99,0-2.56.03-4.49.12-4.45-3.59.03-3.64,1.42-4.36,4.67-4.27,7.49.2,15-.04,22.49.11,2.79.06,3.49-1,3.08-3.56-.52-3.21-1.22-6.37-2.04-9.52-.7-2.7-2.2-3.47-4.86-3.42-6.99.15-14.01-.24-20.99.16-4.29.24-6.55-1.19-8.25-5.1-1.29-2.96-1.03-3.58,2.15-3.51,7.24.15,14.49.06,21.74.02.79,0,1.88.46,2.32-.61.32-.77-.39-1.36-.79-1.98-2.77-4.33-6.07-7.51-11.87-6.52-2.31.39-4.8-.29-7.1.13-7.18,1.3-10.98-3.69-16.29-8.28h11.47c.02-1.23-.57-1.54-1.09-1.83-7.71-4.48-15.42-8.86-24.91-7.59-2.21.3-4.51-.14-6.74.08-9.83.97-17.3-5.3-26.02-7.74.05-.39.1-.77.15-1.16h20.55c.03-.36.07-.72.1-1.07-9.34-2.72-17.9-7.91-28.19-7.56-13.48.46-26.98.77-39.82-4.62-2.29-.96-4.78-1.45-7.19-2.08-29.81-7.83-60.07-12.72-90.85-14.62-51.39-3.16-102.1.92-152.01,13.78-7.89,2.03-15.7,4.4-23.54,6.62.06.38.11.75.17,1.13h24.2c-10.47,3.95-20.23,9.95-31.93,8.52-2.95-.36-6.01.14-8.99-.09-9.81-.76-17.49,4.96-26.12,7.79.04.4.09.8.13,1.2h17.14c.08.46.15.93.23,1.39-7.46,2.37-13.13,9.37-22.08,7.81-5.86-1.03-10.05,1.87-13.92,5.62-.57.56-1.73.97-1.25,2.03.44.96,1.55.6,2.37.61,4.25.05,8.5,0,12.75.07.9.01,2.24-.24,1.99,1.41-.36,2.38-6.71,7.59-9.19,7.59-7,0-14.01.3-20.99-.11-3.98-.23-5.93,1.35-7.38,4.68-1.62,3.73-1.64,3.88,2.51,3.9,7.37.03,14.75.1,22.12-.03,3.06-.06,3.62.86,2.66,3.74-.99,2.94-1.7,6.06-1.91,9.14-.21,3.06-1.57,3.64-4.28,3.59-7.62-.14-15.25.07-22.87-.11-2.88-.07-3.53.99-3.6,3.7-.08,3.32,1.06,4.31,4.33,4.22,7.49-.21,14.99,0,22.49-.07,3.9-.03,2.87,3.1,3.31,5.12.58,2.6-1.55,2.33-3.13,2.35-4.5.05-9,0-13.5.04-.96,0-2.12-.23-2.64.92-.92,2.04,2.19,6.87,4.46,6.92,3.12.06,6.25-.03,9.37.05,1.97.05,4.89,3.71,4.53,5.91-.41,2.53-2.61,1.31-3.97,1.36-5.12.15-10.25.04-15.37.09-.99.01-2.41-.46-2.48,1.39-.11,3.16,3.21,6.56,6.5,6.56,6.75.01,13.5-.02,20.24.03,2.19.02,5.65,3.84,5.09,5.85-.67,2.4-2.94,1.21-4.45,1.25-6.99.14-13.99.04-20.99.1-1.1.01-3.26-.47-2.91,1.2.5,2.42,1.33,5.18,4.35,5.98,2.4.63,7.06,5.21,7.49,7.42.11.58.11.97-.52,1.11-3.29.7-.93,2.19-.27,3.02,4.85,6.08,10.29,10.79,19.01,9.47,5.24-.8,10.66.7,15.91-1.42,10.01-4.04,19.33-9.5,30.07-12.12,6.53-1.59,12.96-4.81,19.12-8.42,6.48-3.8,14.12-6.35,22.12-6.27,7.62.07,15.25.07,22.87-.02,4.59-.05,8.94-1.05,12.52-4.19.7-.62,1.87-1.24,1.36-2.38-.4-.89-1.55-.6-2.4-.6-6.12-.02-12.25.07-18.37-.09-1.25-.03-4.11,1.18-3.46-1.6.52-2.2-1.51-6.42,3.57-6.31,5.25.11,10.5.09,15.74-.03,1.39-.03,3.97.86,3.61-1.73-.3-2.17.42-5.74-3.81-5.61-3.12.1-6.26.17-9.37-.04-3.92-.26-3-3.84-3.43-6.06-.46-2.4,1.97-1.64,3.24-1.68,3.74-.12,7.5-.04,11.25-.05,5.14,0,5.58-.8,3.72-5.62-.81-2.11-2.37-1.89-3.97-1.89-7.75-.02-15.5.02-23.24-.04-2.33-.02-4.22-2.98-3.96-6.04.23-2.72,2.43-1.62,3.77-1.64,7.12-.12,14.25-.17,21.37,0,3.05.07,4.64-.25,3.77-4.01-.88-3.81.83-7.06,3.65-9.72.73-.68,2.01-.96,2.15-2.85h-23.42c.34-.92.73-1.24,1.16-1.32,18.79-3.48,37.55-7.3,56.8-6.97,12.76.21,25.47-.55,38.19-1.35,19.09-1.19,38.17-1.04,57.23,1.27h-13.03Zm-203.73,99.25c-3.75-1.22-14.35-1.07-16.8.24,5.75,2.52,10.72,2.45,16.8-.24Zm360.07-.1c5.58,2.35,11.19,3.08,16.77-.06-5.57-.63-11.15-.8-16.77.06Z"/>
      <path class="cls-8" d="m767.91,322.52c-8.5.02-17-.02-25.49.11-2.19.03-3.2-.77-3.52-2.86-1.69-11.11-4.28-22.04-6.96-32.94-.21-.86-.76-2.31.7-2.46,3.3-.35,2.13-2.23,1.65-4.01-3.79-13.99-8.6-27.64-14.03-41.08-.73-1.8-1.47-3.45-3.94-3.14-1.38.17-1.91-.96-2.36-2.02-4.43-10.34-9.27-20.48-14.6-30.39-1.25-2.33-.54-3.08,1.95-3.06,7.62.06,15.25-.06,22.87.05,3,.04,3.99-.61,2.21-3.51-3.34-5.43-6.59-10.91-9.76-16.43-1.01-1.75-2.31-2.33-4.27-2.31-6.75.08-13.5-.04-20.24.07-2.23.04-3.7-.62-4.93-2.57-2.8-4.43-5.8-8.74-8.81-13.04-1.39-1.98-1.15-2.85,1.4-2.83,5.25.04,10.5.02,15.75-.02.96,0,2.16.33,2.76-.66.66-1.08-.38-1.86-.94-2.61-3.08-4.09-6.25-8.11-9.3-12.23-1.4-1.89-3.13-2.85-5.45-2.45-7.53,1.29-12.94-1.27-17.3-7.78-3.51-5.23-8.33-9.59-12.88-14.68,3.28-1.16,6.38-.35,9.37-.62.84-.08,1.97.28,2.35-.69.37-.94-.67-1.49-1.21-2.14-.08-.1-.18-.18-.26-.27q-8.39-9.05-20.83-9.05c-.37,0-.76-.07-1.12.01-8.8,1.94-14.63-2.82-19.93-8.79-.47-.53-1.34-.99-.85-1.84.43-.73,1.34-.51,2.05-.52,6-.02,12-.01,18-.04.84,0,1.97.32,2.43-.55.62-1.18-.63-1.77-1.32-2.35-3.13-2.68-6.36-5.24-9.5-7.91-1.47-1.26-3.16-1.3-4.93-1.3-7.62.02-15.25-.1-22.87.06-2.93.06-5.32-.64-7.54-2.56-2.36-2.04-5.07-3.67-7.34-5.79-.97-.9-4.46-1.08-1.95-3.91.03-.04-.73-.92-1.23-1.25-5.92-3.95-11.41-9.19-17.93-11.43-6.37-2.19-11.83-5.58-17.62-8.59-.65-.34-1.22-.82-2.8-1.89h27.56c.08-.37.16-.75.23-1.12-6.83-3.04-12.57-8.68-20.96-8.02-1.86.15-3.78-.2-5.62.06-12.18,1.67-22.8-2.62-33.66-9.06h18.34c.04-.81.13-1.2.06-1.23-9.54-3.82-18.59-9.33-29.44-8.64-4.82.31-9.34-.72-13.92-2.26-7.31-2.46-14.8-4.38-22.2-7.24h12.99c-10.47-3.39-21.16-4.96-31.81-6.88-18.97-3.42-38.18-1.18-57.2-2.94-2.1-.19-4.26.08-6.27-.84C511.78.08,638.06.09,764.34,0c3.01,0,3.66.55,3.66,3.63-.1,106.3-.09,212.59-.09,318.89Z"/>
      <path class="cls-8" d="m571.52,713.37c.13-.16.29-.26.5-.3.82-.02,1.44-.34,1.77-1.13.12-.19.29-.3.51-.35,1.99.07,3.39-1.03,4.69-2.33,4.12-.03,8.24-.07,12.36-.1,4.98-.52,8.45-3.56,11.67-7.01.14-.17.32-.27.53-.29.86,0,1.42-.42,1.71-1.23.12-.17.28-.27.48-.31,4.96-1.3,8.29-5.15,12.21-8.01,2.4-1.75,5.56-2.85,6.79-5.99.71-.55,1.41-1.1,2.12-1.66,2.87-.69,4.9-2.4,6.13-5.07.42-.33.84-.67,1.27-1,1.67-.19,2.79-1.05,3.25-2.7.66-.6,1.33-1.2,1.99-1.81,2.34-.54,3.87-2.01,4.81-4.17l.08-.08c4.46-2.17,7.59-5.75,10.39-9.7,1.14-1.11,2.28-2.22,3.42-3.33,1.84-.21,2.84-1.26,3.07-3.08.61-.64,1.22-1.28,1.83-1.93,6.38-4.47,10.98-10.66,15.94-16.5.41-.48.37-1.17-.3-1.6-3.74-.07-7.48-.15-11.22-.22,3.51-5.43,7.74-10.29,11.94-15.17.97-1.13,2.46-1.08,3.84-1.08,4.36-.02,8.71-.02,13.07-.03,1.9,0,3.9-.07,5.14-1.7,3.39-4.45,6.69-8.97,9.93-13.54.85-1.2.95-2.44-1.23-2.1-8.48-.02-16.97-.03-25.45-.05.19-1.24.39-2.48.58-3.73.05-.21.15-.38.32-.52,3.25-2.64,5.38-5.98,6.38-10.04.01-.2.09-.37.24-.5,1.22-.23,1.8-1.12,2.2-2.19,8.49-.04,16.98-.2,25.46-.07,2.81.04,4.64-.62,5.96-3.29,1.76-3.57,3.97-6.93,5.93-10.41,2.03-3.59,2-3.63-2.33-3.64-7.49-.02-14.98-.09-22.47.03-2.88.05-3.16-.8-1.93-3.21,3.25-6.33,6.41-12.7,9.43-19.14.94-2,2.15-2.69,4.31-2.66,7.61.11,15.23-.03,22.85.08,2.34.03,3.65-.74,4.51-2.96,2.43-6.28,5-12.51,7.6-18.72,1.06-2.52.28-3.39-2.35-3.33-4.37.1-8.74-.08-13.11.06-2.65.08-3.56-.44-2.58-3.35,3.42-10.18,3.33-10.31,14.03-10.32,2.79,0,3.97-1.05,4.73-3.57,2.64-8.76,2.71-8.74-6.31-8.74-3.75,0-7.49-.07-11.24.02-2.29.05-3.1-.49-2.45-3.05,2.39-9.4,2.3-9.42,11.98-9.43,4.62,0,9.24-.1,13.86.04,2.29.07,3.28-.75,3.8-3.02,2.07-9.02,2.14-9-7.12-9-5.99,0-11.99-.07-17.98.03-2.53.04-3.41-.67-2.6-3.29.62-2.01.8-4.15,1.16-6.24.17-.99.29-2.35,1.44-2.34,5.38,0,3.16-4.66,4.46-7.11.54-1.02-.3-1.67-1.33-1.65-2.89.07-2.34-1.68-2.09-3.53.29-2.15.64-3.65,3.5-3.61,8.11.11,16.21-.1,24.32-.18,0,109.1-.01,218.21.07,327.31,0,2.81-.63,3.45-3.44,3.45-104.1-.08-208.21-.07-312.31-.07,1.02-2.4,4.12-.72,5.33-2.73.98-.06,1.95-.12,2.93-.19,5.46.65,10.69-1.11,16.05-1.59,2.24-.2,4.77.04,6.51-2.02.48-.04.97-.07,1.45-.11,4.91.06,9.44-1.49,13.98-3.26-13.53-2.02-27.14-.55-41.72-1.52,3.49-2.42,6.49-2.64,9.29-3.42,3.81-1.06,7.81-1.6,11.04-4.21,12.97-.09,25.94-.18,38.91-.26.85.48,1.71.27,2.53-.02,7.13-2.59,14.27-5.16,21.37-7.84,1.07-.4,2.38-.76,2.97-2.24-.94-.87-2-.75-3.09-.46-7.44-.01-14.88-.03-22.32-.04,8.01-4.09,15.58-9.23,25.33-8.44,5.69.46,11.46.3,17.17.01,5.59-.28,10.48-2.57,14.54-6.5.16-.15.35-.23.57-.24,2.12.05,3.8-1.07,5.48-2.13.58-.37,1.37-.94.54-1.73-.23-.22-.89,0-1.36.02-4.73-.03-9.46-.06-14.19-.09.24-.85.48-1.69.73-2.54.15-.16.34-.25.56-.27,2.04-.1,3.81-.65,4.69-2.74Z"/>
      <path class="cls-8" d="m47.18,599.33c1.83,1.16,3.87.55,5.8.59,7.81.13,15.62.16,23.42.22.69,1.17,1.37,2.34,2.08,3.5,2.66,4.34,6.4,7.95,8.52,12.66-5.73.03-11.47.05-17.2.08-1.25-.3-1.73.28-1.21,1.36.7,1.44,1.65,2.75,3.21,3.43.11.16.22.32.33.48,2.39,4.46,5.5,8.34,9.52,11.45,4.51,1.07,9.11.13,13.65.55,1.16,1.11,1.94,2.65,3.61,3.19.35.42.7.83,1.06,1.25,1.59,3.31,4.11,5.78,7.12,7.8.61.66,1.22,1.32,1.83,1.98,4.23,5.76,9.16,10.8,15,14.95.91.86,1.82,1.71,2.73,2.57,1.73,2.81,4.04,4.99,7.03,6.42.15.12.31.23.46.34,5.97,6.69,12.99,12.11,20.51,16.93.16.11.32.21.49.31,2.06,2.61,4.5,4.7,7.73,5.72.44.32.87.65,1.31.97,1.7,2.54,4.24,3.9,7.01,4.92.16.12.31.23.47.35,1.35,2.26,3.76,3.14,5.82,4.46.61.39,1.41.75,1.09,1.67-.24.69-1,.63-1.6.66-1.74.06-3.48.04-5.21.12-.71.03-1.6.02-1.78.95-.14.7.47,1.14,1,1.43,3.78,2.09,7.05,5.12,11.35,6.24.17.1.35.19.53.27.75,1.31,1.9,1.82,3.37,1.7,6.68.1,13.36.19,20.05.29,2.02,1.75,4.23,3.1,6.92,3.54l2.6,1.31c1.57,2.15,3.93,2.77,6.33,3.31,0,0,.05.02.05.02-.12.44-.24.88-.36,1.33-7.44.01-14.88.03-22.32.04-.84-.48-1.84-.62-2.32.25-.49.87.52,1.29,1.14,1.57,2.38,1.05,4.59,2.55,7.26,2.87.19.08.38.15.57.22,3.11,2.54,6.73,3.83,10.64,4.47,10.17.07,20.33.14,30.5.21,2.95,2.47,6.66,3.28,10.12,4.62,3.41,1.32,6.91,2.43,10.11,4.22-.04.36-.08.73-.12,1.09h-29.03c-.05.46-.09.93-.14,1.39,7.97,2.88,16.1,5.24,24.49,6.76l1.31.19c2.73,1.77,5.85,1.92,8.94,1.95,7.96.07,15.91.06,23.87.02,9.31-.04,18.62-.15,27.93-.23.69.05,1.37.09,2.06.14.88,1.01,1.96,1.2,3.19.74.41.07.81.14,1.22.22.75.79,1.63,1.08,2.69.79.44.06.89.11,1.33.17,2.87,1.28,5.82,2.13,9,1.82.67.04,1.34.09,2,.13,2.91,1.78,6.16,1.66,9.39,1.67.7.04,1.4.09,2.1.13,1.91.94,3.89,1.38,6,.91.94.06,1.87.12,2.81.18,1.66,1.31,3.5,1.36,5.43.82.66.04,1.31.07,1.97.11.24.58.83,1.12.28,1.82-123.65,0-247.3,0-370.96.07-2.63,0-3.29-.45-3.29-3.22.1-91.68.08-183.36.08-275.04,5.24-.04,10.48-.04,15.71-.16,1.88-.04,2.89.55,3.53,2.47,3.09,9.24,3.15,9.22-6.66,9.34-4.37.05-4.62.34-3.16,4.49,4.36,12.36,1.28,9.74,13.98,9.96,9.68.17,9.68.04,13.39,9.07,1.66,4.03,3.27,8.09,5.05,12.07,1.11,2.48.89,3.61-2.21,3.56-7.24-.13-14.48.03-21.71-.07-2.78-.04-3.69.61-2.27,3.38,3.13,6.1,6.18,12.25,9.1,18.46,1.1,2.34,2.55,3.24,5.19,3.18,7.86-.18,15.72.02,23.58-.11,2.31-.04,3.64.76,4.7,2.78,1.97,3.75,4.08,7.44,6.32,11.03,1.62,2.59,1.5,3.62-1.94,3.56-8.36-.13-16.72,0-25.08.02-1.73.35-1.08.94-.16,1.57.1.17.2.34.31.51.43,2.27,1.58,4.11,3.4,5.52.11.16.21.33.31.5,1.2,3.3,3.01,6.19,5.72,8.48Z"/>
      <path class="cls-8" d="m305.18,10.31c-3.86.11-7.76.56-11.59.27-11.45-.87-21.83,3.43-32.51,6.29-2.49.67-5.07,1.21-7.88,3.15,3.35.16,6.07.29,9.38.45-13.45,6.05-26.36,11.22-41.02,9.47-9.29-1.11-16.16,5.36-24.22,8.17.06.4.12.8.19,1.2h21.67c.05.36.1.72.15,1.08-7.03,2.9-12.83,8.78-21.48,7.76-3.7-.44-7.51.21-11.23-.13-8.4-.77-16.13.67-22.79,6.13-1.4,1.14-4.74.89-3.41,4.32.07.18-1.11.85-1.72,1.27-5.49,3.7-10.98,7.4-16.48,11.07-.71.47-1.49,1.11-2.28,1.16-7.91.5-11.64,7.4-17.73,10.64.11.44.22.87.33,1.31h26.89c.1.37.2.74.3,1.12-3.85,3.26-7.69,6.54-11.57,9.75-.92.76-2.16.49-3.27.49-6.5.01-12.99.13-19.49-.05-2.98-.08-5.29.75-7.35,2.87-2.17,2.24-4.56,4.26-6.83,6.4-.62.58-1.66,1.16-1.36,2.07.39,1.2,1.69.79,2.63.8,5.12.04,10.24.01,15.36.05.81,0,1.99-.35,2.21.77.1.51-.72,1.2-1.14,1.79-.14.2-.39.32-.54.51-4.81,6.48-10.93,9.86-19.25,8.27-1.98-.38-3.52.59-4.94,2.06-5.72,5.95-11.04,12.23-16.38,18.51-.53.63-1.51,1.23-.93,2.2.51.87,1.57.51,2.41.58,3.05.24,6.18-.48,9.6.61-4.15,5.5-8.11,10.75-12.1,15.99-.89,1.17-2.22.95-3.46.95-5.87,0-11.74.05-17.61-.03-2.07-.03-3.53.65-4.7,2.42-3.03,4.58-6.17,9.09-9.28,13.62-1.44,2.1-1.14,3.01,1.62,2.97,6.49-.1,12.99.06,19.49-.07,3.02-.06,3.09.81,1.67,3.12-3.4,5.53-6.69,11.13-9.88,16.78-1.02,1.81-2.34,2.28-4.26,2.27-7.87-.07-15.74.11-23.61-.09-2.94-.07-4.5,1-5.82,3.54-4.9,9.42-9.5,18.98-13.76,28.7-.56,1.27-2.03,3.15,1.13,3.4,1.66.13,1.13,1.27.76,2.21-3,7.77-6,15.53-9,23.3,0-86.18.02-172.36-.08-258.53C0,.48.64.01,3.28.01c108.41.08,216.82.07,325.22.07,1.23,3.34,3.96,2,6.26,2,2.42.06,4.84.12,7.26.18-1.26.55-2.52,1.11-3.78,1.66-.4.05-.8.09-1.2.14-8.17.02-16.08,1.38-23.67,4.48-.48.09-.96.17-1.44.26-1.2-.6-2.23-.45-3.04.69-.48.06-.95.12-1.43.18-.99-.59-1.76-.39-2.3.64Z"/>
      <path class="cls-11" d="m767.91,339.76c-6.46.06-12.92.08-19.38.2-2.01.04-3.04-.65-3.01-2.76.02-.99-.03-2.01-.29-2.96-.65-2.4.35-3.09,2.63-3.05,5.34.09,10.69.05,16.04.01,1.34,0,2.74.31,4.01-.45v9Z"/>
      <path class="cls-11" d="m.08,465.74c4.48-.07,8.96-.12,13.45-.22,1.33-.03,2.13.49,2.39,1.81.07.37.2.72.29,1.08q2.14,8.71-6.79,8.7c-3.11,0-6.23-.08-9.34-.12,0-3.75,0-7.5,0-11.25Z"/>
      <path class="cls-9" d="m767.91,430.5c-6.2-.94-12.43-.13-18.64-.45-1.39-.07-3.92.79-3.34-1.97.47-2.21-1.09-5.99,3.64-5.87,6.11.15,12.22.04,18.34.04v8.25Z"/>
      <path class="cls-7" d="m767.91,399.75c-5.46-.01-10.92-.05-16.38-.03-2.28.01-3.89-.49-3.83-3.27.06-2.65.67-4.77,3.83-4.82,5.46-.09,10.92-.09,16.38-.13v8.25Z"/>
      <path class="cls-2" d="m.08,357.01c2.72.11,5.44.32,8.15.28,2.39-.03,3.29.87,3.19,3.32-.24,5.83-.23,5.91-6.15,5.94-1.73,0-3.46.13-5.19.2,0-3.25,0-6.5,0-9.75Z"/>
      <path class="cls-12" d="m.08,322.52c3.12.03,6.23.12,9.35.07,1.64-.03,2.31.62,2.05,2.23-.26,1.6-.57,3.19-.76,4.8-.18,1.55-1.25,1.63-2.43,1.66-2.74.07-5.47.16-8.21.24v-9Z"/>
      <path class="cls-12" d="m767.91,357.76c-1.99-.03-3.98-.09-5.97-.1-4.92-.02-6.17-1.53-5.63-6.49.17-1.58,1.07-1.76,2.27-1.75,3.11.02,6.22.06,9.32.09v8.25Z"/>
      <path class="cls-6" d="m.08,399c2.71.67,5.46.28,8.19.36,3.26.1,2.84,2.46,3.01,4.53.17,2.16-.69,3.27-2.98,3.24-2.74-.03-5.48.07-8.22.12,0-2.75,0-5.5,0-8.25Z"/>
      <path class="cls-7" d="m767.91,375.01c-5.09,0-10.17.01-15.26-.04-4.56-.04-4.97-.53-4.73-5.32,6.6,1.77,13.33.47,19.98.86v4.5Z"/>
      <path class="cls-10" d="m.08,429.75c1.72.08,3.48.42,5.15.19,3.46-.48,4.75.83,5.03,4.3.21,2.56-.64,2.99-2.78,2.93-2.47-.07-4.94.05-7.4.08,0-2.5,0-5,0-7.5Z"/>
      <path class="cls-4" d="m767.91,370.51c-6.66-.39-13.39.91-19.98-.86-.3-2.44,1.11-2.98,3.17-2.96,5.61.05,11.21.05,16.82.07v3.75Z"/>
      <path class="cls-10" d="m.08,339.76c.22.1.44.26.67.29,5.38.64,6.34,2.09,4.9,7.41-.9,3.31-3.69,1.43-5.57,2.05,0-3.25,0-6.5,0-9.75Z"/>
      <path class="cls-11" d="m767.15,414.63c-3.22-.03-6.45-.07-9.67-.1-.14-.58-.28-1.15-.42-1.73-.02-.83-.04-1.65-.07-2.48,3.56-1.41,7.27-.72,10.92-.82v4.5c-.26.21-.51.42-.77.63Z"/>
      <path class="cls-12" d="m.08,414.75c3.19-.44,5.4-.05,5.51,4.13.13,4.89-3.84,2.04-5.51,3.37v-7.5Z"/>
      <path class="cls-4" d="m342.03,2.26c-2.42-.06-4.84-.12-7.26-.18.87-1.48,2.35-1.09,3.66-1.16,1.97-.12,3.96,0,5.82-.84h9.75c-.26,3.03-2.27,3.25-4.63,2.9-2.36-1.09-4.81-1.33-7.34-.72Z"/>
      <path class="cls-6" d="m374.25,767.93c.55-.71-.04-1.24-.28-1.82,7.63.18,15.3-.22,22.78,1.82h-15.75c-1-.75-2-1.01-3,0h-3.75Z"/>
      <path class="cls-3" d="m767.91,409.5c-3.65.11-7.37-.59-10.92.82-.86-2.37-.06-3.44,2.48-3.49,2.81-.06,5.65.35,8.44-.33v3Z"/>
      <path class="cls-5" d="m457.57,765.2c-1.21,2.01-4.32.33-5.33,2.73h-20.25c0-.28-.02-.55-.03-.83,2.97-.15,5.94-.3,8.91-.46.54-.07,1.08-.14,1.62-.22,5.03-.41,10.06-.82,15.08-1.23Z"/>
      <path class="cls-5" d="m344.25.08c-1.86.84-3.86.72-5.82.84-1.31.08-2.79-.32-3.66,1.16-2.3,0-5.03,1.34-6.26-2h15.75Z"/>
      <path class="cls-7" d="m431.96,767.1c0,.28.02.55.03.83h-7.5c2.25-2.39,4.87-1.54,7.47-.83Z"/>
      <path class="cls-4" d="m357,.08c-.5.73-1,.75-1.5,0h1.5Z"/>
      <path class="cls-8" d="m378,767.93c1-1.01,2-.75,3,0h-3Z"/>
      <path class="cls-3" d="m767.15,414.63c.26-.21.51-.42.77-.63v.75c-.26-.04-.51-.08-.77-.12Z"/>
      <path class="cls-11" d="m414.54,366.68h13.03c-19.05-2.3-38.14-2.45-57.23-1.27-12.72.79-25.43,1.56-38.19,1.35-19.25-.32-38.01,3.49-56.8,6.97-.43.08-.82.41-1.16,1.32h23.42c-.14,1.89-1.43,2.16-2.15,2.85-2.83,2.66-4.53,5.91-3.65,9.72.87,3.76-.72,4.08-3.77,4.01-7.12-.17-14.25-.11-21.37,0-1.34.02-3.54-1.08-3.77,1.64-.26,3.06,1.63,6.02,3.96,6.04,7.75.07,15.5.02,23.24.04,1.6,0,3.15-.22,3.97,1.89,1.86,4.82,1.42,5.61-3.72,5.62-3.75,0-7.5-.07-11.25.05-1.28.04-3.71-.72-3.24,1.68.43,2.22-.49,5.8,3.43,6.06,3.11.21,6.25.14,9.37.04,4.23-.13,3.51,3.43,3.81,5.61.36,2.6-2.22,1.71-3.61,1.73-5.25.11-10.5.13-15.74.03-5.08-.1-3.05,4.12-3.57,6.31-.65,2.77,2.21,1.56,3.46,1.6,6.12.16,12.24.07,18.37.09.85,0,2-.29,2.4.6.51,1.14-.66,1.76-1.36,2.38-3.58,3.14-7.93,4.13-12.52,4.19-7.62.09-15.25.09-22.87.02-8-.08-15.63,2.48-22.12,6.27-6.16,3.61-12.59,6.83-19.12,8.42-10.74,2.62-20.07,8.08-30.07,12.12-5.25,2.12-10.67.62-15.91,1.42-8.72,1.33-14.16-3.39-19.01-9.47-.66-.83-3.03-2.32.27-3.02.63-.13.63-.53.52-1.11-.43-2.21-5.09-6.8-7.49-7.42-3.02-.79-3.84-3.56-4.35-5.98-.35-1.67,1.81-1.19,2.91-1.2,7-.06,14,.04,20.99-.1,1.5-.03,3.78,1.16,4.45-1.25.56-2.02-2.9-5.83-5.09-5.85-6.75-.05-13.5-.02-20.24-.03-3.29,0-6.62-3.4-6.5-6.56.07-1.85,1.49-1.38,2.48-1.39,5.12-.06,10.25.06,15.37-.09,1.36-.04,3.56,1.17,3.97-1.36.36-2.2-2.56-5.86-4.53-5.91-3.12-.08-6.25.02-9.37-.05-2.28-.05-5.38-4.88-4.46-6.92.52-1.15,1.67-.91,2.64-.92,4.5-.03,9,0,13.5-.04,1.58-.02,3.7.25,3.13-2.35-.44-2.01.59-5.15-3.31-5.12-7.5.06-15-.14-22.49.07-3.27.09-4.41-.9-4.33-4.22.06-2.71.71-3.77,3.6-3.7,7.62.17,15.25-.04,22.87.11,2.71.05,4.07-.53,4.28-3.59.21-3.08.92-6.2,1.91-9.14.97-2.87.4-3.79-2.66-3.74-7.37.13-14.74.06-22.12.03-4.15-.01-4.13-.17-2.51-3.9,1.45-3.34,3.4-4.92,7.38-4.68,6.97.41,13.99.12,20.99.11,2.49,0,8.83-5.21,9.19-7.59.25-1.64-1.09-1.4-1.99-1.41-4.25-.06-8.5-.02-12.75-.07-.83,0-1.93.35-2.37-.61-.48-1.05.67-1.47,1.25-2.03,3.87-3.75,8.06-6.65,13.92-5.62,8.95,1.57,14.63-5.44,22.08-7.81-.08-.46-.15-.93-.23-1.39h-17.14c-.04-.4-.09-.8-.13-1.2,8.63-2.83,16.31-8.55,26.12-7.79,2.98.23,6.03-.27,8.99.09,11.7,1.44,21.46-4.57,31.93-8.52h-24.2c-.06-.38-.11-.75-.17-1.13,7.85-2.22,15.65-4.59,23.54-6.62,49.92-12.86,100.63-16.94,152.01-13.78,30.78,1.89,61.05,6.78,90.85,14.62,2.41.63,4.9,1.12,7.19,2.08,12.84,5.39,26.34,5.09,39.82,4.62,10.29-.35,18.86,4.84,28.19,7.56-.03.36-.07.72-.1,1.07h-20.55c-.05.39-.1.77-.15,1.16,8.71,2.44,16.18,8.71,26.02,7.74,2.23-.22,4.53.22,6.74-.08,9.49-1.27,17.21,3.11,24.91,7.59.51.3,1.11.6,1.09,1.83h-11.47c5.32,4.59,9.11,9.59,16.29,8.28,2.3-.42,4.79.26,7.1-.13,5.8-.99,9.1,2.19,11.87,6.52.39.62,1.11,1.21.79,1.98-.44,1.07-1.53.6-2.32.61-7.25.04-14.5.13-21.74-.02-3.18-.07-3.44.54-2.15,3.51,1.7,3.91,3.96,5.34,8.25,5.1,6.98-.39,13.99,0,20.99-.16,2.66-.06,4.16.72,4.86,3.42.82,3.15,1.52,6.31,2.04,9.52.41,2.56-.29,3.61-3.08,3.56-7.49-.15-15,.09-22.49-.11-3.25-.09-4.64.63-4.67,4.27-.03,3.7,1.89,3.61,4.45,3.59,7-.07,14-.05,20.99,0,1.48.01,3.73-.54,3.27,2.18-.35,2.13.32,5.22-3.31,5.28-5,.09-10,0-14.99.06-2.49.03-5.7,4.76-4.82,6.99.44,1.11,1.44.8,2.25.81,2.62.05,5.25.13,7.87,0,2.68-.14,2.76.81,1.99,3.08-1.07,3.16-2.68,4.63-6.24,4.4-5.1-.32-10.24-.1-15.37-.07-3.08.01-6.65,3.68-6.5,6.66.09,1.86,1.61,1.24,2.55,1.25,6,.07,12-.05,17.99.11,1.45.04,4.4-1.08,4.09,1.29-.3,2.28-.98,5.77-4.72,5.83-5.12.08-10.25.03-15.37.04-2.75,0-5.53.24-8.24-.06-3.7-.41-5.91,1.08-7.24,4.41-.51,1.28-1.66,2.53.78,2.96.5.09.86.33.89.97.06,1.6-4.83,7.52-6.55,7.49-2.04-.04-3.22.97-4.33,2.42-.83,1.09-1.81,2.07-2.7,3.12-4.21,4.96-9.37,6.51-16.02,7.13-14.3,1.33-26.03-5.08-37.23-11.61-6.27-3.66-12.64-6.87-19.3-8.74-6.82-1.92-13.6-3.96-20.34-6.12-.8-.26-1.57-.62-2.3-1.77h21.7c.05-.33.1-.66.15-.99-4.74-2.67-8.11-7.66-14.97-6.56-5.12.82-10.47.18-15.72.15-3.58-.02-4.63-1.29-4.77-5.06-.12-3.5,2.34-2.89,4.37-2.9,5.37-.05,10.75.01,16.12-.04,2.65-.02,5.22-3.73,4.52-6.29-.34-1.22-1.29-1-2.1-1.02-2.87-.05-5.75-.09-8.62-.01-1.95.05-2.67-.49-2.23-2.63,1.05-5.05,1.16-5.25,6.26-5.26,4.25,0,8.5.04,12.75-.04,2.53-.05,5.26-4.32,4.22-6.51-.63-1.33-1.94-.9-2.98-.91-7.12-.04-14.25.05-21.37-.1-1.27-.03-4.02,1.18-3.57-1.55.38-2.29-.39-6.1,3.84-6.14,7.37-.08,14.75-.03,22.12-.03,6.35,0,8.64-3.56,5.88-9.49-1.97-4.23-5.14-7.17-10.19-6.85-18.24,1.16-36.08-1.59-53.87-5.22-6.46-1.32-13.07-1.87-19.62-2.78.05-.19.09-.37.14-.56Z"/>
      <path class="cls-5" d="m477.1,748.89c-3.22,2.6-7.23,3.14-11.04,4.21-2.8.78-5.81,1.01-9.29,3.42,14.58.96,28.19-.5,41.72,1.52-4.54,1.77-9.07,3.32-13.98,3.26,2.32-1.56,5.38-.94,8.4-3.08h-46.16c-.03-.28-.07-.56-.1-.83,10.15-2.83,20.31-5.66,30.46-8.5Z"/>
      <path class="cls-6" d="m262.71,756.37c-8.39-1.52-16.52-3.88-24.49-6.76.05-.46.09-.93.14-1.39h29.03c.04-.36.08-.73.12-1.09-3.19-1.79-6.69-2.9-10.11-4.22-3.46-1.34-7.17-2.15-10.12-4.62,8.63,3.08,17.26,6.17,25.89,9.25l-.14,1.14h-30.85c1.34,2.29,2.98,2.12,4.22,2.53,5.41,1.8,11.13,2.62,16.3,5.16Z"/>
      <path class="cls-5" d="m710.2,599.84c2.19-.34,2.08.9,1.23,2.1-3.23,4.57-6.53,9.09-9.93,13.54-1.24,1.62-3.23,1.7-5.14,1.7-4.36,0-8.71,0-13.07.03-1.38,0-2.87-.04-3.84,1.08-4.2,4.88-8.43,9.74-11.94,15.17-1.81-.07-1.38-1.01-.67-1.89,3.75-4.66,7.55-9.27,11.28-13.94,1.1-1.38,2.55-1.36,4.06-1.36,4.61,0,9.22-.08,13.83.03,2.3.06,4.09-.49,5.45-2.47,2.54-3.69,5.22-7.29,7.8-10.96.62-.88,1.51-1.75.93-3.03Z"/>
      <path class="cls-5" d="m574.51,723.09c-4.06,3.93-8.95,6.22-14.54,6.5-5.71.28-11.48.45-17.17-.01-9.75-.79-17.32,4.35-25.33,8.44-.84.3-1.65.45-2.49-.61,6.15-2.81,12.2-5.61,18.29-8.3.98-.43,2.18-.44,3.28-.47,2.98-.06,5.97-.12,8.95,0,10.11.4,20.14.5,29-5.54Z"/>
      <path class="cls-6" d="m324.76,758.3c-9.31.08-18.62.19-27.93.23-7.96.04-15.91.04-23.87-.02-3.09-.03-6.21-.17-8.94-1.95,19.37,2.36,38.81.75,58.22,1.15.84.02,1.68.38,2.52.58Z"/>
      <path class="cls-6" d="m182.34,716.88c-4.31-1.12-7.58-4.15-11.35-6.24-.53-.29-1.14-.73-1-1.43.18-.93,1.07-.92,1.78-.95,1.74-.08,3.48-.06,5.21-.12.6-.02,1.35.04,1.6-.66.32-.92-.48-1.28-1.09-1.67-2.07-1.32-4.48-2.2-5.82-4.46,3.45,1.23,6.24,3.54,9.22,5.54.58.39,1.49.79,1,1.66-.22.38-1.07.53-1.64.54-2.45.06-4.9.02-7.99.02,2.87,4.17,7.66,4.43,10.09,7.77Z"/>
      <path class="cls-3" d="m210.81,465.93c-6.08,2.68-11.05,2.75-16.8.24,2.46-1.3,13.06-1.45,16.8-.24Z"/>
      <path class="cls-3" d="m570.88,465.83c5.62-.86,11.2-.69,16.77-.06-5.58,3.14-11.19,2.41-16.77.06Z"/>
      <path class="cls-5" d="m539.79,738.06c1.09-.3,2.15-.41,3.09.46-.59,1.48-1.89,1.83-2.97,2.24-7.1,2.68-14.24,5.25-21.37,7.84-.82.3-1.68.5-2.53.02,6.98-2.62,13.98-5.2,20.92-7.92,1.16-.46,3.31-.26,2.86-2.64Z"/>
      <path class="cls-6" d="m154.64,689.08c-7.52-4.82-14.54-10.24-20.51-16.93,5.75,3.48,10.33,8.45,15.66,12.47,1.72,1.3,4,2.16,4.85,4.46Z"/>
      <path class="cls-5" d="m678.75,633.68c.66.43.71,1.12.3,1.6-4.96,5.84-9.57,12.03-15.94,16.5,4.72-5.34,9.45-10.68,14.16-16.03.56-.64,1-1.38,1.49-2.07Z"/>
      <path class="cls-5" d="m624.75,686.3c-1.23,3.15-4.39,4.24-6.79,5.99-3.92,2.86-7.26,6.71-12.21,8.01,6.12-4.96,12.37-9.74,19.01-14Z"/>
      <path class="cls-5" d="m313.38,8.54c7.58-3.1,15.5-4.47,23.67-4.48-6.01,2.12-12.43,2.12-18.57,3.65-1.64.41-3.3,1.2-5.1.83Z"/>
      <path class="cls-5" d="m483.05,761.4c-1.73,2.05-4.26,1.81-6.51,2.02-5.35.48-10.58,2.24-16.05,1.59,7.45-1.64,14.99-2.69,22.55-3.61Z"/>
      <path class="cls-6" d="m87.01,616.3c-2.11-4.71-5.86-8.32-8.52-12.66-.71-1.16-1.39-2.33-2.08-3.5,2.34.58,2.94,2.85,4.18,4.45,2.35,3.03,4.55,6.18,6.77,9.31.59.83,2.12,1.95-.35,2.41Z"/>
      <path class="cls-6" d="m123.91,662.81c-5.83-4.15-10.77-9.19-15-14.95,5.53,4.45,10.48,9.48,15,14.95Z"/>
      <path class="cls-6" d="m81.66,633.09c-4.02-3.11-7.13-6.98-9.52-11.45,3.93,3.19,6.9,7.18,9.52,11.45Z"/>
      <path class="cls-5" d="m654.77,660.12c-2.8,3.95-5.93,7.53-10.39,9.7,3.04-3.69,6.48-6.95,10.39-9.7Z"/>
      <path class="cls-5" d="m603.02,702.14c-3.22,3.46-6.69,6.49-11.67,7.01,4.1-1.98,7.41-5.29,11.67-7.01Z"/>
      <path class="cls-5" d="m692.03,585.5c-1,4.06-3.14,7.4-6.38,10.04,1.63-3.67,3.69-7.05,6.38-10.04Z"/>
      <path class="cls-6" d="m205.58,733.38c-2.67-.32-4.88-1.82-7.26-2.87-.62-.27-1.63-.7-1.14-1.57.49-.87,1.48-.74,2.32-.25.93,2.98,4.67,2.32,6.08,4.69Z"/>
      <path class="cls-6" d="m107.09,645.89c-3.01-2.02-5.53-4.49-7.12-7.8,2.95,2.08,5.45,4.56,7.12,7.8Z"/>
      <path class="cls-6" d="m216.79,738.07c-3.9-.64-7.53-1.94-10.64-4.47,3.81.85,7.37,2.32,10.64,4.47Z"/>
      <path class="cls-5" d="m342.03,2.26c2.53-.61,4.98-.37,7.34.72-3.75-.24-7.34,1.55-11.12.94,1.26-.55,2.52-1.11,3.78-1.66Z"/>
      <path class="cls-6" d="m133.66,671.8c-2.99-1.43-5.3-3.6-7.03-6.42,2.97,1.45,5.23,3.68,7.03,6.42Z"/>
      <path class="cls-6" d="m47.18,599.33c-2.71-2.29-4.52-5.18-5.72-8.48,2.65,2.32,4.46,5.22,5.72,8.48Z"/>
      <path class="cls-6" d="m162.86,695.11c-3.23-1.02-5.67-3.11-7.73-5.72,3,1.33,5.62,3.18,7.73,5.72Z"/>
      <path class="cls-6" d="m344.26,762.16c-3.18.3-6.14-.54-9-1.82,3.18-.28,6.15.48,9,1.82Z"/>
      <path class="cls-6" d="m355.65,763.96c-3.23,0-6.48.11-9.39-1.67,3.23,0,6.46-.05,9.39,1.67Z"/>
      <path class="cls-5" d="m579.74,719.01c.46-.02,1.13-.24,1.36-.02.83.79.03,1.37-.54,1.73-1.68,1.06-3.36,2.18-5.48,2.13,1.06-1.88,4.01-1.47,4.66-3.84Z"/>
      <path class="cls-6" d="m171.18,701c-2.78-1.01-5.31-2.37-7.01-4.92,2.73,1.08,5.26,2.45,7.01,4.92Z"/>
      <path class="cls-5" d="m633,679.58c-1.23,2.67-3.26,4.37-6.13,5.07,1.59-2.24,3.79-3.74,6.13-5.07Z"/>
      <path class="cls-6" d="m213.2,722.68c-2.68-.44-4.9-1.8-6.92-3.54,2.87.07,4.93,1.74,6.92,3.54Z"/>
      <path class="cls-6" d="m222.13,727.3c-2.4-.54-4.77-1.16-6.33-3.31,2.47.41,4.64,1.41,6.33,3.31Z"/>
      <path class="cls-6" d="m71.81,621.16c-1.56-.68-2.52-1.98-3.21-3.43-.52-1.08-.04-1.66,1.21-1.36-.15,1.94,2.01,2.91,2,4.78Z"/>
      <path class="cls-5" d="m566.28,716.38c-.24.85-.48,1.69-.73,2.54-.94.23-1.87.44-2.88-.45.94-1.21,2.23-1.72,3.61-2.09Z"/>
      <path class="cls-6" d="m41.15,590.36c-1.82-1.42-2.97-3.25-3.4-5.52,2.07,1.27,2.86,3.32,3.4,5.52Z"/>
      <path class="cls-5" d="m644.3,669.9c-.94,2.16-2.47,3.63-4.81,4.17,1.19-1.87,2.78-3.27,4.81-4.17Z"/>
      <path class="cls-6" d="m363.75,765c-2.12.47-4.1.03-6-.91,2.15-.69,4.1-.06,6,.91Z"/>
      <path class="cls-5" d="m571.52,713.37c-.88,2.09-2.65,2.64-4.69,2.74,1.22-1.5,2.82-2.36,4.69-2.74Z"/>
      <path class="cls-6" d="m372,766c-1.93.55-3.78.49-5.43-.82,1.91-.36,3.74-.25,5.43.82Z"/>
      <path class="cls-5" d="m578.99,709.25c-1.3,1.31-2.7,2.41-4.69,2.33,1.27-1.36,2.62-2.57,4.69-2.33Z"/>
      <path class="cls-5" d="m685.33,596.06c-.19,1.24-.39,2.48-.58,3.73-.6.19-1.46.26-1.52-.36-.17-1.57.83-2.6,2.11-3.36Z"/>
      <path class="cls-6" d="m98.91,636.83c-1.66-.54-2.45-2.08-3.61-3.19,2.23-.1,3.01,1.43,3.61,3.19Z"/>
      <path class="cls-5" d="m637.51,675.87c-.46,1.65-1.58,2.51-3.25,2.7.67-1.4,1.76-2.29,3.25-2.7Z"/>
      <path class="cls-5" d="m661.27,653.71c-.23,1.81-1.23,2.87-3.07,3.08.61-1.44,1.64-2.46,3.07-3.08Z"/>
      <path class="cls-6" d="m186.24,718.85c-1.47.12-2.62-.39-3.37-1.7,1.37.08,2.5.64,3.37,1.7Z"/>
      <path class="cls-6" d="m221.82,728.65c.12-.44.24-.88.36-1.33.73-.04,1.77,0,1.65.81-.16,1.16-1.22.77-2.02.52Z"/>
      <path class="cls-5" d="m308.91,9.48c.81-1.14,1.84-1.28,3.04-.69-.91.69-1.9,1-3.04.69Z"/>
      <path class="cls-6" d="m330.01,759.17c-1.23.46-2.3.27-3.19-.74,1.2-.35,2.24-.02,3.19.74Z"/>
      <path class="cls-5" d="m694.47,582.82c-.4,1.06-.97,1.95-2.2,2.19.23-1.24.69-2.24,2.2-2.19Z"/>
      <path class="cls-5" d="m305.18,10.31c.54-1.04,1.31-1.23,2.3-.64-.67.56-1.42.84-2.3.64Z"/>
      <path class="cls-6" d="m333.92,760.17c-1.06.29-1.95,0-2.69-.79,1.08-.36,1.98-.12,2.69.79Z"/>
      <path class="cls-5" d="m573.79,711.93c-.33.79-.95,1.12-1.77,1.13.33-.78.98-1.07,1.77-1.13Z"/>
      <path class="cls-6" d="m37.44,584.33c-.91-.62-1.57-1.22.16-1.57-.05.52-.11,1.04-.16,1.57Z"/>
      <path class="cls-3" d="m757.06,412.8c.14.58.28,1.15.42,1.73-1.29-.3-1.04-.97-.42-1.73Z"/>
      <path class="cls-5" d="m605.26,700.62c-.29.8-.85,1.22-1.71,1.23.33-.75.86-1.21,1.71-1.23Z"/>
      <path class="cls-7" d="m442.48,766.42c-.54.07-1.08.14-1.62.22.47-.59,1-.7,1.62-.22Z"/>
    </g>
  </g>
</svg>