<svg xmlns="http://www.w3.org/2000/svg" xmlns:xlink="http://www.w3.org/1999/xlink"
    zoomAndPan="magnify" viewBox="0 0 768 767.999994"
    preserveAspectRatio="xMidYMid meet" version="1.0">
    <path fill="#776d6d"
        d="M 768 384 C 768 596.074219 596.074219 768 384 768 C 171.925781 768 0 596.074219 0 384 C 0 171.925781 171.925781 0 384 0 C 596.074219 0 768 171.925781 768 384 "
        fill-opacity="1" fill-rule="nonzero" />
    <path fill="#ffffff"
        d="M 153.695312 418.96875 C 153.71875 418.972656 167.773438 455.105469 183.636719 464.507812 C 193.925781 470.585938 202.523438 467.320312 213.625 462.085938 C 235.234375 451.890625 257.347656 442.476562 280.480469 435.953125 C 286.855469 434.152344 290.832031 427.890625 289.265625 421.722656 C 286.402344 410.6875 283.480469 399.660156 280.507812 388.644531 C 278.808594 382.511719 283.523438 375.988281 291.148438 374.363281 C 320.28125 368.128906 350.152344 364.921875 380.039062 364.769531 C 381.359375 364.769531 386.640625 364.769531 387.960938 364.769531 C 417.847656 364.921875 447.714844 368.128906 476.851562 374.363281 C 484.476562 375.988281 489.191406 382.511719 487.492188 388.644531 C 484.519531 399.660156 481.597656 410.6875 478.734375 421.722656 C 477.167969 427.890625 481.144531 434.152344 487.519531 435.953125 C 510.652344 442.476562 532.765625 451.890625 554.375 462.085938 C 565.476562 467.320312 574.074219 470.585938 584.363281 464.507812 C 600.226562 455.105469 614.28125 418.972656 614.304688 418.96875 C 627.664062 390.730469 619.042969 359.117188 582.167969 342.550781 C 519.960938 314.839844 457.320312 300.640625 388.140625 300.203125 C 386.765625 300.203125 381.238281 300.203125 379.855469 300.203125 C 310.679688 300.640625 248.039062 314.839844 185.832031 342.550781 C 148.949219 359.117188 140.335938 390.730469 153.695312 418.96875 "
        fill-opacity="1" fill-rule="nonzero" />
</svg>