<?xml version='1.0' encoding='UTF-8'?>
<svg xmlns="http://www.w3.org/2000/svg" xmlns:xlink="http://www.w3.org/1999/xlink" zoomAndPan="magnify" viewBox="0 0 768 767.999994" preserveAspectRatio="xMidYMid meet" version="1.0">
  <path fill="#776d6d" d="M 768 384 C 768 596.074219 596.074219 768 384 768 C 171.925781 768 0 596.074219 0 384 C 0 171.925781 171.925781 0 384 0 C 596.074219 0 768 171.925781 768 384 " fill-opacity="1" fill-rule="nonzero"/>
  <path fill="#776d6d" d="M 153.695312 418.96875 C 153.71875 418.972656 167.773438 455.105469 183.636719 464.507812 C 193.925781 470.585938 202.523438 467.320312 213.625 462.085938 C 235.234375 451.890625 257.347656 442.476562 280.480469 435.953125 C 286.855469 434.152344 290.832031 427.890625 289.265625 421.722656 C 286.402344 410.6875 283.480469 399.660156 280.507812 388.644531 C 278.808594 382.511719 283.523438 375.988281 291.148438 374.363281 C 320.28125 368.128906 350.152344 364.921875 380.039062 364.769531 C 381.359375 364.769531 386.640625 364.769531 387.960938 364.769531 C 417.847656 364.921875 447.714844 368.128906 476.851562 374.363281 C 484.476562 375.988281 489.191406 382.511719 487.492188 388.644531 C 484.519531 399.660156 481.597656 410.6875 478.734375 421.722656 C 477.167969 427.890625 481.144531 434.152344 487.519531 435.953125 C 510.652344 442.476562 532.765625 451.890625 554.375 462.085938 C 565.476562 467.320312 574.074219 470.585938 584.363281 464.507812 C 600.226562 455.105469 614.28125 418.972656 614.304688 418.96875 C 627.664062 390.730469 619.042969 359.117188 582.167969 342.550781 C 519.960938 314.839844 457.320312 300.640625 388.140625 300.203125 C 386.765625 300.203125 381.238281 300.203125 379.855469 300.203125 C 310.679688 300.640625 248.039062 314.839844 185.832031 342.550781 C 148.949219 359.117188 140.335938 390.730469 153.695312 418.96875 " fill-opacity="1" fill-rule="nonzero"/>
  <path fill="#ffffff" d="M 559.007812 253.46875 C 543.578125 252.363281 528.160156 265.585938 523.75 282.113281 L 495.105469 364.742188 C 487.394531 379.066406 476.375 366.945312 477.476562 360.335938 C 478.578125 353.726562 500.613281 196.175781 500.613281 196.175781 C 503.917969 179.652344 501.714844 163.121094 485.183594 159.820312 C 468.660156 156.515625 456.539062 168.636719 453.234375 185.160156 C 453.234375 185.160156 430.097656 332.796875 423.484375 347.121094 C 416.871094 361.441406 410.265625 357.039062 410.265625 346.015625 C 410.265625 339.402344 421.28125 162.023438 421.28125 162.023438 C 422.386719 145.5 415.773438 130.070312 399.25 128.96875 C 382.726562 127.863281 375.007812 141.089844 373.910156 157.613281 C 373.910156 157.613281 357.386719 330.589844 356.28125 342.710938 C 355.179688 354.828125 344.160156 355.929688 341.960938 342.710938 C 339.757812 329.492188 333.144531 188.464844 333.144531 188.464844 C 333.144531 171.941406 325.433594 157.617188 308.902344 157.617188 C 292.375 157.617188 284.664062 171.941406 284.664062 188.464844 C 284.664062 188.464844 283.558594 332.796875 284.664062 359.238281 C 285.765625 387.886719 286.867188 459.496094 268.136719 461.699219 C 250.507812 463.902344 222.96875 442.972656 207.542969 419.835938 C 194.324219 401.109375 171.1875 388.988281 146.945312 392.292969 C 111.6875 396.699219 132.621094 424.246094 156.863281 450.6875 C 208.644531 506.875 221.863281 536.625 247.210938 574.085938 C 263.734375 599.421875 302.296875 640.1875 372.808594 639.085938 C 467.558594 637.980469 520.441406 600.523438 532.5625 437.464844 C 534.765625 401.109375 562.3125 286.523438 566.71875 273.304688 C 568.917969 271.097656 567.820312 253.46875 559.007812 253.46875 Z M 559.007812 253.46875 " fill-opacity="1" fill-rule="nonzero"/>
</svg>
