<svg xmlns="http://www.w3.org/2000/svg" xmlns:xlink="http://www.w3.org/1999/xlink"
    zoomAndPan="magnify" viewBox="0 0 768 767.999994"
    preserveAspectRatio="xMidYMid meet" version="1.0">
    <path fill="#0d3c26"
        d="M 520.59375 325.066406 L 520.59375 296.34375 C 520.59375 221.027344 459.316406 159.75 384 159.75 C 308.683594 159.75 247.40625 221.027344 247.40625 296.34375 L 247.40625 325.066406 C 215.605469 328.226562 190.6875 355.132812 190.6875 387.75 L 190.6875 466.5 C 190.6875 544.660156 254.277344 608.25 332.4375 608.25 L 435.558594 608.25 C 513.71875 608.25 577.308594 544.660156 577.308594 466.5 L 577.308594 387.75 C 577.3125 355.132812 552.394531 328.226562 520.59375 325.066406 Z M 384 195.75 C 439.46875 195.75 484.59375 240.875 484.59375 296.34375 L 484.59375 324.75 L 283.40625 324.75 L 283.40625 296.34375 C 283.40625 240.875 328.53125 195.75 384 195.75 Z M 541.3125 466.5 C 541.3125 524.8125 493.871094 572.25 435.5625 572.25 L 332.4375 572.25 C 274.128906 572.25 226.6875 524.8125 226.6875 466.5 L 226.6875 387.75 C 226.6875 372.863281 238.800781 360.75 253.6875 360.75 L 514.3125 360.75 C 529.199219 360.75 541.3125 372.863281 541.3125 387.75 Z M 384 0 C 172.261719 0 0 172.261719 0 384 C 0 595.738281 172.261719 768 384 768 C 595.738281 768 768 595.738281 768 384 C 768 172.261719 595.738281 0 384 0 Z M 384 732 C 192.113281 732 36 575.886719 36 384 C 36 192.113281 192.113281 36 384 36 C 575.886719 36 732 192.113281 732 384 C 732 575.886719 575.886719 732 384 732 Z M 384 732 "
        fill-opacity="1" fill-rule="nonzero" />
</svg>