<?xml version="1.0" encoding="UTF-8"?>
<svg id="Layer_2" data-name="Layer 2" xmlns="http://www.w3.org/2000/svg" xmlns:xlink="http://www.w3.org/1999/xlink" viewBox="0 0 768 315.14">
  <defs>
    <style>
      .cls-1 {
        clip-path: url(#clippath);
      }

      .cls-2 {
        fill: none;
      }

      .cls-2, .cls-3, .cls-4 {
        stroke-width: 0px;
      }

      .cls-3 {
        fill: #fff;
      }

      .cls-4 {
        fill: #ffc107;
      }
    </style>
    <clipPath id="clippath">
      <rect class="cls-2" width="768" height="315"/>
    </clipPath>
  </defs>
  <g id="Layer_1-2" data-name="Layer 1">
    <g class="cls-1">
      <path class="cls-4" d="M610.2,315.14H157.99C71.03,315.14.52,244.6.52,157.6S71.03.06,157.99.06h452.23c86.96,0,157.47,70.54,157.47,157.54-.02,87-70.51,157.54-157.49,157.54Z"/>
    </g>
    <path class="cls-3" d="M746.98,157.6c0,2.29-.06,4.57-.17,6.86-.11,2.29-.28,4.57-.5,6.84-.23,2.27-.51,4.55-.84,6.81-.34,2.26-.73,4.52-1.18,6.76-.45,2.25-.95,4.48-1.5,6.7s-1.17,4.42-1.83,6.61c-.66,2.19-1.38,4.36-2.15,6.51-.77,2.16-1.59,4.29-2.47,6.4s-1.8,4.2-2.78,6.27c-.98,2.07-2,4.11-3.08,6.13-1.08,2.02-2.2,4.01-3.38,5.97s-2.4,3.89-3.67,5.8c-1.27,1.9-2.59,3.77-3.95,5.61-1.36,1.84-2.77,3.64-4.22,5.41-1.45,1.77-2.94,3.5-4.48,5.2-1.54,1.7-3.11,3.35-4.73,4.97-1.62,1.62-3.27,3.2-4.97,4.73-1.69,1.54-3.42,3.03-5.19,4.48-1.77,1.45-3.57,2.86-5.41,4.22-1.84,1.36-3.71,2.68-5.61,3.95-1.9,1.27-3.84,2.49-5.8,3.67s-3.95,2.3-5.96,3.38c-2.02,1.08-4.06,2.11-6.12,3.09-2.07.98-4.16,1.9-6.27,2.78-2.11.88-4.25,1.7-6.4,2.47-2.15.77-4.32,1.49-6.51,2.15-2.19.66-4.39,1.27-6.61,1.83-2.21.55-4.45,1.06-6.69,1.5s-4.49.84-6.75,1.17c-2.27.34-4.53.62-6.81.84-2.27.23-4.55.39-6.84.5-2.29.11-4.57.17-6.86.17s-4.57-.05-6.86-.17c-2.29-.11-4.56-.28-6.84-.5-2.28-.22-4.54-.5-6.8-.84-2.27-.34-4.52-.73-6.76-1.17s-4.47-.95-6.69-1.5-4.42-1.16-6.61-1.83-4.36-1.38-6.51-2.15c-2.16-.77-4.29-1.59-6.4-2.47-2.11-.88-4.2-1.8-6.27-2.78-2.07-.98-4.11-2.01-6.13-3.09-2.02-1.08-4-2.21-5.96-3.38s-3.89-2.4-5.8-3.67c-1.9-1.27-3.77-2.59-5.61-3.95-1.84-1.36-3.64-2.77-5.41-4.22-1.77-1.45-3.5-2.95-5.19-4.48-1.7-1.54-3.35-3.11-4.97-4.73-1.62-1.62-3.19-3.27-4.73-4.97-1.54-1.7-3.03-3.43-4.48-5.2-1.45-1.77-2.86-3.57-4.22-5.41-1.36-1.84-2.68-3.71-3.95-5.61-1.27-1.9-2.5-3.84-3.67-5.8s-2.3-3.95-3.38-5.97c-1.08-2.02-2.11-4.06-3.08-6.13-.98-2.07-1.91-4.16-2.78-6.27s-1.7-4.25-2.47-6.4c-.77-2.15-1.48-4.32-2.15-6.51-.66-2.19-1.27-4.39-1.83-6.61-.55-2.22-1.05-4.45-1.5-6.7-.45-2.24-.84-4.5-1.17-6.76-.34-2.26-.62-4.54-.84-6.81-.23-2.28-.39-4.56-.5-6.84-.11-2.29-.17-4.57-.17-6.86s.06-4.57.17-6.86c.11-2.29.28-4.56.51-6.84.22-2.28.5-4.55.84-6.81.33-2.27.72-4.52,1.17-6.76.45-2.24.95-4.48,1.5-6.7.56-2.22,1.17-4.42,1.83-6.61.66-2.19,1.38-4.36,2.15-6.52.77-2.16,1.59-4.29,2.47-6.4s1.8-4.2,2.78-6.27c.98-2.07,2-4.11,3.08-6.12,1.08-2.02,2.2-4.01,3.38-5.97,1.18-1.96,2.4-3.89,3.67-5.8,1.27-1.9,2.59-3.77,3.95-5.61,1.36-1.84,2.77-3.64,4.22-5.41,1.45-1.77,2.94-3.5,4.48-5.2,1.54-1.7,3.11-3.35,4.73-4.97s3.27-3.2,4.97-4.73c1.69-1.54,3.43-3.03,5.19-4.48,1.77-1.45,3.57-2.86,5.41-4.22s3.71-2.68,5.61-3.95c1.9-1.27,3.84-2.5,5.8-3.67s3.95-2.3,5.96-3.38c2.02-1.08,4.06-2.11,6.13-3.08,2.07-.98,4.16-1.91,6.27-2.78,2.11-.88,4.24-1.7,6.4-2.47,2.15-.77,4.32-1.49,6.51-2.15s4.39-1.27,6.61-1.83c2.22-.55,4.45-1.05,6.69-1.5,2.24-.45,4.5-.84,6.76-1.17s4.53-.61,6.8-.84c2.28-.22,4.55-.39,6.84-.5s4.57-.17,6.86-.17,4.57.05,6.86.17,4.57.28,6.84.5c2.28.23,4.55.5,6.81.84s4.51.73,6.75,1.17c2.25.45,4.48.95,6.69,1.5,2.22.56,4.42,1.17,6.61,1.83,2.19.66,4.36,1.38,6.51,2.15,2.16.77,4.29,1.59,6.4,2.47,2.11.88,4.2,1.8,6.27,2.78,2.07.98,4.11,2,6.12,3.08,2.02,1.08,4,2.21,5.96,3.38s3.89,2.4,5.8,3.67c1.9,1.27,3.77,2.59,5.61,3.95s3.64,2.77,5.41,4.22c1.77,1.45,3.5,2.94,5.19,4.48,1.7,1.54,3.35,3.11,4.97,4.73s3.2,3.27,4.73,4.97,3.03,3.43,4.48,5.2c1.45,1.77,2.86,3.57,4.22,5.41,1.36,1.84,2.68,3.71,3.95,5.61,1.27,1.9,2.5,3.84,3.67,5.8,1.18,1.96,2.3,3.95,3.38,5.97,1.08,2.02,2.11,4.06,3.08,6.12.98,2.07,1.91,4.16,2.78,6.27s1.7,4.25,2.47,6.4c.77,2.15,1.49,4.32,2.15,6.52.66,2.19,1.27,4.39,1.83,6.61s1.05,4.45,1.5,6.7c.45,2.24.84,4.5,1.18,6.76.33,2.26.61,4.53.84,6.81.22,2.28.39,4.55.5,6.84.11,2.29.17,4.57.17,6.86Z"/>
    <path class="cls-4" d="M651.09,159.98c0,1.43-.07,2.86-.21,4.29-.14,1.43-.35,2.84-.63,4.25-.28,1.41-.63,2.8-1.04,4.17-.42,1.38-.9,2.72-1.45,4.05-.55,1.33-1.16,2.62-1.84,3.89s-1.41,2.5-2.21,3.69c-.8,1.2-1.65,2.34-2.56,3.45s-1.87,2.17-2.89,3.19-2.07,1.98-3.18,2.89-2.26,1.77-3.45,2.56c-1.19.8-2.42,1.53-3.68,2.21-1.27.68-2.56,1.29-3.89,1.84s-2.67,1.03-4.05,1.45c-1.37.41-2.76.77-4.17,1.04-1.41.28-2.82.49-4.25.63-1.43.14-2.86.21-4.29.21s-2.86-.07-4.29-.21c-1.43-.14-2.84-.35-4.25-.63-1.41-.28-2.8-.63-4.17-1.04-1.38-.42-2.72-.9-4.05-1.45s-2.62-1.16-3.89-1.84c-1.26-.68-2.49-1.41-3.68-2.21-1.2-.8-2.34-1.65-3.45-2.56s-2.17-1.87-3.18-2.89-1.98-2.08-2.89-3.19-1.76-2.26-2.56-3.45c-.8-1.19-1.54-2.42-2.21-3.69s-1.29-2.56-1.84-3.89c-.55-1.32-1.03-2.67-1.45-4.05-.41-1.37-.77-2.76-1.04-4.17-.28-1.41-.49-2.82-.63-4.25-.14-1.43-.21-2.86-.21-4.29s.07-2.87.21-4.3c.14-1.43.35-2.84.63-4.25.28-1.41.63-2.8,1.04-4.17.42-1.38.9-2.72,1.45-4.05.55-1.33,1.16-2.62,1.84-3.89s1.41-2.5,2.21-3.69c.8-1.2,1.65-2.34,2.56-3.45s1.87-2.17,2.89-3.19,2.07-1.98,3.18-2.89,2.26-1.76,3.45-2.56c1.19-.8,2.42-1.53,3.68-2.21,1.27-.68,2.56-1.29,3.89-1.84,1.32-.55,2.67-1.03,4.05-1.45,1.37-.41,2.76-.76,4.17-1.04s2.82-.49,4.25-.63c1.43-.14,2.86-.21,4.29-.21s2.86.07,4.29.21c1.43.14,2.84.35,4.25.63s2.8.63,4.17,1.04c1.38.42,2.72.9,4.05,1.45,1.32.55,2.62,1.16,3.89,1.84,1.26.68,2.49,1.41,3.68,2.21,1.2.8,2.34,1.65,3.45,2.56s2.17,1.87,3.18,2.89,1.98,2.08,2.89,3.19,1.76,2.26,2.56,3.45c.8,1.19,1.54,2.42,2.21,3.69s1.29,2.56,1.84,3.89c.55,1.32,1.03,2.67,1.45,4.05.41,1.37.77,2.76,1.04,4.17.28,1.41.49,2.82.63,4.25.14,1.43.21,2.86.21,4.3Z"/>
    <path class="cls-4" d="M604.53,64.14h5.52v33.69h-5.52v-33.69Z"/>
    <path class="cls-4" d="M543.58,88.42l4.23-3.55,21.66,25.8-4.23,3.55-21.66-25.8Z"/>
    <path class="cls-4" d="M512.42,146.11l.95-5.44,33.17,5.82-.95,5.44-33.17-5.82Z"/>
    <path class="cls-4" d="M523,205.62l29.14-16.89,2.77,4.78-29.14,16.89-2.77-4.78Z"/>
    <path class="cls-4" d="M572.07,249.17l11.46-31.68,5.19,1.88-11.46,31.68-5.19-1.88Z"/>
    <path class="cls-4" d="M626.07,219.27l5.19-1.9,11.59,31.63-5.19,1.9-11.59-31.63Z"/>
    <path class="cls-4" d="M659.77,193.3l2.75-4.79,29.21,16.76-2.75,4.79-29.21-16.77Z"/>
    <path class="cls-4" d="M667.93,146.29l33.14-5.96.98,5.44-33.14,5.96-.98-5.44Z"/>
    <path class="cls-4" d="M644.92,110.46l21.55-25.89,4.24,3.54-21.55,25.89-4.25-3.54Z"/>
  </g>
</svg>