<?xml version="1.0" encoding="UTF-8"?>
<svg id="Layer_2" data-name="Layer 2" xmlns="http://www.w3.org/2000/svg" xmlns:xlink="http://www.w3.org/1999/xlink" viewBox="0 0 766.3 365.98">
  <defs>
    <style>
      .cls-1 {
        clip-path: url(#clippath);
      }

      .cls-2 {
        fill: none;
      }

      .cls-2, .cls-3 {
        stroke-width: 0px;
      }
    </style>
    <clipPath id="clippath">
      <rect class="cls-2" width="766.3" height="365.98"/>
    </clipPath>
  </defs>
  <g id="Layer_1-2" data-name="Layer 1">
    <g>
      <g class="cls-1">
        <path class="cls-3" d="M182.87,8.36C86.64,8.36,8.36,86.7,8.36,182.99s78.29,174.62,174.51,174.62h400.57c96.23,0,174.51-78.34,174.51-174.62S679.66,8.36,583.44,8.36H182.87ZM583.44,365.98H182.87c-48.85,0-94.77-19.04-129.31-53.61C19.02,277.82,0,231.87,0,182.99S19.02,88.16,53.56,53.6C88.1,19.03,134.02,0,182.87,0h400.57c48.85,0,94.77,19.04,129.31,53.61,34.54,34.56,53.56,80.52,53.56,129.39s-19.02,94.83-53.56,129.39c-34.54,34.57-80.46,53.61-129.31,53.61"/>
      </g>
      <path class="cls-3" d="M582.4,32.07c-83.36,0-151.18,67.86-151.18,151.27s67.81,151.28,151.18,151.28,151.17-67.86,151.17-151.28-67.82-151.27-151.17-151.27ZM582.4,342.98c-42.62,0-82.68-16.6-112.81-46.75-30.13-30.16-46.73-70.24-46.73-112.89s16.59-82.73,46.73-112.89c30.13-30.14,70.19-46.75,112.81-46.75s82.67,16.6,112.8,46.75c30.13,30.16,46.73,70.25,46.73,112.89s-16.59,82.73-46.73,112.89c-30.13,30.15-70.19,46.75-112.8,46.75"/>
      <path class="cls-3" d="M533,114.46c-17.73,15.77-28.27,38.66-28.27,62.77,0,46.22,37.58,83.84,83.78,83.84,24.09,0,46.96-10.56,62.72-28.29-10.11,3.71-20.84,5.62-31.71,5.62-50.81,0-92.14-41.37-92.14-92.21,0-10.88,1.91-21.61,5.62-31.73ZM588.5,269.43c-50.81,0-92.14-41.36-92.14-92.2,0-16.31,4.31-32.34,12.47-46.36,7.92-13.6,19.27-25.02,32.8-33.04l14.03-8.3-8.3,14.04c-7.61,12.86-11.63,27.6-11.63,42.62,0,46.23,37.59,83.84,83.78,83.84,15.01,0,29.75-4.03,42.6-11.64l14.03-8.31-8.3,14.04c-8.01,13.55-19.43,24.9-33.01,32.82-14.01,8.17-30.02,12.49-46.32,12.49"/>
    </g>
  </g>
</svg>