<?xml version="1.0" encoding="UTF-8"?>
<svg id="Layer_2" data-name="Layer 2" xmlns="http://www.w3.org/2000/svg" xmlns:xlink="http://www.w3.org/1999/xlink" viewBox="0 0 768 315">
  <defs>
    <style>
      .cls-1 {
        clip-path: url(#clippath);
      }

      .cls-2 {
        fill: none;
      }

      .cls-2, .cls-3, .cls-4 {
        stroke-width: 0px;
      }

      .cls-3 {
        fill: #1b447a;
      }

      .cls-4 {
        fill: #fff;
      }
    </style>
    <clipPath id="clippath">
      <rect class="cls-2" width="768" height="315"/>
    </clipPath>
  </defs>
  <g id="Layer_1-2" data-name="Layer 1">
    <g>
      <g class="cls-1">
        <path class="cls-3" d="M610.14,314.88H158.09C71.16,314.88.68,244.37.68,157.4S71.16-.08,158.09-.08h452.05c86.94,0,157.41,70.51,157.41,157.48s-70.48,157.48-157.41,157.48Z"/>
      </g>
      <path class="cls-4" d="M303.89,157.4c0,2.29-.05,4.57-.17,6.86s-.28,4.57-.5,6.84c-.23,2.28-.5,4.55-.84,6.81s-.73,4.51-1.17,6.76c-.45,2.24-.95,4.47-1.5,6.69-.55,2.22-1.16,4.42-1.83,6.61s-1.38,4.36-2.15,6.51-1.59,4.29-2.47,6.4-1.8,4.2-2.78,6.27-2,4.11-3.08,6.13c-1.08,2.02-2.2,4-3.38,5.96s-2.4,3.89-3.67,5.8c-1.27,1.9-2.59,3.77-3.95,5.61-1.36,1.84-2.77,3.64-4.21,5.41-1.45,1.77-2.95,3.5-4.48,5.2-1.54,1.69-3.11,3.35-4.73,4.96s-3.27,3.2-4.96,4.73c-1.7,1.54-3.43,3.03-5.19,4.48-1.77,1.45-3.57,2.86-5.41,4.22s-3.7,2.68-5.61,3.95c-1.9,1.27-3.83,2.49-5.79,3.67s-3.95,2.3-5.96,3.38-4.06,2.11-6.12,3.08-4.16,1.91-6.27,2.78c-2.11.88-4.25,1.7-6.4,2.47-2.15.77-4.32,1.48-6.51,2.15s-4.39,1.27-6.61,1.83c-2.22.55-4.45,1.05-6.69,1.5s-4.5.84-6.75,1.17c-2.26.34-4.53.62-6.8.84-2.28.23-4.55.39-6.84.51-2.28.11-4.57.17-6.85.17s-4.57-.06-6.86-.17c-2.28-.11-4.56-.28-6.84-.51-2.27-.22-4.54-.5-6.8-.84-2.26-.33-4.51-.73-6.75-1.17s-4.47-.95-6.69-1.5c-2.22-.56-4.42-1.17-6.61-1.83s-4.36-1.38-6.51-2.15c-2.15-.77-4.29-1.59-6.4-2.47-2.11-.88-4.2-1.8-6.27-2.78s-4.11-2-6.12-3.08-4-2.21-5.96-3.38-3.89-2.4-5.79-3.67c-1.9-1.27-3.77-2.59-5.61-3.95s-3.64-2.77-5.4-4.22c-1.77-1.45-3.5-2.95-5.19-4.48-1.7-1.54-3.35-3.11-4.96-4.73s-3.19-3.27-4.73-4.96c-1.54-1.7-3.03-3.43-4.48-5.2-1.45-1.77-2.86-3.57-4.21-5.41-1.36-1.84-2.68-3.71-3.95-5.61-1.27-1.9-2.49-3.84-3.67-5.8s-2.3-3.95-3.38-5.96c-1.08-2.02-2.11-4.06-3.08-6.13s-1.9-4.16-2.78-6.27-1.7-4.25-2.47-6.4-1.49-4.32-2.15-6.51c-.66-2.19-1.27-4.39-1.83-6.61-.55-2.22-1.05-4.45-1.5-6.69-.45-2.25-.84-4.5-1.17-6.76s-.62-4.53-.84-6.81c-.22-2.27-.39-4.55-.5-6.84s-.17-4.57-.17-6.86.05-4.57.17-6.86c.11-2.29.28-4.57.5-6.84.22-2.28.5-4.55.84-6.81s.73-4.52,1.17-6.76.95-4.47,1.5-6.69c.56-2.22,1.17-4.42,1.83-6.61.66-2.19,1.38-4.36,2.15-6.51s1.59-4.29,2.47-6.4c.88-2.11,1.8-4.2,2.78-6.27.98-2.07,2-4.11,3.08-6.12s2.2-4,3.38-5.96c1.18-1.96,2.4-3.89,3.67-5.8s2.59-3.77,3.95-5.61c1.36-1.84,2.77-3.64,4.22-5.41,1.45-1.77,2.95-3.5,4.48-5.2s3.11-3.35,4.73-4.97,3.27-3.19,4.96-4.73c1.69-1.54,3.42-3.03,5.19-4.48,1.77-1.45,3.57-2.86,5.4-4.22,1.84-1.36,3.71-2.68,5.61-3.95,1.9-1.27,3.83-2.5,5.79-3.67s3.95-2.3,5.96-3.38,4.06-2.11,6.12-3.08c2.07-.98,4.16-1.91,6.27-2.78,2.11-.88,4.25-1.7,6.4-2.47s4.32-1.49,6.51-2.15c2.19-.66,4.39-1.27,6.61-1.83,2.21-.55,4.45-1.05,6.69-1.5,2.24-.45,4.49-.84,6.75-1.17s4.53-.61,6.8-.84c2.27-.22,4.55-.39,6.84-.5,2.29-.11,4.57-.17,6.86-.17s4.57.05,6.85.17c2.29.11,4.56.28,6.84.5,2.27.23,4.54.5,6.8.84,2.26.34,4.51.73,6.75,1.17,2.24.45,4.47.95,6.69,1.5s4.42,1.16,6.61,1.83,4.36,1.38,6.51,2.15,4.29,1.59,6.4,2.47c2.11.88,4.2,1.8,6.27,2.78,2.07.98,4.11,2,6.12,3.08s4,2.2,5.96,3.38,3.89,2.4,5.79,3.67c1.9,1.27,3.77,2.59,5.61,3.95,1.84,1.36,3.64,2.77,5.41,4.22s3.5,2.95,5.19,4.48c1.69,1.54,3.35,3.11,4.96,4.73s3.19,3.27,4.73,4.97,3.03,3.43,4.48,5.2c1.45,1.77,2.86,3.57,4.21,5.41,1.36,1.84,2.68,3.7,3.95,5.61s2.49,3.83,3.67,5.8c1.18,1.96,2.3,3.95,3.38,5.96s2.11,4.06,3.08,6.12c.98,2.07,1.9,4.16,2.78,6.27.88,2.11,1.7,4.25,2.47,6.4s1.48,4.32,2.15,6.51,1.27,4.39,1.83,6.61c.56,2.22,1.06,4.45,1.5,6.69s.84,4.5,1.17,6.76.61,4.53.84,6.81c.22,2.27.39,4.55.5,6.84.11,2.28.17,4.57.17,6.86Z"/>
      <path class="cls-3" d="M111.12,166.95c-10-26.18-4.48-54.5,12.05-74.77-2.79.66-5.56,1.51-8.31,2.57-34.07,13.03-51.15,51.25-38.1,85.34,13.02,34.09,51.23,51.17,85.3,38.12,2.75-1.05,5.38-2.28,7.9-3.62-25.82-4.05-48.81-21.45-58.84-47.63Z"/>
      <path class="cls-3" d="M196.84,126.79l17.7,5.6-17.7,5.61-5.61,17.68-5.58-17.68-17.7-5.61,17.7-5.6,5.58-17.69,5.61,17.69Z"/>
      <path class="cls-3" d="M244.28,144.12l11.75,3.72-11.75,3.72-3.7,11.73-3.72-11.73-11.72-3.72,11.72-3.72,3.72-11.73,3.7,11.73Z"/>
      <path class="cls-3" d="M217.14,166.46l8.27,2.61-8.27,2.63-2.61,8.25-2.62-8.25-8.25-2.63,8.25-2.61,2.62-8.27,2.61,8.27Z"/>
    </g>
  </g>
</svg>