<?xml version="1.0" encoding="UTF-8"?>
<svg id="Layer_1" data-name="Layer 1" xmlns="http://www.w3.org/2000/svg" xmlns:xlink="http://www.w3.org/1999/xlink" viewBox="0 0 616 420">
  <defs>
    <style>
      .cls-1 {
        clip-path: url(#clippath);
      }

      .cls-2 {
        fill: none;
      }

      .cls-2, .cls-3, .cls-4 {
        stroke-width: 0px;
      }

      .cls-3 {
        fill: #fff;
      }

      .cls-4 {
        fill: #ffc107;
      }
    </style>
    <clipPath id="clippath">
      <rect class="cls-2" x="-408" y="0" width="1024" height="420"/>
    </clipPath>
  </defs>
  <g class="cls-1">
    <path class="cls-4" d="M405.6,420.18h-195.6C94.05,420.18,0,326.13,0,210.13S94.05.08,210,.08h195.63c115.95,0,209.96,94.06,209.96,210.05-.03,116-94.02,210.05-209.99,210.05Z"/>
  </g>
  <path class="cls-3" d="M587.98,210.13c0,3.05-.08,6.1-.22,9.15-.15,3.05-.38,6.09-.67,9.13-.3,3.03-.68,6.06-1.12,9.08-.45,3.02-.97,6.02-1.57,9.01-.59,2.99-1.26,5.97-2,8.93s-1.56,5.9-2.44,8.82c-.88,2.92-1.84,5.81-2.86,8.68-1.03,2.88-2.13,5.72-3.29,8.54s-2.4,5.6-3.71,8.36c-1.3,2.76-2.67,5.48-4.11,8.17-1.44,2.69-2.94,5.34-4.51,7.96s-3.2,5.19-4.9,7.73c-1.69,2.54-3.45,5.03-5.26,7.48-1.82,2.45-3.69,4.85-5.63,7.21-1.93,2.36-3.92,4.67-5.97,6.93-2.05,2.26-4.15,4.47-6.31,6.63-2.16,2.16-4.36,4.26-6.63,6.31-2.26,2.05-4.56,4.04-6.92,5.97-2.35,1.93-4.76,3.81-7.21,5.63-2.45,1.82-4.94,3.57-7.47,5.27-2.54,1.69-5.11,3.32-7.73,4.89s-5.27,3.07-7.95,4.51c-2.69,1.44-5.41,2.81-8.17,4.11-2.76,1.3-5.55,2.54-8.36,3.71-2.82,1.17-5.66,2.26-8.54,3.29-2.87,1.03-5.76,1.98-8.68,2.87-2.92.89-5.85,1.7-8.81,2.44-2.95.74-5.93,1.41-8.92,2.01s-5.99,1.11-9.01,1.56c-3.02.45-6.04.82-9.08,1.12-3.03.3-6.07.53-9.12.67-3.05.15-6.09.22-9.14.22s-6.09-.07-9.14-.22c-3.05-.15-6.08-.37-9.12-.67-3.04-.3-6.06-.67-9.07-1.12-3.02-.45-6.02-.97-9.01-1.56s-5.96-1.27-8.92-2.01-5.9-1.55-8.81-2.44-5.81-1.84-8.68-2.87c-2.88-1.03-5.72-2.13-8.53-3.29-2.82-1.17-5.6-2.41-8.36-3.71-2.76-1.31-5.48-2.68-8.17-4.11-2.69-1.44-5.34-2.94-7.95-4.51s-5.19-3.2-7.73-4.89c-2.53-1.7-5.03-3.45-7.47-5.27-2.45-1.81-4.85-3.69-7.21-5.63-2.35-1.94-4.67-3.93-6.92-5.97-2.26-2.05-4.47-4.15-6.63-6.31-2.16-2.16-4.26-4.36-6.3-6.63-2.05-2.26-4.04-4.57-5.97-6.93-1.94-2.35-3.81-4.76-5.63-7.21-1.82-2.45-3.57-4.94-5.27-7.48-1.7-2.54-3.33-5.11-4.9-7.73s-3.07-5.27-4.51-7.96c-1.44-2.69-2.81-5.42-4.11-8.17-1.31-2.76-2.54-5.55-3.71-8.36s-2.26-5.66-3.29-8.54c-1.03-2.87-1.98-5.77-2.86-8.68-.89-2.92-1.7-5.86-2.44-8.82-.74-2.96-1.41-5.93-2-8.93-.6-2.99-1.12-5.99-1.56-9.01-.45-3.02-.82-6.05-1.12-9.08-.3-3.04-.53-6.08-.67-9.13-.15-3.05-.23-6.09-.23-9.15s.08-6.1.22-9.15c.15-3.05.38-6.08.68-9.12.3-3.04.67-6.06,1.12-9.08.44-3.02.96-6.03,1.56-9.02.59-2.99,1.26-5.97,2-8.93.74-2.96,1.56-5.9,2.44-8.81.89-2.92,1.84-5.82,2.86-8.69,1.03-2.88,2.13-5.72,3.29-8.54s2.4-5.6,3.71-8.36c1.3-2.76,2.67-5.48,4.11-8.17,1.44-2.69,2.94-5.34,4.51-7.96,1.57-2.61,3.2-5.19,4.9-7.73,1.69-2.53,3.45-5.03,5.27-7.48,1.81-2.45,3.69-4.85,5.63-7.21,1.93-2.36,3.92-4.67,5.97-6.93,2.05-2.26,4.15-4.47,6.3-6.63s4.36-4.26,6.63-6.31c2.26-2.05,4.57-4.04,6.92-5.97,2.36-1.94,4.76-3.81,7.21-5.63s4.94-3.57,7.47-5.27c2.54-1.7,5.11-3.33,7.73-4.9s5.27-3.07,7.95-4.51c2.69-1.44,5.41-2.81,8.17-4.11,2.76-1.31,5.54-2.54,8.36-3.71,2.81-1.17,5.66-2.27,8.53-3.29,2.87-1.03,5.77-1.98,8.68-2.87s5.85-1.7,8.81-2.44c2.96-.74,5.93-1.41,8.92-2.01,2.99-.59,5.99-1.11,9.01-1.56s6.04-.82,9.07-1.12c3.04-.3,6.07-.52,9.12-.67s6.09-.22,9.14-.22,6.09.07,9.14.22,6.09.38,9.12.67c3.04.3,6.06.67,9.08,1.12s6.02.97,9.01,1.56c2.99.6,5.97,1.27,8.92,2.01,2.96.74,5.9,1.56,8.81,2.44,2.92.89,5.81,1.84,8.68,2.87,2.88,1.03,5.72,2.13,8.54,3.29,2.81,1.17,5.6,2.4,8.36,3.71,2.76,1.3,5.47,2.67,8.17,4.11,2.69,1.44,5.34,2.94,7.95,4.51s5.19,3.2,7.73,4.9c2.53,1.69,5.03,3.45,7.47,5.27s4.85,3.69,7.21,5.63c2.36,1.93,4.67,3.92,6.92,5.97,2.26,2.05,4.47,4.15,6.63,6.31s4.26,4.36,6.31,6.63,4.04,4.57,5.97,6.93c1.94,2.36,3.81,4.76,5.63,7.21,1.81,2.45,3.57,4.95,5.26,7.48,1.7,2.54,3.33,5.11,4.9,7.73,1.57,2.62,3.07,5.27,4.51,7.96,1.44,2.69,2.81,5.41,4.11,8.17,1.31,2.76,2.54,5.55,3.71,8.36s2.27,5.66,3.29,8.54c1.03,2.87,1.98,5.77,2.87,8.69.88,2.92,1.7,5.85,2.44,8.81s1.41,5.94,2,8.93c.6,2.99,1.12,5.99,1.57,9.02.44,3.02.82,6.04,1.12,9.08.3,3.04.52,6.07.67,9.12.15,3.05.22,6.1.22,9.15Z"/>
  <path class="cls-4" d="M460.12,213.31c0,1.91-.09,3.82-.28,5.72-.19,1.9-.47,3.79-.84,5.67-.37,1.88-.84,3.73-1.39,5.56-.56,1.83-1.2,3.63-1.93,5.4-.73,1.77-1.55,3.49-2.45,5.18s-1.89,3.33-2.95,4.92c-1.06,1.59-2.2,3.13-3.41,4.6s-2.49,2.9-3.85,4.25-2.77,2.64-4.24,3.85-3.01,2.35-4.6,3.42c-1.59,1.06-3.23,2.04-4.91,2.94-1.69.91-3.42,1.72-5.18,2.45s-3.56,1.38-5.4,1.93c-1.83.55-3.68,1.02-5.56,1.39-1.88.38-3.77.66-5.67.84-1.91.19-3.81.28-5.72.28s-3.82-.09-5.72-.28c-1.9-.19-3.79-.47-5.67-.84-1.88-.37-3.73-.84-5.56-1.39-1.83-.56-3.63-1.2-5.4-1.93s-3.49-1.55-5.18-2.45c-1.68-.9-3.32-1.88-4.91-2.94-1.59-1.06-3.13-2.2-4.6-3.42s-2.89-2.49-4.24-3.85-2.64-2.77-3.85-4.25-2.35-3.01-3.41-4.6c-1.06-1.59-2.05-3.23-2.95-4.92s-1.72-3.41-2.45-5.18c-.73-1.77-1.38-3.56-1.93-5.4-.55-1.83-1.02-3.68-1.39-5.56-.38-1.88-.66-3.77-.84-5.67-.19-1.91-.28-3.81-.28-5.72s.09-3.82.28-5.73c.19-1.9.47-3.79.84-5.67.37-1.88.84-3.73,1.39-5.56.56-1.83,1.2-3.63,1.93-5.4.73-1.77,1.55-3.49,2.45-5.18s1.89-3.33,2.95-4.92c1.06-1.59,2.2-3.13,3.41-4.6s2.49-2.9,3.85-4.25,2.77-2.64,4.24-3.85,3.01-2.35,4.6-3.42c1.59-1.06,3.23-2.04,4.91-2.94,1.69-.9,3.42-1.72,5.18-2.45,1.77-.73,3.56-1.38,5.4-1.93,1.83-.55,3.68-1.02,5.56-1.39s3.77-.66,5.67-.84c1.91-.19,3.81-.28,5.72-.28s3.82.09,5.72.28c1.9.19,3.79.47,5.67.84s3.73.84,5.56,1.39c1.83.56,3.63,1.2,5.4,1.93,1.77.73,3.49,1.55,5.18,2.45,1.68.9,3.32,1.88,4.91,2.94,1.59,1.07,3.13,2.2,4.6,3.42s2.89,2.49,4.24,3.85,2.64,2.77,3.85,4.25,2.35,3.01,3.41,4.6c1.06,1.59,2.05,3.23,2.95,4.92s1.72,3.41,2.45,5.18c.73,1.77,1.38,3.56,1.93,5.4.55,1.83,1.02,3.68,1.39,5.56.38,1.88.66,3.77.84,5.67.19,1.91.28,3.81.28,5.73Z"/>
  <path class="cls-4" d="M398.04,85.53h7.36v44.92h-7.36v-44.92Z"/>
  <path class="cls-4" d="M316.77,117.9l5.64-4.74,28.88,34.4-5.64,4.74-28.88-34.4Z"/>
  <path class="cls-4" d="M275.23,194.81l1.27-7.26,44.23,7.76-1.27,7.26-44.23-7.76Z"/>
  <path class="cls-4" d="M289.33,274.16l38.85-22.52,3.69,6.38-38.86,22.52-3.69-6.38Z"/>
  <path class="cls-4" d="M354.77,332.22l15.28-42.24,6.92,2.51-15.28,42.24-6.92-2.51Z"/>
  <path class="cls-4" d="M426.77,292.35l6.92-2.54,15.45,42.18-6.92,2.53-15.45-42.17Z"/>
  <path class="cls-4" d="M471.7,257.73l3.67-6.39,38.95,22.35-3.67,6.39-38.95-22.35Z"/>
  <path class="cls-4" d="M482.57,195.06l44.19-7.94,1.3,7.25-44.19,7.94-1.3-7.25Z"/>
  <path class="cls-4" d="M451.9,147.28l28.74-34.52,5.66,4.71-28.73,34.52-5.66-4.71Z"/>
</svg>