<?xml version="1.0" encoding="UTF-8"?>
<svg id="Layer_2" data-name="Layer 2" xmlns="http://www.w3.org/2000/svg" xmlns:xlink="http://www.w3.org/1999/xlink" viewBox="0 0 616 420.11">
  <defs>
    <style>
      .cls-1 {
        clip-path: url(#clippath);
      }

      .cls-2 {
        fill: none;
      }

      .cls-2, .cls-3, .cls-4 {
        stroke-width: 0px;
      }

      .cls-3 {
        fill: #1b447a;
      }

      .cls-4 {
        fill: #fff;
      }
    </style>
    <clipPath id="clippath">
      <rect class="cls-2" x="-1" y="-.04" width="1024" height="420"/>
    </clipPath>
  </defs>
  <g class="cls-1">
    <path class="cls-3" d="M404.52,419.8h-194.73C93.88,419.8-.09,325.78-.09,209.82S93.88-.15,209.79-.15h194.73c115.92,0,210.88,94.01,210.88,209.97s-94.97,209.97-210.88,209.97Z"/>
  </g>
  <path class="cls-4" d="M404.19,209.82c0,3.05-.07,6.09-.23,9.15s-.37,6.09-.67,9.12c-.31,3.04-.67,6.07-1.12,9.08s-.97,6.01-1.56,9.01c-.6,2.99-1.27,5.96-2,8.92-.73,2.96-1.55,5.89-2.44,8.81s-1.84,5.81-2.87,8.68c-1.03,2.87-2.12,5.72-3.29,8.53s-2.4,5.6-3.71,8.36c-1.31,2.76-2.67,5.48-4.11,8.17s-2.93,5.33-4.51,7.95-3.2,5.19-4.89,7.73c-1.69,2.53-3.45,5.03-5.27,7.48-1.81,2.45-3.69,4.85-5.61,7.21-1.93,2.36-3.93,4.67-5.97,6.93-2.05,2.25-4.15,4.47-6.31,6.61-2.16,2.15-4.36,4.27-6.61,6.31-2.27,2.05-4.57,4.04-6.92,5.97-2.36,1.93-4.76,3.81-7.21,5.63s-4.93,3.57-7.48,5.27c-2.53,1.69-5.11,3.32-7.72,4.89s-5.27,3.07-7.95,4.51-5.41,2.81-8.16,4.11-5.55,2.55-8.36,3.71c-2.81,1.17-5.67,2.27-8.53,3.29s-5.76,1.97-8.68,2.87-5.85,1.69-8.81,2.44c-2.96.73-5.93,1.4-8.92,2-2.99.6-6,1.12-9,1.56-3.01.45-6.04.83-9.07,1.12-3.04.31-6.07.52-9.12.68-3.04.15-6.09.23-9.13.23s-6.09-.08-9.15-.23c-3.04-.15-6.08-.37-9.12-.68-3.03-.29-6.05-.67-9.07-1.12-3.01-.44-6.01-.97-9-1.56s-5.96-1.27-8.92-2c-2.96-.75-5.89-1.56-8.81-2.44s-5.81-1.84-8.68-2.87c-2.87-1.03-5.72-2.12-8.53-3.29s-5.6-2.4-8.36-3.71c-2.76-1.31-5.48-2.67-8.16-4.11s-5.33-2.95-7.95-4.51-5.19-3.2-7.72-4.89c-2.53-1.69-5.03-3.45-7.48-5.27s-4.85-3.69-7.2-5.63c-2.36-1.93-4.67-3.93-6.92-5.97-2.27-2.05-4.47-4.15-6.61-6.31s-4.25-4.36-6.31-6.61c-2.05-2.27-4.04-4.57-5.97-6.93s-3.81-4.76-5.61-7.21c-1.81-2.45-3.57-4.95-5.27-7.48s-3.32-5.12-4.89-7.73-3.07-5.27-4.51-7.95c-1.44-2.69-2.81-5.41-4.11-8.17s-2.53-5.55-3.71-8.36-2.27-5.67-3.29-8.53-1.99-5.76-2.87-8.68c-.88-2.92-1.69-5.85-2.44-8.81-.73-2.96-1.4-5.93-2-8.92-.6-3-1.12-6-1.56-9.01s-.83-6.04-1.12-9.08c-.29-3.03-.52-6.07-.67-9.12s-.23-6.09-.23-9.15.07-6.09.23-9.15c.15-3.05.37-6.09.67-9.12.29-3.04.67-6.07,1.12-9.08s.97-6.03,1.56-9.01,1.27-5.96,2-8.92c.75-2.96,1.56-5.89,2.44-8.81s1.84-5.81,2.87-8.68,2.12-5.72,3.29-8.53,2.4-5.6,3.71-8.36,2.67-5.48,4.11-8.16,2.93-5.33,4.51-7.95,3.2-5.19,4.89-7.73,3.45-5.03,5.27-7.48c1.81-2.45,3.69-4.85,5.63-7.21s3.93-4.67,5.97-6.93,4.15-4.47,6.31-6.63,4.36-4.25,6.61-6.31,4.56-4.04,6.92-5.97c2.36-1.93,4.76-3.81,7.2-5.63,2.45-1.81,4.95-3.57,7.48-5.27s5.11-3.33,7.72-4.89,5.27-3.07,7.95-4.51,5.41-2.81,8.16-4.11c2.76-1.31,5.55-2.55,8.36-3.71,2.81-1.17,5.67-2.27,8.53-3.29s5.76-1.99,8.68-2.87,5.85-1.69,8.81-2.44c2.95-.73,5.93-1.4,8.92-2s5.99-1.12,9-1.56,6.04-.81,9.07-1.12c3.03-.29,6.07-.52,9.12-.67s6.09-.23,9.15-.23,6.09.07,9.13.23c3.05.15,6.08.37,9.12.67,3.03.31,6.05.67,9.07,1.12,3.01.45,6.01.97,9,1.56,2.99.6,5.96,1.27,8.92,2s5.89,1.55,8.81,2.44,5.81,1.84,8.68,2.87,5.72,2.12,8.53,3.29,5.6,2.4,8.36,3.71,5.48,2.67,8.16,4.11,5.33,2.93,7.95,4.51,5.19,3.2,7.72,4.89c2.53,1.69,5.03,3.45,7.48,5.27s4.85,3.69,7.21,5.63,4.67,3.93,6.92,5.97c2.25,2.05,4.47,4.15,6.61,6.31s4.25,4.36,6.31,6.63,4.04,4.57,5.97,6.93c1.93,2.36,3.81,4.76,5.61,7.21,1.81,2.45,3.57,4.93,5.27,7.48s3.32,5.11,4.89,7.73c1.57,2.61,3.07,5.27,4.51,7.95s2.81,5.41,4.11,8.16c1.31,2.76,2.53,5.55,3.71,8.36,1.17,2.81,2.27,5.67,3.29,8.53,1.03,2.87,1.97,5.76,2.87,8.68s1.69,5.85,2.44,8.81c.75,2.96,1.41,5.93,2,8.92.59,2.99,1.12,6,1.56,9.01.44,3.01.81,6.04,1.12,9.08.29,3.03.52,6.07.67,9.12.15,3.04.23,6.09.23,9.15h-.01Z"/>
  <path class="cls-3" d="M147.16,222.56c-13.33-34.91-5.97-72.67,16.07-99.69-3.72.88-7.41,2.01-11.08,3.43-45.43,17.37-68.2,68.33-50.8,113.79,17.36,45.45,68.31,68.23,113.73,50.83,3.67-1.4,7.17-3.04,10.53-4.83-34.43-5.4-65.08-28.6-78.45-63.51h0Z"/>
  <path class="cls-3" d="M261.45,169.01l23.6,7.47-23.6,7.48-7.48,23.57-7.44-23.57-23.6-7.48,23.6-7.47,7.44-23.59,7.48,23.59Z"/>
  <path class="cls-3" d="M324.71,192.12l15.67,4.96-15.67,4.96-4.93,15.64-4.96-15.64-15.63-4.96,15.63-4.96,4.96-15.64,4.93,15.64Z"/>
  <path class="cls-3" d="M288.52,221.9l11.03,3.48-11.03,3.51-3.48,11-3.49-11-11-3.51,11-3.48,3.49-11.03,3.48,11.03Z"/>
</svg>