<svg xmlns="http://www.w3.org/2000/svg" xmlns:xlink="http://www.w3.org/1999/xlink"
    zoomAndPan="magnify" viewBox="0 0 768 767.999994"
    preserveAspectRatio="xMidYMid meet" version="1.0">
    <path class="circle" fill="#eeee2f"
        d="M 767.988281 383.984375 C 767.988281 596.058594 596.066406 767.980469 383.996094 767.980469 C 171.921875 767.980469 0 596.058594 0 383.984375 C 0 171.910156 171.921875 -0.0078125 383.996094 -0.0078125 C 596.066406 -0.0078125 767.988281 171.910156 767.988281 383.984375 "
        fill-opacity="1" fill-rule="nonzero" />
    <path class="phone-receiver" fill="#ffffff"
        d="M 215.726562 199.773438 C 219.746094 194.835938 230.023438 183.625 243.644531 183.769531 C 244.40625 183.777344 245.300781 183.808594 246.34375 183.914062 C 246.34375 183.914062 248.492188 184.144531 250.613281 184.703125 C 268.292969 189.410156 299.921875 224.304688 299.921875 224.304688 C 326.925781 254.09375 334.722656 255.53125 334.636719 266.5 C 334.550781 276.777344 328.140625 284.71875 316.253906 296.566406 C 284.566406 328.148438 277.808594 330.53125 275.351562 340.421875 C 273.902344 346.234375 269.539062 357.511719 289.105469 379.355469 C 318.289062 411.929688 388.1875 478.4375 394.300781 482.515625 C 400.402344 486.585938 422.121094 500.832031 451.300781 474.371094 C 471.226562 456.304688 480.714844 435.066406 494.875 433.785156 C 502.363281 433.089844 507.878906 437.613281 519.167969 447.222656 C 585.886719 503.976562 586.871094 513.933594 586.3125 519.824219 C 585.355469 530.011719 580.75 539.210938 565.316406 550.382812 C 525.953125 578.878906 508.3125 603.992188 428.234375 570.742188 C 348.152344 537.484375 263.996094 453.335938 240.242188 417.359375 C 216.488281 381.390625 179.160156 326.421875 181.878906 288.414062 C 183.769531 261.980469 191.867188 238.863281 191.867188 238.863281 C 199.097656 220.882812 208.71875 207.878906 215.726562 199.773438 "
        fill-opacity="1" fill-rule="nonzero" />
</svg>