<?xml version='1.0' encoding='UTF-8'?>
<svg xmlns="http://www.w3.org/2000/svg" xmlns:xlink="http://www.w3.org/1999/xlink" zoomAndPan="magnify" viewBox="0 0 768 767.999994" preserveAspectRatio="xMidYMid meet" version="1.0">
  <defs>
    <clipPath id="482990ad6b">
      <path d="M 507 237 L 768 237 L 768 768 L 507 768 Z M 507 237 " clip-rule="nonzero"/>
    </clipPath>
    <clipPath id="8ba4419e86">
      <path d="M 384.136719 0 C 596.128906 0 768 171.871094 768 384.136719 C 768 596.128906 596.128906 768 384.136719 768 C 171.871094 768 0 596.128906 0 384.136719 C 0 171.871094 171.871094 0 384.136719 0 Z M 384.136719 0 " clip-rule="evenodd"/>
    </clipPath>
    <clipPath id="28659eaccb">
      <path d="M 347 163 L 768 163 L 768 768 L 347 768 Z M 347 163 " clip-rule="nonzero"/>
    </clipPath>
    <clipPath id="db4b4eee1c">
      <path d="M 384.136719 0 C 596.128906 0 768 171.871094 768 384.136719 C 768 596.128906 596.128906 768 384.136719 768 C 171.871094 768 0 596.128906 0 384.136719 C 0 171.871094 171.871094 0 384.136719 0 Z M 384.136719 0 " clip-rule="evenodd"/>
    </clipPath>
    <clipPath id="f34cbb17b3">
      <path d="M 481 579 L 768 579 L 768 768 L 481 768 Z M 481 579 " clip-rule="nonzero"/>
    </clipPath>
    <clipPath id="7acec4920a">
      <path d="M 384.136719 0 C 596.128906 0 768 171.871094 768 384.136719 C 768 596.128906 596.128906 768 384.136719 768 C 171.871094 768 0 596.128906 0 384.136719 C 0 171.871094 171.871094 0 384.136719 0 Z M 384.136719 0 " clip-rule="evenodd"/>
    </clipPath>
    <clipPath id="c3df8cb53a">
      <path d="M 287 615 L 768 615 L 768 768 L 287 768 Z M 287 615 " clip-rule="nonzero"/>
    </clipPath>
    <clipPath id="5f102ace7f">
      <path d="M 384.136719 0 C 596.128906 0 768 171.871094 768 384.136719 C 768 596.128906 596.128906 768 384.136719 768 C 171.871094 768 0 596.128906 0 384.136719 C 0 171.871094 171.871094 0 384.136719 0 Z M 384.136719 0 " clip-rule="evenodd"/>
    </clipPath>
    <clipPath id="ee62275ed0">
      <path d="M 263 606 L 768 606 L 768 768 L 263 768 Z M 263 606 " clip-rule="nonzero"/>
    </clipPath>
    <clipPath id="0d6dd1f3e5">
      <path d="M 384.136719 0 C 596.128906 0 768 171.871094 768 384.136719 C 768 596.128906 596.128906 768 384.136719 768 C 171.871094 768 0 596.128906 0 384.136719 C 0 171.871094 171.871094 0 384.136719 0 Z M 384.136719 0 " clip-rule="evenodd"/>
    </clipPath>
    <clipPath id="5649e7e336">
      <path d="M 348 163 L 768 163 L 768 768 L 348 768 Z M 348 163 " clip-rule="nonzero"/>
    </clipPath>
    <clipPath id="5bbeb017d4">
      <path d="M 384.136719 0 C 596.128906 0 768 171.871094 768 384.136719 C 768 596.128906 596.128906 768 384.136719 768 C 171.871094 768 0 596.128906 0 384.136719 C 0 171.871094 171.871094 0 384.136719 0 Z M 384.136719 0 " clip-rule="evenodd"/>
    </clipPath>
    <clipPath id="ebc5d667de">
      <path d="M 358 188 L 768 188 L 768 768 L 358 768 Z M 358 188 " clip-rule="nonzero"/>
    </clipPath>
    <clipPath id="596fd11f2e">
      <path d="M 384.136719 0 C 596.128906 0 768 171.871094 768 384.136719 C 768 596.128906 596.128906 768 384.136719 768 C 171.871094 768 0 596.128906 0 384.136719 C 0 171.871094 171.871094 0 384.136719 0 Z M 384.136719 0 " clip-rule="evenodd"/>
    </clipPath>
    <clipPath id="a5b7703658">
      <path d="M 516 261 L 768 261 L 768 768 L 516 768 Z M 516 261 " clip-rule="nonzero"/>
    </clipPath>
    <clipPath id="43f72c0159">
      <path d="M 384.136719 0 C 596.128906 0 768 171.871094 768 384.136719 C 768 596.128906 596.128906 768 384.136719 768 C 171.871094 768 0 596.128906 0 384.136719 C 0 171.871094 171.871094 0 384.136719 0 Z M 384.136719 0 " clip-rule="evenodd"/>
    </clipPath>
    <clipPath id="990bb6849a">
      <path d="M 251 152 L 517 152 L 517 616 L 251 616 Z M 251 152 " clip-rule="nonzero"/>
    </clipPath>
    <clipPath id="e20dc623b0">
      <path d="M 384.136719 0 C 596.128906 0 768 171.871094 768 384.136719 C 768 596.128906 596.128906 768 384.136719 768 C 171.871094 768 0 596.128906 0 384.136719 C 0 171.871094 171.871094 0 384.136719 0 Z M 384.136719 0 " clip-rule="evenodd"/>
    </clipPath>
  </defs>
  <path fill="#f44c71" d="M 384.136719 0 C 596.128906 0 768 171.871094 768 384.136719 C 768 596.128906 596.128906 768 384.136719 768 C 171.871094 768 0 596.128906 0 384.136719 C 0 171.871094 171.871094 0 384.136719 0 Z M 384.136719 0 " fill-opacity="1" fill-rule="evenodd"/>
  <g clip-path="url(#482990ad6b)">
    <g clip-path="url(#8ba4419e86)">
      <path fill="#b23753" d="M 507.210938 237.476562 L 1533.832031 1263.824219 L 1534.914062 1265.179688 L 1536 1266.535156 L 1536.8125 1267.890625 L 1537.898438 1269.519531 L 1538.710938 1270.875 L 1539.523438 1272.5 L 1540.066406 1273.855469 L 1540.878906 1275.480469 L 1541.421875 1277.109375 L 1541.964844 1279.007812 L 1542.234375 1280.632812 L 1542.507812 1282.257812 L 1542.777344 1284.15625 L 1543.046875 1285.78125 L 1543.046875 1287.679688 L 516.429688 261.332031 L 516.429688 257.808594 L 516.15625 255.910156 L 515.886719 254.28125 L 515.34375 252.386719 L 515.074219 250.757812 L 514.257812 249.132812 L 513.71875 247.503906 L 512.902344 245.878906 L 512.363281 244.523438 L 511.277344 242.898438 L 510.464844 241.542969 L 509.378906 240.1875 L 508.296875 238.832031 Z M 507.210938 237.476562 " fill-opacity="1" fill-rule="evenodd"/>
    </g>
  </g>
  <g clip-path="url(#28659eaccb)">
    <g clip-path="url(#db4b4eee1c)">
      <path fill="#b23753" d="M 347.808594 163.195312 L 1374.160156 1189.816406 L 1374.429688 1189.816406 L 1374.429688 1190.089844 L 1374.699219 1190.089844 L 1374.699219 1190.359375 L 348.351562 163.738281 L 348.082031 163.738281 L 348.082031 163.46875 L 347.808594 163.46875 Z M 347.808594 163.195312 " fill-opacity="1" fill-rule="evenodd"/>
    </g>
  </g>
  <g clip-path="url(#f34cbb17b3)">
    <g clip-path="url(#7acec4920a)">
      <path fill="#b23753" d="M 516.429688 579.863281 L 1543.046875 1606.484375 L 1543.046875 1608.109375 L 1542.777344 1610.007812 L 1542.507812 1611.632812 L 1542.234375 1613.53125 L 1541.964844 1615.160156 L 1540.878906 1618.410156 L 1540.066406 1620.039062 L 1539.523438 1621.664062 L 1538.710938 1623.292969 L 1537.898438 1624.648438 L 1536.8125 1626.003906 L 1536 1627.628906 L 1534.914062 1628.984375 L 1533.832031 1630.070312 L 1532.476562 1631.421875 L 1531.390625 1632.507812 L 1530.035156 1633.59375 L 1528.679688 1634.675781 L 1527.324219 1635.761719 L 1525.96875 1636.574219 L 1524.34375 1637.386719 L 1522.714844 1638.199219 L 1521.359375 1639.015625 L 1519.734375 1639.554688 L 1518.109375 1640.097656 L 1516.480469 1640.640625 L 1514.582031 1641.183594 L 1512.957031 1641.453125 L 1511.058594 1641.726562 L 1507.535156 1641.726562 L 481.1875 615.375 L 482.8125 615.375 L 484.710938 615.105469 L 486.609375 614.832031 L 489.859375 614.292969 L 491.488281 613.75 L 493.386719 613.207031 L 494.742188 612.664062 L 497.992188 611.039062 L 499.347656 610.226562 L 500.976562 609.410156 L 502.332031 608.328125 L 503.6875 607.242188 L 504.769531 606.160156 L 506.125 605.074219 L 508.296875 602.363281 L 509.378906 601.007812 L 510.464844 599.652344 L 511.277344 598.296875 L 512.363281 596.671875 L 512.902344 595.316406 L 513.71875 593.6875 L 514.257812 592.0625 L 515.074219 590.4375 L 515.34375 588.808594 L 515.886719 587.183594 L 516.15625 585.285156 L 516.429688 583.660156 Z M 516.429688 579.863281 " fill-opacity="1" fill-rule="evenodd"/>
    </g>
  </g>
  <g clip-path="url(#c3df8cb53a)">
    <g clip-path="url(#5f102ace7f)">
      <path fill="#b23753" d="M 481.1875 615.375 L 1507.535156 1641.726562 L 1313.433594 1641.726562 L 287.085938 615.375 Z M 481.1875 615.375 " fill-opacity="1" fill-rule="evenodd"/>
    </g>
  </g>
  <g clip-path="url(#ee62275ed0)">
    <g clip-path="url(#0d6dd1f3e5)">
      <path fill="#b23753" d="M 287.085938 615.375 L 1313.433594 1641.726562 L 1309.910156 1641.726562 L 1308.011719 1641.453125 L 1306.386719 1641.183594 L 1304.488281 1640.640625 L 1302.863281 1640.097656 L 1301.234375 1639.554688 L 1299.609375 1639.015625 L 1297.980469 1638.199219 L 1296.625 1637.386719 L 1295 1636.574219 L 1293.644531 1635.761719 L 1292.289062 1634.675781 L 1290.933594 1633.59375 L 1289.578125 1632.507812 L 263.230469 606.160156 L 264.585938 607.242188 L 265.941406 608.328125 L 267.296875 609.410156 L 268.652344 610.226562 L 270.007812 611.039062 L 273.257812 612.664062 L 274.886719 613.207031 L 276.511719 613.75 L 278.140625 614.292969 L 279.765625 614.5625 L 281.664062 614.832031 L 283.289062 615.105469 L 285.1875 615.375 Z M 287.085938 615.375 " fill-opacity="1" fill-rule="evenodd"/>
    </g>
  </g>
  <g clip-path="url(#5649e7e336)">
    <g clip-path="url(#5bbeb017d4)">
      <path fill="#b23753" d="M 348.351562 163.738281 L 1374.699219 1190.359375 L 1375.785156 1191.445312 L 1376.871094 1192.800781 L 1377.953125 1194.15625 L 1378.765625 1195.511719 L 1379.582031 1196.867188 L 1380.394531 1198.222656 L 1381.207031 1199.847656 L 1381.75 1201.203125 L 1382.5625 1202.828125 L 1383.105469 1204.457031 L 1383.375 1206.082031 L 1383.917969 1207.710938 L 1384.1875 1209.335938 L 1384.1875 1210.960938 L 1384.460938 1212.859375 L 1384.460938 1214.488281 L 358.109375 188.136719 L 358.109375 186.511719 L 357.839844 184.613281 L 357.570312 182.984375 L 357.296875 181.359375 L 357.027344 179.734375 L 356.484375 178.105469 L 355.398438 174.855469 L 354.859375 173.226562 L 354.042969 171.871094 L 353.230469 170.515625 L 352.417969 168.890625 L 351.332031 167.535156 L 350.519531 166.179688 L 349.4375 165.09375 Z M 348.351562 163.738281 " fill-opacity="1" fill-rule="evenodd"/>
    </g>
  </g>
  <g clip-path="url(#ebc5d667de)">
    <g clip-path="url(#596fd11f2e)">
      <path fill="#b23753" d="M 358.109375 188.136719 L 1384.460938 1214.488281 L 1384.460938 1252.167969 L 358.109375 225.820312 Z M 358.109375 188.136719 " fill-opacity="1" fill-rule="evenodd"/>
    </g>
  </g>
  <g clip-path="url(#a5b7703658)">
    <g clip-path="url(#43f72c0159)">
      <path fill="#b23753" d="M 516.429688 261.332031 L 1543.046875 1287.679688 L 1543.046875 1606.484375 L 516.429688 579.863281 Z M 516.429688 261.332031 " fill-opacity="1" fill-rule="evenodd"/>
    </g>
  </g>
  <g clip-path="url(#990bb6849a)">
    <g clip-path="url(#e20dc623b0)">
      <path fill="#b23753" d="M 358.109375 225.820312 L 481.1875 225.820312 C 500.703125 225.820312 516.429688 241.8125 516.429688 261.332031 L 516.429688 579.863281 C 516.429688 599.382812 500.703125 615.375 481.1875 615.375 L 287.085938 615.375 C 267.566406 615.375 251.570312 599.382812 251.570312 579.863281 L 251.570312 261.332031 C 251.570312 241.8125 267.566406 225.820312 287.085938 225.820312 L 287.085938 188.136719 C 287.085938 178.378906 291.152344 169.433594 297.65625 163.195312 C 297.929688 162.925781 298.199219 162.65625 298.199219 162.382812 C 304.707031 156.417969 313.378906 152.625 322.597656 152.625 C 332.355469 152.625 341.304688 156.691406 347.539062 163.195312 C 347.808594 163.46875 348.082031 163.46875 348.351562 163.738281 C 354.316406 170.246094 358.109375 178.648438 358.109375 188.136719 Z M 358.109375 225.820312 " fill-opacity="1" fill-rule="evenodd"/>
    </g>
  </g>
  <path fill="#fefefe" d="M 341.304688 255.636719 L 341.304688 389.828125 L 362.992188 389.828125 L 362.992188 255.636719 Z M 341.304688 255.636719 " fill-opacity="1" fill-rule="nonzero"/>
  <path fill="#fefefe" d="M 405.007812 255.636719 L 405.007812 389.828125 L 426.695312 389.828125 L 426.695312 255.636719 Z M 405.007812 255.636719 " fill-opacity="1" fill-rule="nonzero"/>
  <path fill="#fefefe" d="M 331.542969 564.953125 C 320.15625 564.953125 309.855469 560.617188 302.539062 553.023438 C 295.21875 545.707031 290.609375 535.402344 290.609375 524.019531 C 290.609375 512.902344 295.21875 502.601562 302.539062 495.28125 C 309.855469 487.691406 320.15625 483.082031 331.542969 483.082031 C 342.929688 483.082031 352.960938 487.691406 360.550781 495.28125 C 367.871094 502.601562 372.480469 512.902344 372.480469 524.019531 C 372.480469 535.402344 367.871094 545.707031 360.550781 553.023438 C 352.960938 560.617188 342.929688 564.953125 331.542969 564.953125 Z M 505.585938 445.671875 L 262.414062 445.671875 C 259.433594 445.671875 256.992188 443.234375 256.992188 440.25 C 256.992188 437.269531 259.433594 434.828125 262.414062 434.828125 L 505.585938 434.828125 C 508.566406 434.828125 511.007812 437.269531 511.007812 440.25 C 511.007812 443.234375 508.566406 445.671875 505.585938 445.671875 Z M 405.007812 385.761719 L 310.941406 385.761719 C 297.929688 385.761719 287.628906 375.191406 287.628906 362.449219 L 287.628906 283.289062 C 287.628906 270.546875 297.929688 259.976562 310.941406 259.976562 L 457.328125 259.976562 C 470.070312 259.976562 480.644531 270.546875 480.644531 283.289062 L 480.644531 362.449219 C 480.644531 375.191406 470.070312 385.761719 457.328125 385.761719 Z M 287.085938 225.820312 C 267.566406 225.820312 251.570312 241.8125 251.570312 261.332031 L 251.570312 579.863281 C 251.570312 599.382812 267.566406 615.375 287.085938 615.375 L 481.1875 615.375 C 500.703125 615.375 516.429688 599.382812 516.429688 579.863281 L 516.429688 261.332031 C 516.429688 241.8125 500.703125 225.820312 481.1875 225.820312 L 358.109375 225.820312 L 358.109375 188.136719 C 358.109375 178.648438 354.316406 170.246094 348.351562 163.738281 C 348.082031 163.46875 347.808594 163.46875 347.539062 163.195312 C 341.304688 156.691406 332.355469 152.625 322.597656 152.625 C 313.378906 152.625 304.707031 156.417969 298.199219 162.382812 C 298.199219 162.65625 297.929688 162.925781 297.65625 163.195312 C 291.152344 169.433594 287.085938 178.378906 287.085938 188.136719 Z M 407.71875 549.5 C 400.402344 541.910156 395.792969 531.878906 395.792969 520.496094 C 395.792969 509.378906 400.402344 499.078125 407.71875 491.757812 C 415.039062 484.167969 425.339844 479.832031 436.457031 479.832031 C 447.84375 479.832031 458.144531 484.167969 465.460938 491.757812 C 472.78125 499.078125 477.390625 509.378906 477.390625 520.496094 C 477.390625 531.878906 472.78125 541.910156 465.460938 549.5 C 458.144531 556.820312 447.84375 561.429688 436.457031 561.429688 C 425.339844 561.429688 415.039062 556.820312 407.71875 549.5 Z M 407.71875 549.5 " fill-opacity="1" fill-rule="evenodd"/>
</svg>
