<svg xmlns="http://www.w3.org/2000/svg" id="Layer_1" data-name="Layer 1" viewBox="0 0 307 640" width="307px" height="640px">
  <defs>
    <style>.innermost, .second, .third, .fourth, .fifth, .outermost { stroke-width: 0px; }
.outermost { fill: rgb(225, 244, 254); }
.second { fill: rgb(190, 208, 222); }
.third { fill: rgb(160, 167, 174); }
.fourth { fill: rgb(108, 115, 120); }
.fifth { fill: rgb(65, 69, 73); }
.innermost { fill: rgb(38, 38, 38); }
</style>
  </defs>
  <path class="outermost" d="m306.9,320c0,105.3-.02,210.6.1,315.91,0,3.42-.67,4.1-4.09,4.09-99.6-.12-199.21-.12-298.81,0C.67,640,0,639.33,0,635.91.11,425.3.11,214.7,0,4.09,0,.67.67,0,4.09,0,103.7.12,203.3.12,302.91,0c3.42,0,4.1.67,4.09,4.09-.12,105.3-.1,210.6-.1,315.91Z"/>
  <path class="second" d="m275.92,323c0,87.63,0,175.27,0,262.9,0,7.24-.55,7.93-7.86,7.98-14.66.09-29.31.03-43.97.03-60.96,0-121.92,0-182.88,0q-7.13,0-7.14-7.24c0-176.1,0-352.21,0-528.31q0-7.26,7.12-7.26c75.78,0,151.56,0,227.35,0q7.38,0,7.38,7.5c0,88.13,0,176.27,0,264.4Z"/>
  <path class="third" d="m68.06,322.24c0-69.47,0-138.94,0-208.41,0-8.99,1.33-10.13,10.49-9.12,1.98.22,3.98.32,5.97.32,46.13.02,92.26.02,138.39,0,3.48,0,6.92-.23,10.41-.67,5.5-.7,8.74.46,8.73,7.25-.18,138.94-.13,277.88-.13,416.81,0,.33,0,.67,0,1q-.14,10.51-10.39,10.51c-52.13,0-104.25,0-156.38,0q-7.09,0-7.09-7.28c0-70.14,0-140.27,0-210.41Z"/>
  <path class="fourth" d="m103.02,322.5c0-52.46,0-104.91,0-157.37,0-6.68.36-7.06,7.07-7.06,30.3-.01,60.6.07,90.9-.09,4.54-.02,6.08,1.33,6.07,5.98-.1,105.58-.1,211.16,0,316.74,0,4.18-1.27,5.37-5.38,5.35-29.3-.15-58.6-.08-87.9-.08q-10.76,0-10.76-11.09c0-50.79,0-101.58,0-152.37Z"/>
  <path class="fifth" d="m173,322.2c0,35.29,0,70.58,0,105.88q0,6.89-6.99,6.9c-8.15,0-16.31-.13-24.46.06-3.47.08-4.68-1.09-4.61-4.59.18-9.65.06-19.31.06-28.96,0-58.26-.01-116.53.02-174.79,0-4.76-1.12-9.46-.14-14.3.51-2.54,1.39-3.38,3.8-3.36,8.82.06,17.64.14,26.46-.02,4.59-.09,5.95,1.85,5.94,6.33-.14,35.62-.08,71.25-.08,106.87Z"/>
  <path class="innermost" d="m151.04,322.01c0-9.99.07-19.97-.05-29.96-.04-2.93.83-4.18,3.95-4.18,3.06,0,4.03,1.12,4.02,4.11-.09,19.97-.08,39.94.01,59.91.01,2.96-.84,4.16-3.96,4.14-3.03-.01-4.08-1.04-4.03-4.08.14-9.98.05-19.97.05-29.96Z"/>
</svg>