<?xml version='1.0' encoding='UTF-8'?>
<svg xmlns="http://www.w3.org/2000/svg" xmlns:xlink="http://www.w3.org/1999/xlink" zoomAndPan="magnify" viewBox="0 0 375 374.999991" preserveAspectRatio="xMidYMid meet" version="1.0">
  <path fill="#24381b" d="M 206.046875 31.148438 L 213.988281 26.121094 C 220.125 22.234375 221.957031 14.101562 218.066406 7.957031 C 214.175781 1.820312 206.039062 -0.0117188 199.898438 3.882812 L 156.027344 31.667969 C 152.378906 33.980469 150.082031 37.945312 149.910156 42.269531 C 149.757812 46.589844 151.710938 50.722656 155.171875 53.320312 L 199.042969 86.21875 C 201.410156 87.996094 204.183594 88.851562 206.925781 88.851562 C 210.9375 88.851562 214.878906 87.035156 217.464844 83.585938 C 221.835938 77.773438 220.65625 69.519531 214.84375 65.160156 L 204.601562 57.480469 C 277.128906 65.972656 333.59375 127.796875 333.59375 202.570312 C 333.59375 283.125 268.058594 348.660156 187.492188 348.660156 C 106.945312 348.660156 41.410156 283.125 41.410156 202.570312 C 41.410156 170.234375 51.746094 139.605469 71.316406 113.984375 C 75.722656 108.207031 74.625 99.945312 68.832031 95.53125 C 63.074219 91.117188 54.796875 92.230469 50.390625 98.007812 C 27.292969 128.257812 15.089844 164.410156 15.089844 202.570312 C 15.089844 297.640625 92.429688 374.980469 187.492188 374.980469 C 282.570312 374.980469 359.914062 297.640625 359.914062 202.570312 C 359.914062 113.761719 292.433594 40.433594 206.046875 31.148438 " fill-opacity="1" fill-rule="nonzero"/>
</svg>
