<?xml version='1.0' encoding='UTF-8'?>
<svg xmlns="http://www.w3.org/2000/svg" xmlns:xlink="http://www.w3.org/1999/xlink" zoomAndPan="magnify" viewBox="0 0 768 767.999994" preserveAspectRatio="xMidYMid meet" version="1.0">
  <path fill="#000000" d="M 732.136719 356.785156 C 714.203125 356.785156 676.890625 363.394531 658.324219 372.816406 L 643.382812 372.816406 C 640.753906 311.953125 617.027344 254.171875 575.820312 209.070312 C 575.636719 208.890625 575.546875 208.800781 575.367188 208.617188 L 585.871094 198.113281 C 605.707031 191.683594 636.769531 169.945312 649.449219 157.269531 C 674.808594 131.910156 636.136719 93.417969 610.867188 118.6875 C 598.1875 131.367188 576.453125 162.429688 570.023438 182.265625 L 559.515625 192.769531 C 518.128906 154.730469 465.601562 131.183594 409.359375 125.75 C 404.738281 125.296875 400.03125 125.027344 395.320312 124.753906 L 395.320312 109.8125 C 404.738281 91.246094 411.351562 53.839844 411.351562 36 C 411.351562 0.046875 356.832031 0.316406 356.832031 36 C 356.832031 53.933594 363.441406 91.246094 372.859375 109.8125 L 372.859375 124.753906 C 309.734375 127.472656 252.40625 152.832031 208.753906 192.859375 L 198.066406 182.171875 C 191.636719 162.339844 169.902344 131.277344 157.222656 118.597656 C 131.773438 93.238281 93.375 131.910156 118.640625 157.175781 C 131.320312 169.855469 162.386719 191.59375 182.21875 198.023438 L 192.816406 208.617188 C 152.785156 252.273438 127.425781 309.601562 124.710938 372.722656 L 109.765625 372.722656 C 91.199219 363.304688 53.886719 356.695312 35.953125 356.695312 C 0 356.695312 0.273438 411.214844 35.953125 411.214844 C 53.886719 411.214844 91.199219 404.605469 109.765625 395.183594 L 124.710938 395.183594 C 127.425781 458.308594 152.785156 515.636719 192.816406 559.289062 L 182.21875 569.976562 C 162.386719 576.40625 131.320312 598.144531 118.640625 610.824219 C 93.191406 636.179688 131.953125 674.671875 157.222656 649.402344 C 169.902344 636.722656 191.636719 605.660156 198.066406 585.828125 L 208.664062 575.230469 C 252.316406 615.261719 309.644531 640.617188 372.769531 643.335938 L 372.769531 658.277344 C 363.351562 676.84375 356.738281 714.25 356.738281 732.089844 C 356.738281 767.953125 411.261719 767.773438 411.261719 732.089844 C 411.261719 714.160156 404.648438 676.84375 395.230469 658.277344 L 395.230469 643.335938 C 458.355469 640.617188 515.683594 615.261719 559.335938 575.230469 L 569.933594 585.828125 C 576.363281 605.660156 598.097656 636.722656 610.777344 649.402344 C 636.136719 674.761719 674.625 636.089844 649.359375 610.824219 C 636.679688 598.144531 605.613281 576.40625 585.78125 569.976562 L 575.09375 559.382812 C 615.125 515.726562 640.484375 458.398438 643.199219 395.277344 L 658.144531 395.277344 C 676.710938 404.695312 714.113281 411.304688 731.953125 411.304688 C 768 411.304688 767.820312 356.785156 732.136719 356.785156 Z M 536.605469 518.988281 L 460.164062 442.550781 C 470.21875 429.507812 477.011719 413.75 479.277344 396.542969 L 587.410156 396.542969 C 584.605469 443.367188 565.855469 485.933594 536.605469 518.988281 Z M 180.589844 396.542969 L 288.722656 396.542969 C 290.988281 413.660156 297.691406 429.417969 307.832031 442.550781 L 231.394531 518.988281 C 202.144531 485.933594 183.394531 443.367188 180.589844 396.542969 Z M 231.394531 249.101562 L 307.832031 325.539062 C 297.78125 338.582031 290.988281 354.339844 288.722656 371.546875 L 180.589844 371.546875 C 183.394531 324.722656 202.144531 282.160156 231.394531 249.101562 Z M 448.84375 384.046875 C 448.84375 419.820312 419.773438 448.890625 384 448.890625 C 348.226562 448.890625 319.15625 419.820312 319.15625 384.046875 C 319.15625 348.273438 348.226562 319.199219 384 319.199219 C 419.773438 319.199219 448.84375 348.273438 448.84375 384.046875 Z M 371.5 288.769531 C 354.386719 291.035156 338.625 297.734375 325.496094 307.878906 L 249.054688 231.441406 C 282.113281 202.1875 324.679688 183.53125 371.5 180.632812 Z M 325.496094 460.300781 C 338.535156 470.355469 354.292969 477.148438 371.5 479.410156 L 371.5 587.546875 C 324.679688 584.738281 282.113281 565.992188 249.054688 536.738281 Z M 396.5 479.320312 C 413.613281 477.054688 429.375 470.265625 442.503906 460.210938 L 518.945312 536.648438 C 485.886719 565.902344 443.320312 584.558594 396.5 587.457031 Z M 587.410156 371.546875 L 479.277344 371.546875 C 477.011719 354.429688 470.21875 338.671875 460.164062 325.539062 L 536.695312 249.011719 C 566.941406 283.15625 584.695312 326.171875 587.410156 371.546875 Z M 519.035156 231.351562 L 442.503906 307.878906 C 429.464844 297.828125 413.707031 291.035156 396.5 288.769531 L 396.5 180.632812 C 398.945312 180.816406 401.386719 180.996094 403.925781 181.175781 C 446.761719 185.34375 486.972656 202.914062 519.035156 231.351562 Z M 519.035156 231.351562 " fill-opacity="1" fill-rule="nonzero"/>
</svg>
