<?xml version='1.0' encoding='UTF-8'?>
<svg xmlns="http://www.w3.org/2000/svg" xmlns:xlink="http://www.w3.org/1999/xlink" zoomAndPan="magnify" viewBox="0 0 768 767.999994" preserveAspectRatio="xMidYMid meet" version="1.0">
  <defs>
    <clipPath id="6d016c4318">
      <path d="M 17.453125 373 L 284 373 L 284 427 L 17.453125 427 Z M 17.453125 373 " clip-rule="nonzero"/>
    </clipPath>
  </defs>
  <path fill="#000000" d="M 214.839844 188.714844 C 265.433594 147.777344 329.808594 123.238281 399.894531 123.238281 C 562.457031 123.238281 694.457031 255.296875 694.457031 417.933594 C 694.457031 580.570312 562.457031 712.632812 399.894531 712.632812 C 312.742188 712.632812 234.371094 674.660156 180.421875 614.398438 C 170.566406 603.363281 153.609375 602.433594 142.609375 612.292969 C 131.578125 622.152344 130.648438 639.117188 140.503906 650.121094 C 204.273438 721.382812 296.890625 766.214844 399.894531 766.214844 C 592.023438 766.214844 748.015625 610.148438 748.015625 417.933594 C 748.015625 225.71875 592.023438 69.65625 399.894531 69.65625 C 317.0625 69.65625 240.941406 98.660156 181.171875 147.0625 C 169.675781 156.351562 167.890625 173.246094 177.171875 184.75 C 186.492188 196.25 203.34375 198 214.839844 188.714844 Z M 214.839844 188.714844 " fill-opacity="1" fill-rule="evenodd"/>
  <path fill="#000000" d="M 390.96875 96.445312 L 390.96875 25.003906 C 390.96875 10.214844 378.972656 -1.785156 364.191406 -1.785156 C 349.410156 -1.785156 337.414062 10.214844 337.414062 25.003906 L 337.414062 96.445312 C 337.414062 111.234375 349.410156 123.238281 364.191406 123.238281 C 378.972656 123.238281 390.96875 111.234375 390.96875 96.445312 Z M 390.96875 96.445312 " fill-opacity="1" fill-rule="evenodd"/>
  <path fill="#000000" d="M 462.378906 96.445312 L 462.378906 25.003906 C 462.378906 10.214844 450.382812 -1.785156 435.601562 -1.785156 C 420.820312 -1.785156 408.824219 10.214844 408.824219 25.003906 L 408.824219 96.445312 C 408.824219 111.234375 420.820312 123.238281 435.601562 123.238281 C 450.382812 123.238281 462.378906 111.234375 462.378906 96.445312 Z M 462.378906 96.445312 " fill-opacity="1" fill-rule="evenodd"/>
  <path fill="#000000" d="M 633.046875 186.820312 L 683.566406 136.3125 C 693.992188 125.84375 693.992188 108.878906 683.566406 98.410156 C 673.105469 87.980469 656.148438 87.980469 645.683594 98.410156 L 595.199219 148.957031 C 584.738281 159.386719 584.738281 176.390625 595.199219 186.820312 C 605.625 197.285156 622.621094 197.285156 633.046875 186.820312 Z M 633.046875 186.820312 " fill-opacity="1" fill-rule="evenodd"/>
  <path fill="#000000" d="M 722.308594 131.097656 L 650.898438 59.652344 C 640.472656 49.1875 623.476562 49.1875 613.050781 59.652344 C 602.589844 70.085938 602.589844 87.085938 613.050781 97.519531 L 684.460938 168.960938 C 694.886719 179.425781 711.882812 179.425781 722.308594 168.960938 C 732.769531 158.53125 732.769531 141.527344 722.308594 131.097656 Z M 722.308594 131.097656 " fill-opacity="1" fill-rule="evenodd"/>
  <path fill="#000000" d="M 328.488281 51.796875 L 471.304688 51.796875 C 486.085938 51.796875 498.082031 39.792969 498.082031 25.003906 C 498.082031 10.214844 486.085938 -1.785156 471.304688 -1.785156 L 328.488281 -1.785156 C 313.707031 -1.785156 301.710938 10.214844 301.710938 25.003906 C 301.710938 39.792969 313.707031 51.796875 328.488281 51.796875 Z M 328.488281 51.796875 " fill-opacity="1" fill-rule="evenodd"/>
  <path fill="#000000" d="M 373.117188 221.46875 L 373.117188 400.074219 C 373.117188 407.183594 375.9375 414.003906 380.972656 419.007812 L 488.085938 526.167969 C 498.511719 536.636719 515.507812 536.636719 525.933594 526.167969 C 536.394531 515.738281 536.394531 498.734375 525.933594 488.304688 L 426.675781 388.964844 C 426.675781 388.964844 426.675781 221.46875 426.675781 221.46875 C 426.675781 206.679688 414.679688 194.679688 399.898438 194.679688 C 385.113281 194.679688 373.117188 206.679688 373.117188 221.46875 Z M 373.117188 221.46875 " fill-opacity="1" fill-rule="evenodd"/>
  <g clip-path="url(#6d016c4318)">
    <path fill="#000000" d="M 42.851562 426.863281 L 257.078125 426.863281 C 271.859375 426.863281 283.855469 414.863281 283.855469 400.074219 C 283.855469 385.285156 271.859375 373.285156 257.078125 373.285156 L 42.851562 373.285156 C 28.070312 373.285156 16.074219 385.285156 16.074219 400.074219 C 16.074219 414.863281 28.070312 426.863281 42.851562 426.863281 Z M 42.851562 426.863281 " fill-opacity="1" fill-rule="evenodd"/>
  </g>
  <path fill="#000000" d="M 149.964844 301.84375 L 257.078125 301.84375 C 271.859375 301.84375 283.855469 289.839844 283.855469 275.050781 C 283.855469 260.261719 271.859375 248.261719 257.078125 248.261719 L 149.964844 248.261719 C 135.183594 248.261719 123.1875 260.261719 123.1875 275.050781 C 123.1875 289.839844 135.183594 301.84375 149.964844 301.84375 Z M 149.964844 301.84375 " fill-opacity="1" fill-rule="evenodd"/>
  <path fill="#000000" d="M 149.964844 551.886719 L 257.078125 551.886719 C 271.859375 551.886719 283.855469 539.886719 283.855469 525.097656 C 283.855469 510.308594 271.859375 498.308594 257.078125 498.308594 L 149.964844 498.308594 C 135.183594 498.308594 123.1875 510.308594 123.1875 525.097656 C 123.1875 539.886719 135.183594 551.886719 149.964844 551.886719 Z M 149.964844 551.886719 " fill-opacity="1" fill-rule="evenodd"/>
</svg>
