<?xml version='1.0' encoding='UTF-8'?>
<svg xmlns="http://www.w3.org/2000/svg" xmlns:xlink="http://www.w3.org/1999/xlink" zoomAndPan="magnify" viewBox="0 0 768 767.999994" preserveAspectRatio="xMidYMid meet" version="1.0">
  <path fill="#3d3d3a" d="M 758.679688 299.160156 C 758.15625 298.640625 757.609375 298.144531 757.039062 297.679688 C 756.46875 297.210938 755.875 296.773438 755.261719 296.363281 C 754.648438 295.953125 754.015625 295.578125 753.363281 295.230469 C 752.714844 294.882812 752.046875 294.570312 751.367188 294.285156 C 750.683594 294.003906 749.992188 293.757812 749.285156 293.542969 C 748.578125 293.332031 747.863281 293.152344 747.140625 293.007812 C 746.417969 292.863281 745.6875 292.757812 744.953125 292.683594 C 744.21875 292.613281 743.484375 292.578125 742.746094 292.578125 C 742.007812 292.578125 741.273438 292.613281 740.539062 292.683594 C 739.804688 292.757812 739.074219 292.863281 738.351562 293.007812 C 737.628906 293.152344 736.914062 293.332031 736.207031 293.542969 C 735.5 293.757812 734.808594 294.003906 734.125 294.285156 C 733.445312 294.570312 732.777344 294.882812 732.125 295.230469 C 731.476562 295.578125 730.84375 295.953125 730.230469 296.363281 C 729.617188 296.773438 729.023438 297.210938 728.453125 297.679688 C 727.882812 298.144531 727.335938 298.640625 726.8125 299.160156 L 675.238281 350.789062 L 623.664062 299.160156 C 623.136719 298.667969 622.585938 298.203125 622.011719 297.761719 C 621.441406 297.324219 620.847656 296.914062 620.234375 296.53125 C 619.625 296.148438 618.996094 295.796875 618.347656 295.472656 C 617.703125 295.152344 617.042969 294.863281 616.367188 294.601562 C 615.695312 294.34375 615.007812 294.117188 614.3125 293.925781 C 613.617188 293.734375 612.914062 293.574219 612.203125 293.449219 C 611.492188 293.324219 610.777344 293.234375 610.058594 293.175781 C 609.339844 293.121094 608.617188 293.097656 607.894531 293.109375 C 607.175781 293.125 606.453125 293.171875 605.738281 293.253906 C 605.019531 293.335938 604.308594 293.449219 603.601562 293.601562 C 602.894531 293.75 602.199219 293.933594 601.511719 294.152344 C 600.820312 294.371094 600.144531 294.617188 599.480469 294.902344 C 598.816406 295.183594 598.167969 295.496094 597.53125 295.839844 C 596.898438 296.183594 596.28125 296.558594 595.683594 296.964844 C 595.085938 297.367188 594.507812 297.796875 593.949219 298.257812 C 593.394531 298.714844 592.859375 299.203125 592.347656 299.710938 C 591.839844 300.222656 591.355469 300.757812 590.894531 301.3125 C 590.4375 301.871094 590.003906 302.449219 589.601562 303.046875 C 589.195312 303.644531 588.824219 304.261719 588.480469 304.894531 C 588.132812 305.53125 587.820312 306.179688 587.539062 306.84375 C 587.257812 307.507812 587.007812 308.183594 586.789062 308.871094 C 586.574219 309.5625 586.390625 310.257812 586.238281 310.964844 C 586.089844 311.671875 585.972656 312.382812 585.890625 313.101562 C 585.808594 313.816406 585.761719 314.535156 585.75 315.257812 C 585.734375 315.980469 585.757812 316.699219 585.816406 317.421875 C 585.871094 318.140625 585.960938 318.855469 586.085938 319.566406 C 586.210938 320.277344 586.371094 320.980469 586.5625 321.675781 C 586.757812 322.371094 586.980469 323.054688 587.242188 323.730469 C 587.5 324.40625 587.789062 325.066406 588.113281 325.710938 C 588.433594 326.355469 588.785156 326.984375 589.167969 327.597656 C 589.550781 328.210938 589.960938 328.804688 590.398438 329.375 C 590.839844 329.949219 591.304688 330.5 591.796875 331.027344 L 643.398438 382.628906 L 591.769531 434.203125 C 591.277344 434.730469 590.8125 435.28125 590.371094 435.851562 C 589.933594 436.425781 589.523438 437.019531 589.140625 437.632812 C 588.757812 438.242188 588.40625 438.871094 588.085938 439.519531 C 587.761719 440.164062 587.472656 440.824219 587.214844 441.5 C 586.953125 442.171875 586.730469 442.859375 586.535156 443.554688 C 586.34375 444.25 586.183594 444.953125 586.058594 445.664062 C 585.933594 446.375 585.84375 447.089844 585.789062 447.808594 C 585.730469 448.527344 585.707031 449.25 585.722656 449.972656 C 585.734375 450.691406 585.78125 451.414062 585.863281 452.128906 C 585.945312 452.847656 586.0625 453.558594 586.210938 454.265625 C 586.363281 454.96875 586.546875 455.667969 586.761719 456.355469 C 586.980469 457.042969 587.230469 457.722656 587.511719 458.386719 C 587.792969 459.050781 588.105469 459.699219 588.453125 460.332031 C 588.796875 460.96875 589.167969 461.585938 589.574219 462.183594 C 589.976562 462.78125 590.410156 463.359375 590.867188 463.917969 C 591.328125 464.472656 591.8125 465.007812 592.324219 465.515625 C 592.832031 466.027344 593.367188 466.511719 593.921875 466.972656 C 594.480469 467.429688 595.058594 467.863281 595.65625 468.265625 C 596.253906 468.667969 596.871094 469.042969 597.503906 469.386719 C 598.140625 469.734375 598.789062 470.046875 599.453125 470.328125 C 600.117188 470.609375 600.796875 470.859375 601.484375 471.078125 C 602.171875 471.292969 602.867188 471.476562 603.574219 471.628906 C 604.28125 471.777344 604.992188 471.894531 605.710938 471.976562 C 606.425781 472.058594 607.148438 472.105469 607.867188 472.117188 C 608.589844 472.128906 609.3125 472.109375 610.03125 472.050781 C 610.75 471.996094 611.464844 471.90625 612.175781 471.78125 C 612.886719 471.65625 613.589844 471.496094 614.285156 471.304688 C 614.980469 471.109375 615.667969 470.882812 616.339844 470.625 C 617.015625 470.367188 617.675781 470.078125 618.320312 469.753906 C 618.96875 469.433594 619.597656 469.082031 620.207031 468.699219 C 620.820312 468.316406 621.414062 467.90625 621.988281 467.464844 C 622.558594 467.027344 623.109375 466.5625 623.636719 466.070312 L 675.210938 414.441406 L 726.785156 466.070312 C 727.300781 466.621094 727.839844 467.148438 728.410156 467.644531 C 728.976562 468.144531 729.566406 468.613281 730.183594 469.050781 C 730.796875 469.488281 731.429688 469.894531 732.085938 470.269531 C 732.742188 470.644531 733.414062 470.988281 734.105469 471.292969 C 734.792969 471.601562 735.496094 471.875 736.214844 472.109375 C 736.929688 472.347656 737.660156 472.546875 738.394531 472.710938 C 739.132812 472.875 739.875 473 740.625 473.089844 C 741.375 473.179688 742.128906 473.230469 742.882812 473.242188 C 743.636719 473.257812 744.390625 473.230469 745.144531 473.167969 C 745.898438 473.105469 746.644531 473.007812 747.386719 472.871094 C 748.128906 472.730469 748.863281 472.558594 749.589844 472.347656 C 750.3125 472.136719 751.027344 471.886719 751.726562 471.605469 C 752.425781 471.324219 753.109375 471.003906 753.777344 470.652344 C 754.445312 470.300781 755.097656 469.917969 755.726562 469.5 C 756.355469 469.085938 756.960938 468.636719 757.546875 468.160156 C 758.132812 467.683594 758.691406 467.175781 759.226562 466.640625 C 759.757812 466.109375 760.265625 465.546875 760.742188 464.964844 C 761.21875 464.378906 761.667969 463.773438 762.085938 463.140625 C 762.5 462.511719 762.886719 461.863281 763.238281 461.195312 C 763.589844 460.527344 763.90625 459.84375 764.1875 459.144531 C 764.472656 458.441406 764.71875 457.730469 764.929688 457.003906 C 765.140625 456.28125 765.316406 455.546875 765.453125 454.804688 C 765.589844 454.0625 765.691406 453.3125 765.753906 452.5625 C 765.816406 451.808594 765.839844 451.054688 765.824219 450.300781 C 765.8125 449.546875 765.761719 448.792969 765.671875 448.042969 C 765.582031 447.292969 765.457031 446.550781 765.292969 445.8125 C 765.128906 445.074219 764.929688 444.347656 764.691406 443.632812 C 764.457031 442.914062 764.183594 442.210938 763.878906 441.519531 C 763.570312 440.832031 763.230469 440.160156 762.855469 439.503906 C 762.480469 438.847656 762.074219 438.214844 761.632812 437.597656 C 761.195312 436.984375 760.726562 436.394531 760.230469 435.824219 C 759.730469 435.257812 759.207031 434.714844 758.652344 434.203125 L 707.050781 382.628906 L 758.679688 331.054688 C 759.203125 330.53125 759.695312 329.984375 760.164062 329.414062 C 760.632812 328.84375 761.070312 328.25 761.480469 327.636719 C 761.890625 327.019531 762.269531 326.386719 762.617188 325.738281 C 762.964844 325.085938 763.28125 324.417969 763.5625 323.734375 C 763.84375 323.054688 764.09375 322.359375 764.308594 321.652344 C 764.519531 320.945312 764.699219 320.230469 764.84375 319.507812 C 764.988281 318.78125 765.097656 318.050781 765.167969 317.316406 C 765.242188 316.582031 765.277344 315.84375 765.277344 315.105469 C 765.277344 314.367188 765.242188 313.632812 765.167969 312.898438 C 765.097656 312.164062 764.988281 311.433594 764.84375 310.707031 C 764.699219 309.984375 764.519531 309.269531 764.308594 308.5625 C 764.09375 307.855469 763.84375 307.160156 763.5625 306.476562 C 763.28125 305.796875 762.964844 305.128906 762.617188 304.476562 C 762.269531 303.824219 761.890625 303.191406 761.480469 302.578125 C 761.070312 301.964844 760.632812 301.371094 760.164062 300.800781 C 759.695312 300.230469 759.203125 299.683594 758.679688 299.160156 Z M 758.679688 299.160156 " fill-opacity="1" fill-rule="evenodd"/>
  <path fill="#3d3d3a" d="M 462.988281 61.898438 C 460.664062 60.738281 458.304688 59.660156 455.90625 58.664062 C 453.507812 57.667969 451.078125 56.753906 448.617188 55.925781 C 446.15625 55.09375 443.671875 54.351562 441.160156 53.695312 C 438.648438 53.039062 436.113281 52.46875 433.5625 51.988281 C 431.011719 51.503906 428.445312 51.113281 425.867188 50.808594 C 423.289062 50.503906 420.703125 50.289062 418.109375 50.164062 C 415.515625 50.039062 412.921875 50.003906 410.324219 50.054688 C 407.730469 50.109375 405.136719 50.253906 402.550781 50.488281 C 399.964844 50.71875 397.390625 51.042969 394.828125 51.453125 C 392.261719 51.867188 389.714844 52.367188 387.1875 52.953125 C 384.65625 53.539062 382.152344 54.214844 379.667969 54.976562 C 377.1875 55.738281 374.734375 56.582031 372.308594 57.511719 C 369.886719 58.445312 367.496094 59.457031 365.140625 60.554688 C 362.789062 61.648438 360.476562 62.824219 358.203125 64.082031 C 355.929688 65.335938 353.703125 66.671875 351.523438 68.082031 C 349.34375 69.492188 347.214844 70.972656 345.136719 72.53125 C 286.976562 116.234375 225.753906 162.066406 193.066406 186.554688 C 190.164062 188.730469 187.105469 190.664062 183.890625 192.347656 C 180.679688 194.027344 177.351562 195.445312 173.910156 196.59375 C 170.46875 197.738281 166.957031 198.601562 163.375 199.183594 C 159.792969 199.765625 156.1875 200.058594 152.5625 200.058594 L 112.550781 200.058594 C 110.707031 200.058594 108.867188 200.105469 107.027344 200.195312 C 105.1875 200.285156 103.351562 200.421875 101.519531 200.601562 C 99.6875 200.78125 97.859375 201.007812 96.039062 201.277344 C 94.21875 201.550781 92.402344 201.863281 90.597656 202.222656 C 88.789062 202.582031 86.996094 202.988281 85.207031 203.433594 C 83.421875 203.882812 81.648438 204.375 79.886719 204.910156 C 78.125 205.441406 76.375 206.019531 74.640625 206.640625 C 72.90625 207.261719 71.191406 207.925781 69.488281 208.628906 C 67.789062 209.335938 66.105469 210.082031 64.441406 210.867188 C 62.773438 211.65625 61.128906 212.484375 59.507812 213.351562 C 57.882812 214.21875 56.28125 215.125 54.703125 216.074219 C 53.121094 217.019531 51.566406 218.003906 50.035156 219.027344 C 48.503906 220.050781 47 221.109375 45.519531 222.207031 C 44.039062 223.304688 42.589844 224.4375 41.164062 225.605469 C 39.742188 226.773438 38.347656 227.976562 36.984375 229.210938 C 35.617188 230.449219 34.285156 231.71875 32.984375 233.019531 C 31.679688 234.324219 30.410156 235.65625 29.171875 237.019531 C 27.9375 238.382812 26.734375 239.777344 25.566406 241.203125 C 24.398438 242.625 23.265625 244.074219 22.167969 245.554688 C 21.070312 247.035156 20.007812 248.539062 18.984375 250.070312 C 17.960938 251.601562 16.976562 253.15625 16.03125 254.734375 C 15.082031 256.316406 14.175781 257.917969 13.304688 259.539062 C 12.4375 261.164062 11.609375 262.808594 10.820312 264.472656 C 10.035156 266.136719 9.289062 267.820312 8.582031 269.519531 C 7.878906 271.222656 7.214844 272.941406 6.59375 274.671875 C 5.972656 276.40625 5.394531 278.15625 4.859375 279.917969 C 4.324219 281.679688 3.832031 283.453125 3.382812 285.238281 C 2.9375 287.027344 2.53125 288.820312 2.171875 290.628906 C 1.8125 292.433594 1.496094 294.246094 1.226562 296.070312 C 0.953125 297.890625 0.726562 299.71875 0.546875 301.550781 C 0.367188 303.382812 0.230469 305.21875 0.136719 307.058594 C 0.046875 308.898438 0 310.738281 0 312.578125 L 0 452.675781 C 0 454.519531 0.046875 456.359375 0.136719 458.199219 C 0.230469 460.039062 0.367188 461.875 0.546875 463.707031 C 0.726562 465.539062 0.953125 467.367188 1.226562 469.1875 C 1.496094 471.007812 1.8125 472.824219 2.171875 474.628906 C 2.53125 476.433594 2.9375 478.230469 3.382812 480.015625 C 3.832031 481.804688 4.324219 483.578125 4.859375 485.339844 C 5.394531 487.101562 5.972656 488.851562 6.59375 490.582031 C 7.214844 492.316406 7.878906 494.035156 8.582031 495.734375 C 9.289062 497.4375 10.035156 499.121094 10.820312 500.785156 C 11.609375 502.449219 12.4375 504.09375 13.304688 505.714844 C 14.175781 507.339844 15.082031 508.941406 16.03125 510.519531 C 16.976562 512.101562 17.960938 513.65625 18.984375 515.1875 C 20.007812 516.71875 21.070312 518.222656 22.167969 519.703125 C 23.265625 521.179688 24.398438 522.632812 25.566406 524.054688 C 26.734375 525.476562 27.9375 526.871094 29.171875 528.238281 C 30.410156 529.601562 31.679688 530.933594 32.984375 532.234375 C 34.285156 533.539062 35.617188 534.808594 36.984375 536.042969 C 38.347656 537.28125 39.742188 538.484375 41.164062 539.652344 C 42.589844 540.820312 44.039062 541.953125 45.519531 543.046875 C 47 544.144531 48.503906 545.207031 50.035156 546.226562 C 51.566406 547.25 53.121094 548.238281 54.703125 549.183594 C 56.28125 550.128906 57.882812 551.039062 59.507812 551.90625 C 61.128906 552.773438 62.773438 553.601562 64.441406 554.390625 C 66.105469 555.175781 67.789062 555.921875 69.488281 556.628906 C 71.191406 557.332031 72.90625 557.996094 74.640625 558.613281 C 76.375 559.234375 78.125 559.8125 79.886719 560.347656 C 81.648438 560.882812 83.421875 561.375 85.207031 561.820312 C 86.996094 562.269531 88.789062 562.671875 90.597656 563.03125 C 92.402344 563.390625 94.21875 563.707031 96.039062 563.976562 C 97.859375 564.25 99.6875 564.472656 101.519531 564.65625 C 103.351562 564.835938 105.1875 564.972656 107.027344 565.0625 C 108.867188 565.152344 110.707031 565.199219 112.550781 565.199219 L 152.5625 565.199219 C 156.1875 565.199219 159.792969 565.492188 163.375 566.070312 C 166.957031 566.652344 170.46875 567.515625 173.910156 568.664062 C 177.351562 569.8125 180.679688 571.226562 183.890625 572.910156 C 187.105469 574.59375 190.164062 576.523438 193.066406 578.699219 C 225.863281 603.296875 286.867188 649.023438 345.136719 692.726562 C 347.214844 694.28125 349.339844 695.765625 351.523438 697.175781 C 353.703125 698.585938 355.929688 699.917969 358.203125 701.175781 C 360.472656 702.429688 362.785156 703.605469 365.140625 704.703125 C 367.496094 705.800781 369.882812 706.8125 372.308594 707.742188 C 374.730469 708.671875 377.183594 709.519531 379.667969 710.28125 C 382.148438 711.039062 384.65625 711.714844 387.183594 712.300781 C 389.714844 712.890625 392.261719 713.386719 394.824219 713.800781 C 397.386719 714.210938 399.964844 714.53125 402.550781 714.765625 C 405.136719 714.996094 407.726562 715.140625 410.320312 715.195312 C 412.917969 715.25 415.511719 715.210938 418.105469 715.085938 C 420.699219 714.960938 423.285156 714.746094 425.863281 714.4375 C 428.441406 714.132812 431.007812 713.742188 433.558594 713.257812 C 436.109375 712.777344 438.640625 712.207031 441.152344 711.546875 C 443.664062 710.890625 446.152344 710.144531 448.609375 709.316406 C 451.070312 708.488281 453.5 707.574219 455.898438 706.574219 C 458.292969 705.578125 460.652344 704.496094 462.976562 703.335938 C 465.296875 702.175781 467.578125 700.933594 469.816406 699.617188 C 472.050781 698.296875 474.238281 696.902344 476.378906 695.433594 C 478.519531 693.960938 480.605469 692.417969 482.640625 690.804688 C 484.671875 689.191406 486.648438 687.507812 488.5625 685.753906 C 490.480469 684.003906 492.335938 682.1875 494.125 680.308594 C 495.917969 678.429688 497.640625 676.488281 499.296875 674.488281 C 500.953125 672.492188 502.539062 670.4375 504.054688 668.328125 C 505.570312 666.21875 507.011719 664.058594 508.375 661.851562 C 509.742188 659.644531 511.027344 657.390625 512.238281 655.09375 C 513.445312 652.796875 514.574219 650.457031 515.621094 648.082031 C 516.671875 645.707031 517.636719 643.296875 518.515625 640.855469 C 519.398438 638.414062 520.191406 635.941406 520.902344 633.445312 C 521.613281 630.949219 522.234375 628.429688 522.769531 625.886719 C 523.304688 623.347656 523.753906 620.792969 524.113281 618.21875 C 524.472656 615.648438 524.742188 613.066406 524.921875 610.476562 C 525.101562 607.886719 525.191406 605.292969 525.191406 602.695312 L 525.191406 162.558594 C 525.191406 159.960938 525.101562 157.367188 524.921875 154.777344 C 524.742188 152.1875 524.472656 149.605469 524.117188 147.035156 C 523.757812 144.460938 523.3125 141.90625 522.777344 139.367188 C 522.242188 136.824219 521.617188 134.304688 520.910156 131.808594 C 520.199219 129.308594 519.402344 126.839844 518.523438 124.394531 C 517.644531 121.953125 516.679688 119.542969 515.632812 117.167969 C 514.582031 114.789062 513.457031 112.453125 512.246094 110.15625 C 511.039062 107.855469 509.75 105.605469 508.386719 103.394531 C 507.019531 101.1875 505.582031 99.027344 504.066406 96.917969 C 502.550781 94.808594 500.964844 92.753906 499.308594 90.753906 C 497.652344 88.753906 495.929688 86.8125 494.136719 84.933594 C 492.347656 83.054688 490.492188 81.238281 488.574219 79.484375 C 486.660156 77.734375 484.683594 76.050781 482.648438 74.433594 C 480.617188 72.820312 478.53125 71.277344 476.390625 69.804688 C 474.25 68.335938 472.0625 66.941406 469.824219 65.621094 C 467.589844 64.300781 465.308594 63.0625 462.988281 61.898438 Z M 480.175781 602.695312 C 480.175781 605.816406 479.960938 608.921875 479.527344 612.011719 C 479.097656 615.097656 478.453125 618.144531 477.601562 621.144531 C 476.746094 624.144531 475.691406 627.070312 474.429688 629.925781 C 473.171875 632.777344 471.722656 635.53125 470.082031 638.1875 C 468.441406 640.839844 466.625 643.367188 464.632812 645.765625 C 462.640625 648.167969 460.496094 650.421875 458.191406 652.523438 C 455.890625 654.628906 453.453125 656.5625 450.882812 658.328125 C 448.308594 660.097656 445.628906 661.675781 442.839844 663.070312 C 440.050781 664.464844 437.175781 665.660156 434.21875 666.65625 C 431.265625 667.65625 428.253906 668.441406 425.1875 669.023438 C 422.125 669.601562 419.035156 669.96875 415.917969 670.117188 C 412.800781 670.269531 409.691406 670.207031 406.585938 669.925781 C 403.476562 669.644531 400.40625 669.152344 397.367188 668.449219 C 394.328125 667.742188 391.351562 666.832031 388.441406 665.710938 C 385.527344 664.59375 382.707031 663.28125 379.976562 661.773438 C 377.246094 660.265625 374.632812 658.574219 372.136719 656.703125 C 313.894531 612.972656 252.757812 567.167969 220.070312 542.679688 C 215.230469 539.046875 210.132812 535.824219 204.777344 533.015625 C 199.417969 530.207031 193.871094 527.847656 188.132812 525.933594 C 182.390625 524.019531 176.535156 522.578125 170.566406 521.609375 C 164.59375 520.640625 158.582031 520.15625 152.535156 520.15625 L 112.550781 520.15625 C 111.445312 520.15625 110.339844 520.128906 109.234375 520.074219 C 108.132812 520.019531 107.03125 519.9375 105.929688 519.828125 C 104.832031 519.722656 103.734375 519.585938 102.640625 519.421875 C 101.546875 519.261719 100.460938 519.070312 99.375 518.855469 C 98.292969 518.640625 97.214844 518.398438 96.140625 518.128906 C 95.070312 517.859375 94.003906 517.566406 92.949219 517.242188 C 91.890625 516.921875 90.839844 516.574219 89.800781 516.203125 C 88.761719 515.832031 87.730469 515.433594 86.707031 515.007812 C 85.6875 514.585938 84.679688 514.136719 83.679688 513.664062 C 82.679688 513.191406 81.691406 512.695312 80.71875 512.175781 C 79.742188 511.652344 78.78125 511.109375 77.835938 510.542969 C 76.886719 509.972656 75.953125 509.382812 75.035156 508.765625 C 74.117188 508.152344 73.214844 507.515625 72.324219 506.859375 C 71.4375 506.199219 70.566406 505.519531 69.710938 504.820312 C 68.859375 504.117188 68.023438 503.398438 67.203125 502.65625 C 66.382812 501.914062 65.585938 501.152344 64.800781 500.367188 C 64.019531 499.585938 63.257812 498.789062 62.515625 497.96875 C 61.773438 497.148438 61.054688 496.3125 60.351562 495.460938 C 59.652344 494.605469 58.972656 493.734375 58.3125 492.847656 C 57.65625 491.957031 57.019531 491.054688 56.402344 490.136719 C 55.789062 489.21875 55.199219 488.285156 54.628906 487.335938 C 54.0625 486.390625 53.519531 485.425781 52.996094 484.453125 C 52.476562 483.476562 51.980469 482.492188 51.507812 481.492188 C 51.03125 480.492188 50.585938 479.484375 50.164062 478.464844 C 49.738281 477.441406 49.339844 476.410156 48.96875 475.371094 C 48.597656 474.332031 48.25 473.28125 47.929688 472.222656 C 47.605469 471.167969 47.3125 470.101562 47.042969 469.03125 C 46.773438 467.957031 46.53125 466.878906 46.316406 465.796875 C 46.101562 464.710938 45.910156 463.625 45.75 462.53125 C 45.585938 461.4375 45.449219 460.339844 45.339844 459.242188 C 45.234375 458.140625 45.152344 457.039062 45.097656 455.9375 C 45.042969 454.832031 45.015625 453.726562 45.015625 452.621094 L 45.015625 312.578125 C 45.015625 311.472656 45.042969 310.371094 45.097656 309.265625 C 45.152344 308.160156 45.234375 307.058594 45.339844 305.960938 C 45.449219 304.859375 45.585938 303.765625 45.75 302.671875 C 45.910156 301.578125 46.101562 300.488281 46.316406 299.40625 C 46.53125 298.320312 46.773438 297.242188 47.042969 296.171875 C 47.3125 295.101562 47.605469 294.035156 47.929688 292.976562 C 48.25 291.921875 48.597656 290.871094 48.96875 289.832031 C 49.339844 288.789062 49.738281 287.757812 50.164062 286.738281 C 50.585938 285.71875 51.03125 284.707031 51.507812 283.710938 C 51.980469 282.710938 52.476562 281.722656 52.996094 280.75 C 53.519531 279.773438 54.0625 278.8125 54.628906 277.863281 C 55.199219 276.917969 55.789062 275.984375 56.402344 275.066406 C 57.019531 274.144531 57.65625 273.242188 58.3125 272.355469 C 58.972656 271.46875 59.652344 270.597656 60.351562 269.742188 C 61.054688 268.886719 61.773438 268.050781 62.515625 267.234375 C 63.257812 266.414062 64.019531 265.613281 64.800781 264.832031 C 65.585938 264.050781 66.382812 263.289062 67.203125 262.546875 C 68.023438 261.804688 68.859375 261.082031 69.710938 260.382812 C 70.566406 259.679688 71.4375 259 72.324219 258.34375 C 73.214844 257.683594 74.117188 257.046875 75.035156 256.433594 C 75.953125 255.820312 76.886719 255.230469 77.835938 254.660156 C 78.78125 254.09375 79.742188 253.546875 80.71875 253.027344 C 81.691406 252.503906 82.679688 252.007812 83.679688 251.535156 C 84.679688 251.0625 85.6875 250.617188 86.707031 250.191406 C 87.730469 249.769531 88.761719 249.371094 89.800781 249 C 90.839844 248.625 91.890625 248.28125 92.949219 247.957031 C 94.003906 247.636719 95.070312 247.34375 96.140625 247.074219 C 97.214844 246.804688 98.292969 246.5625 99.375 246.347656 C 100.460938 246.128906 101.546875 245.941406 102.640625 245.777344 C 103.734375 245.617188 104.832031 245.480469 105.929688 245.371094 C 107.03125 245.261719 108.132812 245.179688 109.234375 245.125 C 110.339844 245.070312 111.445312 245.042969 112.550781 245.042969 L 152.5625 245.042969 C 158.609375 245.046875 164.621094 244.5625 170.59375 243.59375 C 176.5625 242.625 182.417969 241.183594 188.160156 239.269531 C 193.898438 237.355469 199.445312 234.996094 204.804688 232.183594 C 210.160156 229.375 215.257812 226.15625 220.097656 222.523438 C 252.894531 197.925781 313.894531 152.199219 372.164062 108.5 C 374.660156 106.628906 377.273438 104.9375 380.003906 103.429688 C 382.734375 101.921875 385.554688 100.605469 388.46875 99.488281 C 391.378906 98.371094 394.355469 97.460938 397.394531 96.753906 C 400.433594 96.050781 403.503906 95.554688 406.613281 95.277344 C 409.71875 94.996094 412.828125 94.933594 415.945312 95.082031 C 419.0625 95.234375 422.152344 95.601562 425.214844 96.179688 C 428.28125 96.757812 431.292969 97.546875 434.246094 98.542969 C 437.203125 99.539062 440.078125 100.734375 442.867188 102.132812 C 445.65625 103.527344 448.335938 105.105469 450.910156 106.871094 C 453.480469 108.636719 455.917969 110.574219 458.21875 112.675781 C 460.523438 114.78125 462.667969 117.035156 464.660156 119.433594 C 466.652344 121.835938 468.46875 124.363281 470.109375 127.015625 C 471.75 129.667969 473.199219 132.421875 474.457031 135.277344 C 475.71875 138.128906 476.773438 141.058594 477.628906 144.058594 C 478.480469 147.058594 479.125 150.101562 479.554688 153.191406 C 479.988281 156.28125 480.203125 159.386719 480.203125 162.503906 Z M 480.175781 602.695312 " fill-opacity="1" fill-rule="evenodd"/>
</svg>
