<?xml version="1.0" encoding="UTF-8"?>
<svg id="Layer_2" data-name="Layer 2" xmlns="http://www.w3.org/2000/svg" viewBox="0 0 21 18.88">
    <defs>
        <style>
            .speaker {
            fill: #000;
            stroke-width: 0px;
            }
        </style>
    </defs>
    <g id="Layer_1-2" data-name="Layer 1">
        <path class="speaker"
            d="M12,1.5c0-1.34-1.62-2.01-2.56-1.06l-4.5,4.5h-1.93c-1.14,0-2.32.66-2.66,1.9C.12,7.69,0,8.57,0,9.44,0,10.34.12,11.21.35,12.04c.34,1.24,1.52,1.9,2.66,1.9h1.93l4.5,4.5c.94.94,2.56.28,2.56-1.06,0,0,0-15.88,0-15.88ZM17.08,2.55c.29-.29.77-.29,1.06,0,3.81,3.81,3.81,9.98,0,13.79-.28.3-.76.32-1.06.04s-.32-.76-.04-1.06c.01-.01.02-.03.04-.04,3.22-3.22,3.22-8.45,0-11.67h0c-.29-.29-.29-.77,0-1.06Z" />
        <path class="speaker"
            d="M14.43,5.2c.29-.29.77-.29,1.06,0,0,0,0,0,0,0,2.34,2.34,2.34,6.14,0,8.49h0c-.3.29-.77.28-1.06-.02-.28-.29-.28-.75,0-1.04,1.76-1.76,1.76-4.61,0-6.36h0c-.29-.29-.29-.77,0-1.06h0Z" />
    </g>
</svg>