<?xml version='1.0' encoding='UTF-8'?>
<svg xmlns="http://www.w3.org/2000/svg" xmlns:xlink="http://www.w3.org/1999/xlink" zoomAndPan="magnify" viewBox="0 0 768 767.999994" preserveAspectRatio="xMidYMid meet" version="1.0">
  <path fill="#3d3d3a" d="M 648.636719 223.34375 C 648.128906 223.851562 647.648438 224.382812 647.195312 224.9375 C 646.742188 225.492188 646.316406 226.070312 645.917969 226.664062 C 645.519531 227.261719 645.152344 227.875 644.816406 228.507812 C 644.476562 229.140625 644.171875 229.789062 643.898438 230.449219 C 643.625 231.113281 643.382812 231.789062 643.175781 232.472656 C 642.96875 233.160156 642.792969 233.855469 642.652344 234.558594 C 642.515625 235.261719 642.410156 235.96875 642.339844 236.683594 C 642.269531 237.394531 642.234375 238.109375 642.234375 238.828125 C 642.234375 239.542969 642.269531 240.261719 642.339844 240.972656 C 642.410156 241.6875 642.515625 242.394531 642.652344 243.097656 C 642.792969 243.800781 642.96875 244.496094 643.175781 245.183594 C 643.382812 245.867188 643.625 246.542969 643.898438 247.207031 C 644.171875 247.867188 644.476562 248.515625 644.816406 249.148438 C 645.152344 249.78125 645.519531 250.394531 645.917969 250.992188 C 646.316406 251.585938 646.742188 252.164062 647.195312 252.71875 C 647.652344 253.273438 648.128906 253.804688 648.636719 254.308594 C 650.746094 256.421875 652.800781 258.582031 654.800781 260.789062 C 656.800781 263 658.75 265.257812 660.640625 267.566406 C 662.53125 269.871094 664.363281 272.222656 666.136719 274.617188 C 667.914062 277.015625 669.628906 279.453125 671.285156 281.933594 C 672.941406 284.414062 674.535156 286.929688 676.066406 289.488281 C 677.597656 292.046875 679.066406 294.640625 680.472656 297.273438 C 681.878906 299.902344 683.214844 302.566406 684.492188 305.261719 C 685.765625 307.957031 686.972656 310.683594 688.113281 313.441406 C 689.253906 316.195312 690.324219 318.976562 691.328125 321.785156 C 692.332031 324.59375 693.269531 327.421875 694.132812 330.277344 C 694.996094 333.128906 695.792969 336.003906 696.515625 338.898438 C 697.242188 341.789062 697.894531 344.699219 698.476562 347.621094 C 699.054688 350.546875 699.566406 353.484375 700.003906 356.433594 C 700.441406 359.382812 700.804688 362.34375 701.097656 365.3125 C 701.390625 368.277344 701.609375 371.25 701.753906 374.230469 C 701.902344 377.207031 701.972656 380.1875 701.972656 383.171875 C 701.972656 386.152344 701.902344 389.132812 701.753906 392.113281 C 701.609375 395.089844 701.390625 398.0625 701.097656 401.03125 C 700.804688 404 700.441406 406.957031 700.003906 409.90625 C 699.566406 412.855469 699.054688 415.792969 698.476562 418.71875 C 697.894531 421.644531 697.242188 424.550781 696.515625 427.445312 C 695.792969 430.335938 694.996094 433.210938 694.132812 436.066406 C 693.269531 438.917969 692.332031 441.75 691.328125 444.558594 C 690.324219 447.363281 689.253906 450.148438 688.113281 452.902344 C 686.972656 455.65625 685.765625 458.382812 684.492188 461.078125 C 683.214844 463.773438 681.878906 466.4375 680.472656 469.070312 C 679.066406 471.699219 677.597656 474.292969 676.066406 476.851562 C 674.535156 479.410156 672.941406 481.929688 671.285156 484.410156 C 669.628906 486.890625 667.914062 489.328125 666.136719 491.722656 C 664.363281 494.117188 662.53125 496.46875 660.640625 498.777344 C 658.75 501.082031 656.800781 503.339844 654.800781 505.550781 C 652.800781 507.761719 650.746094 509.921875 648.636719 512.03125 C 648.132812 512.539062 647.652344 513.070312 647.199219 513.625 C 646.742188 514.179688 646.316406 514.753906 645.921875 515.351562 C 645.523438 515.949219 645.15625 516.5625 644.820312 517.195312 C 644.480469 517.828125 644.175781 518.476562 643.902344 519.140625 C 643.628906 519.800781 643.390625 520.476562 643.183594 521.164062 C 642.976562 521.847656 642.800781 522.542969 642.664062 523.246094 C 642.523438 523.949219 642.421875 524.65625 642.351562 525.371094 C 642.28125 526.085938 642.246094 526.800781 642.246094 527.515625 C 642.25 528.234375 642.285156 528.949219 642.355469 529.660156 C 642.425781 530.375 642.53125 531.082031 642.671875 531.785156 C 642.8125 532.488281 642.988281 533.183594 643.195312 533.871094 C 643.40625 534.554688 643.648438 535.230469 643.921875 535.890625 C 644.195312 536.554688 644.503906 537.199219 644.839844 537.832031 C 645.179688 538.464844 645.546875 539.078125 645.945312 539.671875 C 646.34375 540.269531 646.773438 540.84375 647.226562 541.398438 C 647.683594 541.953125 648.164062 542.480469 648.671875 542.988281 C 649.175781 543.496094 649.707031 543.976562 650.261719 544.429688 C 650.816406 544.886719 651.390625 545.3125 651.988281 545.710938 C 652.585938 546.109375 653.199219 546.476562 653.832031 546.8125 C 654.460938 547.152344 655.109375 547.457031 655.773438 547.730469 C 656.433594 548.007812 657.109375 548.246094 657.792969 548.453125 C 658.480469 548.664062 659.175781 548.835938 659.878906 548.976562 C 660.582031 549.117188 661.289062 549.222656 662.003906 549.292969 C 662.714844 549.363281 663.429688 549.398438 664.148438 549.398438 C 664.863281 549.398438 665.578125 549.363281 666.292969 549.292969 C 667.007812 549.222656 667.714844 549.117188 668.417969 548.980469 C 669.121094 548.839844 669.816406 548.664062 670.5 548.457031 C 671.1875 548.25 671.863281 548.007812 672.523438 547.734375 C 673.1875 547.460938 673.835938 547.15625 674.464844 546.816406 C 675.097656 546.480469 675.714844 546.113281 676.308594 545.714844 C 676.90625 545.316406 677.480469 544.890625 678.035156 544.4375 C 678.589844 543.984375 679.121094 543.503906 679.628906 542.996094 C 682.242188 540.378906 684.792969 537.699219 687.277344 534.957031 C 689.757812 532.21875 692.171875 529.417969 694.519531 526.554688 C 696.867188 523.695312 699.140625 520.78125 701.34375 517.808594 C 703.546875 514.835938 705.671875 511.8125 707.726562 508.738281 C 709.78125 505.660156 711.761719 502.535156 713.660156 499.363281 C 715.5625 496.1875 717.382812 492.972656 719.128906 489.707031 C 720.871094 486.445312 722.53125 483.144531 724.113281 479.796875 C 725.695312 476.453125 727.191406 473.074219 728.609375 469.65625 C 730.023438 466.238281 731.351562 462.789062 732.597656 459.304688 C 733.84375 455.820312 735.003906 452.308594 736.078125 448.769531 C 737.152344 445.230469 738.136719 441.664062 739.035156 438.078125 C 739.933594 434.488281 740.742188 430.882812 741.464844 427.253906 C 742.1875 423.625 742.816406 419.980469 743.359375 416.324219 C 743.902344 412.664062 744.355469 408.992188 744.71875 405.3125 C 745.082031 401.628906 745.351562 397.941406 745.535156 394.246094 C 745.714844 390.554688 745.804688 386.855469 745.804688 383.15625 C 745.804688 379.457031 745.714844 375.761719 745.535156 372.066406 C 745.351562 368.371094 745.082031 364.683594 744.71875 361.003906 C 744.355469 357.320312 743.902344 353.652344 743.359375 349.992188 C 742.816406 346.332031 742.1875 342.691406 741.464844 339.0625 C 740.742188 335.433594 739.933594 331.824219 739.035156 328.238281 C 738.136719 324.648438 737.152344 321.085938 736.078125 317.542969 C 735.003906 314.003906 733.84375 310.492188 732.597656 307.011719 C 731.351562 303.527344 730.023438 300.078125 728.609375 296.660156 C 727.191406 293.242188 725.695312 289.859375 724.113281 286.515625 C 722.53125 283.171875 720.871094 279.867188 719.128906 276.605469 C 717.382812 273.34375 715.5625 270.125 713.660156 266.953125 C 711.761719 263.777344 709.78125 260.652344 707.726562 257.578125 C 705.671875 254.5 703.546875 251.476562 701.34375 248.507812 C 699.140625 245.535156 696.867188 242.617188 694.519531 239.757812 C 692.171875 236.898438 689.757812 234.097656 687.277344 231.355469 C 684.792969 228.613281 682.242188 225.933594 679.628906 223.320312 C 679.121094 222.8125 678.589844 222.332031 678.035156 221.875 C 677.476562 221.421875 676.902344 220.996094 676.304688 220.597656 C 675.707031 220.199219 675.09375 219.832031 674.460938 219.492188 C 673.824219 219.15625 673.179688 218.851562 672.515625 218.578125 C 671.851562 218.300781 671.175781 218.0625 670.488281 217.855469 C 669.800781 217.644531 669.105469 217.472656 668.402344 217.332031 C 667.699219 217.195312 666.988281 217.089844 666.273438 217.019531 C 665.5625 216.949219 664.84375 216.914062 664.128906 216.917969 C 663.410156 216.917969 662.695312 216.953125 661.980469 217.023438 C 661.265625 217.09375 660.554688 217.199219 659.851562 217.339844 C 659.148438 217.480469 658.453125 217.65625 657.765625 217.863281 C 657.082031 218.074219 656.40625 218.316406 655.742188 218.589844 C 655.078125 218.867188 654.433594 219.171875 653.800781 219.511719 C 653.167969 219.851562 652.550781 220.21875 651.957031 220.617188 C 651.359375 221.019531 650.785156 221.445312 650.230469 221.902344 C 649.675781 222.355469 649.144531 222.839844 648.636719 223.34375 Z M 648.636719 223.34375 " fill-opacity="1" fill-rule="evenodd"/>
  <path fill="#3d3d3a" d="M 607.457031 295.515625 C 606.949219 295.007812 606.417969 294.527344 605.863281 294.074219 C 605.308594 293.617188 604.730469 293.191406 604.132812 292.792969 C 603.535156 292.394531 602.921875 292.023438 602.289062 291.6875 C 601.65625 291.347656 601.007812 291.042969 600.34375 290.765625 C 599.679688 290.492188 599.003906 290.25 598.316406 290.042969 C 597.628906 289.835938 596.933594 289.660156 596.230469 289.523438 C 595.523438 289.382812 594.816406 289.277344 594.101562 289.207031 C 593.386719 289.136719 592.671875 289.101562 591.953125 289.101562 C 591.234375 289.101562 590.519531 289.136719 589.804688 289.207031 C 589.089844 289.28125 588.378906 289.386719 587.675781 289.527344 C 586.972656 289.664062 586.277344 289.839844 585.589844 290.050781 C 584.902344 290.257812 584.226562 290.5 583.5625 290.773438 C 582.898438 291.050781 582.25 291.355469 581.617188 291.695312 C 580.984375 292.035156 580.371094 292.402344 579.773438 292.800781 C 579.175781 293.203125 578.601562 293.628906 578.046875 294.085938 C 577.492188 294.539062 576.960938 295.023438 576.453125 295.53125 C 575.945312 296.039062 575.464844 296.570312 575.007812 297.125 C 574.554688 297.679688 574.125 298.257812 573.726562 298.855469 C 573.328125 299.449219 572.960938 300.066406 572.621094 300.699219 C 572.285156 301.332031 571.976562 301.980469 571.703125 302.644531 C 571.429688 303.308594 571.1875 303.984375 570.980469 304.671875 C 570.769531 305.359375 570.597656 306.054688 570.457031 306.757812 C 570.316406 307.460938 570.210938 308.171875 570.140625 308.886719 C 570.074219 309.601562 570.039062 310.316406 570.039062 311.035156 C 570.039062 311.753906 570.074219 312.46875 570.144531 313.183594 C 570.214844 313.898438 570.320312 314.609375 570.460938 315.3125 C 570.601562 316.015625 570.777344 316.710938 570.984375 317.398438 C 571.191406 318.085938 571.433594 318.761719 571.710938 319.425781 C 571.984375 320.085938 572.292969 320.734375 572.632812 321.367188 C 572.96875 322.003906 573.339844 322.617188 573.738281 323.214844 C 574.136719 323.8125 574.5625 324.386719 575.019531 324.941406 C 575.476562 325.496094 575.957031 326.027344 576.464844 326.535156 C 577.394531 327.460938 578.296875 328.414062 579.175781 329.386719 C 580.058594 330.355469 580.914062 331.351562 581.746094 332.363281 C 582.578125 333.378906 583.382812 334.414062 584.164062 335.464844 C 584.945312 336.519531 585.699219 337.59375 586.429688 338.683594 C 587.15625 339.773438 587.859375 340.882812 588.53125 342.007812 C 589.207031 343.132812 589.851562 344.273438 590.472656 345.429688 C 591.089844 346.585938 591.679688 347.757812 592.238281 348.945312 C 592.800781 350.128906 593.332031 351.328125 593.832031 352.539062 C 594.335938 353.753906 594.804688 354.976562 595.246094 356.210938 C 595.6875 357.445312 596.101562 358.691406 596.480469 359.945312 C 596.863281 361.199219 597.210938 362.464844 597.53125 363.738281 C 597.847656 365.007812 598.136719 366.289062 598.390625 367.574219 C 598.648438 368.863281 598.871094 370.152344 599.0625 371.449219 C 599.253906 372.75 599.417969 374.050781 599.542969 375.355469 C 599.671875 376.660156 599.769531 377.96875 599.832031 379.277344 C 599.898438 380.589844 599.929688 381.898438 599.929688 383.210938 C 599.929688 384.523438 599.898438 385.832031 599.832031 387.144531 C 599.769531 388.453125 599.671875 389.761719 599.542969 391.066406 C 599.417969 392.371094 599.253906 393.671875 599.0625 394.96875 C 598.871094 396.269531 598.648438 397.558594 598.390625 398.847656 C 598.136719 400.132812 597.847656 401.410156 597.53125 402.683594 C 597.210938 403.957031 596.863281 405.21875 596.480469 406.476562 C 596.101562 407.730469 595.6875 408.976562 595.246094 410.210938 C 594.804688 411.445312 594.335938 412.667969 593.832031 413.882812 C 593.332031 415.09375 592.800781 416.292969 592.238281 417.476562 C 591.679688 418.664062 591.089844 419.835938 590.472656 420.992188 C 589.851562 422.148438 589.207031 423.289062 588.53125 424.414062 C 587.859375 425.539062 587.15625 426.648438 586.429688 427.738281 C 585.699219 428.828125 584.945312 429.902344 584.164062 430.957031 C 583.382812 432.007812 582.578125 433.042969 581.746094 434.058594 C 580.914062 435.070312 580.058594 436.0625 579.175781 437.035156 C 578.296875 438.007812 577.394531 438.957031 576.464844 439.886719 C 575.960938 440.394531 575.480469 440.925781 575.023438 441.480469 C 574.570312 442.035156 574.144531 442.609375 573.746094 443.207031 C 573.347656 443.804688 572.980469 444.417969 572.644531 445.050781 C 572.308594 445.683594 572 446.332031 571.726562 446.996094 C 571.453125 447.65625 571.214844 448.332031 571.007812 449.019531 C 570.796875 449.707031 570.625 450.402344 570.484375 451.105469 C 570.347656 451.808594 570.242188 452.515625 570.171875 453.230469 C 570.101562 453.941406 570.066406 454.660156 570.070312 455.375 C 570.070312 456.09375 570.105469 456.808594 570.175781 457.523438 C 570.246094 458.234375 570.351562 458.945312 570.492188 459.648438 C 570.632812 460.351562 570.804688 461.042969 571.015625 461.730469 C 571.222656 462.417969 571.464844 463.089844 571.738281 463.753906 C 572.015625 464.417969 572.320312 465.0625 572.660156 465.695312 C 572.996094 466.328125 573.367188 466.941406 573.765625 467.539062 C 574.164062 468.132812 574.589844 468.710938 575.042969 469.265625 C 575.5 469.820312 575.980469 470.347656 576.488281 470.855469 C 576.996094 471.363281 577.523438 471.84375 578.078125 472.300781 C 578.632812 472.753906 579.207031 473.179688 579.804688 473.578125 C 580.402344 473.976562 581.015625 474.347656 581.648438 474.683594 C 582.28125 475.023438 582.925781 475.328125 583.589844 475.605469 C 584.253906 475.878906 584.925781 476.121094 585.613281 476.328125 C 586.296875 476.535156 586.992188 476.710938 587.695312 476.851562 C 588.398438 476.992188 589.109375 477.097656 589.820312 477.167969 C 590.535156 477.238281 591.25 477.273438 591.96875 477.273438 C 592.683594 477.273438 593.398438 477.242188 594.113281 477.171875 C 594.828125 477.101562 595.535156 476.996094 596.238281 476.855469 C 596.941406 476.71875 597.636719 476.542969 598.324219 476.335938 C 599.011719 476.128906 599.683594 475.890625 600.347656 475.617188 C 601.011719 475.339844 601.660156 475.035156 602.292969 474.699219 C 602.925781 474.363281 603.539062 473.992188 604.136719 473.597656 C 604.734375 473.199219 605.308594 472.773438 605.863281 472.320312 C 606.417969 471.863281 606.949219 471.382812 607.457031 470.878906 C 608.890625 469.441406 610.289062 467.972656 611.652344 466.46875 C 613.015625 464.964844 614.339844 463.429688 615.625 461.859375 C 616.910156 460.289062 618.160156 458.691406 619.367188 457.058594 C 620.574219 455.429688 621.742188 453.769531 622.871094 452.085938 C 623.996094 450.398438 625.082031 448.683594 626.125 446.941406 C 627.167969 445.199219 628.167969 443.4375 629.121094 441.644531 C 630.078125 439.855469 630.992188 438.042969 631.859375 436.210938 C 632.726562 434.375 633.546875 432.519531 634.324219 430.644531 C 635.097656 428.769531 635.828125 426.878906 636.511719 424.96875 C 637.195312 423.058594 637.832031 421.132812 638.417969 419.1875 C 639.007812 417.246094 639.550781 415.292969 640.042969 413.324219 C 640.535156 411.355469 640.980469 409.375 641.375 407.386719 C 641.769531 405.394531 642.117188 403.398438 642.414062 401.390625 C 642.710938 399.382812 642.960938 397.371094 643.160156 395.351562 C 643.359375 393.332031 643.507812 391.308594 643.605469 389.28125 C 643.707031 387.253906 643.757812 385.226562 643.757812 383.199219 C 643.757812 381.167969 643.707031 379.140625 643.605469 377.113281 C 643.507812 375.085938 643.359375 373.0625 643.160156 371.042969 C 642.960938 369.023438 642.710938 367.011719 642.414062 365.003906 C 642.117188 362.996094 641.769531 361 641.375 359.007812 C 640.980469 357.019531 640.535156 355.039062 640.042969 353.070312 C 639.550781 351.101562 639.007812 349.148438 638.417969 347.207031 C 637.832031 345.265625 637.195312 343.335938 636.511719 341.425781 C 635.828125 339.515625 635.097656 337.625 634.324219 335.75 C 633.546875 333.875 632.726562 332.019531 631.859375 330.183594 C 630.992188 328.351562 630.078125 326.539062 629.121094 324.75 C 628.167969 322.957031 627.167969 321.195312 626.125 319.453125 C 625.082031 317.710938 623.996094 315.996094 622.871094 314.308594 C 621.742188 312.621094 620.574219 310.964844 619.367188 309.335938 C 618.160156 307.703125 616.910156 306.105469 615.625 304.535156 C 614.339844 302.964844 613.015625 301.429688 611.652344 299.925781 C 610.289062 298.421875 608.890625 296.953125 607.457031 295.515625 Z M 607.457031 295.515625 " fill-opacity="1" fill-rule="evenodd"/>
  <path fill="#3d3d3a" d="M 451.570312 70.492188 C 449.308594 69.359375 447.011719 68.3125 444.675781 67.339844 C 442.34375 66.371094 439.980469 65.480469 437.585938 64.675781 C 435.1875 63.867188 432.769531 63.144531 430.324219 62.503906 C 427.878906 61.867188 425.414062 61.3125 422.929688 60.84375 C 420.449219 60.375 417.949219 59.992188 415.441406 59.695312 C 412.929688 59.398438 410.414062 59.1875 407.890625 59.066406 C 405.363281 58.945312 402.839844 58.910156 400.3125 58.964844 C 397.785156 59.015625 395.261719 59.15625 392.746094 59.382812 C 390.230469 59.609375 387.722656 59.921875 385.226562 60.324219 C 382.730469 60.722656 380.253906 61.210938 377.792969 61.78125 C 375.328125 62.355469 372.890625 63.011719 370.472656 63.75 C 368.058594 64.492188 365.671875 65.316406 363.308594 66.222656 C 360.949219 67.128906 358.625 68.113281 356.335938 69.179688 C 354.042969 70.246094 351.792969 71.390625 349.578125 72.613281 C 347.367188 73.835938 345.199219 75.132812 343.078125 76.507812 C 340.957031 77.878906 338.882812 79.324219 336.859375 80.839844 L 188.847656 191.796875 C 186.023438 193.914062 183.046875 195.796875 179.917969 197.433594 C 176.792969 199.074219 173.554688 200.453125 170.203125 201.570312 C 166.851562 202.6875 163.433594 203.527344 159.949219 204.089844 C 156.464844 204.65625 152.953125 204.9375 149.421875 204.9375 L 110.476562 204.9375 C 108.683594 204.9375 106.894531 204.984375 105.101562 205.070312 C 103.3125 205.160156 101.527344 205.292969 99.742188 205.46875 C 97.957031 205.644531 96.179688 205.867188 94.40625 206.128906 C 92.632812 206.394531 90.867188 206.699219 89.109375 207.050781 C 87.351562 207.402344 85.605469 207.792969 83.863281 208.230469 C 82.125 208.667969 80.398438 209.144531 78.683594 209.667969 C 76.96875 210.1875 75.265625 210.75 73.578125 211.355469 C 71.890625 211.957031 70.21875 212.605469 68.5625 213.289062 C 66.910156 213.976562 65.269531 214.703125 63.648438 215.46875 C 62.03125 216.238281 60.429688 217.042969 58.847656 217.886719 C 57.265625 218.734375 55.707031 219.617188 54.171875 220.539062 C 52.632812 221.460938 51.121094 222.417969 49.628906 223.414062 C 48.140625 224.410156 46.675781 225.445312 45.234375 226.511719 C 43.792969 227.578125 42.382812 228.683594 40.996094 229.820312 C 39.609375 230.957031 38.253906 232.128906 36.925781 233.332031 C 35.597656 234.535156 34.300781 235.769531 33.03125 237.039062 C 31.765625 238.304688 30.527344 239.605469 29.324219 240.933594 C 28.121094 242.261719 26.949219 243.617188 25.8125 245.003906 C 24.675781 246.386719 23.574219 247.800781 22.503906 249.242188 C 21.4375 250.679688 20.40625 252.144531 19.410156 253.636719 C 18.414062 255.125 17.453125 256.640625 16.53125 258.175781 C 15.609375 259.714844 14.726562 261.273438 13.882812 262.855469 C 13.035156 264.433594 12.230469 266.035156 11.464844 267.65625 C 10.695312 269.277344 9.96875 270.914062 9.285156 272.570312 C 8.597656 274.226562 7.953125 275.898438 7.347656 277.585938 C 6.742188 279.273438 6.179688 280.976562 5.660156 282.691406 C 5.140625 284.40625 4.660156 286.132812 4.222656 287.871094 C 3.789062 289.609375 3.394531 291.359375 3.042969 293.117188 C 2.695312 294.875 2.386719 296.640625 2.125 298.414062 C 1.859375 300.1875 1.640625 301.964844 1.464844 303.75 C 1.285156 305.53125 1.152344 307.320312 1.066406 309.109375 C 0.976562 310.898438 0.929688 312.691406 0.929688 314.484375 L 0.929688 450.847656 C 0.929688 452.640625 0.976562 454.429688 1.066406 456.222656 C 1.152344 458.011719 1.285156 459.796875 1.464844 461.582031 C 1.640625 463.367188 1.859375 465.144531 2.125 466.917969 C 2.386719 468.691406 2.695312 470.457031 3.042969 472.214844 C 3.394531 473.972656 3.789062 475.71875 4.222656 477.460938 C 4.660156 479.199219 5.140625 480.925781 5.660156 482.640625 C 6.179688 484.355469 6.742188 486.058594 7.347656 487.746094 C 7.953125 489.433594 8.597656 491.105469 9.285156 492.761719 C 9.96875 494.414062 10.695312 496.054688 11.464844 497.675781 C 12.230469 499.292969 13.035156 500.894531 13.882812 502.476562 C 14.726562 504.058594 15.609375 505.617188 16.53125 507.152344 C 17.453125 508.691406 18.414062 510.203125 19.410156 511.695312 C 20.40625 513.183594 21.4375 514.648438 22.503906 516.089844 C 23.574219 517.53125 24.675781 518.941406 25.8125 520.328125 C 26.949219 521.714844 28.121094 523.070312 29.324219 524.398438 C 30.527344 525.726562 31.765625 527.023438 33.03125 528.292969 C 34.300781 529.558594 35.597656 530.796875 36.925781 532 C 38.253906 533.203125 39.609375 534.375 40.996094 535.511719 C 42.382812 536.648438 43.792969 537.75 45.234375 538.820312 C 46.675781 539.886719 48.140625 540.917969 49.628906 541.914062 C 51.121094 542.910156 52.632812 543.871094 54.171875 544.792969 C 55.707031 545.714844 57.265625 546.597656 58.847656 547.441406 C 60.429688 548.289062 62.03125 549.09375 63.648438 549.859375 C 65.269531 550.628906 66.910156 551.355469 68.5625 552.039062 C 70.21875 552.726562 71.890625 553.371094 73.578125 553.976562 C 75.265625 554.582031 76.96875 555.144531 78.683594 555.664062 C 80.398438 556.183594 82.125 556.664062 83.863281 557.101562 C 85.605469 557.535156 87.351562 557.929688 89.109375 558.28125 C 90.867188 558.628906 92.632812 558.9375 94.40625 559.199219 C 96.179688 559.464844 97.957031 559.683594 99.742188 559.859375 C 101.527344 560.039062 103.3125 560.171875 105.101562 560.257812 C 106.894531 560.347656 108.683594 560.390625 110.476562 560.394531 L 149.421875 560.394531 C 152.953125 560.390625 156.464844 560.675781 159.949219 561.238281 C 163.433594 561.804688 166.851562 562.644531 170.203125 563.761719 C 173.550781 564.878906 176.792969 566.257812 179.917969 567.898438 C 183.046875 569.535156 186.023438 571.414062 188.847656 573.535156 L 336.835938 684.519531 C 338.855469 686.035156 340.929688 687.476562 343.050781 688.851562 C 345.171875 690.222656 347.339844 691.519531 349.550781 692.742188 C 351.765625 693.964844 354.015625 695.109375 356.304688 696.175781 C 358.597656 697.242188 360.921875 698.230469 363.28125 699.136719 C 365.640625 700.042969 368.03125 700.863281 370.445312 701.605469 C 372.863281 702.34375 375.300781 703 377.761719 703.574219 C 380.222656 704.144531 382.703125 704.628906 385.199219 705.03125 C 387.695312 705.429688 390.199219 705.742188 392.71875 705.96875 C 395.234375 706.195312 397.753906 706.335938 400.28125 706.390625 C 402.808594 706.441406 405.335938 706.40625 407.859375 706.28125 C 410.382812 706.160156 412.898438 705.949219 415.410156 705.652344 C 417.917969 705.355469 420.417969 704.972656 422.898438 704.503906 C 425.382812 704.035156 427.847656 703.480469 430.292969 702.839844 C 432.734375 702.199219 435.15625 701.476562 437.550781 700.667969 C 439.945312 699.859375 442.308594 698.96875 444.640625 698 C 446.976562 697.027344 449.273438 695.976562 451.53125 694.847656 C 453.792969 693.714844 456.011719 692.507812 458.1875 691.226562 C 460.367188 689.941406 462.496094 688.585938 464.578125 687.152344 C 466.660156 685.722656 468.691406 684.222656 470.671875 682.648438 C 472.648438 681.078125 474.574219 679.4375 476.4375 677.734375 C 478.304688 676.03125 480.109375 674.261719 481.851562 672.433594 C 483.59375 670.601562 485.273438 668.714844 486.886719 666.769531 C 488.5 664.824219 490.042969 662.824219 491.515625 660.773438 C 492.992188 658.71875 494.390625 656.617188 495.722656 654.46875 C 497.050781 652.320312 498.304688 650.125 499.480469 647.890625 C 500.65625 645.652344 501.753906 643.378906 502.773438 641.066406 C 503.796875 638.753906 504.734375 636.410156 505.589844 634.03125 C 506.449219 631.65625 507.222656 629.25 507.914062 626.820312 C 508.605469 624.386719 509.210938 621.9375 509.730469 619.464844 C 510.253906 616.992188 510.6875 614.503906 511.039062 612 C 511.386719 609.496094 511.648438 606.984375 511.824219 604.464844 C 512 601.941406 512.089844 599.417969 512.089844 596.890625 L 512.089844 168.4375 C 512.089844 165.914062 512 163.390625 511.824219 160.867188 C 511.648438 158.347656 511.386719 155.835938 511.039062 153.335938 C 510.6875 150.832031 510.253906 148.34375 509.734375 145.871094 C 509.210938 143.398438 508.605469 140.949219 507.914062 138.519531 C 507.226562 136.089844 506.453125 133.683594 505.59375 131.308594 C 504.738281 128.929688 503.800781 126.585938 502.78125 124.273438 C 501.761719 121.964844 500.664062 119.6875 499.488281 117.453125 C 498.3125 115.21875 497.058594 113.023438 495.730469 110.875 C 494.402344 108.726562 493.003906 106.625 491.527344 104.574219 C 490.054688 102.519531 488.511719 100.519531 486.902344 98.574219 C 485.289062 96.628906 483.613281 94.742188 481.871094 92.910156 C 480.128906 91.082031 478.324219 89.316406 476.460938 87.609375 C 474.597656 85.90625 472.675781 84.265625 470.695312 82.695312 C 468.71875 81.121094 466.6875 79.621094 464.609375 78.1875 C 462.527344 76.757812 460.398438 75.398438 458.222656 74.113281 C 456.046875 72.828125 453.828125 71.621094 451.570312 70.492188 Z M 468.300781 596.890625 C 468.304688 599.929688 468.097656 602.953125 467.679688 605.960938 C 467.261719 608.96875 466.640625 611.9375 465.8125 614.859375 C 464.984375 617.78125 463.957031 620.632812 462.730469 623.414062 C 461.507812 626.191406 460.097656 628.875 458.503906 631.460938 C 456.90625 634.042969 455.140625 636.507812 453.203125 638.847656 C 451.265625 641.183594 449.175781 643.378906 446.933594 645.429688 C 444.691406 647.480469 442.320312 649.363281 439.816406 651.085938 C 437.3125 652.804688 434.703125 654.347656 431.984375 655.707031 C 429.269531 657.0625 426.472656 658.230469 423.59375 659.199219 C 420.714844 660.171875 417.78125 660.9375 414.796875 661.5 C 411.8125 662.066406 408.804688 662.421875 405.769531 662.566406 C 402.734375 662.714844 399.707031 662.652344 396.679688 662.378906 C 393.65625 662.105469 390.664062 661.625 387.703125 660.9375 C 384.746094 660.246094 381.847656 659.359375 379.015625 658.269531 C 376.179688 657.175781 373.433594 655.898438 370.773438 654.425781 C 368.117188 652.953125 365.574219 651.308594 363.144531 649.484375 L 215.15625 538.5 C 210.449219 534.964844 205.488281 531.828125 200.273438 529.09375 C 195.058594 526.359375 189.65625 524.0625 184.070312 522.199219 C 178.484375 520.335938 172.785156 518.933594 166.972656 517.992188 C 161.160156 517.046875 155.3125 516.578125 149.421875 516.578125 L 110.476562 516.578125 C 109.402344 516.578125 108.328125 516.550781 107.253906 516.5 C 106.179688 516.445312 105.105469 516.367188 104.035156 516.261719 C 102.964844 516.15625 101.898438 516.023438 100.835938 515.863281 C 99.769531 515.707031 98.710938 515.523438 97.65625 515.3125 C 96.601562 515.101562 95.550781 514.867188 94.507812 514.605469 C 93.464844 514.34375 92.429688 514.054688 91.398438 513.742188 C 90.371094 513.429688 89.347656 513.09375 88.335938 512.730469 C 87.324219 512.367188 86.320312 511.980469 85.328125 511.570312 C 84.332031 511.15625 83.351562 510.722656 82.378906 510.261719 C 81.40625 509.800781 80.445312 509.316406 79.496094 508.808594 C 78.546875 508.304688 77.613281 507.773438 76.691406 507.21875 C 75.765625 506.667969 74.859375 506.089844 73.964844 505.492188 C 73.070312 504.894531 72.191406 504.277344 71.328125 503.636719 C 70.464844 502.996094 69.617188 502.332031 68.785156 501.652344 C 67.953125 500.96875 67.136719 500.265625 66.339844 499.542969 C 65.542969 498.820312 64.765625 498.078125 64.003906 497.320312 C 63.246094 496.558594 62.503906 495.78125 61.78125 494.984375 C 61.058594 494.1875 60.355469 493.371094 59.671875 492.539062 C 58.992188 491.707031 58.328125 490.859375 57.6875 489.996094 C 57.046875 489.132812 56.429688 488.253906 55.832031 487.359375 C 55.234375 486.464844 54.65625 485.558594 54.105469 484.632812 C 53.550781 483.710938 53.019531 482.777344 52.515625 481.828125 C 52.007812 480.878906 51.523438 479.917969 51.0625 478.945312 C 50.601562 477.972656 50.167969 476.992188 49.753906 475.996094 C 49.34375 475.003906 48.957031 474 48.59375 472.988281 C 48.230469 471.976562 47.894531 470.953125 47.582031 469.925781 C 47.269531 468.894531 46.980469 467.859375 46.71875 466.816406 C 46.457031 465.773438 46.222656 464.722656 46.011719 463.667969 C 45.800781 462.613281 45.617188 461.554688 45.460938 460.488281 C 45.300781 459.425781 45.167969 458.359375 45.0625 457.289062 C 44.957031 456.21875 44.878906 455.144531 44.824219 454.070312 C 44.773438 452.996094 44.746094 451.921875 44.746094 450.847656 L 44.746094 314.484375 C 44.746094 313.410156 44.773438 312.332031 44.824219 311.257812 C 44.878906 310.183594 44.957031 309.113281 45.0625 308.042969 C 45.167969 306.972656 45.300781 305.90625 45.460938 304.839844 C 45.617188 303.777344 45.800781 302.71875 46.011719 301.660156 C 46.222656 300.605469 46.457031 299.558594 46.71875 298.515625 C 46.980469 297.472656 47.269531 296.433594 47.582031 295.40625 C 47.894531 294.375 48.230469 293.355469 48.59375 292.34375 C 48.957031 291.328125 49.34375 290.328125 49.753906 289.332031 C 50.167969 288.339844 50.601562 287.355469 51.0625 286.382812 C 51.523438 285.410156 52.007812 284.453125 52.515625 283.503906 C 53.019531 282.554688 53.550781 281.617188 54.105469 280.695312 C 54.65625 279.773438 55.234375 278.863281 55.832031 277.972656 C 56.429688 277.078125 57.046875 276.199219 57.6875 275.332031 C 58.328125 274.46875 58.992188 273.621094 59.671875 272.789062 C 60.355469 271.957031 61.058594 271.144531 61.78125 270.347656 C 62.503906 269.550781 63.246094 268.773438 64.003906 268.011719 C 64.765625 267.25 65.542969 266.507812 66.339844 265.785156 C 67.136719 265.0625 67.953125 264.363281 68.785156 263.679688 C 69.617188 262.996094 70.464844 262.335938 71.328125 261.695312 C 72.191406 261.054688 73.070312 260.433594 73.964844 259.835938 C 74.859375 259.238281 75.765625 258.664062 76.691406 258.109375 C 77.613281 257.558594 78.546875 257.027344 79.496094 256.519531 C 80.445312 256.011719 81.40625 255.53125 82.378906 255.070312 C 83.351562 254.609375 84.332031 254.171875 85.328125 253.761719 C 86.320312 253.347656 87.324219 252.960938 88.335938 252.601562 C 89.347656 252.238281 90.371094 251.898438 91.398438 251.585938 C 92.429688 251.273438 93.464844 250.988281 94.507812 250.726562 C 95.550781 250.464844 96.601562 250.226562 97.65625 250.019531 C 98.710938 249.808594 99.769531 249.625 100.835938 249.464844 C 101.898438 249.308594 102.964844 249.175781 104.035156 249.070312 C 105.105469 248.964844 106.179688 248.882812 107.253906 248.832031 C 108.328125 248.777344 109.402344 248.75 110.476562 248.75 L 149.421875 248.75 C 155.3125 248.753906 161.160156 248.28125 166.972656 247.339844 C 172.785156 246.398438 178.484375 244.996094 184.070312 243.132812 C 189.65625 241.269531 195.058594 238.96875 200.273438 236.234375 C 205.488281 233.5 210.449219 230.367188 215.15625 226.832031 L 363.144531 115.847656 C 365.574219 114.023438 368.117188 112.375 370.773438 110.90625 C 373.429688 109.433594 376.175781 108.152344 379.011719 107.0625 C 381.84375 105.972656 384.742188 105.085938 387.699219 104.394531 C 390.65625 103.707031 393.648438 103.226562 396.675781 102.953125 C 399.699219 102.679688 402.726562 102.617188 405.761719 102.761719 C 408.796875 102.90625 411.804688 103.261719 414.789062 103.828125 C 417.773438 104.390625 420.703125 105.15625 423.582031 106.128906 C 426.460938 107.097656 429.257812 108.261719 431.972656 109.621094 C 434.691406 110.976562 437.300781 112.515625 439.804688 114.234375 C 442.308594 115.957031 444.679688 117.839844 446.921875 119.890625 C 449.164062 121.9375 451.253906 124.132812 453.191406 126.46875 C 455.128906 128.808594 456.894531 131.269531 458.492188 133.855469 C 460.089844 136.4375 461.5 139.117188 462.722656 141.898438 C 463.949219 144.675781 464.976562 147.527344 465.804688 150.449219 C 466.632812 153.371094 467.257812 156.335938 467.675781 159.34375 C 468.09375 162.351562 468.304688 165.375 468.300781 168.414062 Z M 468.300781 596.890625 " fill-opacity="1" fill-rule="evenodd"/>
</svg>
