<?xml version="1.0" encoding="UTF-8"?>
<svg xmlns="http://www.w3.org/2000/svg" xmlns:xlink="http://www.w3.org/1999/xlink" version="1.1" viewBox="0 0 375 375">
  <defs>
    <style>
      .cls-1 {
        fill: none;
      }

      .cls-2 {
        fill: #776d6d;
      }

      .cls-3 {
        fill: #fff;
      }

      .cls-4 {
        clip-path: url(#clippath);
      }
    </style>
    <clipPath id="clippath">
      <rect class="cls-1" x="169" y="102.7" width="13" height="169.5"/>
    </clipPath>
  </defs>
  <!-- Generator: Adobe Illustrator 28.6.0, SVG Export Plug-In . SVG Version: 1.2.0 Build 709)  -->
  <g>
    <g id="Layer_1">
      <rect class="cls-3" x="-37.5" y="-37.5" width="450" height="450"/>
      <rect class="cls-3" x="-37.5" y="-37.5" width="450" height="450"/>
      <g>
        <path class="cls-2" d="M6.4,174.9c-3.4,0-6.2,2.8-6.2,6.2v12.6c0,3.4,2.8,6.2,6.2,6.2s6.2-2.8,6.2-6.2v-12.6c0-3.4-2.8-6.2-6.2-6.2Z"/>
        <path class="cls-2" d="M30.6,133.1c-3.4,0-6.2,2.8-6.2,6.2v96.3c0,3.4,2.8,6.2,6.2,6.2s6.2-2.8,6.2-6.2v-96.3c0-3.4-2.8-6.2-6.2-6.2Z"/>
        <path class="cls-2" d="M54.7,154.5c-3.4,0-6.2,2.8-6.2,6.2v53.5c0,3.4,2.8,6.2,6.2,6.2s6.2-2.8,6.2-6.2v-53.5c0-3.4-2.8-6.2-6.2-6.2Z"/>
        <path class="cls-2" d="M78.9,113.9c-3.4,0-6.2,2.8-6.2,6.2v134.7c0,3.4,2.8,6.2,6.2,6.2s6.2-2.8,6.2-6.2V120.1c0-3.4-2.8-6.2-6.2-6.2Z"/>
        <path class="cls-2" d="M103,170.8c-3.4,0-6.2,2.8-6.2,6.2v20.8c0,3.4,2.8,6.2,6.2,6.2s6.2-2.8,6.2-6.2v-20.8c0-3.4-2.8-6.2-6.2-6.2Z"/>
        <path class="cls-2" d="M127.2,134.2c-3.4,0-6.2,2.8-6.2,6.2v94c0,3.4,2.8,6.2,6.2,6.2s6.2-2.8,6.2-6.2v-94c0-3.4-2.8-6.2-6.2-6.2Z"/>
        <path class="cls-2" d="M151.8,113.9h0c-3.4,0-6.2,2.8-6.2,6.2l-.9,134.7c0,3.4,2.8,6.3,6.2,6.3h0c3.4,0,6.2-2.8,6.2-6.2l.9-134.7c0-3.4-2.8-6.3-6.2-6.3Z"/>
        <g class="cls-4">
          <path class="cls-2" d="M175.4,102.7c-3.4,0-6.2,2.8-6.2,6.2v157.2c0,3.4,2.8,6.2,6.2,6.2s6.2-2.8,6.2-6.2V108.9c0-3.4-2.8-6.2-6.2-6.2Z"/>
        </g>
        <path class="cls-2" d="M199.6,140.5c-3.4,0-6.2,2.8-6.2,6.2v81.4c0,3.4,2.8,6.2,6.2,6.2s6.2-2.8,6.2-6.2v-81.4c0-3.4-2.8-6.2-6.2-6.2Z"/>
        <path class="cls-2" d="M223.7,160.7c-3.4,0-6.2,2.8-6.2,6.2v41.1c0,3.4,2.8,6.2,6.2,6.2s6.2-2.8,6.2-6.2v-41.1c0-3.4-2.8-6.2-6.2-6.2Z"/>
        <path class="cls-2" d="M247.8,120.9c-3.4,0-6.2,2.8-6.2,6.2v120.7c0,3.4,2.8,6.2,6.2,6.2s6.2-2.8,6.2-6.2v-120.7c0-3.4-2.8-6.2-6.2-6.2Z"/>
        <path class="cls-2" d="M272,143.9c-3.4,0-6.2,2.8-6.2,6.2v74.7c0,3.4,2.8,6.2,6.2,6.2s6.2-2.8,6.2-6.2v-74.7c0-3.4-2.8-6.2-6.2-6.2Z"/>
        <path class="cls-2" d="M296.1,165.1c-3.4,0-6.2,2.8-6.2,6.2v32.3c0,3.4,2.8,6.2,6.2,6.2s6.2-2.8,6.2-6.2v-32.3c0-3.4-2.8-6.2-6.2-6.2Z"/>
        <path class="cls-2" d="M320.3,113.9c-3.4,0-6.2,2.8-6.2,6.2v134.7c0,3.4,2.8,6.2,6.2,6.2s6.2-2.8,6.2-6.2V120.1c0-3.4-2.8-6.2-6.2-6.2Z"/>
        <path class="cls-2" d="M344.4,152.2c-3.4,0-6.2,2.8-6.2,6.2v58.1c0,3.4,2.8,6.2,6.2,6.2s6.2-2.8,6.2-6.2v-58.1c0-3.4-2.8-6.2-6.2-6.2Z"/>
        <path class="cls-2" d="M368.6,176.7c-3.4,0-6.2,2.8-6.2,6.2v9.1c0,3.4,2.8,6.2,6.2,6.2s6.2-2.8,6.2-6.2v-9.1c0-3.4-2.8-6.2-6.2-6.2Z"/>
      </g>
    </g>
  </g>
</svg>