<?xml version="1.0" encoding="UTF-8"?>
<svg id="Layer_2" xmlns="http://www.w3.org/2000/svg" xmlns:xlink="http://www.w3.org/1999/xlink" viewBox="0 0 374.59 169.5">
  <defs>
    <style>
      .cls-1 {
        fill: none;
      }

      .cls-2 {
        fill: #776d6d;
      }

      .cls-3 {
        clip-path: url(#clippath);
      }
    </style>
    <clipPath id="clippath">
      <rect class="cls-1" x="168.79" width="13" height="169.5"/>
    </clipPath>
  </defs>
  <g id="Layer_1-2" data-name="Layer_1">
    <g>
      <path class="cls-2" d="M6.24,72.27c-3.45,0-6.24,2.8-6.24,6.25v12.63c0,3.45,2.8,6.24,6.24,6.24s6.24-2.8,6.24-6.24v-12.63c0-3.45-2.8-6.25-6.24-6.25Z"/>
      <path class="cls-2" d="M30.38,30.43c-3.45,0-6.24,2.79-6.24,6.24v96.32c0,3.45,2.8,6.24,6.24,6.24s6.24-2.79,6.24-6.24V36.67c0-3.45-2.8-6.24-6.24-6.24Z"/>
      <path class="cls-2" d="M54.52,51.82c-3.45,0-6.24,2.79-6.24,6.24v53.54c0,3.45,2.8,6.24,6.24,6.24s6.25-2.79,6.25-6.24v-53.54c0-3.45-2.8-6.24-6.25-6.24Z"/>
      <path class="cls-2" d="M78.66,11.22c-3.45,0-6.24,2.8-6.24,6.25v134.73c0,3.45,2.8,6.24,6.24,6.24s6.24-2.79,6.24-6.24V17.46c0-3.45-2.79-6.25-6.24-6.25Z"/>
      <path class="cls-2" d="M102.8,68.18c-3.45,0-6.24,2.79-6.24,6.24v20.81c0,3.45,2.8,6.25,6.24,6.25s6.24-2.8,6.24-6.25v-20.81c0-3.45-2.8-6.24-6.24-6.24Z"/>
      <path class="cls-2" d="M126.95,31.57c-3.45,0-6.25,2.8-6.25,6.25v94.03c0,3.45,2.8,6.24,6.25,6.24s6.24-2.79,6.24-6.24V37.82c0-3.45-2.8-6.25-6.24-6.25Z"/>
      <path class="cls-2" d="M151.57,11.22h-.04c-3.43,0-6.22,2.77-6.24,6.2l-.9,134.73c-.02,3.45,2.75,6.26,6.2,6.29h.04c3.43,0,6.22-2.77,6.25-6.2l.9-134.73c.02-3.45-2.75-6.26-6.2-6.29Z"/>
      <g class="cls-3">
        <path class="cls-2" d="M175.22,0c-3.45,0-6.25,2.79-6.25,6.24v157.18c0,3.45,2.8,6.24,6.25,6.24s6.24-2.79,6.24-6.24V6.24c0-3.45-2.8-6.24-6.24-6.24Z"/>
      </g>
      <path class="cls-2" d="M199.36,37.89c-3.45,0-6.24,2.79-6.24,6.24v81.4c0,3.45,2.8,6.25,6.24,6.25s6.25-2.8,6.25-6.25V44.13c0-3.45-2.8-6.24-6.25-6.24Z"/>
      <path class="cls-2" d="M223.5,58.06c-3.45,0-6.24,2.79-6.24,6.24v41.05c0,3.45,2.8,6.25,6.24,6.25s6.24-2.8,6.24-6.25v-41.05c0-3.45-2.8-6.24-6.24-6.24Z"/>
      <path class="cls-2" d="M247.64,18.25c-3.45,0-6.24,2.79-6.24,6.24v120.68c0,3.45,2.8,6.25,6.24,6.25s6.25-2.8,6.25-6.25V24.49c0-3.45-2.8-6.24-6.25-6.24Z"/>
      <path class="cls-2" d="M271.78,41.25c-3.45,0-6.24,2.79-6.24,6.24v74.68c0,3.45,2.8,6.24,6.24,6.24s6.24-2.79,6.24-6.24V47.49c0-3.45-2.8-6.24-6.24-6.24Z"/>
      <path class="cls-2" d="M295.92,62.45c-3.45,0-6.24,2.8-6.24,6.25v32.28c0,3.45,2.8,6.24,6.24,6.24s6.24-2.8,6.24-6.24v-32.28c0-3.45-2.8-6.25-6.24-6.25Z"/>
      <path class="cls-2" d="M320.07,11.22c-3.45,0-6.25,2.8-6.25,6.25v134.73c0,3.45,2.8,6.24,6.25,6.24s6.24-2.79,6.24-6.24V17.46c0-3.45-2.8-6.25-6.24-6.25Z"/>
      <path class="cls-2" d="M344.2,49.55c-3.45,0-6.24,2.79-6.24,6.24v58.08c0,3.45,2.8,6.24,6.24,6.24s6.24-2.79,6.24-6.24v-58.08c0-3.45-2.79-6.24-6.24-6.24Z"/>
      <path class="cls-2" d="M368.34,74.03c-3.45,0-6.24,2.79-6.24,6.24v9.12c0,3.45,2.8,6.24,6.24,6.24s6.24-2.79,6.24-6.24v-9.12c0-3.45-2.8-6.24-6.24-6.24Z"/>
    </g>
  </g>
</svg>