<?xml version='1.0' encoding='UTF-8'?>
<svg xmlns="http://www.w3.org/2000/svg" xmlns:xlink="http://www.w3.org/1999/xlink" zoomAndPan="magnify" viewBox="0 0 375 374.999991" preserveAspectRatio="xMidYMid meet" version="1.0">
  <defs>
    <filter x="0%" y="0%" width="100%" height="100%" id="ef87fb90fb">
      <feColorMatrix values="0 0 0 0 1 0 0 0 0 1 0 0 0 0 1 0 0 0 1 0" color-interpolation-filters="sRGB"/>
    </filter>
    <mask id="89e8c64ffd">
      <g filter="url(#ef87fb90fb)">
        <rect x="-37.5" width="450" fill="#000000" y="-37.499999" height="449.999989" fill-opacity="0.8"/>
      </g>
    </mask>
    <clipPath id="9644305b97">
      <path d="M 1.277344 147 L 242 147 L 242 273.699219 L 1.277344 273.699219 Z M 1.277344 147 " clip-rule="nonzero"/>
    </clipPath>
    <clipPath id="f7ade95ab4">
      <path d="M 29 1.449219 L 273 1.449219 L 273 128 L 29 128 Z M 29 1.449219 " clip-rule="nonzero"/>
    </clipPath>
    <clipPath id="4ae89586f6">
      <rect x="0" width="274" y="0" height="275"/>
    </clipPath>
  </defs>
  <path fill="#776d6d" d="M 275.039062 118.148438 C 268.996094 118.148438 264.097656 123.046875 264.097656 129.089844 L 264.097656 194.726562 C 264.097656 236.953125 229.742188 271.304688 187.519531 271.304688 C 145.292969 271.304688 110.941406 236.953125 110.941406 194.726562 L 110.941406 129.089844 C 110.941406 123.046875 106.042969 118.148438 100 118.148438 C 93.957031 118.148438 89.0625 123.046875 89.0625 129.089844 L 89.0625 194.726562 C 89.0625 245.320312 127.421875 287.101562 176.578125 292.5625 L 176.578125 353.121094 L 139.683594 353.121094 C 133.640625 353.121094 128.742188 358.015625 128.742188 364.058594 C 128.742188 370.101562 133.640625 375 139.683594 375 L 235.359375 375 C 241.402344 375 246.296875 370.101562 246.296875 364.058594 C 246.296875 358.015625 241.402344 353.121094 235.359375 353.121094 L 198.460938 353.121094 L 198.460938 292.5625 C 247.617188 287.101562 285.976562 245.320312 285.976562 194.726562 L 285.976562 129.089844 C 285.976562 123.046875 281.078125 118.148438 275.039062 118.148438 Z M 275.039062 118.148438 " fill-opacity="1" fill-rule="nonzero"/>
  <path fill="#776d6d" d="M 187.519531 258.175781 C 222.507812 258.175781 250.96875 229.710938 250.96875 194.726562 L 250.96875 63.449219 C 250.96875 28.464844 222.503906 0 187.519531 0 C 152.535156 0 124.070312 28.464844 124.070312 63.449219 L 124.070312 194.726562 C 124.070312 229.710938 152.535156 258.175781 187.519531 258.175781 Z M 145.949219 63.449219 C 145.949219 40.527344 164.597656 21.878906 187.519531 21.878906 C 210.441406 21.878906 229.089844 40.527344 229.089844 63.449219 L 229.089844 194.726562 C 229.089844 217.648438 210.441406 236.296875 187.519531 236.296875 C 164.597656 236.296875 145.949219 217.648438 145.949219 194.726562 Z M 145.949219 63.449219 " fill-opacity="1" fill-rule="nonzero"/>
  <g mask="url(#89e8c64ffd)">
    <g transform="matrix(1, 0, 0, 1, 53, 47)">
      <g clip-path="url(#4ae89586f6)">
        <g clip-path="url(#9644305b97)">
          <path fill="#418a2f" d="M 2.28125 211.765625 L 86.304688 273.183594 C 87.402344 273.988281 88.949219 273.203125 88.949219 271.84375 L 88.949219 229.820312 C 88.949219 229.480469 89.226562 229.203125 89.566406 229.203125 L 239.203125 229.203125 C 240.53125 229.203125 241.613281 228.125 241.613281 226.792969 L 241.613281 194.46875 C 241.613281 193.136719 240.535156 192.058594 239.203125 192.058594 L 89.566406 192.058594 C 89.222656 192.058594 88.945312 191.78125 88.945312 191.441406 L 88.945312 149.421875 C 88.945312 148.0625 87.402344 147.277344 86.304688 148.082031 L 2.28125 209.5 C 1.515625 210.058594 1.515625 211.203125 2.28125 211.765625 Z M 2.28125 211.765625 " fill-opacity="1" fill-rule="nonzero"/>
        </g>
        <g clip-path="url(#f7ade95ab4)">
          <path fill="#418a2f" d="M 188.167969 127.328125 L 272.1875 65.910156 C 272.953125 65.347656 272.953125 64.203125 272.1875 63.644531 L 188.167969 2.222656 C 187.066406 1.421875 185.523438 2.207031 185.523438 3.566406 L 185.523438 45.585938 C 185.523438 45.929688 185.246094 46.207031 184.902344 46.207031 L 32.167969 46.207031 C 30.835938 46.207031 29.757812 47.285156 29.757812 48.613281 L 29.757812 80.941406 C 29.757812 82.269531 30.835938 83.347656 32.167969 83.347656 L 184.902344 83.347656 C 185.246094 83.347656 185.523438 83.625 185.523438 83.96875 L 185.523438 125.988281 C 185.523438 127.347656 187.066406 128.132812 188.167969 127.328125 Z M 188.167969 127.328125 " fill-opacity="1" fill-rule="nonzero"/>
        </g>
      </g>
    </g>
  </g>
</svg>
