<?xml version='1.0' encoding='UTF-8'?>
<svg xmlns="http://www.w3.org/2000/svg" xmlns:xlink="http://www.w3.org/1999/xlink" zoomAndPan="magnify" viewBox="0 0 375 374.999991" preserveAspectRatio="xMidYMid meet" version="1.0">
  <path fill="#776d6d" d="M 239.722656 126.441406 L 239.722656 122.300781 C 239.722656 93.507812 216.296875 70.078125 187.5 70.078125 C 158.703125 70.078125 135.277344 93.507812 135.277344 122.300781 L 135.277344 187.953125 C 135.277344 199.988281 139.410156 211.050781 146.273438 219.890625 Z M 239.722656 126.441406 " fill-opacity="1" fill-rule="nonzero"/>
  <path fill="#776d6d" d="M 155.046875 228.792969 C 163.964844 235.898438 175.234375 240.175781 187.5 240.175781 C 216.296875 240.175781 239.722656 216.75 239.722656 187.953125 L 239.722656 144.113281 Z M 155.046875 228.792969 " fill-opacity="1" fill-rule="nonzero"/>
  <path fill="#776d6d" d="M 187.5 0 C 83.945312 0 0 83.945312 0 187.5 C 0 291.054688 83.945312 375 187.5 375 C 291.054688 375 375 291.054688 375 187.5 C 375 83.945312 291.054688 0 187.5 0 Z M 287.484375 96.355469 L 254.640625 129.195312 L 254.640625 187.953125 C 254.640625 224.976562 224.523438 255.097656 187.5 255.097656 C 171.117188 255.097656 156.105469 249.183594 144.4375 239.402344 L 138.109375 245.730469 C 151.417969 257.121094 168.652344 264.046875 187.5 264.046875 C 229.457031 264.046875 263.59375 229.914062 263.59375 187.953125 C 263.59375 183.832031 266.933594 180.496094 271.054688 180.496094 C 275.175781 180.496094 278.515625 183.835938 278.515625 187.953125 C 278.515625 235.625 241.667969 274.828125 194.960938 278.640625 L 194.960938 304.921875 L 220.121094 304.921875 C 224.242188 304.921875 227.582031 308.261719 227.582031 312.382812 C 227.582031 316.5 224.242188 319.839844 220.121094 319.839844 L 154.875 319.839844 C 150.757812 319.839844 147.417969 316.5 147.417969 312.382812 C 147.417969 308.261719 150.757812 304.921875 154.875 304.921875 L 180.039062 304.921875 L 180.039062 278.636719 C 160.007812 277.003906 141.816406 268.824219 127.542969 256.296875 L 96.351562 287.484375 C 95.132812 288.703125 93.53125 289.316406 91.933594 289.316406 C 90.335938 289.316406 88.734375 288.703125 87.515625 287.484375 C 85.074219 285.042969 85.074219 281.085938 87.515625 278.644531 L 118.761719 247.398438 C 104.929688 231.4375 96.484375 210.6875 96.484375 187.953125 C 96.484375 183.832031 99.824219 180.496094 103.941406 180.496094 C 108.0625 180.496094 111.402344 183.835938 111.402344 187.953125 C 111.402344 206.574219 118.148438 223.628906 129.292969 236.867188 L 135.628906 230.53125 C 126.089844 218.9375 120.355469 204.105469 120.355469 187.953125 L 120.355469 122.300781 C 120.355469 85.28125 150.476562 55.160156 187.496094 55.160156 C 221.128906 55.160156 248.980469 80.039062 253.816406 112.34375 L 278.640625 87.515625 C 281.082031 85.078125 285.039062 85.078125 287.480469 87.515625 C 289.925781 89.957031 289.925781 93.914062 287.484375 96.355469 Z M 287.484375 96.355469 " fill-opacity="1" fill-rule="nonzero"/>
</svg>
