<?xml version='1.0' encoding='UTF-8'?>
<svg xmlns="http://www.w3.org/2000/svg" xmlns:xlink="http://www.w3.org/1999/xlink" zoomAndPan="magnify" viewBox="0 0 375 374.999991" preserveAspectRatio="xMidYMid meet" version="1.0">
  <defs>
    <filter x="0%" y="0%" width="100%" height="100%" id="8da02b4988">
      <feColorMatrix values="0 0 0 0 1 0 0 0 0 1 0 0 0 0 1 0 0 0 1 0" color-interpolation-filters="sRGB"/>
    </filter>
    <mask id="b850083303">
      <g filter="url(#8da02b4988)">
        <rect x="-37.5" width="450" fill="#000000" y="-37.499999" height="449.999989" fill-opacity="0.5"/>
      </g>
    </mask>
    <clipPath id="ccdff096b0">
      <path d="M 0.0390625 118 L 197 118 L 197 375 L 0.0390625 375 Z M 0.0390625 118 " clip-rule="nonzero"/>
    </clipPath>
    <clipPath id="9db44f103c">
      <rect x="0" width="198" y="0" height="375"/>
    </clipPath>
    <clipPath id="1b4b6ff146">
      <path d="M 54.277344 194 L 295 194 L 295 320.699219 L 54.277344 320.699219 Z M 54.277344 194 " clip-rule="nonzero"/>
    </clipPath>
    <clipPath id="44c50d3841">
      <path d="M 82 48.449219 L 326 48.449219 L 326 175 L 82 175 Z M 82 48.449219 " clip-rule="nonzero"/>
    </clipPath>
  </defs>
  <g mask="url(#b850083303)">
    <g transform="matrix(1, 0, 0, 1, 89, 0)">
      <g clip-path="url(#9db44f103c)">
        <g clip-path="url(#ccdff096b0)">
          <path fill="#776d6d" d="M 186.039062 118.148438 C 179.996094 118.148438 175.097656 123.046875 175.097656 129.089844 L 175.097656 194.726562 C 175.097656 236.953125 140.742188 271.304688 98.519531 271.304688 C 56.292969 271.304688 21.941406 236.953125 21.941406 194.726562 L 21.941406 129.089844 C 21.941406 123.046875 17.042969 118.148438 11 118.148438 C 4.957031 118.148438 0.0625 123.046875 0.0625 129.089844 L 0.0625 194.726562 C 0.0625 245.320312 38.421875 287.101562 87.578125 292.5625 L 87.578125 353.121094 L 50.683594 353.121094 C 44.640625 353.121094 39.742188 358.015625 39.742188 364.058594 C 39.742188 370.101562 44.640625 375 50.683594 375 L 146.359375 375 C 152.402344 375 157.296875 370.101562 157.296875 364.058594 C 157.296875 358.015625 152.402344 353.121094 146.359375 353.121094 L 109.460938 353.121094 L 109.460938 292.5625 C 158.617188 287.101562 196.976562 245.320312 196.976562 194.726562 L 196.976562 129.089844 C 196.976562 123.046875 192.078125 118.148438 186.039062 118.148438 Z M 186.039062 118.148438 " fill-opacity="1" fill-rule="nonzero"/>
        </g>
        <path fill="#776d6d" d="M 98.519531 258.175781 C 133.507812 258.175781 161.96875 229.710938 161.96875 194.726562 L 161.96875 63.449219 C 161.96875 28.464844 133.503906 0 98.519531 0 C 63.535156 0 35.070312 28.464844 35.070312 63.449219 L 35.070312 194.726562 C 35.070312 229.710938 63.535156 258.175781 98.519531 258.175781 Z M 56.949219 63.449219 C 56.949219 40.527344 75.597656 21.878906 98.519531 21.878906 C 121.441406 21.878906 140.089844 40.527344 140.089844 63.449219 L 140.089844 194.726562 C 140.089844 217.648438 121.441406 236.296875 98.519531 236.296875 C 75.597656 236.296875 56.949219 217.648438 56.949219 194.726562 Z M 56.949219 63.449219 " fill-opacity="1" fill-rule="nonzero"/>
      </g>
    </g>
  </g>
  <g clip-path="url(#1b4b6ff146)">
    <path fill="#776d6d" d="M 55.28125 258.765625 L 139.304688 320.183594 C 140.402344 320.988281 141.949219 320.203125 141.949219 318.84375 L 141.949219 276.820312 C 141.949219 276.480469 142.226562 276.203125 142.566406 276.203125 L 292.203125 276.203125 C 293.53125 276.203125 294.613281 275.125 294.613281 273.792969 L 294.613281 241.46875 C 294.613281 240.136719 293.535156 239.058594 292.203125 239.058594 L 142.566406 239.058594 C 142.222656 239.058594 141.945312 238.78125 141.945312 238.441406 L 141.945312 196.421875 C 141.945312 195.0625 140.402344 194.277344 139.304688 195.082031 L 55.28125 256.5 C 54.515625 257.058594 54.515625 258.203125 55.28125 258.765625 Z M 55.28125 258.765625 " fill-opacity="1" fill-rule="nonzero"/>
  </g>
  <g clip-path="url(#44c50d3841)">
    <path fill="#776d6d" d="M 241.167969 174.328125 L 325.1875 112.910156 C 325.953125 112.347656 325.953125 111.203125 325.1875 110.644531 L 241.167969 49.222656 C 240.066406 48.421875 238.523438 49.207031 238.523438 50.566406 L 238.523438 92.585938 C 238.523438 92.929688 238.246094 93.207031 237.902344 93.207031 L 85.167969 93.207031 C 83.835938 93.207031 82.757812 94.285156 82.757812 95.613281 L 82.757812 127.941406 C 82.757812 129.269531 83.835938 130.347656 85.167969 130.347656 L 237.902344 130.347656 C 238.246094 130.347656 238.523438 130.625 238.523438 130.96875 L 238.523438 172.988281 C 238.523438 174.347656 240.066406 175.132812 241.167969 174.328125 Z M 241.167969 174.328125 " fill-opacity="1" fill-rule="nonzero"/>
  </g>
</svg>
