<?xml version="1.0" encoding="utf-8"?>
<!-- Generator: Adobe Illustrator 28.1.0, SVG Export Plug-In . SVG Version: 6.00 Build 0)  -->
<svg version="1.1" id="Layer_1" xmlns="http://www.w3.org/2000/svg" xmlns:xlink="http://www.w3.org/1999/xlink" x="0px" y="0px"
	 viewBox="0 0 266 375" style="enable-background:new 0 0 266 375;" xml:space="preserve">
<style type="text/css">
	.st0{fill:#776D6D;}
</style>
<path class="st0" d="M263.1,57.4c-4.1-4.1-10.7-4.1-14.7,0l-51.9,51.9V63.4C196.4,28.5,168,0,133,0S69.5,28.5,69.5,63.4v131.3
	c0,11.9,3.3,22.9,9,32.5l-9.5,9.5c-8-12.1-12.6-26.5-12.6-42v-65.6c0-6-4.9-10.9-10.9-10.9s-10.9,4.9-10.9,10.9v65.6
	c0,21.6,7,41.5,18.8,57.7L2.9,302.9c-4.1,4.1-4.1,10.7,0,14.7c2,2,4.7,3.1,7.4,3.1c2.7,0,5.3-1,7.4-3.1l49.7-49.7
	c14.9,13.4,33.8,22.3,54.7,24.6v60.6H85.2c-6,0-10.9,4.9-10.9,10.9S79.1,375,85.2,375h95.7c6,0,10.9-4.9,10.9-10.9
	s-4.9-10.9-10.9-10.9h-36.9v-60.6c49.2-5.5,87.5-47.2,87.5-97.8v-65.6c0-6-4.9-10.9-10.9-10.9c-1.5,0-3,0.3-4.3,0.9l46.9-47
	C267.2,68,267.2,61.4,263.1,57.4z M91.4,194.7V63.4c0-22.9,18.6-41.6,41.6-41.6s41.6,18.6,41.6,41.6v67.8L94.8,211
	C92.6,206,91.4,200.5,91.4,194.7z M174.6,160.7v34.1c0,22.9-18.6,41.6-41.6,41.6c-9.6,0-18.3-3.3-25.4-8.7L174.6,160.7z
	 M209.6,129.1v65.6c0,42.2-34.4,76.6-76.6,76.6c-19.2,0-36.7-7.2-50.2-18.9l9.3-9.3c11.1,9.4,25.3,15,40.9,15
	c35,0,63.4-28.5,63.4-63.4v-55.9l14-14C209.9,126.1,209.6,127.5,209.6,129.1z"/>
</svg>
