<?xml version='1.0' encoding='UTF-8'?>
<svg xmlns="http://www.w3.org/2000/svg" xmlns:xlink="http://www.w3.org/1999/xlink" zoomAndPan="magnify" viewBox="0 0 375 374.999991" preserveAspectRatio="xMidYMid meet" version="1.0">
  <path fill="#776d6d" d="M 317.617188 57.371094 C 313.554688 53.304688 306.953125 53.304688 302.890625 57.371094 L 250.941406 109.320312 L 250.941406 63.449219 C 250.941406 28.464844 222.476562 0 187.492188 0 C 152.507812 0 124.042969 28.464844 124.042969 63.449219 L 124.042969 194.726562 C 124.042969 206.597656 127.378906 217.675781 133.074219 227.1875 L 123.535156 236.730469 C 115.578125 224.65625 110.914062 210.234375 110.914062 194.726562 L 110.914062 129.089844 C 110.914062 123.046875 106.015625 118.148438 99.972656 118.148438 C 93.929688 118.148438 89.035156 123.046875 89.035156 129.089844 L 89.035156 194.726562 C 89.035156 216.28125 96.042969 236.199219 107.835938 252.425781 L 57.363281 302.898438 C 53.296875 306.964844 53.296875 313.558594 57.363281 317.628906 C 59.394531 319.664062 62.0625 320.679688 64.730469 320.679688 C 67.394531 320.679688 70.0625 319.660156 72.09375 317.628906 L 121.804688 267.917969 C 136.691406 281.285156 155.621094 290.238281 176.550781 292.5625 L 176.550781 353.121094 L 139.652344 353.121094 C 133.609375 353.121094 128.714844 358.015625 128.714844 364.058594 C 128.714844 370.101562 133.609375 375 139.652344 375 L 235.328125 375 C 241.371094 375 246.269531 370.101562 246.269531 364.058594 C 246.269531 358.015625 241.371094 353.121094 235.328125 353.121094 L 198.429688 353.121094 L 198.429688 292.5625 C 247.589844 287.101562 285.949219 245.320312 285.949219 194.726562 L 285.949219 129.089844 C 285.949219 123.046875 281.050781 118.148438 275.007812 118.148438 C 273.464844 118.148438 272 118.476562 270.667969 119.054688 L 317.617188 72.101562 C 321.6875 68.035156 321.6875 61.441406 317.617188 57.371094 Z M 145.921875 194.726562 L 145.921875 63.449219 C 145.921875 40.527344 164.570312 21.878906 187.492188 21.878906 C 210.414062 21.878906 229.0625 40.527344 229.0625 63.449219 L 229.0625 131.199219 L 149.25 211.011719 C 147.109375 206.007812 145.921875 200.503906 145.921875 194.726562 Z M 229.0625 160.660156 L 229.0625 194.726562 C 229.0625 217.648438 210.414062 236.296875 187.492188 236.296875 C 177.941406 236.296875 169.15625 233.027344 162.128906 227.589844 Z M 264.070312 129.089844 L 264.070312 194.726562 C 264.070312 236.953125 229.714844 271.304688 187.492188 271.304688 C 168.285156 271.304688 150.753906 264.144531 137.296875 252.421875 L 146.578125 243.144531 C 157.632812 252.503906 171.90625 258.175781 187.492188 258.175781 C 222.476562 258.175781 250.941406 229.710938 250.941406 194.726562 L 250.941406 138.777344 L 264.972656 124.746094 C 264.398438 126.078125 264.070312 127.542969 264.070312 129.089844 Z M 264.070312 129.089844 " fill-opacity="1" fill-rule="nonzero"/>
</svg>
