<?xml version="1.0" encoding="UTF-8"?>
<svg id="Layer_1" data-name="Layer 1" xmlns="http://www.w3.org/2000/svg" xmlns:xlink="http://www.w3.org/1999/xlink" viewBox="0 0 259.07 375">
  <defs>
    <style>
      .cls-1 {
        clip-path: url(#clippath);
      }

      .cls-2 {
        fill: none;
      }

      .cls-2, .cls-3, .cls-4 {
        stroke-width: 0px;
      }

      .cls-5 {
        clip-path: url(#clippath-1);
      }

      .cls-6 {
        clip-path: url(#clippath-3);
      }

      .cls-7 {
        clip-path: url(#clippath-2);
      }

      .cls-3 {
        fill: #776d6d;
      }

      .cls-4 {
        fill: #4e84be;
      }
    </style>
    <clipPath id="clippath">
      <rect class="cls-2" x="31" width="198" height="375"/>
    </clipPath>
    <clipPath id="clippath-1">
      <rect class="cls-2" x="31.04" y="118" width="196.96" height="257"/>
    </clipPath>
    <clipPath id="clippath-2">
      <rect class="cls-2" x="99.35" y="145" width="159.71" height="133.5"/>
    </clipPath>
    <clipPath id="clippath-3">
      <rect class="cls-2" y="96.25" width="168" height="142.75"/>
    </clipPath>
  </defs>
  <g class="cls-1">
    <g>
      <g class="cls-5">
        <path class="cls-3" d="M217.04,118.15c-6.04,0-10.94,4.9-10.94,10.94v65.64c0,42.23-34.36,76.58-76.58,76.58s-76.58-34.35-76.58-76.58v-65.64c0-6.04-4.9-10.94-10.94-10.94s-10.94,4.9-10.94,10.94v65.64c0,50.59,38.36,92.38,87.52,97.84v60.56h-36.89c-6.04,0-10.94,4.89-10.94,10.94s4.9,10.94,10.94,10.94h95.68c6.04,0,10.94-4.9,10.94-10.94s-4.89-10.94-10.94-10.94h-36.9v-60.56c49.16-5.46,87.52-47.24,87.52-97.84v-65.64c0-6.04-4.9-10.94-10.94-10.94Z"/>
      </g>
      <path class="cls-3" d="M129.52,258.18c34.99,0,63.45-28.46,63.45-63.45V63.45c0-34.98-28.46-63.45-63.45-63.45s-63.45,28.46-63.45,63.45v131.28c0,34.98,28.46,63.45,63.45,63.45ZM87.95,63.45c0-22.92,18.65-41.57,41.57-41.57s41.57,18.65,41.57,41.57v131.28c0,22.92-18.65,41.57-41.57,41.57s-41.57-18.65-41.57-41.57V63.45Z"/>
    </g>
  </g>
  <g class="cls-7">
    <path class="cls-4" d="M109.88,185.1c-5.65,0-10.28,4.62-10.28,10.28v35.02c0,5.65,4.62,10.27,10.28,10.28h71.33c5.65,0,10.28,4.62,10.28,10.27v22.5c0,5.65,3.27,7,7.27,3.01l57.31-57.32c4-4,4-10.53,0-14.53l-57.31-57.31c-4-4-7.27-2.64-7.27,3.01v24.5c0,5.65-4.62,10.28-10.28,10.28h-71.33"/>
  </g>
  <g class="cls-6">
    <path class="cls-4" d="M163.12,139.16c2.52,2.52,4.08,6,4.08,9.84,0,2.01-1.63,3.64-3.64,3.64s-3.64-1.63-3.64-3.64c0-3.66-2.97-6.64-6.63-6.64h-71.34c-3.71,0-7.19-1.45-9.83-4.08-2.63-2.63-4.09-6.12-4.08-9.83v-22.5c0-.53-.04-.95-.09-1.27-.27.19-.59.46-.96.84l-57.31,57.31c-2.59,2.59-2.59,6.8,0,9.39l57.31,57.3c.38.37.7.64.97.83.05-.32.09-.74.09-1.27l-.16-24.25c-.02-2.01,1.61-3.66,3.61-3.66,2.02-.02,3.66,1.61,3.67,3.61l.16,24.28c0,5.83-2.75,7.84-4.38,8.51-1.64.68-5,1.2-9.09-2.9L4.53,177.36c-5.43-5.43-5.43-14.26,0-19.68l57.31-57.31c4.11-4.11,7.46-3.58,9.11-2.91,1.63.68,4.38,2.68,4.38,8.49v22.5c0,1.76.69,3.43,1.95,4.68,1.27,1.26,2.93,1.95,4.69,1.95h71.34c3.83,0,7.31,1.56,9.83,4.08"/>
  </g>
</svg>