<?xml version="1.0" encoding="UTF-8"?>
<svg id="saypi-countdown-timer" data-name="Layer 1" xmlns="http://www.w3.org/2000/svg"
  xmlns:xlink="http://www.w3.org/1999/xlink" viewBox="0 0 768 768">
  <defs>
    <style>
      .cls-1 {
      clip-path: url(#clippath);
      }

      .cls-2 {
      fill: none;
      }

      .cls-2, .cls-3, .cls-4 {
      stroke-width: 0px;
      }

      .number {
      font-family: ArialRoundedMTBold, 'Arial Rounded MT Bold';
      font-size: 282.52px;
      }

      .cls-5, .cls-3 {
      fill: #000;
      }

      .cls-4 {
      fill: #ffd772;
      }
    </style>
    <clipPath id="clippath">
      <rect class="cls-2" x="36" y="18.24" width="732" height="731.25" />
    </clipPath>
  </defs>
  <g class="cls-1">
    <path class="cls-3"
      d="M402.13,749.49c-49.4,0-97.28-9.66-142.36-28.71-43.55-18.38-82.7-44.72-116.26-78.35-33.55-33.54-59.91-72.68-78.38-116.21-19.07-45.06-28.73-93-28.73-142.3,0-11.69,9.49-21.18,21.19-21.18s21.18,9.49,21.18,21.18c0,43.62,8.56,85.98,25.42,125.79,16.27,38.46,39.57,73.02,69.32,102.75,29.74,29.65,64.31,53.03,102.78,69.29,39.83,16.86,82.2,25.41,125.83,25.41s86.01-8.55,125.83-25.41c38.47-16.26,73.04-39.64,102.79-69.29,29.66-29.73,53.04-64.29,69.31-102.75,16.86-39.81,25.42-82.16,25.42-125.79s-8.56-85.97-25.42-125.79c-16.27-38.45-39.57-73.1-69.31-102.75-29.74-29.73-64.32-53.02-102.79-69.29-39.82-16.86-82.19-25.41-125.83-25.41s-85.41,8.39-124.9,24.99c-10.76,4.57-23.22-.51-27.71-11.35-4.49-10.76.51-23.21,11.36-27.7,44.74-18.8,92.28-28.38,141.34-28.38s97.27,9.66,142.36,28.71c43.55,18.38,82.7,44.81,116.26,78.35,33.55,33.54,59.91,72.68,78.38,116.21,19.07,45.06,28.72,92.92,28.72,142.3s-9.66,97.24-28.72,142.3c-18.39,43.54-44.74,82.67-78.38,116.21-33.56,33.54-72.7,59.97-116.26,78.35-45.16,19.14-93.04,28.8-142.44,28.8Z" />
  </g>
  <path class="cls-3" d="M61.5,427.87h61.43l-30.76-43.96-30.68-43.96-30.76,43.96L.07,427.87h61.43Z" />
  <path class="cls-4"
    d="M660.15,383.91c0,4.22-.11,8.44-.31,12.65s-.52,8.42-.93,12.62-.93,8.39-1.55,12.56c-.62,4.18-1.34,8.33-2.16,12.47-.82,4.14-1.75,8.25-2.77,12.35s-2.15,8.16-3.38,12.2c-1.23,4.04-2.55,8.04-3.97,12.02s-2.94,7.91-4.55,11.81c-1.62,3.9-3.33,7.75-5.13,11.57-1.8,3.81-3.7,7.58-5.69,11.3-1.99,3.72-4.07,7.39-6.24,11.01-2.17,3.62-4.43,7.18-6.77,10.69-2.35,3.51-4.78,6.96-7.29,10.34-2.51,3.39-5.11,6.72-7.79,9.98-2.68,3.26-5.44,6.45-8.27,9.58-2.84,3.12-5.75,6.18-8.73,9.16s-6.04,5.89-9.17,8.73c-3.13,2.84-6.32,5.59-9.59,8.27-3.27,2.68-6.59,5.27-9.98,7.79-3.39,2.52-6.84,4.95-10.35,7.29-3.51,2.34-7.08,4.6-10.7,6.77-3.62,2.17-7.29,4.25-11.02,6.24s-7.49,3.89-11.31,5.69-7.68,3.51-11.57,5.13c-3.9,1.61-7.84,3.13-11.81,4.55s-7.98,2.74-12.02,3.97c-4.04,1.22-8.11,2.35-12.2,3.38-4.09,1.02-8.21,1.95-12.35,2.77s-8.3,1.54-12.47,2.16c-4.18.62-8.37,1.13-12.57,1.55s-8.41.73-12.62.93c-4.22.21-8.44.31-12.66.31s-8.44-.1-12.66-.31c-4.22-.21-8.43-.52-12.62-.93-4.2-.41-8.39-.93-12.57-1.55-4.18-.62-8.33-1.34-12.47-2.16s-8.26-1.75-12.35-2.77c-4.1-1.03-8.16-2.15-12.2-3.38-4.04-1.23-8.05-2.55-12.02-3.97-3.98-1.42-7.91-2.94-11.81-4.55-3.9-1.62-7.76-3.32-11.57-5.13s-7.59-3.7-11.31-5.69-7.39-4.07-11.02-6.24c-3.62-2.17-7.19-4.43-10.7-6.77-3.51-2.34-6.96-4.77-10.35-7.29-3.39-2.51-6.72-5.11-9.98-7.79-3.26-2.68-6.46-5.43-9.59-8.27-3.13-2.83-6.18-5.74-9.17-8.73s-5.89-6.04-8.73-9.16c-2.84-3.13-5.59-6.32-8.27-9.58-2.68-3.26-5.27-6.59-7.79-9.98-2.52-3.39-4.95-6.84-7.29-10.34-2.34-3.51-4.6-7.07-6.77-10.69-2.17-3.62-4.25-7.29-6.24-11.01-1.99-3.72-3.89-7.49-5.7-11.3-1.8-3.82-3.51-7.67-5.13-11.57s-3.13-7.84-4.55-11.81-2.75-7.98-3.97-12.02-2.35-8.1-3.38-12.2c-1.03-4.09-1.95-8.21-2.78-12.35-.82-4.14-1.54-8.3-2.16-12.47-.62-4.17-1.13-8.36-1.55-12.56s-.73-8.41-.93-12.62-.31-8.43-.31-12.65.1-8.44.31-12.65c.21-4.21.52-8.42.93-12.62.41-4.2.93-8.38,1.55-12.56.62-4.17,1.34-8.33,2.16-12.47.82-4.14,1.75-8.25,2.78-12.35,1.02-4.09,2.15-8.16,3.38-12.2,1.23-4.04,2.55-8.05,3.97-12.02s2.94-7.91,4.55-11.8,3.32-7.76,5.13-11.57c1.8-3.82,3.7-7.58,5.7-11.3,1.99-3.72,4.07-7.39,6.24-11.01s4.43-7.18,6.77-10.69,4.77-6.96,7.29-10.35,5.11-6.71,7.79-9.98c2.68-3.26,5.43-6.46,8.27-9.58,2.84-3.13,5.75-6.18,8.73-9.17,2.98-2.98,6.04-5.89,9.17-8.73,3.13-2.83,6.32-5.59,9.59-8.27,3.26-2.68,6.59-5.27,9.98-7.79,3.39-2.51,6.84-4.94,10.35-7.29,3.51-2.35,7.07-4.6,10.7-6.77,3.62-2.17,7.29-4.25,11.02-6.24,3.72-1.99,7.49-3.88,11.31-5.69s7.67-3.52,11.57-5.13c3.9-1.61,7.84-3.13,11.81-4.55,3.97-1.42,7.98-2.75,12.02-3.97,4.04-1.23,8.11-2.35,12.2-3.38,4.09-1.03,8.21-1.95,12.35-2.77s8.3-1.55,12.47-2.16c4.18-.62,8.36-1.14,12.57-1.55,4.2-.41,8.41-.72,12.62-.93,4.21-.21,8.43-.31,12.66-.31s8.44.11,12.66.31c4.21.21,8.43.52,12.62.93s8.39.93,12.57,1.55c4.18.62,8.33,1.34,12.47,2.16s8.26,1.75,12.35,2.77c4.09,1.02,8.16,2.15,12.2,3.38,4.04,1.22,8.05,2.55,12.02,3.97s7.91,2.94,11.81,4.55c3.9,1.61,7.76,3.32,11.57,5.13s7.59,3.7,11.31,5.69c3.72,1.99,7.39,4.07,11.02,6.24,3.62,2.17,7.18,4.43,10.7,6.77,3.51,2.34,6.96,4.77,10.35,7.29,3.39,2.52,6.71,5.11,9.98,7.79,3.26,2.68,6.46,5.43,9.59,8.27,3.12,2.84,6.18,5.75,9.17,8.73,2.98,2.98,5.89,6.04,8.73,9.17,2.83,3.12,5.59,6.32,8.27,9.58,2.68,3.26,5.27,6.59,7.79,9.98,2.52,3.39,4.95,6.84,7.29,10.35,2.34,3.51,4.6,7.07,6.77,10.69,2.17,3.62,4.25,7.29,6.24,11.01s3.89,7.49,5.69,11.3c1.8,3.81,3.52,7.67,5.13,11.57,1.61,3.9,3.13,7.83,4.55,11.8s2.75,7.98,3.97,12.02c1.22,4.04,2.35,8.1,3.38,12.2s1.95,8.21,2.77,12.35c.82,4.14,1.55,8.3,2.16,12.47.62,4.18,1.14,8.36,1.55,12.56.41,4.2.72,8.41.93,12.62.21,4.21.31,8.43.31,12.65Z" />
  <path class="cls-3"
    d="M208.68,108.79c0,.95-.05,1.91-.14,2.86s-.23,1.89-.42,2.83c-.18.94-.42,1.86-.7,2.77-.27.91-.6,1.81-.96,2.69-.37.88-.77,1.75-1.22,2.59-.45.84-.94,1.66-1.47,2.45s-1.1,1.56-1.7,2.3-1.25,1.45-1.92,2.12c-.68.68-1.38,1.32-2.12,1.92-.74.61-1.5,1.17-2.3,1.7-.79.53-1.61,1.02-2.45,1.47-.84.45-1.7.86-2.59,1.22-.88.37-1.78.69-2.69.96s-1.84.51-2.78.7c-.93.19-1.88.32-2.83.42s-1.9.14-2.86.14-1.91-.05-2.86-.14-1.89-.23-2.83-.42-1.86-.42-2.77-.7c-.91-.28-1.81-.6-2.7-.96-.88-.36-1.74-.77-2.59-1.22-.84-.45-1.66-.94-2.45-1.47s-1.56-1.1-2.3-1.7-1.45-1.25-2.12-1.92c-.68-.67-1.32-1.38-1.92-2.12s-1.17-1.5-1.7-2.3-1.02-1.61-1.47-2.45c-.45-.84-.86-1.7-1.22-2.59-.37-.88-.69-1.78-.96-2.69s-.51-1.84-.7-2.77c-.19-.93-.33-1.88-.42-2.83-.09-.95-.14-1.9-.14-2.86s.05-1.91.14-2.86c.09-.95.23-1.89.42-2.83.19-.94.42-1.86.7-2.77.28-.91.6-1.81.96-2.7.36-.88.77-1.74,1.22-2.58.45-.84.94-1.66,1.47-2.45s1.1-1.56,1.7-2.3,1.25-1.45,1.92-2.12c.68-.67,1.38-1.31,2.12-1.92s1.5-1.18,2.3-1.7c.79-.53,1.61-1.02,2.45-1.47s1.7-.86,2.59-1.22c.88-.36,1.78-.68,2.7-.96.91-.28,1.84-.51,2.77-.7s1.88-.33,2.83-.42,1.9-.14,2.86-.14,1.91.04,2.86.14,1.89.23,2.83.42c.94.19,1.86.42,2.78.7s1.81.6,2.69.96c.88.37,1.75.77,2.59,1.22.84.45,1.66.94,2.45,1.47.8.53,1.56,1.1,2.3,1.7.73.61,1.44,1.25,2.12,1.92.68.68,1.32,1.38,1.92,2.12s1.17,1.5,1.7,2.3,1.02,1.61,1.47,2.45c.45.84.86,1.7,1.22,2.58.36.88.69,1.78.96,2.7.28.91.51,1.84.7,2.77.19.93.33,1.88.42,2.83s.14,1.9.14,2.86Z" />
  <path class="cls-3"
    d="M135.13,182.82c0,.95-.05,1.91-.14,2.86s-.23,1.89-.42,2.83c-.19.94-.42,1.86-.7,2.77s-.6,1.81-.96,2.69c-.37.88-.77,1.75-1.22,2.59-.45.84-.94,1.66-1.47,2.45-.53.79-1.1,1.56-1.7,2.3s-1.25,1.45-1.92,2.12c-.68.68-1.38,1.32-2.12,1.92s-1.5,1.17-2.3,1.7c-.8.53-1.61,1.02-2.46,1.47-.84.45-1.7.86-2.59,1.22-.88.37-1.78.69-2.69.96s-1.84.51-2.77.7c-.94.19-1.88.32-2.83.42s-1.9.14-2.86.14-1.91-.05-2.86-.14c-.95-.09-1.89-.23-2.83-.42s-1.86-.42-2.77-.7-1.81-.6-2.7-.96c-.88-.36-1.74-.77-2.59-1.22-.84-.45-1.66-.94-2.45-1.47s-1.56-1.1-2.3-1.7-1.45-1.25-2.12-1.92c-.68-.67-1.31-1.38-1.92-2.12-.61-.74-1.17-1.5-1.7-2.3s-1.02-1.61-1.47-2.45c-.45-.84-.86-1.7-1.22-2.59-.37-.88-.69-1.78-.96-2.69s-.51-1.84-.7-2.77c-.19-.93-.32-1.88-.42-2.83s-.14-1.9-.14-2.86.05-1.91.14-2.86.23-1.89.42-2.83c.19-.94.42-1.86.7-2.77.28-.91.6-1.81.96-2.7.36-.88.77-1.74,1.22-2.58.45-.84.94-1.66,1.47-2.45s1.1-1.56,1.7-2.3c.61-.74,1.25-1.45,1.92-2.12.68-.67,1.38-1.31,2.12-1.92s1.5-1.18,2.3-1.7c.79-.53,1.61-1.02,2.45-1.47.84-.45,1.7-.86,2.59-1.22.88-.36,1.78-.68,2.7-.96s1.84-.51,2.77-.7,1.88-.33,2.83-.42c.95-.09,1.9-.14,2.86-.14s1.91.05,2.86.14c.95.09,1.89.23,2.83.42.93.19,1.86.42,2.77.7s1.81.6,2.69.96c.88.37,1.75.77,2.59,1.22.84.45,1.66.94,2.46,1.47.79.53,1.56,1.1,2.3,1.7s1.44,1.25,2.12,1.92c.68.68,1.32,1.38,1.92,2.12s1.18,1.5,1.7,2.3c.53.79,1.02,1.61,1.47,2.45.45.84.86,1.7,1.22,2.58.36.88.69,1.78.96,2.7.28.91.51,1.84.7,2.77.18.93.32,1.88.42,2.83s.14,1.9.14,2.86Z" />
  <path class="cls-3"
    d="M67.63,244.46c.93.2,1.86.45,2.76.74.91.29,1.8.63,2.68,1.01.88.38,1.73.8,2.56,1.27.84.46,1.64.96,2.43,1.51s1.54,1.12,2.27,1.74,1.43,1.27,2.09,1.95c.66.69,1.29,1.41,1.89,2.15s1.15,1.52,1.67,2.32c.52.8.99,1.63,1.43,2.48.43.85.83,1.72,1.18,2.61s.66,1.79.92,2.71.48,1.85.65,2.79c.17.94.29,1.88.37,2.84.08.95.11,1.9.09,2.86-.02.96-.08,1.91-.19,2.86-.11.95-.27,1.89-.46,2.82-.2.93-.45,1.85-.74,2.76s-.63,1.8-1.01,2.68-.8,1.73-1.27,2.57c-.46.83-.97,1.64-1.51,2.43s-1.12,1.54-1.74,2.27c-.62.73-1.27,1.42-1.95,2.09-.69.66-1.4,1.29-2.15,1.89-.75.59-1.52,1.15-2.32,1.66-.8.52-1.63.99-2.48,1.43-.85.44-1.72.83-2.61,1.18-.89.35-1.79.66-2.71.92s-1.85.48-2.79.65c-.94.17-1.89.29-2.84.37-.95.08-1.91.11-2.86.09s-1.91-.08-2.86-.19-1.89-.27-2.82-.46c-.93-.2-1.86-.45-2.77-.74-.91-.29-1.8-.63-2.68-1.01s-1.73-.8-2.57-1.27c-.83-.46-1.64-.96-2.43-1.51-.79-.54-1.54-1.12-2.27-1.74-.73-.62-1.43-1.27-2.09-1.95-.66-.69-1.29-1.4-1.89-2.15-.59-.75-1.15-1.52-1.66-2.32-.52-.8-1-1.63-1.43-2.48-.44-.85-.83-1.71-1.18-2.61-.35-.89-.66-1.79-.92-2.71s-.48-1.84-.65-2.79c-.17-.94-.29-1.88-.37-2.84-.08-.95-.11-1.9-.09-2.86.02-.96.08-1.91.19-2.86.11-.95.26-1.89.46-2.82s.45-1.85.74-2.76c.29-.91.62-1.8,1.01-2.68.38-.88.8-1.73,1.27-2.57.46-.83.96-1.64,1.51-2.43s1.12-1.54,1.74-2.27,1.27-1.42,1.96-2.09c.68-.66,1.4-1.29,2.15-1.89.75-.59,1.52-1.15,2.33-1.66.8-.52,1.63-.99,2.48-1.43s1.72-.83,2.61-1.18,1.79-.66,2.71-.92,1.85-.48,2.79-.65c.94-.17,1.88-.3,2.84-.38.95-.08,1.9-.11,2.86-.09.95.02,1.91.08,2.85.19.95.11,1.89.27,2.82.46Z" />
  <text class="number" transform="translate(203.68 479.64) scale(1.19 1)">
    <tspan id="saypi-countdown-number" x="0" y="0">60</tspan>
  </text>
</svg>