<svg xmlns="http://www.w3.org/2000/svg" xmlns:xlink="http://www.w3.org/1999/xlink" width="500" zoomAndPan="magnify" viewBox="0 0 375 374.999991" height="500" preserveAspectRatio="xMidYMid meet" version="1.0"><defs><clipPath id="709ad7210a"><path d="M 100.027344 152 L 106 152 L 106 165 L 100.027344 165 Z M 100.027344 152 " clip-rule="nonzero"/></clipPath><clipPath id="84d8f6cdc2"><path d="M 178 118.40625 L 185 118.40625 L 185 197.90625 L 178 197.90625 Z M 178 118.40625 " clip-rule="nonzero"/></clipPath><clipPath id="935020f64f"><path d="M 268 153 L 274.777344 153 L 274.777344 164 L 268 164 Z M 268 153 " clip-rule="nonzero"/></clipPath></defs><g clip-path="url(#709ad7210a)"><path fill="#776d6d" d="M 103.035156 152.265625 C 101.425781 152.265625 100.125 153.574219 100.125 155.191406 L 100.125 161.109375 C 100.125 162.726562 101.425781 164.035156 103.035156 164.035156 C 104.640625 164.035156 105.941406 162.726562 105.941406 161.109375 L 105.941406 155.191406 C 105.941406 153.574219 104.640625 152.265625 103.035156 152.265625 Z M 103.035156 152.265625 " fill-opacity="1" fill-rule="nonzero"/></g><path fill="#776d6d" d="M 114.28125 132.660156 C 112.675781 132.660156 111.375 133.96875 111.375 135.585938 L 111.375 180.714844 C 111.375 182.332031 112.675781 183.640625 114.28125 183.640625 C 115.886719 183.640625 117.191406 182.332031 117.191406 180.714844 L 117.191406 135.585938 C 117.191406 133.96875 115.886719 132.660156 114.28125 132.660156 Z M 114.28125 132.660156 " fill-opacity="1" fill-rule="nonzero"/><path fill="#776d6d" d="M 125.53125 142.683594 C 123.925781 142.683594 122.621094 143.992188 122.621094 145.609375 L 122.621094 170.691406 C 122.621094 172.304688 123.925781 173.617188 125.53125 173.617188 C 127.136719 173.617188 128.441406 172.304688 128.441406 170.691406 L 128.441406 145.609375 C 128.441406 143.992188 127.136719 142.683594 125.53125 142.683594 Z M 125.53125 142.683594 " fill-opacity="1" fill-rule="nonzero"/><path fill="#776d6d" d="M 136.78125 123.664062 C 135.175781 123.664062 133.871094 124.972656 133.871094 126.589844 L 133.871094 189.710938 C 133.871094 191.328125 135.175781 192.636719 136.78125 192.636719 C 138.386719 192.636719 139.691406 191.328125 139.691406 189.710938 L 139.691406 126.589844 C 139.691406 124.972656 138.386719 123.664062 136.78125 123.664062 Z M 136.78125 123.664062 " fill-opacity="1" fill-rule="nonzero"/><path fill="#776d6d" d="M 148.03125 150.351562 C 146.425781 150.351562 145.121094 151.660156 145.121094 153.273438 L 145.121094 163.023438 C 145.121094 164.640625 146.425781 165.949219 148.03125 165.949219 C 149.636719 165.949219 150.941406 164.640625 150.941406 163.023438 L 150.941406 153.273438 C 150.941406 151.660156 149.636719 150.351562 148.03125 150.351562 Z M 148.03125 150.351562 " fill-opacity="1" fill-rule="nonzero"/><path fill="#776d6d" d="M 159.28125 133.199219 C 157.675781 133.199219 156.371094 134.507812 156.371094 136.121094 L 156.371094 180.175781 C 156.371094 181.792969 157.675781 183.101562 159.28125 183.101562 C 160.886719 183.101562 162.191406 181.792969 162.191406 180.175781 L 162.191406 136.121094 C 162.191406 134.507812 160.886719 133.199219 159.28125 133.199219 Z M 159.28125 133.199219 " fill-opacity="1" fill-rule="nonzero"/><path fill="#776d6d" d="M 170.757812 123.664062 C 170.753906 123.664062 170.746094 123.664062 170.738281 123.664062 C 169.140625 123.664062 167.839844 124.960938 167.828125 126.570312 L 167.410156 189.691406 C 167.398438 191.308594 168.695312 192.625 170.300781 192.636719 C 170.308594 192.636719 170.316406 192.636719 170.320312 192.636719 C 171.917969 192.636719 173.21875 191.339844 173.230469 189.730469 L 173.648438 126.605469 C 173.660156 124.992188 172.367188 123.671875 170.757812 123.664062 Z M 170.757812 123.664062 " fill-opacity="1" fill-rule="nonzero"/><g clip-path="url(#84d8f6cdc2)"><path fill="#776d6d" d="M 181.777344 118.40625 C 180.171875 118.40625 178.867188 119.714844 178.867188 121.332031 L 178.867188 194.96875 C 178.867188 196.585938 180.171875 197.894531 181.777344 197.894531 C 183.382812 197.894531 184.6875 196.585938 184.6875 194.96875 L 184.6875 121.332031 C 184.6875 119.714844 183.382812 118.40625 181.777344 118.40625 Z M 181.777344 118.40625 " fill-opacity="1" fill-rule="nonzero"/></g><path fill="#776d6d" d="M 193.027344 136.15625 C 191.421875 136.15625 190.121094 137.464844 190.121094 139.082031 L 190.121094 177.21875 C 190.121094 178.835938 191.421875 180.144531 193.027344 180.144531 C 194.636719 180.144531 195.9375 178.835938 195.9375 177.21875 L 195.9375 139.082031 C 195.9375 137.464844 194.636719 136.15625 193.027344 136.15625 Z M 193.027344 136.15625 " fill-opacity="1" fill-rule="nonzero"/><path fill="#776d6d" d="M 204.277344 145.609375 C 202.671875 145.609375 201.367188 146.917969 201.367188 148.535156 L 201.367188 167.765625 C 201.367188 169.382812 202.671875 170.691406 204.277344 170.691406 C 205.882812 170.691406 207.1875 169.382812 207.1875 167.765625 L 207.1875 148.535156 C 207.1875 146.917969 205.882812 145.609375 204.277344 145.609375 Z M 204.277344 145.609375 " fill-opacity="1" fill-rule="nonzero"/><path fill="#776d6d" d="M 215.527344 126.953125 C 213.921875 126.953125 212.617188 128.265625 212.617188 129.878906 L 212.617188 186.421875 C 212.617188 188.035156 213.921875 189.347656 215.527344 189.347656 C 217.132812 189.347656 218.4375 188.035156 218.4375 186.421875 L 218.4375 129.878906 C 218.4375 128.265625 217.132812 126.953125 215.527344 126.953125 Z M 215.527344 126.953125 " fill-opacity="1" fill-rule="nonzero"/><path fill="#776d6d" d="M 226.777344 137.730469 C 225.171875 137.730469 223.867188 139.039062 223.867188 140.65625 L 223.867188 175.644531 C 223.867188 177.257812 225.171875 178.570312 226.777344 178.570312 C 228.382812 178.570312 229.683594 177.257812 229.683594 175.644531 L 229.683594 140.65625 C 229.683594 139.039062 228.382812 137.730469 226.777344 137.730469 Z M 226.777344 137.730469 " fill-opacity="1" fill-rule="nonzero"/><path fill="#776d6d" d="M 238.023438 147.664062 C 236.417969 147.664062 235.117188 148.972656 235.117188 150.589844 L 235.117188 165.710938 C 235.117188 167.328125 236.417969 168.636719 238.023438 168.636719 C 239.632812 168.636719 240.933594 167.328125 240.933594 165.710938 L 240.933594 150.589844 C 240.933594 148.972656 239.632812 147.664062 238.023438 147.664062 Z M 238.023438 147.664062 " fill-opacity="1" fill-rule="nonzero"/><path fill="#776d6d" d="M 249.277344 123.664062 C 247.671875 123.664062 246.367188 124.972656 246.367188 126.589844 L 246.367188 189.710938 C 246.367188 191.328125 247.671875 192.636719 249.277344 192.636719 C 250.882812 192.636719 252.183594 191.328125 252.183594 189.710938 L 252.183594 126.589844 C 252.183594 124.972656 250.882812 123.664062 249.277344 123.664062 Z M 249.277344 123.664062 " fill-opacity="1" fill-rule="nonzero"/><path fill="#776d6d" d="M 260.523438 141.621094 C 258.917969 141.621094 257.617188 142.929688 257.617188 144.542969 L 257.617188 171.757812 C 257.617188 173.371094 258.917969 174.679688 260.523438 174.679688 C 262.128906 174.679688 263.433594 173.371094 263.433594 171.757812 L 263.433594 144.542969 C 263.433594 142.929688 262.132812 141.621094 260.523438 141.621094 Z M 260.523438 141.621094 " fill-opacity="1" fill-rule="nonzero"/><g clip-path="url(#935020f64f)"><path fill="#776d6d" d="M 271.773438 153.089844 C 270.167969 153.089844 268.863281 154.398438 268.863281 156.011719 L 268.863281 160.285156 C 268.863281 161.902344 270.167969 163.210938 271.773438 163.210938 C 273.378906 163.210938 274.683594 161.902344 274.683594 160.285156 L 274.683594 156.011719 C 274.683594 154.398438 273.378906 153.089844 271.773438 153.089844 Z M 271.773438 153.089844 " fill-opacity="1" fill-rule="nonzero"/></g></svg>