<?xml version="1.0" encoding="us-ascii" standalone="no"?><svg xmlns="http://www.w3.org/2000/svg" xmlns:xlink="http://www.w3.org/1999/xlink" contentStyleType="text/css" height="956.25px" preserveAspectRatio="none" style="width:468px;height:956px;" version="1.1" viewBox="0 0 468 956" width="468.75px" zoomAndPan="magnify"><defs><linearGradient id="g1qrdh7ol3t8d0" x1="50%" x2="50%" y1="0%" y2="100%"><stop offset="0%" stop-color="#7C9AB9"/><stop offset="100%" stop-color="#304D6D"/></linearGradient></defs><g><!--cluster Not_Loaded--><g id="cluster_Not_Loaded"><path d="M117.3125,17.7083 L452.7292,17.7083 A4.1667,4.1667 0 0 1 456.8958,21.875 L456.8958,46.6715 L113.1458,46.6715 L113.1458,21.875 A4.1667,4.1667 0 0 1 117.3125,17.7083 " fill="url(#g1qrdh7ol3t8d0)" style="stroke:url(#g1qrdh7ol3t8d0);stroke-width:1.0416666666666667;"/><rect fill="none" height="927.6563" rx="4.1667" ry="4.1667" style="stroke:#304D6D;stroke-width:1.0416666666666667;" width="343.75" x="113.1458" y="17.7083"/><line style="stroke:#304D6D;stroke-width:1.0416666666666667;" x1="113.1458" x2="456.8958" y1="46.6715" y2="46.6715"/><text fill="#FFFFFF" font-family="Verdana" font-size="11.4583" lengthAdjust="spacing" textLength="68.75" x="250.6458" y="37.7192">Not_Loaded</text></g><ellipse cx="285.0208" cy="79.1667" fill="#304D6D" rx="10.4167" ry="10.4167" style="stroke:none;stroke-width:1.0416666666666667;"/><g id="Not_Loaded.Idle"><rect fill="url(#g1qrdh7ol3t8d0)" height="55.0049" rx="4.1667" ry="4.1667" style="stroke:#304D6D;stroke-width:1.0416666666666667;" width="52.0833" x="258.9792" y="153.125"/><line style="stroke:#304D6D;stroke-width:1.0416666666666667;" x1="258.9792" x2="311.0625" y1="187.2965" y2="187.2965"/><text fill="#FFFFFF" font-family="Verdana" font-size="11.4583" lengthAdjust="spacing" textLength="20.8333" x="274.6042" y="174.1776">Idle</text></g><g id="Not_Loaded.Loading"><rect fill="url(#g1qrdh7ol3t8d0)" height="55.0049" rx="4.1667" ry="4.1667" style="stroke:#304D6D;stroke-width:1.0416666666666667;" width="77.0833" x="246.4792" y="296.6771"/><line style="stroke:#304D6D;stroke-width:1.0416666666666667;" x1="246.4792" x2="323.5625" y1="330.8486" y2="330.8486"/><text fill="#FFFFFF" font-family="Verdana" font-size="11.4583" lengthAdjust="spacing" textLength="45.8333" x="262.1042" y="317.7296">Loading</text></g><path d="M142.6354,440.2188 L427.4167,440.2188 A4.1667,4.1667 0 0 1 431.5833,444.3854 L431.5833,474.3903 L138.4688,474.3903 L138.4688,444.3854 A4.1667,4.1667 0 0 1 142.6354,440.2188 " fill="url(#g1qrdh7ol3t8d0)" style="stroke:url(#g1qrdh7ol3t8d0);stroke-width:1.0416666666666667;"/><rect fill="none" height="407.5202" rx="4.1667" ry="4.1667" style="stroke:#304D6D;stroke-width:1.0416666666666667;" width="293.1146" x="138.4688" y="440.2188"/><line style="stroke:#304D6D;stroke-width:1.0416666666666667;" x1="138.4688" x2="431.5833" y1="474.3903" y2="474.3903"/><text fill="#FFFFFF" font-family="Verdana" font-size="11.4583" lengthAdjust="spacing" textLength="42.7083" x="263.6719" y="461.2713">Loaded</text><ellipse cx="330.5417" cy="496.2653" fill="#304D6D" rx="10.4167" ry="10.4167" style="stroke:none;stroke-width:1.0416666666666667;"/><g id="Not_Loaded.Loaded.Ready"><rect fill="url(#g1qrdh7ol3t8d0)" height="55.0049" rx="4.1667" ry="4.1667" style="stroke:#304D6D;stroke-width:1.0416666666666667;" width="66.6667" x="297.2083" y="545.2236"/><line style="stroke:#304D6D;stroke-width:1.0416666666666667;" x1="297.2083" x2="363.875" y1="579.3952" y2="579.3952"/><text fill="#FFFFFF" font-family="Verdana" font-size="11.4583" lengthAdjust="spacing" textLength="35.4167" x="312.8333" y="566.2762">Ready</text></g><g id="Not_Loaded.Loaded.Playing"><rect fill="url(#g1qrdh7ol3t8d0)" height="55.0049" rx="4.1667" ry="4.1667" style="stroke:#304D6D;stroke-width:1.0416666666666667;" width="72.9167" x="227.4167" y="663.7653"/><line style="stroke:#304D6D;stroke-width:1.0416666666666667;" x1="227.4167" x2="300.3333" y1="697.9368" y2="697.9368"/><text fill="#FFFFFF" font-family="Verdana" font-size="11.4583" lengthAdjust="spacing" textLength="41.6667" x="243.0417" y="684.8179">Playing</text></g><g id="Not_Loaded.Loaded.Paused"><rect fill="url(#g1qrdh7ol3t8d0)" height="55.0049" rx="4.1667" ry="4.1667" style="stroke:#304D6D;stroke-width:1.0416666666666667;" width="75" x="171.1667" y="782.3174"/><line style="stroke:#304D6D;stroke-width:1.0416666666666667;" x1="171.1667" x2="246.1667" y1="816.4889" y2="816.4889"/><text fill="#FFFFFF" font-family="Verdana" font-size="11.4583" lengthAdjust="spacing" textLength="43.75" x="186.7917" y="803.3699">Paused</text></g><g id="Not_Loaded.Loaded.Ended"><rect fill="url(#g1qrdh7ol3t8d0)" height="55.0049" rx="4.1667" ry="4.1667" style="stroke:#304D6D;stroke-width:1.0416666666666667;" width="67.7083" x="289.3958" y="782.3174"/><line style="stroke:#304D6D;stroke-width:1.0416666666666667;" x1="289.3958" x2="357.1042" y1="816.4889" y2="816.4889"/><text fill="#FFFFFF" font-family="Verdana" font-size="11.4583" lengthAdjust="spacing" textLength="36.4583" x="305.0208" y="803.3699">Ended</text></g><!--link *start*Loaded to Ready--><g id="link_*start*Loaded_Ready"><path d="M330.5417,507.0257 C330.5417,515.2132 330.5417,527.4007 330.5417,538.9945 " fill="none" id="*start*Loaded-to-Ready" style="stroke:#446E9B;stroke-width:3.125;"/><polygon fill="#446E9B" points="330.5417,543.9424,334.7083,534.5674,330.5417,538.734,326.375,534.5674,330.5417,543.9424" style="stroke:#446E9B;stroke-width:3.125;"/></g><!--link Ready to Playing--><g id="link_Ready_Playing"><path d="M315.2396,600.484 C305.3333,617.7965 292.3854,640.4215 281.9583,658.6195 " fill="none" id="Ready-to-Playing" style="stroke:#446E9B;stroke-width:3.125;"/><polygon fill="#446E9B" points="279.0938,662.5882,287.3756,656.5333,281.6874,658.0716,280.1491,652.3834,279.0938,662.5882" style="stroke:#446E9B;stroke-width:3.125;"/><text fill="#FFFFFF" font-family="Verdana" font-size="12.5" lengthAdjust="spacing" textLength="26.0417" x="309.7083" y="636.8264">play</text></g><!--link Playing to Paused--><g id="link_Playing_Paused"><path d="M227.0417,697.6715 C203.1458,703.2653 173.7604,714.609 158.6667,737.5257 C149.9271,750.7861 156.7917,765.1611 167.9167,777.5153 " fill="none" id="Playing-to-Paused" style="stroke:#446E9B;stroke-width:3.125;"/><polygon fill="#446E9B" points="171.1458,780.9215,167.6575,771.2736,167.5383,777.1649,161.6469,777.0457,171.1458,780.9215" style="stroke:#446E9B;stroke-width:3.125;"/><text fill="#FFFFFF" font-family="Verdana" font-size="12.5" lengthAdjust="spacing" textLength="40.625" x="164.9167" y="755.3785">pause</text></g><!--link Paused to Playing--><g id="link_Paused_Playing"><path d="M217.5104,781.859 C222.3125,768.2965 228.6979,751.7549 235.75,737.5257 C237.9271,733.1195 240.4167,728.5882 242.9896,724.182 " fill="none" id="Paused-to-Playing" style="stroke:#446E9B;stroke-width:3.125;"/><polygon fill="#446E9B" points="246.0417,720.1195,237.654,726.027,243.3686,724.5895,244.8061,730.304,246.0417,720.1195" style="stroke:#446E9B;stroke-width:3.125;"/><text fill="#FFFFFF" font-family="Verdana" font-size="12.5" lengthAdjust="spacing" textLength="26.0417" x="242" y="755.3785">play</text></g><!--link Playing to Ended--><g id="link_Playing_Ended"><path d="M276.4167,719.2132 C282.7813,732.6299 290.7396,749.0465 298.25,763.5674 C300.5,767.9111 302.9271,772.4632 305.3542,776.9424 " fill="none" id="Playing-to-Ended" style="stroke:#446E9B;stroke-width:3.125;"/><polygon fill="#446E9B" points="308.1979,781.0882,307.3526,770.8639,305.6976,776.5193,300.0423,774.8643,308.1979,781.0882" style="stroke:#446E9B;stroke-width:3.125;"/><text fill="#FFFFFF" font-family="Verdana" font-size="12.5" lengthAdjust="spacing" textLength="41.6667" x="304.5" y="755.3785">ended</text></g><!--link Ended to Ready--><g id="link_Ended_Ready"><path d="M343.8438,782.2757 C347.375,776.4111 350.5104,770.0153 352.4167,763.5674 C370.5938,701.859 358.4792,682.109 346.1667,618.9736 C345.375,614.9215 344.3021,610.734 343.0833,606.6299 " fill="none" id="Ended-to-Ready" style="stroke:#446E9B;stroke-width:3.125;"/><polygon fill="#446E9B" points="341.2188,601.7236,340.0554,611.9167,342.7807,606.6922,348.0052,609.4175,341.2188,601.7236" style="stroke:#446E9B;stroke-width:3.125;"/><text fill="#FFFFFF" font-family="Verdana" font-size="12.5" lengthAdjust="spacing" textLength="47.9167" x="368.0417" y="696.0972">seeked</text></g><ellipse cx="76.6875" cy="643.9792" fill="#304D6D" rx="10.4167" ry="10.4167" style="stroke:none;stroke-width:1.0416666666666667;"/><!--link *start* to Not_Loaded--><g id="link_*start*_Not_Loaded"><path d="M73.1458,654.1667 C59.875,690.1146 16.6667,823.625 73.5625,905.0313 C78.9922,912.7969 86.569,918.6387 94.9883,923.0319 C99.1979,925.2285 103.6182,927.063 108.0859,928.5947 C109.2029,928.9777 110.3228,929.3417 111.4431,929.6877 C112.0033,929.8607 112.5636,930.0292 113.1236,930.1933 " fill="none" id="*start*-to-Not_Loaded" style="stroke:#446E9B;stroke-width:3.125;"/><polygon fill="#446E9B" points="113.1236,930.1933,105.2988,923.5583,108.1255,928.7286,102.9552,931.5553,113.1236,930.1933" style="stroke:#446E9B;stroke-width:3.125;"/><text fill="#FFFFFF" font-family="Verdana" font-size="12.5" lengthAdjust="spacing" textLength="28.125" x="79.8125" y="896.8424">load</text></g><!--link *start*Not_Loaded to Idle--><g id="link_*start*Not_Loaded_Idle"><path d="M285.0208,90.1042 C285.0208,103.2708 285.0208,127.2083 285.0208,147.0104 " fill="none" id="*start*Not_Loaded-to-Idle" style="stroke:#446E9B;stroke-width:3.125;"/><polygon fill="#446E9B" points="285.0208,151.9583,289.1875,142.5833,285.0208,146.75,280.8542,142.5833,285.0208,151.9583" style="stroke:#446E9B;stroke-width:3.125;"/></g><!--link Idle to Loading--><g id="link_Idle_Loading"><path d="M285.0208,208.6146 C285.0208,231.8125 285.0208,265.3854 285.0208,290.1875 " fill="none" id="Idle-to-Loading" style="stroke:#446E9B;stroke-width:3.125;"/><polygon fill="#446E9B" points="285.0208,295.25,289.1875,285.875,285.0208,290.0417,280.8542,285.875,285.0208,295.25" style="stroke:#446E9B;stroke-width:3.125;"/><text fill="#FFFFFF" font-family="Verdana" font-size="12.5" lengthAdjust="spacing" textLength="59.375" x="291.2708" y="257.2382">loadstart</text></g><!--link Loading to Loaded--><g id="link_Loading_Loaded"><path d="M285.0208,352.0312 C285.0208,372.0313 285.0208,401.4167 285.0208,433.9271 " fill="none" id="Loading-to-Loaded" style="stroke:#446E9B;stroke-width:3.125;"/><polygon fill="#446E9B" points="285.0208,438.9896,289.1875,429.6146,285.0208,433.7813,280.8542,429.6146,285.0208,438.9896" style="stroke:#446E9B;stroke-width:3.125;"/><text fill="#FFFFFF" font-family="Verdana" font-size="12.5" lengthAdjust="spacing" textLength="108.3333" x="291.2708" y="400.7799">loadedmetadata</text></g><!--link Not_Loaded to Loaded--><g id="link_Not_Loaded_Loaded"><path d="M158.875,935.9063 C157.8646,932.2396 149.8958,902.1354 155.8542,878.9896 C158.0208,870.5938 160.5625,862.1771 163.4063,853.7813 " fill="none" id="Not_Loaded-to-Loaded" style="stroke:#446E9B;stroke-width:3.125;"/><polygon fill="#446E9B" points="165.4167,849.0208,158.397,856.5025,163.7027,853.9391,166.2662,859.2448,165.4167,849.0208" style="stroke:#446E9B;stroke-width:3.125;"/><text fill="#FFFFFF" font-family="Verdana" font-size="12.5" lengthAdjust="spacing" textLength="102.0833" x="162.1042" y="896.8424">canplaythrough</text></g><!--link Loaded to Not_Loaded--><g id="link_Loaded_Not_Loaded"><path d="M302.1875,848.1146 C296.7708,868.7604 287.9896,888.2604 274.6042,905.0313 C258.7917,924.8646 168.0833,935.2813 159.6146,936.2083 " fill="none" id="Loaded-to-Not_Loaded" style="stroke:#446E9B;stroke-width:3.125;"/><polygon fill="#446E9B" points="159.6146,936.2083,169.3873,939.3301,164.792,935.6416,168.4805,931.0462,159.6146,936.2083" style="stroke:#446E9B;stroke-width:3.125;"/><text fill="#FFFFFF" font-family="Verdana" font-size="12.5" lengthAdjust="spacing" textLength="53.125" x="295.4375" y="896.8424">emptied</text></g><!--SRC=[XL3D2i8m3BxdAU9Ls0juyEP1416l8XBNi0sxhQpPOOZlRjfQsK3mb7u_IRvq9JMtZDvHoPRk09Vr5OjYYyTUReUU31lSeDK7W1SIdWjFGCp-lR6iC9I8WwNfga-pjWwYScQpupkTJSj2XeJW1J3RiN2Mr3bBazH3FrPrJlGZpPd9J8fZZSn9-rAUC46bJ4IHHXyNkF08OYB-Dkww58n3LItXRm9LFFD39JrgTj3YSxbrqgZb3G00]--></g></svg>