<svg xmlns="http://www.w3.org/2000/svg" xmlns:xlink="http://www.w3.org/1999/xlink" zoomAndPan="magnify" viewBox="0 0 375 374.999991" preserveAspectRatio="xMidYMid meet" version="1.0"><path fill="#000000" d="M 20.761719 175.835938 C 23.101562 142.042969 35.445312 110.300781 56.632812 83.648438 C 70.304688 89.574219 84.886719 94.582031 100.101562 98.542969 C 93.105469 122.886719 89.121094 148.859375 88.238281 175.835938 Z M 175.835938 285.988281 L 175.835938 352.890625 C 156.652344 346.449219 138.808594 324.367188 126.03125 291.164062 C 141.585938 288.277344 158.296875 286.558594 175.835938 285.988281 Z M 134.25 345.96875 C 110.566406 337.988281 88.957031 324.757812 70.90625 307.140625 C 81.808594 302.820312 93.675781 299.011719 106.304688 295.808594 C 113.828125 315.898438 123.351562 332.953125 134.25 345.96875 Z M 108.359375 199.164062 L 175.835938 199.164062 L 175.835938 265.648438 C 156.546875 266.265625 137.675781 268.386719 119.609375 271.941406 C 113.121094 249.425781 109.265625 224.421875 108.359375 199.164062 Z M 175.835938 109.34375 L 175.835938 175.828125 L 108.359375 175.828125 C 109.273438 150.5625 113.121094 125.574219 119.609375 103.066406 C 137.761719 106.628906 156.636719 108.742188 175.835938 109.34375 Z M 70.90625 67.859375 C 88.972656 50.25 110.578125 37.019531 134.25 29.046875 C 123.359375 42.03125 113.84375 59.09375 106.304688 79.191406 C 93.691406 75.988281 81.808594 72.179688 70.90625 67.859375 Z M 126.03125 83.835938 C 138.800781 50.59375 156.667969 28.53125 175.835938 22.132812 L 175.835938 89.023438 C 158.28125 88.441406 141.570312 86.707031 126.03125 83.835938 Z M 100.09375 276.457031 C 84.90625 280.425781 70.3125 285.425781 56.625 291.351562 C 35.445312 264.726562 23.09375 232.980469 20.753906 199.164062 L 88.230469 199.164062 C 89.113281 226.125 93.097656 252.089844 100.09375 276.457031 Z M 354.238281 199.09375 C 351.886719 232.964844 339.554688 264.734375 318.367188 291.351562 C 304.664062 285.425781 290.070312 280.433594 274.898438 276.472656 C 281.878906 252.128906 285.863281 226.15625 286.761719 199.085938 L 354.238281 199.085938 Z M 199.164062 89.023438 L 199.164062 22.132812 C 218.347656 28.53125 236.191406 50.609375 248.96875 83.835938 C 233.429688 86.707031 216.71875 88.441406 199.164062 89.023438 Z M 268.703125 79.191406 C 261.171875 59.101562 251.648438 42.03125 240.742188 29.046875 C 264.414062 37.011719 286.035156 50.242188 304.085938 67.859375 C 293.175781 72.179688 281.308594 75.988281 268.703125 79.191406 Z M 266.625 175.835938 L 199.164062 175.835938 L 199.164062 109.351562 C 218.421875 108.734375 237.292969 106.613281 255.375 103.074219 C 261.863281 125.542969 265.734375 150.546875 266.625 175.835938 Z M 286.753906 175.835938 C 285.871094 148.875 281.886719 122.917969 274.890625 98.558594 C 290.09375 94.589844 304.671875 89.585938 318.375 83.65625 C 339.554688 110.296875 351.890625 142.027344 354.234375 175.84375 L 286.753906 175.84375 Z M 199.164062 265.65625 L 199.164062 199.09375 L 266.625 199.09375 C 265.726562 224.4375 261.863281 249.457031 255.382812 271.933594 C 237.300781 268.371094 218.421875 266.257812 199.164062 265.65625 Z M 304.09375 307.140625 C 286.042969 324.75 264.421875 337.980469 240.734375 345.96875 C 251.640625 332.953125 261.171875 315.90625 268.695312 295.808594 C 281.339844 299.023438 293.203125 302.820312 304.09375 307.140625 Z M 248.953125 291.164062 C 236.199219 324.375 218.347656 346.441406 199.164062 352.890625 L 199.164062 285.988281 C 216.644531 286.558594 233.347656 288.277344 248.953125 291.164062 Z M 187.492188 0 C 84.121094 0 0 84.121094 0 187.507812 C 0 290.878906 84.121094 375 187.492188 375 C 290.878906 375 375 290.878906 375 187.507812 C 375 84.121094 290.878906 0 187.492188 0 Z M 187.492188 0 " fill-opacity="1" fill-rule="evenodd"/></svg>