<?xml version="1.0" encoding="UTF-8"?>
<svg id="Layer_1" data-name="Layer 1" xmlns="http://www.w3.org/2000/svg" viewBox="0 0 64.06 64.33">
  <defs>
    <style>
      .cls-1 {
        fill: #24381b;
      }

      .cls-1, .cls-2 {
        stroke-width: 0px;
      }

      .cls-2 {
        fill: #dfd7c2;
      }
    </style>
  </defs>
  <path class="cls-2" d="m31.71,64.32C14.77,64.46-.44,49.93,0,31.33.41,14.47,14.29-.32,32.7,0c16.91.3,31.8,14.32,31.36,33.14-.39,16.76-14.49,31.55-32.34,31.18Zm10.67-23.19c.06-.7-.41-1.12-.84-1.55-2-2-3.94-4.07-6.02-5.97-1.14-1.04-1.32-1.68-.06-2.82,2.13-1.93,4.07-4.08,6.1-6.12.78-.79,1.31-1.64.34-2.56-.92-.87-1.72-.28-2.43.45-2.17,2.21-4.39,4.39-6.52,6.65-.72.77-1.16.7-1.84-.02-2.06-2.17-4.19-4.28-6.29-6.41-.76-.77-1.59-1.68-2.66-.63-1.14,1.12-.19,1.98.62,2.79,2.07,2.09,4.09,4.22,6.2,6.26.77.75.82,1.2.02,1.97-2.21,2.1-4.33,4.3-6.49,6.45-.79.78-1.3,1.65-.32,2.56.92.85,1.71.26,2.43-.47,2.11-2.12,4.28-4.19,6.33-6.38.88-.94,1.37-.86,2.21.03,2.13,2.26,4.37,4.41,6.57,6.6.51.51,1.09.78,1.8.48.56-.24.85-.68.87-1.3Z"/>
  <path class="cls-1" d="m42.47,41.27c-.02.62-.32,1.06-.87,1.3-.71.31-1.29.03-1.8-.48-2.2-2.2-4.44-4.35-6.57-6.6-.84-.89-1.33-.96-2.21-.03-2.04,2.19-4.22,4.25-6.33,6.38-.72.72-1.51,1.32-2.43.47-.98-.91-.47-1.78.32-2.56,2.16-2.15,4.28-4.35,6.49-6.45.81-.77.76-1.22-.02-1.97-2.11-2.04-4.13-4.17-6.2-6.26-.8-.81-1.75-1.67-.62-2.79,1.07-1.05,1.9-.14,2.66.63,2.1,2.13,4.23,4.24,6.29,6.41.69.73,1.12.79,1.84.02,2.13-2.26,4.35-4.43,6.52-6.65.72-.73,1.51-1.31,2.43-.45.97.92.44,1.78-.34,2.56-2.03,2.04-3.97,4.19-6.1,6.12-1.25,1.14-1.08,1.78.06,2.82,2.09,1.91,4.02,3.97,6.02,5.97.43.43.9.85.84,1.55Z"/>
</svg>