<?xml version="1.0" encoding="UTF-8"?>
<svg id="Layer_2" data-name="Layer 2" xmlns="http://www.w3.org/2000/svg" viewBox="0 0 200 200">
  <defs>
    <style>
      .cls-1 {
        fill: #585045;
      }

      .cls-1, .cls-2, .cls-3, .cls-4, .cls-5, .cls-6, .cls-7, .cls-8, .cls-9, .cls-10, .cls-11, .cls-12, .cls-13, .cls-14, .cls-15, .cls-16, .cls-17, .cls-18, .cls-19, .cls-20, .cls-21, .cls-22, .cls-23, .cls-24, .cls-25, .cls-26, .cls-27, .cls-28, .cls-29, .cls-30, .cls-31, .cls-32, .cls-33, .cls-34, .cls-35, .cls-36, .cls-37, .cls-38, .cls-39, .cls-40, .cls-41, .cls-42, .cls-43, .cls-44, .cls-45, .cls-46, .cls-47, .cls-48, .cls-49, .cls-50, .cls-51, .cls-52, .cls-53, .cls-54, .cls-55, .cls-56, .cls-57, .cls-58, .cls-59, .cls-60, .cls-61, .cls-62, .cls-63, .cls-64, .cls-65, .cls-66, .cls-67, .cls-68, .cls-69, .cls-70, .cls-71, .cls-72, .cls-73, .cls-74, .cls-75, .cls-76, .cls-77, .cls-78, .cls-79, .cls-80, .cls-81, .cls-82, .cls-83, .cls-84, .cls-85 {
        stroke-width: 0px;
      }

      .cls-2 {
        fill: #61594f;
      }

      .cls-3 {
        fill: #625a4f;
      }

      .cls-4 {
        fill: #665f55;
      }

      .cls-5 {
        fill: #3f382f;
      }

      .cls-6 {
        fill: #433c31;
      }

      .cls-7 {
        fill: #494136;
      }

      .cls-8 {
        fill: #5d554b;
      }

      .cls-9 {
        fill: #e9e1d4;
      }

      .cls-10 {
        fill: #473f33;
      }

      .cls-11 {
        fill: #4a4237;
      }

      .cls-12 {
        fill: #6d655b;
      }

      .cls-13 {
        fill: #585146;
      }

      .cls-14 {
        fill: #383024;
      }

      .cls-15 {
        fill: #6a6458;
      }

      .cls-16 {
        fill: #484136;
      }

      .cls-17 {
        fill: #494135;
      }

      .cls-18 {
        fill: #4a4138;
      }

      .cls-19 {
        fill: #787065;
      }

      .cls-20 {
        fill: #70695e;
      }

      .cls-21 {
        fill: #676055;
      }

      .cls-22 {
        fill: #3d372c;
      }

      .cls-23 {
        fill: #342c21;
      }

      .cls-24 {
        fill: #3f372c;
      }

      .cls-25 {
        fill: #eae2d5;
      }

      .cls-26 {
        fill: #4b453a;
      }

      .cls-27 {
        fill: #5b554a;
      }

      .cls-28 {
        fill: #383026;
      }

      .cls-29 {
        fill: #463f36;
      }

      .cls-30 {
        fill: #6a6257;
      }

      .cls-31 {
        fill: #463f35;
      }

      .cls-32 {
        fill: #3b3429;
      }

      .cls-33 {
        fill: #6c6359;
      }

      .cls-34 {
        fill: #645c51;
      }

      .cls-35 {
        fill: #595349;
      }

      .cls-36 {
        fill: #645d52;
      }

      .cls-37 {
        fill: #3c3429;
      }

      .cls-38 {
        fill: #5e574d;
      }

      .cls-39 {
        fill: #6b6359;
      }

      .cls-40 {
        fill: #4b4339;
      }

      .cls-41 {
        fill: #8a8379;
      }

      .cls-42 {
        fill: #453e32;
      }

      .cls-43 {
        fill: #686157;
      }

      .cls-44 {
        fill: #4c4439;
      }

      .cls-45 {
        fill: #423a2f;
      }

      .cls-46 {
        fill: #5a5248;
      }

      .cls-47 {
        fill: #494237;
      }

      .cls-48 {
        fill: #40382d;
      }

      .cls-49 {
        fill: #393127;
      }

      .cls-50 {
        fill: #443d34;
      }

      .cls-51 {
        fill: #665e53;
      }

      .cls-52 {
        fill: #746d64;
      }

      .cls-53 {
        fill: #4d463b;
      }

      .cls-54 {
        fill: #4a4337;
      }

      .cls-55 {
        fill: #3e372c;
      }

      .cls-56 {
        fill: #e7e0d5;
      }

      .cls-57 {
        fill: #4d453a;
      }

      .cls-58 {
        fill: #574f43;
      }

      .cls-59 {
        fill: #4a4238;
      }

      .cls-60 {
        fill: #473f35;
      }

      .cls-61 {
        fill: #60584c;
      }

      .cls-62 {
        fill: #413b31;
      }

      .cls-63 {
        fill: #433b31;
      }

      .cls-64 {
        fill: #474037;
      }

      .cls-65 {
        fill: #686156;
      }

      .cls-66 {
        fill: #6b6358;
      }

      .cls-67 {
        fill: #494134;
      }

      .cls-68 {
        fill: #494038;
      }

      .cls-69 {
        fill: #635c50;
      }

      .cls-70 {
        fill: #2e2a29;
      }

      .cls-71 {
        fill: #4b4539;
      }

      .cls-72 {
        fill: #565045;
      }

      .cls-73 {
        fill: #4c463c;
      }

      .cls-74 {
        fill: #a59d94;
      }

      .cls-75 {
        fill: #665f53;
      }

      .cls-76 {
        fill: #60584d;
      }

      .cls-77 {
        fill: #5e584e;
      }

      .cls-78 {
        fill: #5f584d;
      }

      .cls-79 {
        fill: #443c32;
      }

      .cls-80 {
        fill: #6d655a;
      }

      .cls-81 {
        fill: #5e574b;
      }

      .cls-82 {
        fill: #635b51;
      }

      .cls-83 {
        fill: #665e52;
      }

      .cls-84 {
        fill: #655d54;
      }

      .cls-85 {
        fill: #4f483d;
      }
    </style>
  </defs>
  <g id="Layer_1-2" data-name="Layer 1">
    <g>
      <path class="cls-25" d="M6.15.21c62.97,0,125.93.07,188.9-.14,4.56-.02,4.99,1.35,4.95,5.25-.2,19.6-.09,39.19-.09,58.79-1.68,4.16-6.18,4.59-9.2,6.98-.56.44-1.15.83-1.77,1.16-6.23,2.94-12.22,6.36-18.61,8.95-2.69.91-5.03,2.62-7.79,3.38-3.57,1.74-7.3,3.1-11.01,4.5-1.47.53-2.92,1.16-4.48,1.4-.63.09-1.22.37-1.84.52-.6.18-1.21.3-1.83.4-.83.08-1.62.35-2.4.65-.41.17-.83.3-1.26.4-.68.17-1.34.41-2.05.46-.25,0-.49-.02-.74-.02-.49-.08-.95-.25-1.39-.48-3.64-5.36-10.19-3.84-15.06-6.29-.54-.27-1.19.37-1.73.79-3.19,2.48-3.86,2.25-4.3-1.75-.38-3.47-.13-6.98-.16-10.47-.03-2.87-.21-5.68-2.57-8.29.08,8.87.05,17.48.02,26.08,0,2.18.73,4.83-2.2,6.04-3.1-.19-3.14-2.69-3.19-4.73-.28-11.6-.27-23.2-.02-34.8.09-4.24,2.8-6.42,6.34-8.08,2.4-1.12,6.25-1.6,5.52-5.29-.76-3.84-4.57-2.5-7.14-2.55-7.79-.17-15.59-.16-23.38,0-2.24.05-5.15-.39-5.82,2.56-.69,3.01,2.21,3.69,4.2,4.71,7.71,3.93,9.4,7.85,6.36,14.99-3.56,1-4.74,3.3-4.57,6.99.3,6.6-.02,13.21.17,19.82.05,1.79.43,3.66-.93,5.21-.86.72-1.87.94-2.95.89-.99-.03-1.88-.43-2.82-.69-.66-.11-1.32-.25-1.95-.49-.79-.29-1.53-.68-2.23-1.14-.33-.2-.65-.42-.96-.64-.92-.57-1.88-.15-2.83-.06-5.94-.46-10.7-3.68-15.58-6.61-1.03-.53-2.02-1.12-3-1.72-2.94-2.3-5.96-4.49-8.63-7.11-.36-.21-.7-.45-1.04-.69-.49-.36-.94-.77-1.38-1.19-.45-.39-.87-.82-1.29-1.25-.44-.41-.86-.85-1.26-1.3-.43-.45-.83-.94-1.19-1.45-1.28-2.04-3.24-3.49-4.64-5.43-.89-1.57-2.17-2.98-1.98-4.98.13-.9.44-1.75.78-2.59.35-.81.71-1.61,1.01-2.44,1.38-3.43.06-6.35-1.76-9.16-1.07-1.57-2.32-2.94-3.97-3.92-.72-.44-1.42-.91-2.13-1.37-2.17-1.46-4.56-2.48-6.93-3.54-.86-.39-1.55-.97-2.01-1.8-.21-.4-.36-.83-.46-1.27-.29-1.44.1-3.01-.78-4.35-.54-.9-1.22-1.68-1.9-2.46-1.23-1.51-1.98-3.24-2.37-5.13-.11-.59-.24-1.17-.44-1.74-.14-.37-.24-.74-.34-1.12-.13-.37-.22-.76-.3-1.15-.16-.59-.25-1.19-.25-1.8.02-.41.1-.81.22-1.2.63-1.14.1-1.77-.96-2.17-.37-.21-.69-.47-.98-.77-.53-.67-.8-1.45-.98-2.27-.1-.59-.32-1.15-.43-1.73-.1-.37-.15-.75-.18-1.12-.06-.36-.08-.73-.11-1.09-.1-.73-.4-1.39-.78-2.02-.43-.68-.8-1.39-1.11-2.13-.39-1.24-.87-2.47-.72-3.81.15-.43.38-.79.71-1.11Z"/>
      <path class="cls-25" d="M174.94,199.9c-57.01,0-114.02-.03-171.04.08-3.1,0-3.83-.68-3.83-3.81.11-54,.08-108,.08-162.01.53-.51,1.14-.87,1.89-.95,1.44-.04,2.74.58,4.12.83,1.62.77,3.46.81,5.09,1.55.63.17,1.27.31,1.87.57.79.33,1.57.7,2.36,1.04.8.37,1.61.69,2.37,1.15.78.83,1.68,1.53,2.48,2.34,2.88,4.76,4.82,10.02,7.81,14.72,1.48,2.66,3.52,4.98,4.8,7.76.85,3.09-1.56,4.9-2.82,7.16-2.12,2.74-5.01,4.79-6.9,7.75-.38.57-.81,1.1-1.26,1.61-.44.51-.89,1.01-1.37,1.47-1.8,1.63-3.51,3.34-4.71,5.49-2.57,2.84-4.56,6.06-6.17,9.52-.12.42-.28.82-.43,1.23-.35.77-.7,1.54-.65,2.43-.03,1.69-.05,3.38.03,5.07.07.62.32,1.18.53,1.76.32.98.77,1.9,1.28,2.79.47.96,1.25,1.68,1.97,2.44.44.43.85.89,1.26,1.34.43.41.84.85,1.26,1.27.45.4.87.82,1.3,1.24.86.87,1.74,1.7,2.73,2.41,1.37,1,2.7,2.04,4.25,2.75,3.78,1.96,7.54,3.96,11.46,5.62,1.35.29,2.54,1,3.85,1.41,3.08,1.43,6.42,2.16,9.56,3.43,1.02.33,2.06.63,3.02,1.13.39.12.77.28,1.15.44.57.2,1.1.51,1.7.62.81.13,1.61.31,2.4.52,1,.37,2.04.54,3.08.75,1.26.41,2.54.79,3.67,1.52.35.26.65.57.92.9.58,1.01,1.45,1.18,2.5.86.41-.1.82-.14,1.23-.15.42,0,.83.05,1.23.13.79.18,1.55.47,2.35.58.59.1,1.16.25,1.74.42.75.23,1.49.48,2.28.56.59.09,1.16.24,1.73.41.76.22,1.49.5,2.28.6.6.1,1.18.25,1.76.42.79.26,1.58.49,2.41.56.66.08,1.31.23,1.95.41.9.35,1.84.5,2.78.67,1.69.55,2.71,1.53,2.22,3.47-1.25,2.48-3.84,3.01-6.04,4.09-1.74.85-3.29,1.9-2.89,4.1.36,1.94,2.02,2.57,3.77,2.63,9.79.37,19.58.31,29.38.04,1.59-.04,2.83-.84,3.97-1.86,4.23-4.07,8.17-.58,12.2.47,1.76.82,3.58,1.47,5.39,2.17,2.6,1.09,5.14,2.32,7.87,3.1,4.61,2.34,9.25,4.61,13.86,6.94,1.87,1.29,3.69,2.65,5.63,3.84,1.19.71,2.19,1.67,3.33,2.45,4.87,3.64,9.1,7.79,11.04,13.78.22.73.29,1.48.33,2.23.04,1.29.05,2.57.01,3.86.05,2.65-1.03,4.64-3.43,5.87Z"/>
      <path class="cls-25" d="M199.91,66.11c0,43.43-.04,86.86.08,130.29,0,2.98-.58,3.71-3.58,3.58-6.48-.29-12.98-.09-19.47-.09-1.34-1.73.92-3.04.54-4.65.61-2.02.63-4.06.14-6.12-.18-.66-.25-1.35-.55-1.97-2.07-5.29-5.98-9.05-10.36-12.42-1.36-.76-2.34-2.11-3.9-2.55-1.69-1.45-3.58-2.61-5.44-3.82-4.16-2-8.21-4.21-12.42-6.09-2.87-.96-5.52-2.48-8.36-3.51-1.86-.61-3.58-1.57-5.44-2.18-4.1-1.83-8.63-2.41-12.68-4.39-.64-.54-1.3-1.08-2.11-1.31-8.31-2.37-10.8-8.07-10.37-16.31.51-9.79.01-19.62.19-29.43.04-2.53-.39-5.52,3.06-6.57,3.9-1.39,8.01-1.81,12.05-2.53.73-.27,1.5-.38,2.26-.44,2.31-.67,4.75-.81,7.04-1.59,1.34-.33,2.68-.69,4.01-1.07,1.09-.13,2.22.27,3.27-.3.96-.51,2.08-.56,3.04-1.1.59-.29,1.22-.42,1.88-.49,1.09-.19,2.14-.52,3.18-.92,1.99-.5,3.92-1.17,5.82-1.93,3.77-1.32,7.38-3.03,11.09-4.49,2.69-.88,4.99-2.63,7.71-3.44,6.48-2.7,12.62-6.12,18.9-9.23.52-.47,1.01-.97,1.6-1.35,3.06-.91,5.42-3.54,8.83-3.59Z"/>
      <path class="cls-9" d="M.15,33.16C.15,23.8.46,14.42.02,5.08-.19.7,1.15-.56,5.15.21c.34.31.51.7.51,1.16.32,1.27,1.15,2.4,1.07,3.79.56,1.67,1.57,3.17,1.78,4.96.13.65.26,1.3.53,1.92.63,1.2.38,2.65,1.08,3.83,1.69,2.01,1.11,4.78,2.34,6.94.17.41.35.82.54,1.22.72,2.29,1.25,4.67,2.73,6.66.49.74.96,1.5,1.32,2.32.27.64.42,1.3.5,1.99.14,1.23.06,2.34-1.38,2.78-1.2.08-2.19-.47-3.17-1.04-.66-.1-1.34-.05-1.98-.31-1.53-1.02-3.44-.91-5.05-1.71-1.44.16-2.54-.93-3.91-1.04-.67-.03-1.39.11-1.91-.5Z"/>
      <path class="cls-21" d="M199.91,66.11c-2.81,1.35-5.61,2.69-8.42,4.04-.54.35-1.07.33-1.58-.05,3.33-1.99,6.67-3.99,10-5.98v2Z"/>
      <path class="cls-77" d="M178.09,195.05c-.39,1.61-.77,3.23-1.16,4.84h-2c.7-1.98,1.39-3.95,2.09-5.93.95-.22,1.43.02,1.07,1.09Z"/>
      <path class="cls-64" d="M.15,33.16c.66.05,1.33.09,1.99.14.35.18.46.35.35.53-.11.18-.23.27-.34.27-.67.02-1.33.03-2,.05v-1Z"/>
      <path class="cls-17" d="M5.3,1.21c-.05-.33-.1-.66-.16-.99h1c0,.33-.02.67-.03,1-.27.5-.55.47-.82,0Z"/>
      <path class="cls-70" d="M110,98.94c-2.42.19-2.21,1.96-2.21,3.63,0,12.61.05,25.23-.04,37.84-.03,3.77,1.82,5.61,5.16,6.91,2.61,1.01,6.14.83,7.29,4.38.6,1.5.51,2.99-.04,4.48-.77,2.79-3.1,2.62-5.21,2.62-9.93.04-19.85.01-29.78.03-2.65,0-5.08-.34-5.63-3.54-.54-3.13.35-5.5,3.67-6.6,2.34-.77,4.6-1.79,6.9-2.69.85-1.55.35-3.14.14-4.73-.26-11.47-.07-22.94-.11-34.41,0-2.74-.3-5.3-2.25-7.41-.23-.58-.22-1.16.03-1.73,1.71-1.97,2.2-4.29,2.19-6.86-.02-6.25-.05-12.51.02-18.76.03-2.46-.08-4.98,1.8-6.98.71-10.88.18-10.99-8.57-13.77-3.36-1.07-4.34-3.35-3.87-6.51.47-3.2,2.79-3.65,5.53-3.64,10.14.06,20.27.05,30.41,0,2.61-.01,4.64.63,5.1,3.53.46,2.9-.1,5.77-3.29,6.32-8.82,1.52-10.03,7.19-9.59,14.86.54,9.44.08,18.93.18,28.4.02,1.44-1.2,4.12,2.25,3.58.09.18.19.37.28.55-.12.17-.25.33-.37.5Z"/>
      <path class="cls-25" d="M110.09,97.89c-.34-11.21.47-22.44-.54-33.64-.1-1.06-.27-2.12.88-2.5,1.42-.47,1.27,1.08,1.87,1.71,4.78,5.04,3.64,11.31,3.71,17.33.03,2.31,0,4.62.23,7.3,1.32-4.16,3.54-5.05,6.98-2.63.74.52,1.88.53,2.86.65,4.46.55,8.93,1.03,10.99,5.98.25,1.61-.95,1.35-1.87,1.46-.72.02-1.45.18-2.17.06-3.47-1.35-6.89-2.87-11.01-3.6,1.69,2.18,5.13,1.86,5.23,5.01-.95.74-2.01,1.25-3.18,1.52-.71.03-1.42,0-2.13.14-1.73.77-3.53,1.03-5.4.85-1.08-.68-2.17-1.36-2.57.67-1.34.51-2.67.54-3.99,0l.13-.31Z"/>
      <path class="cls-25" d="M91.93,65.11c.06,10.03-.04,20.07.28,30.1.12,3.77-2.28,2.66-4.15,2.93-1.18.65-1.98.46-2.2-1,.06-7.52.13-15.04.18-22.57.01-1.66,0-3.32,0-4.98.03-5.94.07-5.97,5.88-4.48Z"/>
      <path class="cls-51" d="M189.92,71.1c-6.03,3.85-12.52,6.8-19.04,9.72-.47-.07-.8-.34-1-.76,6.16-3,12.31-6,18.47-9,.53-.34,1.06-.32,1.57.05Z"/>
      <path class="cls-34" d="M58.05,87.34c5.12,2.59,9.98,5.75,15.74,6.86,1.01.5,2.44-.36,3.21.97l-.06-.03c.4.34.61.76.6,1.28-.11.53-.41.89-.91,1.1-7.33-.78-14.05-2.89-19.02-8.79-.05-.53.09-.99.44-1.39Z"/>
      <path class="cls-39" d="M163.07,84.14c-3.5,2.11-7.35,3.37-11.18,4.69-.47-.11-.81-.38-1.02-.81,3.72-1.56,7.43-3.11,11.15-4.67.48.1.83.35,1.04.79Z"/>
      <path class="cls-38" d="M28.78,69.79c.72-2.33,3.86-3.53,3.05-6.57.19-.37.49-.63.88-.78.4-.07.8-.05,1.2.07.38.21.54.53.44.96-.22,1.88,1.67,2.77,2.03,4.37-.12.19-.25.37-.37.56-2.22.28-4.11,1.52-6.23,2.11-.49-.03-.83-.27-1.01-.72Z"/>
      <path class="cls-36" d="M46.04,78.27c3.1,2.48,6.21,4.96,9.31,7.45-.12.49-.43.8-.9.97-4.37-.63-7.3-3.07-8.93-7.13.01-.49.2-.92.53-1.28Z"/>
      <path class="cls-75" d="M34.13,48.1c2.81,3.35,4.12,6.98,2.09,11.23-.76-.14-1.27-.59-1.61-1.26-.23-2.98-1.63-5.8-1.32-8.87.17-.45.45-.81.84-1.1Z"/>
      <path class="cls-78" d="M163.07,84.14c-.35-.26-.69-.53-1.04-.79,2.62-1.1,5.24-2.19,7.86-3.29.33.25.67.51,1,.76-2.61,1.11-5.21,2.21-7.82,3.32Z"/>
      <path class="cls-80" d="M12.11,23.21c-1.57-2.13-1.93-4.71-2.67-7.15.08-.46.33-.8.77-.98.23.08.46.14.7.19,1.55.92,1.85,2.27,1.34,3.89.06.36.12.71.19,1.07.2.41.4.82.61,1.23-.04.29-.11.57-.2.84-.06.45-.31.75-.73.91Z"/>
      <path class="cls-18" d="M85.86,97.14c.73.33,1.47.66,2.2,1,.02.25.03.5.01.75-3.18,2.42-6,.9-8.81-.8-.36-.42-.56-.91-.59-1.46.1-.25.19-.5.29-.75.6.1,1.19.2,1.79.3.72.34,1.54.36,2.27.67.95.1,1.9.2,2.84.31Z"/>
      <path class="cls-43" d="M15.12,31.19c-1.62-2.08-2.12-4.61-2.85-7.05.23-.33.54-.48.94-.43.37.11.66.33.87.65.27,2.12.96,4.08,2.18,5.85-.07.17-.13.34-.19.51-.26.26-.58.43-.95.47Z"/>
      <path class="cls-65" d="M21.07,39.38c2.53.93,5.04,1.91,7.09,3.75-.27.37-.63.64-1.06.81-1.93.4-3.51-.5-5.09-1.39-.38-.23-.72-.51-1.03-.83-.26-.36-.41-.77-.46-1.21.05-.44.23-.82.54-1.14Z"/>
      <path class="cls-9" d="M12.26,19.16c-1.07-1.08-1.05-2.54-1.34-3.89,1.12.02,2.49-.32,2.93,1.14.4,1.32-.56,2.12-1.59,2.76Z"/>
      <path class="cls-81" d="M36.39,67.84c1.82,1.81,3.82,3.48,4.87,5.93-.15.19-.31.38-.46.57-3.28-.61-5.35-2.25-5.05-5.91.22-.19.43-.39.65-.59Z"/>
      <path class="cls-52" d="M16.05,37.34c1.43-.57.3-1.54.37-2.32.11-.44.33-.82.65-1.14.44-.11.87-.06,1.27.15.64.91-.17,2.22.83,3.04,0,.36,0,.72-.01,1.08-.41.82-1.35.49-1.95.9-.87.12-1.53-.25-2.09-.87.19-.42.5-.71.94-.84Z"/>
      <path class="cls-12" d="M8,10.22c-1.36-1.41-1.33-3.31-1.74-5.05.34-.51.67-.5,1.01,0,.37.67.74,1.35,1.11,2.02.44.6.79,1.22.77,1.99l-.19,1.06c-.34.46-.66.45-.96-.04Z"/>
      <path class="cls-69" d="M34.13,48.1c-.07.48-.13.96-.2,1.44-2.56-.11-3.79-1.68-4.39-3.95.02-.49.21-.91.56-1.26,1.65.93,3.09,2.09,4.03,3.77Z"/>
      <path class="cls-1" d="M150.87,88.02c.34.27.68.54,1.02.81-1.98.67-3.96,1.35-5.94,2.02-.33-.21-.48-.5-.44-.89.12-.35.34-.63.65-.83,1.57-.37,3.14-.74,4.71-1.11Z"/>
      <path class="cls-25" d="M77,95.17c-1.12-.15-2.32-.03-3.21-.97,1.58-1.37,3.06-2.4,3.21.97Z"/>
      <path class="cls-5" d="M17.19,39.05c.4-.85,1.14-.94,1.95-.9.64.41,1.28.82,1.92,1.23-.04.22-.01.44.07.65-.37.44-.45,1.08-.93,1.45-.41.11-.74-.02-.98-.37l-2.03-2.07Z"/>
      <path class="cls-44" d="M10.22,15.08c-.26.33-.52.65-.77.98-.35-1.29-.7-2.59-1.06-3.88.21-.34.52-.47.92-.42.34.17.59.42.72.78.06.85.12,1.69.19,2.54Z"/>
      <path class="cls-57" d="M7.27,5.18c-.34,0-.67,0-1.01,0-.32-1.32-.64-2.64-.96-3.97.27,0,.54,0,.82,0,.92,1.17,1.17,2.53,1.15,3.97Z"/>
      <path class="cls-25" d="M19.16,37.06c-.91-.63-.96-1.64-1.15-2.58-.51-.8-.5-1.57.12-2.32,1.53,1.38.81,3.24,1.03,4.9Z"/>
      <path class="cls-9" d="M18.13,32.16c-.04.77-.08,1.54-.12,2.32-.29-.09-.57-.22-.83-.38-.35-.25-.57-.59-.67-1.01-.68-.86-1.04-1.8-.74-2.91.16.14.32.16.5.03.62.65,1.25,1.3,1.87,1.95Z"/>
      <path class="cls-58" d="M58.05,87.34c-.03.43-.07.86-.1,1.29-1.87.39-2.92-.38-3.19-2.26.23-.19.43-.4.59-.65.9.54,1.8,1.08,2.7,1.62Z"/>
      <path class="cls-40" d="M145.95,90c-.03.29-.03.57,0,.86-1,.33-1.99.65-2.99.98-.33-.24-.48-.56-.47-.96.16-.37.44-.6.83-.68.56-.14,1.12-.27,1.69-.41.36-.13.67-.06.94.21Z"/>
      <path class="cls-42" d="M140.97,92.05c-.68,1.28-1.85,1.09-2.99,1-.29-.2-.37-.38-.26-.53.11-.15.22-.22.33-.22l-.1-.35c.71-.42,1.59-.37,2.3-.78.3.11.56.04.77-.2.11.19.22.37.33.56-.13.17-.26.35-.39.52Z"/>
      <path class="cls-13" d="M30.09,44.33c-.03.42-.07.84-.1,1.27-1.96.5-3.02-.35-3.36-2.26.51-.07,1.02-.14,1.52-.21.65.4,1.29.8,1.94,1.2Z"/>
      <path class="cls-71" d="M138.05,92.29c-.02.25-.04.5-.08.75-.75,1.07-1.84,1.12-2.99,1-.35-.19-.46-.38-.35-.56.11-.19.23-.28.35-.28.69-.37,1.38-.74,2.07-1.11.33.06.66.13.99.19Z"/>
      <path class="cls-36" d="M35.37,58.13c.28.4.57.8.85,1.2-.21.62-.43,1.24-.64,1.86-.42.45-.9.51-1.42.19-.78-1.52-.22-2.54,1.21-3.24Z"/>
      <path class="cls-9" d="M9.15,9.2c-.26-.66-.52-1.33-.77-1.99,1.2.3,2.11.71.77,1.99Z"/>
      <path class="cls-48" d="M9.09,12.21l-.35-.04s-.35,0-.35,0c-.13-.65-.26-1.31-.39-1.96.32.08.64.09.96.04.14.32.28.64.42.96.19.41.07.74-.29.99Z"/>
      <path class="cls-16" d="M34.41,61.17c.39,0,.78,0,1.17.01-.41.76-.82,1.52-1.23,2.29-.12-.27-.32-.47-.59-.61-.23-.73-.16-1.35.64-1.69Z"/>
      <path class="cls-25" d="M83.02,96.84c-.86.13-1.64,0-2.27-.67.76.22,1.51.45,2.27.67Z"/>
      <path class="cls-25" d="M77.08,95.95c0-.28-.05-.55-.14-.82.67.24,1.35.49,2.02.73l.15.37c-.75.42-1.44.41-2.03-.29Z"/>
      <path class="cls-25" d="M140.25,91.17c-.59.8-1.41.88-2.3.78.62-.7,1.43-.83,2.3-.78Z"/>
      <path class="cls-25" d="M143.33,90.19c-.13.3-.24.6-.34.91-.62.59-1.35.47-2.09.31l.13-.44c.6-.76,1.42-.84,2.3-.77Z"/>
      <path class="cls-47" d="M13.24,24.15h-.48s-.48-.01-.48-.01c-.16-.29-.21-.6-.16-.93.24-.3.49-.61.73-.91.17.3.34.6.51.9.2.35.14.66-.12.95Z"/>
      <path class="cls-7" d="M189.92,71.1c-.52-.02-1.05-.03-1.57-.05.52-.32,1.03-.64,1.55-.96.53.02,1.05.03,1.58.05-.52.32-1.04.64-1.56.96Z"/>
      <path class="cls-9" d="M13.24,24.15c.01-.32.06-.64.12-.95.24.39.48.77.72,1.16-.27-.09-.55-.16-.84-.21Z"/>
      <path class="cls-9" d="M13.05,21.46c-.2-.41-.4-.82-.61-1.23.2.41.4.82.61,1.23Z"/>
      <path class="cls-9" d="M9.09,12.21c.1-.33.19-.66.29-.99.22.44.44.88.66,1.32-.32-.11-.63-.22-.95-.33Z"/>
      <path class="cls-22" d="M46.04,78.27c0,.42,0,.83,0,1.25-.68-.07-1.07-.44-1.16-1.12.13-.15.26-.3.39-.46.36-.12.62-.02.78.33Z"/>
      <path class="cls-55" d="M44.14,77.05c.7-.11,1.05.21,1.12.89,0,0-.21.19-.21.19-.47.1-.84-.03-1.1-.44.06-.21.12-.43.18-.64Z"/>
      <path class="cls-55" d="M43.18,76.02c.7-.01,1.06.3.96,1.03,0,0-.08.08-.08.08-.48.1-.85-.06-1.11-.48.08-.21.15-.43.23-.64Z"/>
      <path class="cls-55" d="M42.13,75.08c.73-.11,1.07.22,1.05.94,0,0-.13.13-.13.13-.46.11-.82-.05-1.08-.44.05-.21.11-.42.16-.63Z"/>
      <path class="cls-14" d="M41.26,73.77c.56.26,1.02.58.87,1.31,0,0-.04.04-.04.04-.83.25-1.15-.17-1.22-.92.28,0,.42-.15.39-.43Z"/>
      <path class="cls-25" d="M145.95,90c-.31-.09-.62-.16-.94-.21.38-.22.77-.44,1.15-.66-.13.27-.21.56-.22.87Z"/>
      <path class="cls-30" d="M166.9,174.14c4.71,3.36,8.78,7.24,10.72,12.9-.06.46-.31.77-.73.95-2.54-5.27-6.48-9.37-10.9-13.07.16-.43.46-.7.92-.78Z"/>
      <path class="cls-4" d="M19.23,41.12c.29.03.58.04.88.03.35-.39.7-.37,1.04.02l-.06-.07c3.7,3.87,5.91,8.55,7.48,13.59-.17.79-.66,1.27-1.45,1.45-3.19-4.71-5.84-9.71-7.89-15.03Z"/>
      <path class="cls-76" d="M145.1,161.9c4.59,1.46,8.71,3.87,12.83,6.28.41.49.38.94-.09,1.37-4.78-2.47-9.57-4.93-14.35-7.4.46-.6,1-.68,1.61-.25Z"/>
      <path class="cls-83" d="M34.18,127.73c-4.18-1.58-8.18-3.54-11.99-5.88-.15-.93.44-1.25,1.19-1.46,4.48.94,8.57,2.69,11.96,5.87.15.91-.39,1.29-1.16,1.47Z"/>
      <path class="cls-30" d="M8.45,96.17c1.21-3.91,3.41-7.23,6.12-10.24.43-.27.88-.34,1.36-.2.33,5.04-3.56,7.89-5.96,11.51-.88.17-1.35-.25-1.53-1.08Z"/>
      <path class="cls-27" d="M120.15,156.18c.01-1.49.03-2.99.04-4.48,3.9,1.51,7.81,3.02,11.71,4.53.07.79.02,1.42-1.02.8-2.34-.74-4.81-1.23-6.99-2.3-2.08-1.02-2.95-.2-3.74,1.45Z"/>
      <path class="cls-84" d="M48.14,132.85c-3.51-.93-6.97-1.97-10.15-3.78.18-.79.66-1.3,1.43-1.55,3.43.42,6.82.94,9.11,3.97.07.51-.07.96-.39,1.35Z"/>
      <path class="cls-3" d="M21.97,77.76c1.68-3.16,4.41-5.43,6.81-7.97.23.2.46.41.68.63.25,4.51-3.07,6.21-6.31,7.97-.53.04-.91-.18-1.18-.63Z"/>
      <path class="cls-2" d="M27.11,56.14c.25-.33.5-.67.75-1,3.78,1.18,4.66,4.51,5.73,7.71-.59.12-1.18.25-1.77.37-2.01-2.07-3.46-4.51-4.72-7.08Z"/>
      <path class="cls-39" d="M145.1,161.9c-.54.08-1.08.17-1.61.25-2.73-.59-5.22-1.76-7.64-3.12.24-.45.61-.72,1.1-.83,2.8,1.05,5.66,1.96,8.15,3.7Z"/>
      <path class="cls-27" d="M7.24,105.74c-.02-2.19-.03-4.38-.05-6.57.36-.59.61-1.27,1.35-1.51.48.06.87.28,1.13.7.44,2.54.61,5.07-.13,7.59-.34.37-.75.56-1.25.58-.51-.05-.87-.3-1.06-.78Z"/>
      <path class="cls-82" d="M15.97,86.06c-.46-.04-.93-.09-1.39-.13,1.45-2.21,3-4.34,5.2-5.89.44-.33.91-.38,1.41-.16.28,3.76-2,5.36-5.21,6.18Z"/>
      <path class="cls-41" d="M178.09,195.05c-.36-.36-.71-.73-1.07-1.09,0-1.38,0-2.76.01-4.13.33-.33.36-.96.99-1,1.31,2.06,1.34,4.13.07,6.22Z"/>
      <path class="cls-25" d="M67.17,138.95c-2.05,2-3.68,2.61-4-1.19,1.73-.93,3.3-1.34,4,1.19Z"/>
      <path class="cls-35" d="M92.01,142.94c-.4,1.17-.63,2.44-1.91,3.06.31-2.63-1.76-1.72-3.02-2.03-.59-.41-1.27-.72-1.44-1.53.15-.49.46-.85.92-1.08,2.14-.57,3.92.08,5.46,1.58Z"/>
      <path class="cls-33" d="M157.84,169.56c.03-.46.06-.92.09-1.37,1.71,1.08,3.42,2.16,5.13,3.24.5.49.47.94-.08,1.37-1.71-1.08-3.43-2.15-5.14-3.23Z"/>
      <path class="cls-61" d="M67.17,138.95c-1.11-1.16-2.64-.88-4-1.19-.02-.23-.06-.47-.11-.7-.39-.45-.38-.89,0-1.34,2.23-1,3.98-.37,5.34,1.58.14.53.04,1-.29,1.43-.31.1-.62.17-.94.22Z"/>
      <path class="cls-66" d="M136.95,158.2c-.37.28-.74.56-1.1.83-1.81-.27-3.48-.91-4.96-2,.34-.27.68-.53,1.02-.8,1.68.66,3.36,1.31,5.05,1.97Z"/>
      <path class="cls-15" d="M6.12,34.28c1.79.29,3.62.46,5.04,1.78.37.2.49.4.38.61-.11.22-.23.32-.35.32-1.74-.44-3.61-.49-5.06-1.75-.37-.21-.5-.42-.38-.64.12-.22.24-.33.37-.33Z"/>
      <path class="cls-11" d="M81.16,142.21c-.63-.1-1.25-.2-1.88-.3-.67-.41-1.51-.35-2.19-.74-.6-.08-1.21-.17-1.81-.25-.44-.22-.69-.57-.73-1.06.08-.48.29-.87.67-1.18,2.24-.53,4.22-.07,5.88,1.57.26.4.39.85.38,1.33-.1.21-.21.42-.31.64Z"/>
      <path class="cls-19" d="M23.24,120.97c-.35.29-.7.59-1.05.88-1.38-.93-2.75-1.86-4.13-2.79.33-.43.75-.71,1.28-.85,2-.07,3.69.3,3.9,2.76Z"/>
      <path class="cls-20" d="M11.58,113.05c-1.17-.7-1.78-1.83-2.26-3.05.39-.36.85-.53,1.38-.5,1.75.67,3.3,1.47,2.35,3.81-.51.04-.99-.05-1.46-.26Z"/>
      <path class="cls-46" d="M19.68,118.85c-.54.07-1.08.14-1.62.21-1.16-.8-2.62-1.28-3.02-2.87.17-.18.35-.36.52-.54,2.54-.43,3.77.82,4.12,3.21Z"/>
      <path class="cls-8" d="M162.97,172.79c.03-.46.05-.91.08-1.37,1.28.91,2.56,1.81,3.84,2.72-.31.26-.61.52-.92.78-1-.71-2.01-1.42-3.01-2.14Z"/>
      <path class="cls-1" d="M39.08,128.34c-.36.24-.72.49-1.09.73-1.27-.45-2.54-.89-3.81-1.34.34-.25.68-.51,1.02-.76,1.84-1.1,3.07-.45,3.88,1.37Z"/>
      <path class="cls-54" d="M68.11,138.73c.05-.31.05-.62,0-.93,1.7-1.45,3.29-1.04,4.83.27.34.4.51.87.53,1.4-.1.23-.2.47-.3.7-.63-.09-1.26-.17-1.88-.26-.66-.42-1.48-.37-2.17-.71-.33-.16-.66-.31-.99-.47Z"/>
      <path class="cls-72" d="M10.65,109.95c-.45.02-.89.03-1.34.05-.5-1-1-2-1.49-3-.11-.34-.04-.65.21-.91.32,0,.64-.02.96-.03,1.71.81,2.24,2.12,1.67,3.9Z"/>
      <path class="cls-68" d="M86.03,142.1c.01.3.02.6.02.9-.25.41-.57.46-.97.21-.61-.1-1.22-.2-1.82-.3-.64-.29-1.32-.55-1.6-1.29.05-.51.3-.89.74-1.14,1.64-.42,2.89.03,3.63,1.62Z"/>
      <path class="cls-44" d="M63.05,136.14c0,.31,0,.61,0,.92-1.47.15-2.78-.26-3.98-1.09-.34-.49-.29-.92.16-1.32,1.73-.67,3-.17,3.82,1.49Z"/>
      <path class="cls-53" d="M6.12,34.28c.01.32.02.64.01.96-1.46.09-2.79-.26-3.98-1.14,0-.27,0-.54,0-.81,1.32.33,2.65.65,3.97.98Z"/>
      <path class="cls-60" d="M16.05,37.34c-.31.28-.63.56-.94.84-.76-.13-1.65,0-1.97-1-.37-.16-.49-.31-.37-.47.12-.15.24-.23.37-.23.97.29,1.94.57,2.91.86Z"/>
      <path class="cls-44" d="M59.08,135.11c0,.29,0,.58,0,.86-1.16.14-2.2-.03-2.99-1-.32-.42-.3-.82.06-1.2,1.33-.33,2.33.08,2.93,1.34Z"/>
      <path class="cls-63" d="M56.07,134.21c-.01.26,0,.51.02.76-.91-.02-1.81-.05-2.72-.07-.45-.2-.7-.55-.75-1.04.03-.49.24-.88.64-1.16,1.31-.19,2.33.16,2.81,1.5Z"/>
      <path class="cls-45" d="M48.14,132.85c.01-.31,0-.62-.03-.93,1.22-1.06,2.29-.84,3.25.37.17.52.08.99-.26,1.42-.99-.29-1.97-.57-2.96-.86Z"/>
      <path class="cls-59" d="M178.02,188.83c-.33.33-.66.67-.99,1-.05-.61-.1-1.23-.15-1.84.24-.32.49-.63.73-.95.14.6.27,1.19.41,1.79Z"/>
      <path class="cls-25" d="M8.11,98.06c-.31.37-.62.74-.93,1.11.24-.7.49-1.41.73-2.11.4.15.56.35.49.6-.08.27-.18.4-.29.4Z"/>
      <path class="cls-25" d="M85.08,143.21c.32-.07.64-.14.97-.21.34.32.69.65,1.03.97-.67-.25-1.33-.51-2-.76Z"/>
      <path class="cls-25" d="M82.05,141.95c.4.32.8.64,1.21.96-.7-.24-1.4-.47-2.1-.71l-.15-.36c.39-.43.74-.42,1.05.1Z"/>
      <path class="cls-25" d="M77.09,141.17c.86-.13,1.62.02,2.19.74-.73-.25-1.46-.49-2.19-.74Z"/>
      <path class="cls-26" d="M8.11,98.06c-.07-.34-.13-.67-.2-1.01.18-.3.35-.59.53-.89.25.32.5.65.75.97.25.35.21.65-.14.9-.31.02-.62.02-.93.02Z"/>
      <path class="cls-25" d="M75.05,140.02c0,.32.07.62.22.9-.71-.25-1.41-.49-2.12-.74,0,0-.14-.35-.14-.35.73-.43,1.41-.42,2.04.19Z"/>
      <path class="cls-6" d="M13.13,36.48c0,.23,0,.47,0,.7-.65-.06-1.3-.12-1.94-.18-.01-.31-.02-.62-.03-.94.66.14,1.32.28,1.98.42Z"/>
      <path class="cls-24" d="M51.1,133.71c0-.21,0-.42-.02-.63.75-.68,1.42-.6,2.01.22,0,.21,0,.41.03.62-.24.37-.56.49-.98.36-.34-.19-.69-.38-1.03-.57Z"/>
      <path class="cls-25" d="M69.1,139.21c.84-.12,1.59.05,2.17.71-.72-.24-1.44-.48-2.17-.71Z"/>
      <path class="cls-25" d="M52.13,134.28c.33-.12.65-.24.98-.36.09.33.17.66.26.98-.41-.21-.83-.42-1.24-.62Z"/>
      <path class="cls-23" d="M15.05,116.19c-.59-.15-1.08-.39-.92-1.15.21-.05.41-.1.62-.16.39.22.59.56.63,1.01l-.26.05-.08.25Z"/>
      <path class="cls-37" d="M14.13,115.04c-.74.15-1.04-.22-1.1-.9.22-.09.43-.19.65-.28.43.28.6.66.46,1.17l-.02.02Z"/>
      <path class="cls-32" d="M11.58,113.05c.46.02.92.04,1.38.07.28.11.41.27.41.48,0,.23-.05.35-.12.35,0,0-.21.19-.21.19-.49-.36-.97-.72-1.46-1.09Z"/>
      <path class="cls-49" d="M20.92,80.02c-.38,0-.76.02-1.15.02.31-.53.59-1.1,1.38-.93.07.18.13.36.2.54-.14.12-.29.25-.43.37Z"/>
      <path class="cls-25" d="M8.03,106.08c-.1.3-.17.6-.21.91-.19-.42-.39-.84-.58-1.26.26.12.52.24.79.34Z"/>
      <path class="cls-28" d="M21.15,79.11c-.2-.73.26-1.07.82-1.35,0,.3.15.44.45.43-.15.74-.42,1.31-1.34.84l.07.07Z"/>
      <path class="cls-50" d="M116.01,96.95c2-.22,4-.44,6-.66.38.17.51.33.37.49-.13.16-.26.24-.39.24-3.87,1.45-7.88,2-11.99,1.92,0-.24-.02-.49-.04-.73,1.41-.36,2.82-.71,4.23-1.07.55-.59,1.16-.68,1.82-.19Z"/>
      <path class="cls-85" d="M123.99,96.11c.99-.4,1.98-.81,2.97-1.21,1.03-1.36,2.29-1.95,3.95-1.14.41.41.44.85.08,1.31-2.12,1.42-4.62,1.42-7,1.85-.36-.18-.48-.36-.36-.54.12-.18.24-.26.37-.26Z"/>
      <path class="cls-73" d="M130.99,95.06c0-.27,0-.54,0-.81.07-.38.27-.67.58-.89.34-.16.69-.24,1.07-.23.18.03.36.06.55.1.6,0,1.2-.02,1.8-.03,0,.28,0,.56,0,.85-1.19.9-2.52,1.25-4,1.01Z"/>
      <path class="cls-62" d="M123.99,96.11c0,.27,0,.54,0,.81-.67.04-1.33.07-2,.11.01-.24.02-.49.01-.73.66-.06,1.33-.12,1.99-.18Z"/>
      <path class="cls-79" d="M140.9,91.41c.7-.1,1.39-.21,2.09-.31-.01.24-.02.49-.02.73-.66.07-1.33.14-1.99.21.02-.22,0-.43-.07-.64Z"/>
      <path class="cls-29" d="M15.77,30.18c.37.99.74,1.99,1.11,2.98-.25.53-.51.53-.77,0-.84-.41-.95-1.17-.98-1.98.22-.34.43-.67.65-1.01Z"/>
      <path class="cls-31" d="M16.1,33.17c.26,0,.52,0,.77,0,.1.31.2.62.3.94-.26.31-.51.61-.77.92-.1-.61-.21-1.23-.31-1.84Z"/>
      <path class="cls-25" d="M21.08,79.05c.77.23,1.07-.28,1.34-.84,2.84-2.15,5.1-4.82,7.04-7.78,2.09-.68,2.58-6.4,6.28-1.99,1.27,2.31,2.9,4.31,5.12,5.77.21.57.49,1.04,1.22.92-.09.73.26,1.04.96,1.03-.02.7.31,1.03,1.01.98-.05.71.32,1.01,1,1,.33.46.65.92.98,1.38,2.45,2.87,5.32,5.2,8.73,6.85,1.06.75,2.12,1.5,3.19,2.26,5.87,3.94,12.32,6.55,19.15,8.27.68-.36,1.35-.47,1.96.14,2.85,1.38,5.92,1.68,9.02,1.85,2.5.06,4.21.37,4.14,3.83-.27,13.41-.17,26.82-.2,40.23-2.11.54-3.95-.82-5.98-.84-1.33-.33-2.65-.66-3.98-.99-.36.34-.7.31-1-.08-2-.58-4-1.17-6-1.75-.7.23-1.38.35-1.99-.22-1.5-1.02-3.21-1.23-4.97-1.24-1.45-1.25-3.3-1.3-5.05-1.66-1.32-.34-2.65-.69-3.97-1.03-1-.3-2.01-.6-3.01-.9-1-.3-1.99-.6-2.99-.9-.67-.07-1.34-.15-2.01-.22-.67-1.21-1.85-1.09-2.97-1.16-2.77-1.81-6.01-2.42-9.03-3.59-1.29-.46-2.58-.91-3.88-1.37-3.99-2-7.97-4-11.96-6-1.19-.71-2.37-1.41-3.56-2.12-1.38-1.07-2.48-2.55-4.3-2.96-.2-.59-.52-1.01-1.23-.87.12-.71-.21-1.05-.9-1.08.13-.36.03-.63-.29-.83-.77-1.05-1.54-2.11-2.3-3.16-.56-1.3-1.11-2.6-1.67-3.9-.73-2.67-.4-5.34.06-8.01.15-.28.2-.59.14-.9,2.26-3.69,4.52-7.38,6.77-11.08,1.65-2.01,3.3-4.03,4.95-6.04.09-.21.2-.41.25-.63.03-.1-.06-.23-.09-.35Z"/>
      <path class="cls-25" d="M132.03,93.77c-.35.16-.69.33-1.04.49-1.34.21-2.69.43-4.03.64-1.72-1.3-3.48-2.38-5.74-2.57-1.77-.15-1.55-1.89-1.74-3.07-.16-.97,1.05-1.7,1.61-1.44,3.99,1.9,9.05,1.45,12.1,5.41,0,0,0-.05,0-.05-.39.19-.77.38-1.15.59Z"/>
      <path class="cls-25" d="M116.01,96.95c-.61.06-1.21.12-1.82.19-1.21-.17-1.94-.64-.86-1.82.6-.65,1.29-1.94,2.25-1.15.54.44.31,1.82.43,2.78Z"/>
      <path class="cls-67" d="M79.06,97.03c-.65-.05-1.31-.1-1.96-.14,0-.31,0-.63,0-.94.68.1,1.35.19,2.03.29-.04.26-.06.53-.06.79Z"/>
      <path class="cls-56" d="M33.6,62.85c-2.69-1.99-3.71-5.22-5.73-7.71-2.15-4.74-5.56-8.86-6.78-14.04,1.85.74,3.7,1.49,5.55,2.23,1.12.75,2.24,1.51,3.36,2.26,1.31,1.31,2.62,2.63,3.93,3.94,1.09,2.76,2.35,5.49,1.44,8.59-.32,1.01-.64,2.03-.96,3.04-.21.56-.43,1.13-.64,1.69,0,0-.16-.02-.16-.02Z"/>
      <path class="cls-74" d="M21.14,41.17c-.35,0-.69-.01-1.04-.02.34-.37.69-.74,1.03-1.12,0,.38,0,.76,0,1.14Z"/>
      <path class="cls-10" d="M73.07,139.05c.66.07,1.33.15,1.99.22,0,.25,0,.5,0,.75-.68-.06-1.36-.13-2.04-.19.04-.26.06-.52.05-.78Z"/>
      <path class="cls-17" d="M81.05,141.03c.33.03.67.05,1,.08,0,.28,0,.56,0,.84-.35-.03-.7-.07-1.05-.1.04-.27.06-.55.05-.82Z"/>
      <path class="cls-25" d="M132.03,93.77c.38-.2.77-.39,1.15-.59-.38.2-.77.39-1.15.59Z"/>
    </g>
  </g>
</svg>